<svg width="30" height="14" viewBox="0 0 30 14" fill="none" xmlns="http://www.w3.org/2000/svg">
<path opacity="0.3" fill-rule="evenodd" clip-rule="evenodd" d="M7 0C3.13401 0 0 3.13401 0 7C0 10.866 3.13401 14 7 14H23C26.866 14 30 10.866 30 7C30 3.13401 26.866 0 23 0H7ZM9.06641 3.85547C9.36719 4.07422 9.51758 4.42383 9.51758 4.9043C9.51758 5.4668 9.36719 5.87305 9.06641 6.12305C8.76953 6.37305 8.30469 6.49805 7.67188 6.49805H6.38867V3.52734H7.60156C8.27734 3.52734 8.76562 3.63672 9.06641 3.85547ZM9.55859 7.41211C9.92578 7.66602 10.1094 8.06836 10.1094 8.61914C10.1094 9.2168 9.94336 9.6582 9.61133 9.94336C9.2793 10.2246 8.7793 10.3652 8.11133 10.3652C7.50195 10.3652 6.92773 10.3535 6.38867 10.3301V7.02539H7.79492C8.60352 7.02539 9.19141 7.1543 9.55859 7.41211ZM4.25 10.5469V10.8574H5.75L8.25781 10.8926C9.25781 10.8926 10.0176 10.6992 10.5371 10.3125C11.0605 9.92188 11.3223 9.34961 11.3223 8.5957C11.3223 8.06445 11.1289 7.63086 10.7422 7.29492C10.3555 6.95508 9.80859 6.74805 9.10156 6.67383C9.61328 6.56445 10.0098 6.34766 10.291 6.02344C10.5762 5.69922 10.7188 5.30664 10.7188 4.8457C10.7188 4.20508 10.4883 3.73828 10.0273 3.44531C9.56641 3.14844 8.83789 3 7.8418 3H4.25V3.31055L5.25781 3.46289V10.3887L4.25 10.5469ZM13.4316 8.19141V8.08594H16.8184V7.60547C16.8184 6.00391 16.1133 5.20312 14.7031 5.20312C13.957 5.20312 13.3828 5.43945 12.9805 5.91211C12.5781 6.38477 12.377 7.10156 12.377 8.0625C12.377 9.08203 12.5742 9.82227 12.9688 10.2832C13.3672 10.7441 13.9941 10.9746 14.8496 10.9746C15.1855 10.9746 15.5137 10.9297 15.834 10.8398C16.1582 10.75 16.4141 10.6445 16.6016 10.5234V10.1953C16.4141 10.2383 16.1758 10.2773 15.8867 10.3125C15.5977 10.3477 15.3477 10.3652 15.1367 10.3652C14.7344 10.3652 14.4082 10.2871 14.1582 10.1309C13.9121 9.97461 13.7285 9.74805 13.6074 9.45117C13.4902 9.15039 13.4316 8.73047 13.4316 8.19141ZM13.7656 6.16406C13.9844 5.83594 14.2969 5.67188 14.7031 5.67188C15.0742 5.67188 15.3496 5.82227 15.5293 6.12305C15.709 6.41992 15.7988 6.91797 15.7988 7.61719H13.4434C13.4434 6.97656 13.5508 6.49219 13.7656 6.16406ZM19.1973 10.9746C18.8223 10.9746 18.541 10.8633 18.3535 10.6406C18.1699 10.418 18.0781 10.1055 18.0781 9.70312V5.8418H17.3574V5.57812L18.0898 5.34961L18.6816 4.10156H19.0508V5.34961H20.3105V5.8418H19.0508V9.59766C19.0508 9.85156 19.1074 10.043 19.2207 10.1719C19.3379 10.3008 19.4902 10.3652 19.6777 10.3652C19.9043 10.3652 20.1797 10.334 20.5039 10.2715V10.6523C20.3672 10.7461 20.1699 10.8223 19.9121 10.8809C19.6543 10.9434 19.416 10.9746 19.1973 10.9746ZM24.6289 5.5957C24.3477 5.34961 23.9062 5.22656 23.3047 5.22656C22.8242 5.22656 22.2676 5.29492 21.6348 5.43164V6.63281H21.9629L22.1621 5.94727C22.4863 5.76367 22.8438 5.67188 23.2344 5.67188C23.5234 5.67188 23.7363 5.76172 23.873 5.94141C24.0137 6.12109 24.084 6.40039 24.084 6.7793V7.64062L23.2578 7.66406C22.6641 7.67578 22.2109 7.74609 21.8984 7.875C21.5859 8 21.3574 8.18359 21.2129 8.42578C21.0723 8.66406 21.002 8.9668 21.002 9.33398C21.002 10.4277 21.4727 10.9746 22.4141 10.9746C23.1055 10.9746 23.6738 10.752 24.1191 10.3066L24.2305 10.8574H25.7422V10.5938L25.0566 10.4473V6.72656C25.0566 6.21875 24.9141 5.8418 24.6289 5.5957ZM23.3164 8.07422L24.084 8.05078V10.0078C23.8887 10.1016 23.6934 10.1797 23.498 10.2422C23.3066 10.3008 23.0781 10.3301 22.8125 10.3301C22.2539 10.3301 21.9746 9.98633 21.9746 9.29883C21.9746 8.86914 22.0664 8.5625 22.25 8.37891C22.4375 8.19531 22.793 8.09375 23.3164 8.07422Z" fill="#191C1F"/>
</svg>
