<svg width="25" height="25" viewBox="0 0 25 25" fill="none" xmlns="http://www.w3.org/2000/svg">
<path d="M19.6518 5.51479C18.2668 4.86674 16.8016 4.40626 15.2949 4.14551C15.0896 4.52222 14.9034 4.90903 14.737 5.30447C13.1367 5.06018 11.5087 5.06018 9.90841 5.30447C9.74005 4.90858 9.55118 4.52174 9.34257 4.14551C7.83433 4.40641 6.36783 4.86811 4.98217 5.51831C2.51665 9.09508 1.40599 13.4332 1.84937 17.7547C3.45887 18.97 5.26713 19.8966 7.19361 20.4933C7.6265 19.8977 8.00915 19.2672 8.33761 18.6083C7.71187 18.3692 7.10873 18.0747 6.53537 17.7283C6.68673 17.6165 6.83457 17.4995 6.97537 17.3763C8.64213 18.1784 10.4681 18.5949 12.3178 18.5949C14.1676 18.5949 15.9936 18.1784 17.6603 17.3763C17.8046 17.4969 17.9525 17.6139 18.1003 17.7283C17.5259 18.075 16.9216 18.3695 16.2946 18.6083C16.6228 19.2674 17.0055 19.8979 17.4386 20.4933C19.369 19.8984 21.1811 18.9717 22.7934 17.7547C23.2367 13.4308 22.1227 9.09066 19.6518 5.51479ZM8.81281 15.2907C8.27626 15.2518 7.77648 15.0037 7.42123 14.5997C7.06598 14.1957 6.88373 13.6683 6.91377 13.1312C6.87998 12.5929 7.06084 12.0632 7.41676 11.6579C7.77268 11.2527 8.27466 11.005 8.81281 10.969C9.07988 10.9849 9.34117 11.0536 9.58154 11.171C9.82191 11.2885 10.0366 11.4525 10.2132 11.6535C10.3898 11.8545 10.5248 12.0885 10.6104 12.342C10.696 12.5955 10.7305 12.8634 10.7118 13.1303C10.7459 13.6685 10.565 14.1981 10.209 14.6032C9.853 15.0082 9.35089 15.2554 8.81281 15.2907ZM15.8299 15.2907C15.2934 15.2518 14.7936 15.0037 14.4384 14.5997C14.0831 14.1957 13.9009 13.6683 13.9309 13.1312C13.8973 12.593 14.0783 12.0635 14.4342 11.6585C14.7901 11.2534 15.2919 11.0059 15.8299 10.9699C16.097 10.9858 16.3583 11.0544 16.5987 11.1719C16.839 11.2894 17.0537 11.4534 17.2303 11.6544C17.4069 11.8554 17.5419 12.0894 17.6275 12.3429C17.7131 12.5963 17.7476 12.8643 17.729 13.1312C17.7623 13.6691 17.5812 14.1983 17.2253 14.603C16.8694 15.0077 16.3677 15.255 15.8299 15.2907Z" fill="#4B4B55"/>
</svg>
