<svg width="148" height="33" viewBox="0 0 148 33" fill="none" xmlns="http://www.w3.org/2000/svg">
<mask id="mask0_2612_19265" style="mask-type:alpha" maskUnits="userSpaceOnUse" x="0" y="0" width="148" height="33">
<rect width="148" height="33" fill="#D9D9D9"/>
</mask>
<g mask="url(#mask0_2612_19265)">
<path d="M57.0863 14.8767V22.9936H54.1548V20.8777H42.2617V18.5197H46.5139V16.2928H49.4454V18.5197H54.1582V6.58824H57.0897V12.5153H59.2158V14.8733H57.0897L57.0863 14.8767ZM51.551 9.2692C52.3563 10.0362 52.759 10.9242 52.759 11.93C52.759 12.7608 52.5236 13.4773 52.0492 14.0828C51.5783 14.6883 50.9879 15.1256 50.2883 15.3947C49.5853 15.6672 48.8208 15.8017 47.9916 15.8017C47.1623 15.8017 46.3944 15.6638 45.6948 15.388C44.9918 15.1121 44.4049 14.6715 43.9339 14.066C43.463 13.4605 43.2241 12.7507 43.2241 11.9333C43.2241 10.9141 43.6268 10.0261 44.4322 9.27256H43.0535V6.91453H46.5787V5.82129H49.4897V6.91453H52.974V9.27256H51.5578L51.551 9.2692ZM49.2713 10.7123C48.8891 10.4163 48.4625 10.2683 47.9984 10.2683C47.5343 10.2683 47.1077 10.4163 46.7255 10.7123C46.3433 11.0083 46.1521 11.412 46.1521 11.93C46.1521 12.448 46.3433 12.8281 46.7255 13.1107C47.1077 13.3932 47.5343 13.5345 47.9984 13.5345C48.4625 13.5345 48.8891 13.3932 49.2713 13.1107C49.6535 12.8281 49.8446 12.4346 49.8446 11.93C49.8446 11.4254 49.6535 11.0083 49.2713 10.7123Z" fill="#1D1D1B"/>
<path d="M72.1611 18.6516V15.6881H70.0555V14.1979C69.6733 14.9918 69.0931 15.6108 68.3116 16.0581C67.5336 16.5055 66.7111 16.7343 65.8511 16.7477C64.9877 16.7612 64.1584 16.63 63.3599 16.3508C62.5613 16.075 61.9027 15.5906 61.3771 14.8976C60.855 14.2047 60.5922 13.4007 60.5922 12.4824C60.5922 11.2479 61.1212 10.1916 62.1825 9.31033H60.5547V6.95229H64.0595V5.83887H66.991V6.95229H70.6869V9.2565H72.1611V6.63273H75.0721V18.6584H72.1611V18.6516ZM63.4486 23.0111C62.7456 23.0111 62.1518 22.7891 61.6672 22.3417C61.1826 21.8944 60.9403 21.3461 60.9403 20.6901V17.1413H63.8308V20.6531H75.0721V23.0111H63.4486ZM65.544 10.5516C65.015 10.5516 64.5304 10.7198 64.097 11.0595C63.6636 11.3993 63.4452 11.8702 63.4452 12.4757C63.4452 13.0812 63.6636 13.5319 64.097 13.8717C64.5304 14.2114 65.0116 14.3796 65.544 14.3796C66.0764 14.3796 66.5541 14.2114 66.991 13.8717C67.4244 13.5319 67.6428 13.0677 67.6428 12.4757C67.6428 11.8836 67.4244 11.4161 66.991 11.0696C66.5575 10.7231 66.0764 10.5516 65.544 10.5516ZM70.0555 9.3036H68.8884C69.4105 9.75771 69.7996 10.2421 70.0555 10.7568V9.3036ZM72.1611 11.6246H70.3797C70.5469 12.1528 70.5469 12.7179 70.3797 13.3234H72.1611V11.6246Z" fill="#1D1D1B"/>
<path d="M92.0399 13.1209V18.6341H89.1084V16.5587H81.2934V20.6558H92.0364V23.034H80.9283C80.2253 23.034 79.628 22.8053 79.1366 22.3444C78.6452 21.8836 78.3995 21.3353 78.3995 20.6928V16.5587H77.1914V14.2006H79.6042V10.8772H82.5151V14.2006H84.085C84.5832 13.0435 84.8323 11.338 84.8323 9.08427H77.9763V6.72288H87.7638V7.96749C87.7775 8.81181 87.7229 9.85459 87.6 11.1026C87.4771 12.3472 87.2894 13.3799 87.0335 14.1973H89.1016V6.64551H92.033V10.7426H94.1386V13.1209H92.033H92.0399Z" fill="#1D1D1B"/>
<path d="M109.947 12.5146V16.6117H108.838C109.298 17.2542 109.568 17.9304 109.65 18.6401C109.732 19.3499 109.64 20.0126 109.373 20.6214C109.104 21.2303 108.721 21.7853 108.223 22.2831C107.725 22.781 107.114 23.1745 106.394 23.4638C105.674 23.7531 104.916 23.8978 104.125 23.8978C103.258 23.8978 102.439 23.7296 101.674 23.3966C100.907 23.0635 100.282 22.6161 99.7974 22.0578C99.3128 21.4994 98.9579 20.8804 98.7361 20.2077C98.5143 19.5349 98.5006 18.8251 98.6985 18.075C98.8965 17.3249 99.3094 16.6386 99.9339 16.0062H95.1289V13.6482H97.5041V10.6847H100.415V13.6482H102.159C102.388 13.1571 102.558 12.5146 102.667 11.7241C102.777 10.9303 102.824 10.318 102.811 9.8841C102.797 9.45017 102.797 9.1777 102.811 9.06333H95.9172V6.7053H105.742C105.729 7.53616 105.735 8.3132 105.763 9.03642C105.79 9.75964 105.746 10.54 105.64 11.3776C105.531 12.2152 105.35 12.9721 105.094 13.6516H107.029V6.62793H109.96V10.1398H112.086V12.518H109.96L109.947 12.5146ZM106.729 19.1312C106.729 18.5325 106.5 17.9875 106.039 17.4998C105.578 17.012 104.94 16.7631 104.125 16.7631C103.309 16.7631 102.671 17.0087 102.21 17.4998C101.749 17.9909 101.524 18.5358 101.531 19.1312C101.538 19.73 101.77 20.2716 102.231 20.7627C102.691 21.2538 103.323 21.4994 104.128 21.4994C104.933 21.4994 105.568 21.2538 106.032 20.7627C106.5 20.2716 106.732 19.7266 106.732 19.1312H106.729Z" fill="#1D1D1B"/>
<path d="M120.725 9.47849C120.649 12.2604 120.219 14.356 119.441 15.7655C118.278 17.8678 116.083 19.1831 112.852 19.7112V17.3902C114.551 17 115.8 16.2263 116.605 15.0692C117.411 13.912 117.814 12.516 117.814 10.8778V9.06474H113.657V6.72353H120.762C120.762 7.93114 120.748 8.84946 120.725 9.47849ZM125.301 23.0515V14.8202H124.496V23.0515H121.66V6.62598H124.496V12.4588H125.301V6.62598H128.174V23.0481H125.301V23.0515Z" fill="#1D1D1B"/>
<path d="M133.388 14.6111C132.62 14.6111 132.009 14.3824 131.549 13.9216C131.088 13.4607 130.859 12.9124 130.859 12.2699V6.7398H133.77V8.13579H137.429V6.7398H140.34V14.6111H133.388ZM133.617 23.0308C132.876 23.0308 132.3 22.8357 131.883 22.4455C131.467 22.0553 131.262 21.5473 131.262 20.9183V18.049H142.005V17.5007H131.262V15.2738H144.899V20.2758H134.194V20.7871H144.899V23.0341H133.62L133.617 23.0308ZM137.429 10.4198H133.77V12.2901H137.429V10.4198ZM144.899 11.5131V14.7221H141.988V6.62207H144.899V9.15166H147.005V11.5097H144.899V11.5131Z" fill="#1D1D1B"/>
<path d="M46.0102 31.104H45.0683V29.0689H43.1538V31.104H42.2188V26.4014H43.1538V28.2279H45.0683V26.4014H46.0102V31.104Z" fill="#9D9D9C"/>
<path d="M51.9703 26.4014L50.9158 31.104H49.892L49.1822 27.9857L48.4553 31.104H47.4315L46.3906 26.4014H47.2711L47.9536 29.6575L48.6703 26.4081H49.6702L50.4176 29.6575L51.0762 26.4014H51.9737H51.9703Z" fill="#9D9D9C"/>
<path d="M56.5163 31.1048H55.5607L55.1478 30.0587H53.2879L52.8784 31.1048H51.9297L53.7077 26.3955H54.7247L56.5129 31.1048H56.5163ZM54.8202 29.2177L54.223 27.5089L53.619 29.2177H54.8168H54.8202Z" fill="#9D9D9C"/>
<path d="M60.686 31.104H59.7441V29.0689H57.8296V31.104H56.8945V26.4014H57.8296V28.2279H59.7441V26.4014H60.686V31.104Z" fill="#9D9D9C"/>
<path d="M65.2942 26.4008L63.6493 29.4081V31.1034H62.721V29.4316L61.0625 26.3975H62.1034L63.1783 28.4023L64.2465 26.3975H65.2942V26.4008Z" fill="#9D9D9C"/>
<path d="M69.4463 29.5931C69.4463 29.9429 69.3541 30.249 69.1664 30.5047C68.9787 30.7637 68.7467 30.9487 68.4668 31.0664C68.187 31.1808 67.8833 31.2414 67.5591 31.2414C67.2349 31.2414 66.9311 31.1875 66.6513 31.0698C66.3715 30.9554 66.136 30.7671 65.9517 30.508C65.764 30.249 65.6719 29.9429 65.6719 29.5897V26.3975H66.6069V29.3744C66.6069 29.5998 66.6547 29.7983 66.7469 29.9665C66.8424 30.1347 66.9584 30.2558 67.0984 30.3298C67.2383 30.4038 67.3919 30.4408 67.5557 30.4408C67.7195 30.4408 67.873 30.4038 68.013 30.3264C68.1529 30.249 68.2689 30.1279 68.3645 29.9597C68.46 29.7916 68.5044 29.5964 68.5044 29.3744V26.3975H69.4394V29.5897L69.4463 29.5931Z" fill="#9D9D9C"/>
<path d="M73.9105 31.104H72.8253L70.9995 27.831V31.104H70.0781V26.4014H71.1463L72.9925 29.6441V26.4014H73.9174V31.104H73.9105Z" fill="#9D9D9C"/>
<path d="M80.6383 27.2283H79.2322V31.1034H78.304V27.2283H76.9219V26.3975H80.6383V27.2283Z" fill="#9D9D9C"/>
<path d="M83.3399 30.9835C83.0601 31.1719 82.7359 31.2661 82.3571 31.2661C81.9783 31.2661 81.6541 31.1719 81.3743 30.9835C81.0944 30.7951 80.8931 30.563 80.7702 30.2805C80.6474 30.0013 80.5859 29.6952 80.5859 29.3689C80.5859 29.0426 80.6474 28.7365 80.7736 28.4573C80.8999 28.1781 81.1012 27.9426 81.3811 27.7542C81.6609 27.5659 81.9885 27.4717 82.3639 27.4717C82.7393 27.4717 83.0669 27.5659 83.3434 27.7542C83.6198 27.9426 83.8211 28.1747 83.9474 28.4573C84.0737 28.7398 84.1351 29.0426 84.1351 29.3689C84.1351 29.6952 84.0737 30.0013 83.9474 30.2805C83.8211 30.5597 83.6198 30.7951 83.3399 30.9835ZM82.9031 28.5279C82.7564 28.3833 82.5755 28.3093 82.3571 28.3093C82.1387 28.3093 81.9578 28.3833 81.8111 28.5279C81.6643 28.6759 81.5756 28.8542 81.5415 29.0628C81.5073 29.2713 81.5073 29.4832 81.5415 29.6918C81.5756 29.9004 81.6643 30.0786 81.8145 30.2233C81.9646 30.3679 82.1455 30.4419 82.3571 30.4419C82.5687 30.4419 82.753 30.3679 82.8997 30.2233C83.0499 30.0753 83.1386 29.9004 83.1727 29.6918C83.2069 29.4832 83.2069 29.2747 83.1727 29.0628C83.1386 28.8542 83.0499 28.6726 82.9031 28.5279Z" fill="#9D9D9C"/>
<path d="M87.8076 31.1035H86.8827V30.8378C86.6985 31.0194 86.4766 31.1371 86.2139 31.1876C85.9511 31.2381 85.7054 31.228 85.4767 31.1573C85.2481 31.0833 85.0501 30.942 84.8863 30.7335C84.7225 30.5249 84.6406 30.2693 84.6406 29.9733V27.6455H85.5655V29.5999C85.5655 29.7815 85.5962 29.9363 85.6644 30.0607C85.7293 30.1886 85.8112 30.276 85.9101 30.3231C86.0091 30.3736 86.1149 30.3937 86.2275 30.3837C86.3401 30.3736 86.4459 30.3399 86.5449 30.2726C86.6439 30.2054 86.7258 30.1078 86.7906 29.9766C86.8554 29.8454 86.8896 29.6941 86.8896 29.5259V27.6455H87.8144V31.1035H87.8076Z" fill="#9D9D9C"/>
<path d="M90.5226 27.477V28.3751C90.1677 28.3751 89.8845 28.466 89.6763 28.651C89.4681 28.836 89.3623 29.0984 89.3623 29.4448V31.1032H88.4375V27.6486H89.3623V27.9513C89.6524 27.6418 90.038 27.4837 90.5226 27.4736V27.477Z" fill="#9D9D9C"/>
<path d="M92.0811 27.2492H91.1562V26.3779H92.0811V27.2492ZM92.0811 31.1041H91.1562V27.6696H92.0811V31.1041Z" fill="#9D9D9C"/>
<path d="M96.0422 30.1081C96.0285 30.357 95.9398 30.5689 95.7726 30.7505C95.6054 30.9322 95.4006 31.0634 95.1583 31.1475C94.916 31.2282 94.6532 31.2686 94.3734 31.2618C94.0936 31.2551 93.8342 31.2047 93.5919 31.1138C93.3496 31.0197 93.1483 30.875 92.981 30.6698C92.8172 30.468 92.7285 30.2258 92.7148 29.9466H93.6124C93.626 30.0811 93.684 30.1955 93.7864 30.2863C93.8888 30.3772 94.0116 30.4343 94.1516 30.4545C94.2915 30.4747 94.4314 30.4781 94.5679 30.468C94.7078 30.4545 94.8239 30.4175 94.9262 30.357C95.0252 30.2964 95.0832 30.2224 95.0969 30.135C95.1105 30.0307 95.0593 29.9466 94.9501 29.8827C94.8375 29.8154 94.6942 29.7683 94.5167 29.738C94.3393 29.7078 94.1481 29.664 93.9434 29.6102C93.7386 29.5564 93.5475 29.4925 93.3769 29.4218C93.2028 29.3512 93.0629 29.2368 92.9571 29.0787C92.8513 28.924 92.807 28.7323 92.8275 28.5102C92.8479 28.2849 92.9401 28.0864 93.1039 27.9216C93.2677 27.7567 93.4656 27.639 93.6977 27.565C93.9297 27.4944 94.1789 27.4607 94.4451 27.4641C94.7112 27.4708 94.957 27.5146 95.1788 27.602C95.404 27.6861 95.5883 27.8207 95.7316 28.0023C95.875 28.184 95.9466 28.3992 95.9432 28.6448H95.0627C95.0662 28.4833 94.9638 28.3656 94.7556 28.2849C94.5474 28.2075 94.3324 28.1907 94.114 28.2378C93.8922 28.2849 93.7728 28.3757 93.7523 28.5136C93.7386 28.6078 93.7864 28.6885 93.8956 28.7558C94.0048 28.8231 94.1482 28.8702 94.3222 28.9038C94.4997 28.9374 94.6873 28.9812 94.8921 29.0384C95.0969 29.0955 95.288 29.1595 95.462 29.2335C95.6395 29.3041 95.7828 29.4151 95.8954 29.5665C96.008 29.7179 96.0592 29.8995 96.0456 30.1081H96.0422Z" fill="#9D9D9C"/>
<path d="M101.308 31.1037H100.387V29.0719C100.387 28.8129 100.335 28.6178 100.233 28.49C100.131 28.3622 100.018 28.3083 99.8952 28.3285C99.7723 28.3487 99.6597 28.4328 99.5573 28.5808C99.4549 28.7288 99.4038 28.9172 99.4038 29.1426V31.0969H98.4926V29.0652C98.4926 28.897 98.4687 28.7524 98.4175 28.6346C98.3663 28.5169 98.3049 28.4362 98.2298 28.3857C98.1547 28.3386 98.0728 28.3184 97.9841 28.3285C97.8954 28.3386 97.8135 28.3722 97.7384 28.4294C97.6633 28.49 97.5985 28.5808 97.5507 28.7086C97.4995 28.8365 97.4756 28.9777 97.4756 29.1392V31.0936H96.5508V27.6356H97.4756V27.8946C97.6224 27.7331 97.81 27.6221 98.0387 27.5616C98.2673 27.501 98.4926 27.5044 98.7144 27.575C98.9362 27.6457 99.1 27.7735 99.2092 27.9652C99.3833 27.7499 99.5949 27.612 99.844 27.5481C100.09 27.4842 100.322 27.4876 100.537 27.5616C100.752 27.6322 100.936 27.7735 101.09 27.982C101.243 28.1906 101.318 28.4362 101.318 28.7221C101.318 29.0652 101.318 29.3949 101.318 29.7077C101.318 30.0239 101.318 30.4881 101.318 31.0969L101.308 31.1037Z" fill="#9D9D9C"/>
<path d="M106.279 31.104H104.457V26.4014H106.279C106.593 26.4014 106.883 26.4552 107.15 26.5628C107.416 26.6705 107.634 26.8151 107.801 26.9968C107.972 27.1784 108.115 27.387 108.231 27.6224C108.347 27.8579 108.419 28.1068 108.446 28.3658C108.47 28.6248 108.47 28.8872 108.446 29.1462C108.419 29.4053 108.347 29.6542 108.228 29.8896C108.109 30.1251 107.965 30.3337 107.795 30.5153C107.624 30.697 107.409 30.8416 107.15 30.9492C106.887 31.0569 106.6 31.1107 106.286 31.1107L106.279 31.104ZM106.146 27.2356H105.382V30.2765H106.146C106.436 30.2765 106.685 30.1991 106.897 30.0511C107.109 29.8997 107.262 29.7114 107.358 29.4894C107.453 29.264 107.505 29.0218 107.505 28.7594C107.505 28.497 107.46 28.2548 107.368 28.0295C107.272 27.8041 107.119 27.6157 106.907 27.4643C106.696 27.313 106.44 27.239 106.146 27.239V27.2356Z" fill="#9D9D9C"/>
<path d="M112.374 29.6617H109.801C109.852 29.9443 109.975 30.1529 110.173 30.2975C110.371 30.4388 110.579 30.4892 110.804 30.4421C111.029 30.3984 111.203 30.2706 111.333 30.0654H112.295C112.196 30.358 112.039 30.6036 111.824 30.8021C111.609 31.0005 111.377 31.1351 111.128 31.2057C110.876 31.2764 110.616 31.2898 110.343 31.2427C110.07 31.199 109.825 31.1014 109.61 30.9501C109.391 30.8021 109.21 30.5868 109.07 30.3076C108.927 30.025 108.855 29.7055 108.855 29.3422C108.855 29.0462 108.91 28.7737 109.016 28.5315C109.122 28.2893 109.262 28.0908 109.436 27.9361C109.61 27.7847 109.804 27.667 110.023 27.5863C110.241 27.5055 110.463 27.4685 110.691 27.4719C110.92 27.4753 111.139 27.5257 111.35 27.6199C111.562 27.7141 111.749 27.8486 111.91 28.0236C112.07 28.1951 112.196 28.4238 112.282 28.7064C112.371 28.989 112.401 29.3085 112.377 29.6617H112.374ZM111.412 28.9183C111.36 28.7199 111.261 28.5651 111.108 28.4541C110.954 28.3431 110.794 28.2893 110.623 28.2893C110.453 28.2893 110.292 28.3465 110.135 28.4575C109.982 28.5685 109.872 28.7199 109.814 28.9183H111.408H111.412Z" fill="#9D9D9C"/>
<path d="M116.027 27.6455L114.778 31.1035H113.768L112.512 27.6455H113.491L114.269 29.9228L115.054 27.6455H116.027Z" fill="#9D9D9C"/>
<path d="M119.674 29.6617H117.101C117.152 29.9443 117.275 30.1529 117.473 30.2975C117.671 30.4388 117.879 30.4892 118.104 30.4421C118.33 30.3984 118.504 30.2706 118.633 30.0654H119.592C119.493 30.358 119.336 30.6036 119.121 30.8021C118.906 31.0005 118.674 31.1351 118.425 31.2057C118.173 31.2764 117.913 31.2898 117.64 31.2427C117.367 31.199 117.122 31.1014 116.907 30.9501C116.688 30.8021 116.507 30.5868 116.367 30.3076C116.224 30.025 116.152 29.7055 116.152 29.3422C116.152 29.0462 116.207 28.7737 116.313 28.5315C116.419 28.2893 116.558 28.0908 116.732 27.9361C116.907 27.7847 117.101 27.667 117.319 27.5863C117.538 27.5055 117.76 27.4685 117.988 27.4719C118.217 27.4753 118.435 27.5257 118.647 27.6199C118.859 27.7141 119.046 27.8486 119.207 28.0236C119.367 28.1951 119.493 28.4238 119.579 28.7064C119.667 28.989 119.698 29.3085 119.674 29.6617ZM118.715 28.9183C118.664 28.7199 118.565 28.5651 118.412 28.4541C118.258 28.3431 118.098 28.2893 117.927 28.2893C117.756 28.2893 117.596 28.3465 117.439 28.4575C117.285 28.5685 117.176 28.7199 117.118 28.9183H118.712H118.715Z" fill="#9D9D9C"/>
<path d="M121.245 31.104H120.32V26.4014H121.245V31.104Z" fill="#9D9D9C"/>
<path d="M124.645 30.9835C124.365 31.1719 124.037 31.2661 123.662 31.2661C123.286 31.2661 122.959 31.1719 122.679 30.9835C122.399 30.7951 122.201 30.563 122.075 30.2805C121.952 30.0013 121.891 29.6952 121.891 29.3689C121.891 29.0426 121.952 28.7365 122.078 28.4573C122.205 28.1781 122.406 27.9426 122.686 27.7542C122.966 27.5659 123.293 27.4717 123.669 27.4717C124.044 27.4717 124.372 27.5659 124.648 27.7542C124.924 27.9426 125.126 28.1747 125.252 28.4573C125.378 28.7398 125.44 29.0426 125.44 29.3689C125.44 29.6952 125.378 30.0013 125.252 30.2805C125.126 30.5597 124.924 30.7951 124.648 30.9835H124.645ZM124.208 28.5279C124.061 28.3833 123.88 28.3093 123.662 28.3093C123.443 28.3093 123.263 28.3833 123.116 28.5279C122.969 28.6759 122.88 28.8542 122.846 29.0628C122.812 29.2713 122.812 29.4832 122.846 29.6918C122.88 29.9004 122.972 30.0786 123.119 30.2233C123.269 30.3679 123.45 30.4419 123.662 30.4419C123.873 30.4419 124.058 30.3679 124.204 30.2233C124.355 30.0753 124.443 29.9004 124.477 29.6918C124.512 29.4832 124.512 29.2747 124.477 29.0628C124.443 28.8542 124.355 28.6726 124.208 28.5279Z" fill="#9D9D9C"/>
<path d="M127.802 31.2286C127.604 31.2286 127.437 31.195 127.301 31.1311C127.164 31.0638 127.021 30.9595 126.874 30.8149V32.2613H125.949V27.6495H126.874V27.9085C127.021 27.7673 127.161 27.6663 127.297 27.6024C127.434 27.5385 127.601 27.5049 127.802 27.5049C128.14 27.5049 128.434 27.5957 128.683 27.7807C128.928 27.9657 129.109 28.1945 129.222 28.4703C129.335 28.7461 129.393 29.0455 129.393 29.3651C129.393 29.6846 129.335 29.984 129.222 30.2598C129.109 30.5357 128.928 30.7678 128.683 30.9494C128.437 31.1344 128.144 31.2253 127.802 31.2253V31.2286ZM127.601 28.3088C127.379 28.3088 127.195 28.3828 127.045 28.5275C126.895 28.6755 126.802 28.8538 126.768 29.0623C126.731 29.2709 126.731 29.4828 126.768 29.6914C126.802 29.8999 126.898 30.0782 127.048 30.2228C127.198 30.3675 127.383 30.4415 127.601 30.4415C127.819 30.4415 128 30.3675 128.15 30.2228C128.301 30.0748 128.393 29.8999 128.427 29.6914C128.461 29.4828 128.464 29.2742 128.427 29.0623C128.393 28.8538 128.301 28.6721 128.15 28.5275C128 28.3828 127.816 28.3088 127.598 28.3088H127.601Z" fill="#9D9D9C"/>
<path d="M134.656 31.1037H133.734V29.0719C133.734 28.8129 133.683 28.6178 133.581 28.49C133.478 28.3622 133.366 28.3083 133.243 28.3285C133.12 28.3487 133.007 28.4328 132.905 28.5808C132.803 28.7288 132.751 28.9172 132.751 29.1426V31.0969H131.84V29.0652C131.84 28.897 131.816 28.7524 131.765 28.6346C131.714 28.5169 131.653 28.4362 131.577 28.3857C131.502 28.3386 131.42 28.3184 131.332 28.3285C131.243 28.3386 131.161 28.3722 131.086 28.4294C131.011 28.49 130.95 28.5808 130.898 28.7086C130.847 28.8365 130.823 28.9777 130.823 29.1392V31.0936H129.898V27.6356H130.823V27.8946C130.97 27.7331 131.158 27.6221 131.386 27.5616C131.615 27.501 131.84 27.5044 132.062 27.575C132.284 27.6457 132.448 27.7735 132.557 27.9652C132.731 27.7499 132.943 27.612 133.192 27.5481C133.437 27.4842 133.669 27.4876 133.884 27.5616C134.099 27.6322 134.284 27.7735 134.437 27.982C134.591 28.1906 134.666 28.4362 134.666 28.7221C134.666 29.0652 134.666 29.3949 134.666 29.7077C134.666 30.0239 134.666 30.4881 134.666 31.0969L134.656 31.1037Z" fill="#9D9D9C"/>
<path d="M138.686 29.6617H136.113C136.164 29.9443 136.287 30.1529 136.485 30.2975C136.683 30.4388 136.891 30.4892 137.117 30.4421C137.342 30.3984 137.516 30.2706 137.646 30.0654H138.608C138.509 30.358 138.352 30.6036 138.137 30.8021C137.922 31.0005 137.69 31.1351 137.441 31.2057C137.188 31.2764 136.929 31.2898 136.656 31.2427C136.383 31.199 136.137 31.1014 135.922 30.9501C135.704 30.8021 135.523 30.5868 135.383 30.3076C135.24 30.025 135.168 29.7055 135.168 29.3422C135.168 29.0462 135.223 28.7737 135.328 28.5315C135.434 28.2893 135.574 28.0908 135.748 27.9361C135.922 27.7847 136.117 27.667 136.335 27.5863C136.553 27.5055 136.775 27.4685 137.004 27.4719C137.233 27.4753 137.451 27.5257 137.663 27.6199C137.874 27.7141 138.062 27.8486 138.222 28.0236C138.383 28.1951 138.509 28.4238 138.594 28.7064C138.683 28.989 138.714 29.3085 138.69 29.6617H138.686ZM137.724 28.9183C137.673 28.7199 137.574 28.5651 137.42 28.4541C137.267 28.3431 137.106 28.2893 136.936 28.2893C136.765 28.2893 136.605 28.3465 136.448 28.4575C136.294 28.5685 136.185 28.7199 136.127 28.9183H137.721H137.724Z" fill="#9D9D9C"/>
<path d="M142.359 31.1038H141.438V29.173C141.438 28.9005 141.37 28.6953 141.233 28.554C141.097 28.4128 140.946 28.3489 140.783 28.3623C140.615 28.3758 140.465 28.4565 140.329 28.6112C140.192 28.7626 140.124 28.9644 140.124 29.21V31.1038H139.199V27.6458H140.124V27.888C140.312 27.703 140.537 27.5886 140.8 27.5449C141.063 27.5012 141.305 27.5214 141.533 27.6054C141.762 27.6895 141.957 27.8376 142.117 28.0461C142.277 28.2547 142.359 28.4935 142.359 28.766V31.1072V31.1038Z" fill="#9D9D9C"/>
<path d="M144.922 30.3448V31.1185C144.806 31.1185 144.713 31.1185 144.649 31.1185C144.584 31.1185 144.498 31.1118 144.389 31.1051C144.28 31.0983 144.191 31.0849 144.126 31.0681C144.058 31.0512 143.983 31.0277 143.898 31.0008C143.812 30.9739 143.744 30.9369 143.69 30.8898C143.638 30.8427 143.587 30.7855 143.539 30.7216C143.492 30.6577 143.454 30.5803 143.434 30.4861C143.41 30.3919 143.4 30.291 143.4 30.1733V28.4476H142.867V27.6571H143.4V26.5908H144.321V27.6571H144.925V28.4476H144.321V30.0085C144.321 30.0656 144.328 30.1161 144.338 30.1565C144.348 30.1968 144.372 30.2305 144.413 30.2574C144.454 30.2809 144.481 30.3011 144.502 30.3146C144.522 30.328 144.567 30.3381 144.638 30.3415C144.71 30.3448 144.751 30.3482 144.768 30.3482H144.928L144.922 30.3448Z" fill="#9D9D9C"/>
<path d="M12.7822 18.1095C10.9632 17.1138 3.20284 15.6438 0.831052 17.5679C-1.54074 19.4887 1.66374 23.7674 4.19593 23.7674C6.72811 23.7674 8.27746 23.135 10.6424 21.988C12.2634 21.2042 13.0756 21.9913 13.0756 22.9635V29.8492H14.4578V22.9635C14.4578 19.6266 14.5567 19.0783 12.7822 18.1061V18.1095Z" fill="#010223"/>
<path d="M7.39366 6.2539C4.0868 6.81902 5.84432 12.8201 7.95334 14.2026C10.2432 15.7062 11.6527 16.0123 14.1337 16.9643C15.6898 17.5597 16.072 18.2627 16.1028 18.996V19.0061L16.1062 19.1676V30.9309H17.4883V20.244C17.4883 17.1695 17.6555 15.7432 17.0788 13.8259C16.3041 11.2525 11.1032 5.62487 7.39708 6.26063L7.39366 6.2539Z" fill="#010223"/>
<path d="M26.9344 18.1095C28.7534 17.1138 36.5137 15.6438 38.8855 17.5679C41.2573 19.4887 38.0528 23.7674 35.5207 23.7674C32.9885 23.7674 31.4391 23.135 29.0742 21.988C27.4531 21.2042 26.6409 21.9913 26.6409 22.9635V29.8492H25.2588V22.9635C25.2588 19.6266 25.1598 19.0783 26.9378 18.1061L26.9344 18.1095Z" fill="#010223"/>
<path d="M32.3281 6.2539C35.635 6.81902 33.8774 12.8201 31.7684 14.2026C29.4785 15.7062 28.0691 16.0123 25.5881 16.9643C24.0319 17.5597 23.6497 18.2627 23.619 18.996V19.0061L23.6156 19.1676V30.9309H22.2335V20.244C22.2335 17.1695 22.0662 15.7432 22.643 13.8259C23.4177 11.2525 28.6185 5.62487 32.3247 6.26063L32.3281 6.2539Z" fill="#EC6223"/>
<path d="M16.0977 18.9902L16.1045 19.1652C16.1045 19.1113 16.1045 19.0541 16.1011 18.997L16.0977 18.9902Z" fill="#010223"/>
<path d="M23.5854 19.8281C23.5854 19.892 23.582 19.9492 23.582 20.003L23.5889 19.8281H23.5854Z" fill="black"/>
<path d="M19.8596 0.701172C16.6961 0.704536 14.6656 2.21489 14.9863 4.9194C15.215 6.84686 16.9759 8.28658 18.1635 11.8354C18.6788 13.376 19.0474 14.6274 19.1532 16.7432V32.0048H20.5353V18.1022C20.5353 15.1118 20.938 13.6821 21.5557 11.8388C22.7467 8.28994 24.5042 6.85359 24.7329 4.92276C25.0537 2.21489 23.0231 0.704536 19.8596 0.701172Z" fill="#010223"/>
</g>
</svg>
