<svg xmlns="http://www.w3.org/2000/svg" width="18" height="18" viewBox="0 0 18 18">
  <defs>
    <style>
      .cls-1 {
        fill: #191c1f;
      }
    </style>
  </defs>
  <path id="Info_ic" class="cls-1" d="M79.009,0a9,9,0,1,1-6.361,2.625A9,9,0,0,1,79.009,0Zm-.688,6.84H76.716a1.335,1.335,0,0,0-.346.049.335.335,0,0,0-.263.279.32.32,0,0,0,.18.371,1.636,1.636,0,0,0,.549.148c.5.023.7.243.626.758-.14.963-.329,1.919-.491,2.88-.11.648-.2,1.3-.308,1.946a1.725,1.725,0,0,0,1.318,1.8,7.683,7.683,0,0,0,1.156.074,3.008,3.008,0,0,0,2.187-.947.831.831,0,0,0,.225-.347.427.427,0,0,0-.076-.331.326.326,0,0,0-.283-.031c-.148.049-.279.149-.423.212h0a2.609,2.609,0,0,1-.526.18.513.513,0,0,1-.634-.457,1.729,1.729,0,0,1-.016-.508c.061-.418.148-.832.223-1.246q.308-1.694.625-3.389a2.429,2.429,0,0,0,.09-.94h0a.54.54,0,0,0-.587-.5H78.321Zm.979-4a1.626,1.626,0,1,0,1.124.514A1.635,1.635,0,0,0,79.3,2.837Z" transform="translate(-70)"/>
</svg>
