<svg width="25" height="25" viewBox="0 0 25 25" fill="none" xmlns="http://www.w3.org/2000/svg">
<path fill-rule="evenodd" clip-rule="evenodd" d="M6.37897 1.78769C6.62977 1.76657 7.91985 1.76217 12.3278 1.76217H15.7651C16.8047 1.70876 17.8469 1.74143 18.8811 1.85985C19.8464 1.98254 20.7472 2.41086 21.4516 3.08217C21.8259 3.4339 22.1323 3.85153 22.3554 4.31417C22.6607 4.94721 22.8335 5.63596 22.8631 6.33817C22.8781 6.52033 22.8843 9.41289 22.8843 12.3125C22.8843 15.2121 22.8781 18.1099 22.864 18.2921C22.8326 18.9853 22.6633 19.6653 22.3659 20.2923C22.0861 20.8718 21.6831 21.3832 21.1852 21.7908C20.6873 22.1985 20.1064 22.4925 19.4831 22.6525C18.9629 22.7805 18.4302 22.8501 17.8947 22.8602C17.6403 22.876 14.9731 22.876 12.3058 22.876C9.63849 22.876 6.97561 22.8681 6.71161 22.8566C6.19498 22.8419 5.68126 22.7738 5.17865 22.6534C4.55655 22.4924 3.97672 22.1985 3.47905 21.792C2.98138 21.3855 2.5777 20.8759 2.29577 20.2985C1.99308 19.659 1.82134 18.9655 1.79065 18.2586C1.76777 18.0087 1.76777 16.7222 1.76777 12.316V8.88401C1.71378 7.8442 1.74527 6.80171 1.86193 5.76705C1.98416 4.8014 2.41397 3.90075 3.08777 3.19833C3.43502 2.83229 3.84515 2.53154 4.29865 2.31041C4.94873 1.99486 5.65695 1.81691 6.37897 1.78769ZM9.1095 4.57096C9.9411 4.53312 10.2069 4.52344 12.3241 4.52344C14.4423 4.52344 14.7072 4.53312 15.5388 4.57096C16.186 4.58417 16.8262 4.70675 17.4325 4.93352C17.9504 5.13405 18.4208 5.44052 18.8134 5.83329C19.206 6.22607 19.5123 6.69651 19.7126 7.21448C19.9385 7.8204 20.0611 8.45996 20.0752 9.10648C20.113 9.93808 20.1227 10.2038 20.1227 12.3211C20.1227 14.4384 20.1121 14.7033 20.0752 15.5349C20.061 16.1814 19.9385 16.8209 19.7126 17.4269C19.512 17.9447 19.2056 18.4149 18.813 18.8077C18.4204 19.2004 17.9502 19.507 17.4325 19.7078C16.8266 19.9347 16.1866 20.0573 15.5397 20.0704C14.7072 20.1082 14.4423 20.1179 12.325 20.1179C10.2077 20.1179 9.94198 20.1082 9.11038 20.0704C8.46347 20.0573 7.82345 19.9348 7.2175 19.7078C6.69964 19.5073 6.22935 19.2008 5.83673 18.808C5.44411 18.4152 5.1378 17.9448 4.93742 17.4269C4.71066 16.8212 4.58807 16.1815 4.57486 15.5349C4.53702 14.7033 4.52734 14.4393 4.52734 12.3211C4.52734 10.203 4.53702 9.9372 4.57398 9.1056C4.58653 8.45892 4.70913 7.8191 4.93654 7.2136C5.13703 6.69567 5.44348 6.22534 5.83626 5.8327C6.22905 5.44007 6.6995 5.1338 7.2175 4.93352C7.82314 4.70657 8.46287 4.58398 9.1095 4.57096ZM12.3197 5.93144H11.6201V5.9288C10.1673 5.93056 9.8883 5.94024 9.16934 5.9728C8.67498 5.97851 8.18529 6.0693 7.72174 6.2412C7.38544 6.37104 7.08002 6.56981 6.82511 6.82472C6.5702 7.07963 6.37143 7.38506 6.24158 7.72136C6.06988 8.18496 5.97909 8.67461 5.97318 9.16896C5.93534 9.99088 5.9283 10.2355 5.9283 12.3185C5.9283 14.4014 5.93622 14.6478 5.97318 15.4698C5.979 15.9641 6.06979 16.4538 6.24158 16.9174C6.37149 17.2535 6.57028 17.5588 6.82519 17.8136C7.08011 18.0683 7.3855 18.2669 7.72174 18.3966C8.18506 18.5684 8.67438 18.6595 9.16846 18.6659C9.99126 18.7038 10.2377 18.7117 12.3197 18.7117C14.4018 18.7117 14.6491 18.7029 15.471 18.6659C15.9654 18.6603 16.4551 18.5695 16.9186 18.3975C17.2546 18.2677 17.5597 18.0692 17.8144 17.8146C18.0692 17.56 18.2679 17.255 18.3979 16.9191C18.5697 16.4555 18.6605 15.9659 18.6663 15.4715C18.7041 14.6496 18.7121 14.4032 18.7121 12.322C18.7121 10.2408 18.7033 9.9944 18.6663 9.17248C18.6605 8.67813 18.5697 8.18846 18.3979 7.72488C18.2682 7.38863 18.0696 7.08324 17.8148 6.82833C17.5601 6.57342 17.2548 6.37462 16.9186 6.24472C16.455 6.07293 15.9654 5.98214 15.471 5.97632C14.6482 5.93848 14.4018 5.93144 12.3197 5.93144ZM15.9616 7.38357C16.1154 7.28078 16.2963 7.22592 16.4813 7.22592C16.7294 7.22592 16.9673 7.32447 17.1427 7.4999C17.3181 7.67533 17.4167 7.91326 17.4167 8.16136C17.4167 8.34637 17.3618 8.52723 17.2591 8.68106C17.1563 8.83489 17.0102 8.95479 16.8392 9.02559C16.6683 9.09639 16.4802 9.11492 16.2988 9.07882C16.1173 9.04273 15.9506 8.95364 15.8198 8.82281C15.689 8.69199 15.5999 8.52531 15.5638 8.34385C15.5277 8.1624 15.5462 7.97431 15.617 7.80338C15.6878 7.63245 15.8077 7.48635 15.9616 7.38357ZM10.0988 8.99103C10.7572 8.55107 11.5313 8.31624 12.3233 8.31624C13.3852 8.31624 14.4036 8.73809 15.1545 9.48898C15.9054 10.2399 16.3273 11.2583 16.3273 12.3202C16.3273 13.1122 16.0924 13.8863 15.6525 14.5447C15.2125 15.2032 14.5872 15.7164 13.8555 16.0195C13.1239 16.3225 12.3188 16.4018 11.5421 16.2473C10.7654 16.0928 10.052 15.7115 9.49201 15.1515C8.93204 14.5915 8.55069 13.8781 8.3962 13.1014C8.2417 12.3247 8.321 11.5196 8.62405 10.788C8.9271 10.0563 9.4403 9.431 10.0988 8.99103ZM13.767 10.1622C13.3396 9.87665 12.8372 9.72424 12.3233 9.72424C11.6341 9.72424 10.9731 9.99802 10.4857 10.4854C9.99841 10.9727 9.72462 11.6337 9.72462 12.3229C9.72462 12.8368 9.87703 13.3393 10.1626 13.7666C10.4481 14.1939 10.854 14.527 11.3288 14.7237C11.8036 14.9204 12.3261 14.9719 12.8302 14.8716C13.3343 14.7713 13.7974 14.5238 14.1608 14.1604C14.5242 13.797 14.7717 13.3339 14.872 12.8298C14.9722 12.3258 14.9208 11.8033 14.7241 11.3284C14.5274 10.8536 14.1943 10.4477 13.767 10.1622Z" fill="#4B4B55"/>
</svg>
