<svg width="25" height="25" viewBox="0 0 25 25" fill="none" xmlns="http://www.w3.org/2000/svg">
<path fill-rule="evenodd" clip-rule="evenodd" d="M24.64 0H0V24.64H24.64V0ZM8.5 17C10.9853 17 13 14.9853 13 12.5C13 10.0147 10.9853 8 8.5 8C6.01472 8 4 10.0147 4 12.5C4 14.9853 6.01472 17 8.5 17ZM17.5 12.5C17.5 14.433 16.6046 16 15.5 16C14.3954 16 13.5 14.433 13.5 12.5C13.5 10.567 14.3954 9 15.5 9C16.6046 9 17.5 10.567 17.5 12.5ZM19 16C19.5523 16 20 14.433 20 12.5C20 10.567 19.5523 9 19 9C18.4477 9 18 10.567 18 12.5C18 14.433 18.4477 16 19 16Z" fill="#4B4B55"/>
</svg>
