<svg width="25" height="25" viewBox="0 0 25 25" fill="none" xmlns="http://www.w3.org/2000/svg">
<path fill-rule="evenodd" clip-rule="evenodd" d="M4.62172 4.86572H20.0164C20.7123 4.86582 21.384 5.12062 21.9049 5.58204L14.0879 13.2284C13.6148 13.69 12.98 13.9484 12.3191 13.9484C11.6581 13.9484 11.0233 13.69 10.5503 13.2284L2.73412 5.58204C3.25485 5.12096 3.9262 4.8662 4.62172 4.86572ZM22.4628 6.24292C22.737 6.68988 22.882 7.20403 22.8817 7.72836V16.9112C22.8824 17.4792 22.7125 18.0344 22.3942 18.5048L16.1612 12.4073L22.4628 6.24292ZM21.8108 19.1393C21.3039 19.55 20.6714 19.774 20.0191 19.7738H4.62172C3.96943 19.7739 3.3369 19.5499 2.83004 19.1393L9.09564 13.0101L9.94748 13.8435C10.5814 14.4627 11.4324 14.8094 12.3186 14.8094C13.2048 14.8094 14.0559 14.4627 14.6898 13.8435L15.5416 13.0101L21.8072 19.1393H21.8108ZM2.24924 18.5048C1.9309 18.0344 1.76107 17.4792 1.76172 16.9112V7.72748C1.7614 7.20314 1.90639 6.68896 2.1806 6.24204L8.48228 12.4064L2.24924 18.5048Z" fill="#4B4B55"/>
</svg>
