<svg xmlns="http://www.w3.org/2000/svg" width="50" height="50" viewBox="0 0 50 50">
    <defs>
        <clipPath id="yebiptzwha">
            <path data-name="사각형 4514" transform="translate(1261 6482)" style="fill:#fff" d="M0 0h28v28H0z"/>
        </clipPath>
    </defs>
    <g data-name="그룹 7073">
        <g data-name="그룹 6728" transform="translate(.279 .279)">
            <circle data-name="타원 109" cx="25" cy="25" r="25" transform="translate(-.279 -.279)" style="fill:#f7f8fa"/>
        </g>
        <g data-name="마스크 그룹 429" transform="translate(-1250 -6471)" style="opacity:.8;clip-path:url(#yebiptzwha)">
            <path d="M11 24.788a12 12 0 0 1 24-.581v.664a12 12 0 0 1-24-.083z" transform="translate(1252.005 6471.461)" style="fill:#51535b"/>
            <path d="M31.014 27.53v.505c0 2.778-3.2 4.967-7.156 4.967S16.7 30.814 16.7 28.036v-.506a1.827 1.827 0 0 1-.926-2.357 1.541 1.541 0 0 1 1.6-1.01 1.713 1.713 0 0 1 1.263.505 8.981 8.981 0 0 1 4.8-1.515l.926-4.209a.294.294 0 0 1 .084-.168.309.309 0 0 1 .253-.084l2.947.674a1.261 1.261 0 1 1 .589 1.684 1.128 1.128 0 0 1-.674-1.094l-2.61-.589-.842 3.788a8.955 8.955 0 0 1 4.715 1.515 1.831 1.831 0 0 1 2.526 0 1.713 1.713 0 0 1 .505 1.263 1.294 1.294 0 0 1-.842 1.6zm-9.85.926a1.263 1.263 0 1 0-1.264-1.262 1.24 1.24 0 0 0 1.264 1.263zm5.809 1.6c-.168-.168-.337-.168-.421 0a3.623 3.623 0 0 1-2.526.758 3.623 3.623 0 0 1-2.526-.758c-.168-.168-.337-.168-.421 0-.168.168-.168.337 0 .421a4.789 4.789 0 0 0 3.031.926 4.926 4.926 0 0 0 3.031-.926c-.084-.084-.084-.253-.168-.421zm1.01-2.862a1.263 1.263 0 1 0-1.263 1.263 1.295 1.295 0 0 0 1.263-1.263z" transform="translate(1251.107 6470.317)" style="fill:#fff"/>
        </g>
    </g>
</svg>
