<svg width="25" height="25" viewBox="0 0 25 25" fill="none" xmlns="http://www.w3.org/2000/svg">
<mask id="mask0_3339_22105" style="mask-type:alpha" maskUnits="userSpaceOnUse" x="0" y="0" width="25" height="25">
<rect width="24.64" height="24.64" fill="#C4C4C4"/>
</mask>
<g mask="url(#mask0_3339_22105)">
<path d="M13.7461 10.4326C13.6189 10.4298 13.4926 10.4534 13.3751 10.5018C13.2575 10.5503 13.1512 10.6225 13.063 10.714C12.9747 10.8055 12.9063 10.9143 12.8621 11.0335C12.8179 11.1527 12.7989 11.2798 12.8062 11.4067C12.8062 11.6611 12.9073 11.9051 13.0872 12.085C13.267 12.2649 13.511 12.3659 13.7654 12.3659C14.0198 12.3659 14.2638 12.2649 14.4437 12.085C14.6236 11.9051 14.7246 11.6611 14.7246 11.4067C14.7312 11.2767 14.7104 11.1467 14.6635 11.0252C14.6166 10.9037 14.5447 10.7935 14.4524 10.7016C14.3601 10.6097 14.2495 10.5383 14.1278 10.4919C14.0062 10.4456 13.8761 10.4254 13.7461 10.4326Z" fill="#4B4B55"/>
<path d="M23.2232 3.61701C22.7743 3.16664 22.2407 2.80959 21.6532 2.56642C21.0657 2.32326 20.4359 2.19879 19.8 2.20021H4.84C4.20424 2.19963 3.57461 2.32442 2.98713 2.56745C2.39965 2.81048 1.86587 3.16697 1.41631 3.61652C0.966764 4.06607 0.610274 4.59986 0.367246 5.18734C0.124219 5.77481 -0.00057675 6.40445 2.00383e-06 7.04021V14.2404C-0.00057675 14.8761 0.124219 15.5058 0.367246 16.0932C0.610274 16.6807 0.966764 17.2145 1.41631 17.6641C1.86587 18.1136 2.39965 18.4701 2.98713 18.7131C3.57461 18.9562 4.20424 19.0809 4.84 19.0804H10.3576L11.9513 22.3214C11.9772 22.3987 12.0268 22.4658 12.0929 22.5134C12.1591 22.5609 12.2385 22.5865 12.32 22.5865C12.4015 22.5865 12.4809 22.5609 12.5471 22.5134C12.6132 22.4658 12.6628 22.3987 12.6887 22.3214L14.2824 19.0751H19.8C21.0829 19.0751 22.3133 18.5658 23.2208 17.659C24.1284 16.7523 24.6388 15.5224 24.64 14.2395V7.04021C24.6414 6.40435 24.517 5.77451 24.2738 5.18698C24.0306 4.59946 23.6736 4.06588 23.2232 3.61701ZM5.4296 13.7352C5.18321 13.7459 4.93803 13.6952 4.71608 13.5877C4.49413 13.4802 4.30236 13.3192 4.158 13.1192H4.1316V13.5918H2.62592V7.24613H4.158V9.66085C4.32151 9.4798 4.52204 9.33604 4.746 9.23932C4.96996 9.1426 5.2121 9.09518 5.456 9.10029C5.74671 9.10961 6.03258 9.17723 6.29666 9.29914C6.56074 9.42104 6.79764 9.59475 6.99331 9.80995C7.18897 10.0252 7.33942 10.2775 7.43572 10.5519C7.53203 10.8264 7.57222 11.1174 7.55392 11.4076C7.57111 11.7008 7.52942 11.9945 7.43131 12.2713C7.3332 12.5482 7.18066 12.8025 6.98267 13.0195C6.78468 13.2364 6.54526 13.4115 6.27853 13.5344C6.01179 13.6574 5.72314 13.7256 5.4296 13.7352ZM10.2397 13.5874H8.76392V9.93189C8.76392 9.25341 8.646 8.66293 8.05992 8.57405V7.09829C9.35792 7.09829 10.2432 8.03725 10.2432 9.63621L10.2397 13.5874ZM13.7808 13.7053C13.4592 13.7341 13.1351 13.6956 12.8292 13.5922C12.5233 13.4888 12.2423 13.3229 12.004 13.105C11.7657 12.8871 11.5754 12.6219 11.4453 12.3265C11.3151 12.031 11.2478 11.7116 11.2478 11.3887C11.2478 11.0658 11.3151 10.7465 11.4453 10.451C11.5754 10.1555 11.7657 9.89036 12.004 9.67245C12.2423 9.45453 12.5233 9.28861 12.8292 9.18526C13.1351 9.0819 13.4592 9.04337 13.7808 9.07213C14.1027 9.04883 14.426 9.0916 14.7307 9.19781C15.0355 9.30402 15.3153 9.47144 15.553 9.68976C15.7907 9.90809 15.9813 10.1727 16.1129 10.4674C16.2446 10.762 16.3146 11.0805 16.3187 11.4032C16.3169 11.7255 16.2481 12.0439 16.1168 12.3382C15.9855 12.6325 15.7945 12.8964 15.556 13.113C15.3174 13.3297 15.0364 13.4944 14.7308 13.5968C14.4253 13.6993 14.1018 13.7371 13.7808 13.708V13.7053ZM21.9252 13.2037C21.9252 15.0332 21.01 15.9484 19.4172 15.9484H19.1224V14.5642H19.4172C20.2136 14.5642 20.4503 14.0626 20.4503 13.3252V13.1184C20.2845 13.3065 20.08 13.4567 19.8508 13.5586C19.6217 13.6605 19.3732 13.7117 19.1224 13.7088C18.8393 13.706 18.5598 13.6457 18.3007 13.5316C18.0417 13.4174 17.8085 13.2519 17.6154 13.0449C17.4223 12.8379 17.2732 12.5939 17.1772 12.3276C17.0812 12.0613 17.0403 11.7782 17.057 11.4956C17.0374 11.1979 17.0781 10.8992 17.1767 10.6175C17.2753 10.3359 17.4298 10.077 17.6309 9.85652C17.832 9.63603 18.0756 9.45843 18.347 9.33437C18.6184 9.21032 18.9121 9.14237 19.2104 9.13461C19.4505 9.1161 19.6913 9.16088 19.9087 9.26449C20.1261 9.3681 20.3126 9.52692 20.4494 9.72509H20.4794V9.25253L21.9252 9.28245V13.2037Z" fill="#4B4B55"/>
<path d="M19.5623 10.403C19.4326 10.3965 19.303 10.4172 19.1818 10.4638C19.0607 10.5104 18.9506 10.582 18.8588 10.6738C18.767 10.7656 18.6955 10.8756 18.6489 10.9968C18.6022 11.1179 18.5815 11.2475 18.5881 11.3772C18.5791 11.5074 18.5982 11.6381 18.6439 11.7604C18.6897 11.8826 18.7612 11.9937 18.8535 12.086C18.9458 12.1783 19.0568 12.2498 19.1791 12.2955C19.3014 12.3413 19.432 12.3604 19.5623 12.3514C19.6906 12.3589 19.819 12.3386 19.9388 12.2919C20.0585 12.2451 20.1667 12.1729 20.2559 12.0804C20.3452 11.9878 20.4133 11.877 20.4556 11.7557C20.498 11.6343 20.5135 11.5052 20.5012 11.3772C20.511 11.2498 20.4937 11.1217 20.4505 11.0015C20.4072 10.8812 20.339 10.7714 20.2503 10.6794C20.1616 10.5874 20.0545 10.5152 19.9359 10.4676C19.8173 10.4199 19.69 10.3979 19.5623 10.403Z" fill="#4B4B55"/>
<path d="M5.07572 12.3809C5.61374 12.3809 6.04988 11.9448 6.04988 11.4068C6.04988 10.8688 5.61374 10.4326 5.07572 10.4326C4.53771 10.4326 4.10156 10.8688 4.10156 11.4068C4.10156 11.9448 4.53771 12.3809 5.07572 12.3809Z" fill="#4B4B55"/>
</g>
</svg>
