<svg width="21" height="21" viewBox="0 0 21 21" fill="none" xmlns="http://www.w3.org/2000/svg">
<path d="M10.5 0C4.70051 0 0 4.70051 0 10.5C0 16.2995 4.70051 21 10.5 21C16.2995 21 21 16.2995 21 10.5C21 4.70051 16.2995 0 10.5 0ZM15.5092 6.8285C15.4804 7.25245 15.2376 8.74245 14.9947 10.3477L14.2374 15.1141C14.2374 15.1141 14.1756 15.8138 13.6611 15.9332C13.1466 16.0525 12.2905 15.5092 12.1382 15.3857C12.0188 15.2952 9.86202 13.9287 9.07174 13.2619C8.8577 13.0808 8.61486 12.7144 9.10055 12.2905C10.1913 11.2903 11.4961 10.0431 12.2864 9.25696C12.6486 8.89475 13.0149 8.04273 11.4961 9.07585L7.21541 11.9571C7.21541 11.9571 6.72971 12.2617 5.82007 11.9859C4.91043 11.7142 3.84849 11.3479 3.84849 11.3479C3.84849 11.3479 3.11995 10.891 4.363 10.4053L11.4343 7.49118C12.1341 7.18659 14.5008 6.21521 14.5008 6.21521C14.5008 6.21521 15.5998 5.79537 15.5092 6.8285Z" fill="#4B4B55"/>
</svg>
