<svg width="25" height="25" viewBox="0 0 25 25" fill="none" xmlns="http://www.w3.org/2000/svg">
<path d="M20.7196 8.01276C20.7328 8.19932 20.7328 8.385 20.7328 8.57332C20.7439 10.1955 20.4326 11.8036 19.8169 13.3045C19.2013 14.8053 18.2936 16.1688 17.1465 17.3159C15.9995 18.4629 14.6359 19.3706 13.1351 19.9863C11.6343 20.6019 10.0261 20.9132 8.40396 20.9021C6.04892 20.9043 3.74303 20.2286 1.76172 18.9556C2.10399 18.9965 2.44837 19.0174 2.79308 19.018C4.74448 19.0195 6.63972 18.3649 8.17428 17.1595C7.27014 17.1424 6.39392 16.8432 5.66814 16.3038C4.94235 15.7644 4.40328 15.0116 4.12628 14.1508C4.77549 14.2759 5.44476 14.2503 6.08252 14.076C5.10196 13.8781 4.22007 13.347 3.58648 12.573C2.9529 11.7989 2.60666 10.8294 2.60652 9.82908V9.77452C3.21054 10.1108 3.88666 10.2968 4.57772 10.3166C3.65958 9.70422 3.00933 8.76495 2.75935 7.69001C2.50938 6.61506 2.67847 5.48526 3.2322 4.5306C4.32003 5.8692 5.67729 6.964 7.21581 7.74387C8.75433 8.52374 10.4397 8.97125 12.1624 9.05732C11.9475 8.12858 12.0445 7.15489 12.4384 6.2868C12.8323 5.4187 13.5013 4.70457 14.3418 4.25481C15.1823 3.80504 16.1476 3.64471 17.0884 3.79859C18.0292 3.95247 18.8931 4.412 19.5465 5.10612C20.5172 4.91328 21.4478 4.55615 22.2983 4.05012C21.9746 5.05337 21.2976 5.90492 20.3931 6.44636C21.2518 6.34717 22.0908 6.11934 22.8817 5.77052C22.3003 6.6415 21.5681 7.40171 20.7196 8.0154V8.01276Z" fill="#4B4B55"/>
</svg>
