<svg width="261" height="40" viewBox="0 0 261 40" fill="none" xmlns="http://www.w3.org/2000/svg">
<mask id="mask0_265_23816" style="mask-type:alpha" maskUnits="userSpaceOnUse" x="0" y="0" width="261" height="40">
<rect width="261" height="40" fill="#D9D9D9"/>
</mask>
<g mask="url(#mask0_265_23816)">
<path fill-rule="evenodd" clip-rule="evenodd" d="M80.2532 5.24C80.6266 5.24 80.9999 5.13333 81.2666 4.92C81.5332 4.70667 81.6933 4.44 81.7466 4.12C81.7999 3.74667 81.7466 3.48 81.5332 3.26667C81.3199 3.10667 80.9999 3 80.6266 3C80.1999 3 79.8799 3.10667 79.6133 3.32C79.3466 3.53333 79.1866 3.8 79.1332 4.12C79.0799 4.49333 79.1333 4.76 79.3466 4.92C79.5066 5.13333 79.8266 5.24 80.2532 5.24ZM63.72 11H59.6667L59.88 9.55999H63.2933L63.6133 7.69333H60.2533L60.4667 6.41332H64.36L64.68 4.38666H58.4933L57 12.9733H63.3467L63.72 11ZM88.68 19.9467C89.9067 20.48 90.9733 21.1733 91.88 22.08C92.7867 22.9867 93.48 24.0533 94.0667 25.2267C94.5467 26.4533 94.8133 27.84 94.8133 29.28C94.8133 30.72 94.5467 32.1067 94.0667 33.3333C93.5333 34.6133 92.84 35.68 91.9333 36.5867C91.0267 37.4933 89.96 38.24 88.7333 38.72C87.4533 39.2 86.1733 39.4667 84.68 39.4667C83.1867 39.4667 81.8 39.2 80.5733 38.72C79.3467 38.1867 78.28 37.4933 77.3733 36.5867C76.4667 35.68 75.72 34.6133 75.24 33.3867C74.76 32.16 74.4933 30.8267 74.4933 29.3333C74.4933 27.84 74.76 26.5067 75.24 25.28C75.7733 24.0533 76.4667 22.9867 77.3733 22.08C78.28 21.1733 79.3467 20.4267 80.5733 19.9467C81.8 19.4667 83.1333 19.2 84.6267 19.2C86.12 19.2 87.4533 19.4667 88.68 19.9467ZM88.36 33.44C88.84 32.9067 89.2133 32.32 89.48 31.6267C89.7467 30.9333 89.9067 30.1867 89.8533 29.3333C89.8533 28.5333 89.7467 27.7867 89.48 27.0933C89.2133 26.4 88.84 25.8133 88.36 25.28C87.9333 24.8 87.3467 24.3733 86.7067 24.1067C86.0667 23.84 85.3733 23.68 84.5733 23.68C83.7733 23.68 83.08 23.84 82.44 24.1067C81.8 24.3733 81.2133 24.7467 80.7333 25.28C80.2533 25.8133 79.88 26.4 79.6133 27.0933C79.3467 27.7333 79.24 28.5333 79.24 29.3333C79.24 30.1867 79.3467 30.9333 79.6133 31.6267C79.88 32.32 80.2533 32.96 80.7333 33.44C81.2133 33.92 81.8 34.3467 82.44 34.6133C83.08 34.88 83.7733 35.04 84.5733 35.04C85.3733 35.04 86.0667 34.88 86.7067 34.6133C87.3467 34.3467 87.88 33.9733 88.36 33.44ZM69.4267 34.8267C69.96 34.6667 70.44 34.4 70.92 34.1333C71.4 33.8667 71.7733 33.5467 72.1467 33.12L74.44 36.7467C73.96 37.28 73.32 37.7067 72.5733 38.1333C71.8267 38.56 70.9733 38.88 70.0133 39.0933C69.1067 39.36 68.1467 39.4667 67.1867 39.4667C65.7467 39.4667 64.36 39.2 63.1333 38.72C61.8533 38.24 60.7867 37.5467 59.88 36.64C58.92 35.7333 58.2267 34.6667 57.7467 33.44C57.2667 32.2133 57 30.7733 57 29.3333C57 27.8933 57.2667 26.56 57.8 25.3333C58.3333 24.1067 59.08 23.04 59.9867 22.1333C60.8933 21.2267 61.96 20.48 63.24 20C64.4667 19.52 65.8533 19.2533 67.3467 19.2533C68.2533 19.2533 69.16 19.36 70.0667 19.6267C70.9733 19.84 71.8267 20.2133 72.5733 20.6933C73.3733 21.1733 74.0667 21.76 74.6 22.4L71.72 25.6C71.3467 25.2267 70.92 24.8533 70.4933 24.5333C70.0667 24.2667 69.5867 24 69.0533 23.84C68.5733 23.68 67.9867 23.5733 67.4 23.5733C66.6533 23.5733 65.9067 23.7333 65.2667 24C64.5733 24.32 63.9867 24.6933 63.5067 25.1733C63.0267 25.6533 62.6 26.2933 62.3333 26.9867C62.0667 27.7333 61.9067 28.5333 61.9067 29.3867C61.9067 30.24 62.0667 31.04 62.3333 31.7333C62.6 32.4267 63.0267 33.0667 63.5067 33.5467C63.9867 34.08 64.6267 34.4533 65.32 34.72C66.0667 34.9867 66.8667 35.0933 67.72 35.0933C68.3067 35.0933 68.8933 34.9867 69.4267 34.8267ZM109.533 31.6267L100.733 19.6267H96.4667V39.2533H101.107V27.4667L109.8 39.2533H114.12V19.6267H109.533V31.6267ZM128.573 33.3867C128.893 32.8 129.107 32.16 129.107 31.4667V19.6267H133.747V31.68C133.747 33.1733 133.373 34.4533 132.68 35.6267C131.933 36.8 130.973 37.7067 129.693 38.3467C128.413 39.04 126.973 39.36 125.373 39.36C123.773 39.36 122.333 38.9867 121.053 38.3467C119.773 37.7067 118.76 36.8 118.067 35.6267C117.373 34.5067 117 33.1733 117 31.68V19.6267H121.8V31.4667C121.8 32.16 121.96 32.8 122.28 33.3867C122.6 33.9733 123.027 34.4 123.56 34.72C124.093 35.04 124.68 35.2 125.373 35.2C126.067 35.2 126.707 35.04 127.24 34.72C127.773 34.4 128.253 33.9733 128.573 33.3867ZM134.973 23.84H140.787V39.2533H145.533V23.84H151.507V19.6267H134.973V23.84ZM170.013 27.8933C170.813 28.2133 171.56 28.64 172.147 29.12C172.787 29.6 173.213 30.1867 173.64 30.9867C173.96 31.6267 174.12 32.4267 174.12 33.28C174.12 34.6667 173.747 35.7867 173.107 36.7467C172.413 37.6533 171.56 38.4 170.387 38.88C169.267 39.36 167.933 39.6267 166.44 39.6267C165.16 39.6267 163.987 39.4667 162.973 39.1467C161.907 38.8267 161 38.4 160.2 37.8133C159.4 37.2267 158.707 36.5333 158.067 35.7333L160.947 32.48C161.907 33.7067 162.813 34.56 163.773 34.9867C164.733 35.4133 165.693 35.6267 166.707 35.6267C167.24 35.6267 167.667 35.52 168.093 35.4133C168.52 35.2533 168.84 35.0933 169.053 34.8267C169.267 34.56 169.373 34.24 169.373 33.8667C169.373 33.6 169.32 33.3333 169.16 33.12C169 32.9067 168.84 32.6933 168.573 32.5333C168.36 32.3733 168.04 32.2133 167.72 32.0533C167.4 31.8933 167.027 31.7867 166.653 31.68C166.28 31.5733 165.907 31.4667 165.533 31.4133C164.467 31.1467 163.507 30.88 162.707 30.5067C161.853 30.1867 161.213 29.76 160.68 29.2267C160.147 28.6933 159.773 28.1067 159.507 27.4667C159.24 26.7733 159.133 26.0267 159.133 25.2267C159.133 24.3733 159.293 23.5733 159.72 22.8267C160.093 22.08 160.627 21.44 161.32 20.9067C161.96 20.3733 162.76 19.9467 163.667 19.68C164.52 19.4133 165.48 19.2533 166.44 19.2533C167.72 19.2533 168.84 19.4133 169.747 19.68C170.707 19.9467 171.507 20.3733 172.147 20.8533C172.84 21.3333 173.373 21.9733 173.853 22.6667L170.92 25.4933C170.547 24.96 170.12 24.5867 169.64 24.2667C169.213 23.9467 168.733 23.68 168.2 23.52C167.667 23.36 167.133 23.2533 166.6 23.2533C166.067 23.2533 165.587 23.3067 165.16 23.4667C164.733 23.6267 164.413 23.7867 164.2 24.0533C163.987 24.32 163.88 24.5867 163.88 24.96C163.88 25.28 163.987 25.5467 164.147 25.76C164.307 25.9733 164.573 26.1867 164.893 26.3467C165.213 26.5067 165.533 26.6667 165.96 26.7733C166.387 26.9333 166.813 27.04 167.24 27.0933C168.253 27.3067 169.16 27.5733 170.013 27.8933ZM191.827 22.08C190.92 21.1733 189.853 20.48 188.627 19.9467C187.4 19.4133 186.067 19.2 184.573 19.2C183.08 19.2 181.747 19.4667 180.52 19.9467C179.293 20.4267 178.227 21.1733 177.32 22.08C176.413 22.9867 175.72 24.0533 175.187 25.28C174.707 26.5067 174.44 27.84 174.44 29.3333C174.44 30.8267 174.707 32.16 175.187 33.3867C175.667 34.6133 176.413 35.68 177.32 36.5867C178.227 37.4933 179.293 38.1867 180.52 38.72C181.747 39.2533 183.08 39.4667 184.573 39.4667C185.267 39.4667 185.907 39.4133 186.547 39.3067L183.24 34.8267C182.973 34.7733 182.707 34.6667 182.44 34.56C181.8 34.2933 181.213 33.8667 180.733 33.3867C180.253 32.9067 179.88 32.2667 179.613 31.5733C179.347 30.88 179.24 30.1333 179.24 29.28C179.24 28.48 179.347 27.68 179.613 27.04C179.88 26.3467 180.253 25.76 180.733 25.2267C181.213 24.6933 181.8 24.32 182.44 24.0533C183.08 23.7867 183.773 23.6267 184.573 23.6267C185.32 23.6267 186.067 23.7867 186.707 24.0533C187.347 24.32 187.933 24.7467 188.36 25.2267C188.84 25.76 189.213 26.3467 189.48 27.04C189.747 27.7333 189.853 28.48 189.853 29.28C189.853 30.08 189.747 30.8267 189.48 31.4667L192.573 35.68C193.107 34.9867 193.587 34.1867 193.96 33.28C194.44 32.0533 194.707 30.6667 194.707 29.2267C194.707 27.7867 194.44 26.4 193.96 25.1733C193.48 24.0533 192.733 22.9867 191.827 22.08ZM208.413 19.6267H213.053H213.107V31.68C213.107 33.1733 212.733 34.4533 212.04 35.6267C211.293 36.8 210.333 37.7067 209.053 38.3467C207.773 39.04 206.333 39.36 204.733 39.36C203.133 39.36 201.693 38.9867 200.413 38.3467C199.133 37.7067 198.12 36.8 197.427 35.6267C196.733 34.5067 196.36 33.1733 196.36 31.68V19.6267H201.16V31.4667C201.16 32.16 201.32 32.8 201.64 33.3867C201.96 33.9733 202.387 34.4 202.92 34.72C203.453 35.04 204.04 35.2 204.733 35.2C205.427 35.2 206.067 35.04 206.6 34.72C207.133 34.4 207.613 33.9733 207.933 33.3867C208.253 32.8 208.413 32.16 208.413 31.4667V19.6267ZM220.573 19.6267L212.84 39.2H217.533C217.533 39.2 222.387 25.8133 222.547 25.44C222.653 25.8133 227.507 39.2 227.507 39.2H232.307L224.627 19.6267H220.573ZM245 31.52L244.68 31.68L249.107 39.2533H243.667L239.773 32.3733H237.32V39.2533H232.787V19.68H241.587C242.867 19.68 243.987 19.9467 245 20.48C246.013 21.0133 246.813 21.76 247.4 22.72C247.987 23.68 248.253 24.6933 248.253 25.92C248.253 27.1467 247.987 28.2667 247.4 29.2267C246.813 30.1867 246.013 30.9867 245 31.52ZM240.733 23.6267H237.267V28.7467H241.16C241.64 28.7467 242.067 28.64 242.44 28.4267C242.813 28.2133 243.08 27.8933 243.293 27.52C243.453 27.1467 243.56 26.6667 243.56 26.1867C243.56 25.6533 243.453 25.2267 243.24 24.8533C243.027 24.4267 242.707 24.16 242.28 23.9467C241.853 23.7333 241.32 23.6267 240.733 23.6267ZM255.08 35.2V31.2H262.813V27.36H255.08V23.68H264.093V19.6267H250.44V39.2533H264.36V35.2H255.08ZM182.92 32.16L186.387 29.7067L193.64 39.52H188.36L182.92 32.16ZM66.5468 12.9733H63.8801L66.7601 9.61334L65.1068 6.46667H67.7735L68.4135 7.96001L69.4268 6.46667H72.0401L69.3201 9.66667L71.0268 12.9733H68.3601L67.6668 11.2667L66.5468 12.9733ZM71.6134 11.48C71.8268 12.0133 72.1468 12.3867 72.5734 12.7067C73.0534 13.0267 73.5868 13.1333 74.2268 13.1333C74.8134 13.1333 75.3468 13.0267 75.8801 12.8667C76.4134 12.6533 76.8401 12.44 77.2134 12.0667L76.2001 10.52C76.0934 10.6267 75.9334 10.7333 75.7735 10.84L75.7734 10.84L75.7734 10.84C75.6134 10.9467 75.4534 11 75.2934 11.0533C75.1334 11.1067 74.9201 11.1067 74.7068 11.1067C74.4401 11.1067 74.2268 11.0533 74.0134 10.8933C73.8534 10.7867 73.6934 10.5733 73.6401 10.36C73.5868 10.1467 73.5868 9.88001 73.5868 9.61335C73.6401 9.34668 73.7468 9.08001 73.9068 8.86668C74.0668 8.65335 74.2268 8.49335 74.4401 8.33335C74.6534 8.22668 74.9201 8.17335 75.1868 8.17335C75.4001 8.17335 75.5601 8.17335 75.7201 8.22668C75.8801 8.28001 76.0401 8.33335 76.1468 8.44001C76.2534 8.54668 76.3601 8.65335 76.4134 8.76001L77.9068 7.26668C77.6934 6.89335 77.3201 6.62668 76.8934 6.46668C76.4134 6.25335 75.9334 6.20001 75.3468 6.20001C74.7068 6.20001 74.1201 6.36001 73.5334 6.62668C73.0001 6.94668 72.5201 7.32001 72.1468 7.85335C71.7734 8.38668 71.5068 8.92001 71.4001 9.61335C71.3468 10.36 71.4001 10.9467 71.6134 11.48ZM81.1599 6.46667L79.9866 12.9733H77.7466L78.8666 6.46667H81.1599ZM81.8533 12.9734L82.6533 8.38669H81.5867L81.9067 6.46669H82.9733L83.2933 4.81335H85.5333L85.2133 6.46669H86.3867L86.0133 8.38669H84.8933L84.0933 12.9734H81.8533ZM88.5201 5.24C88.8934 5.24 89.2668 5.13333 89.5334 4.92C89.8001 4.70667 89.9601 4.44 90.0134 4.12C90.0668 3.74667 90.0134 3.48 89.8001 3.26667C89.6401 3.10667 89.3201 3 88.8934 3C88.4668 3 88.1468 3.10667 87.8801 3.32C87.6134 3.53333 87.4534 3.8 87.4001 4.12C87.3468 4.49333 87.4001 4.76 87.6134 4.92C87.8268 5.13333 88.0934 5.24 88.5201 5.24ZM89.4267 6.46667L88.3067 12.9733H86.0667L87.1866 6.46667H89.4267ZM96.7334 7.53334C96.6267 7.16 96.4134 6.84 96.1467 6.62667C95.88 6.41334 95.4534 6.30667 94.9734 6.30667C94.6 6.30667 94.28 6.36 93.9067 6.52C93.5334 6.68 93.2667 6.84 92.9467 7.10667L92.8934 7.16L92.9467 6.46667H90.8134L89.6934 12.9733H91.9867L92.68 9.08C92.68 8.97334 92.7334 8.81334 92.7867 8.70667C92.84 8.6 92.9467 8.49334 93.0534 8.44C93.16 8.33334 93.2667 8.28 93.3734 8.22667C93.48 8.17334 93.64 8.17334 93.7467 8.17334C93.9067 8.17334 94.0667 8.17334 94.1734 8.28C94.28 8.33334 94.3867 8.44 94.3867 8.6C94.44 8.76 94.44 8.92 94.3867 9.13334L93.8 12.9733H96.04L96.7334 8.97334C96.84 8.38667 96.84 7.90667 96.7334 7.53334ZM100.733 13.7733C101 13.6133 101.213 13.4533 101.373 13.24C101.533 13.0267 101.64 12.76 101.693 12.3867L101.747 12.1733C101.48 12.3867 101.213 12.5467 100.893 12.6533C100.52 12.8133 100.2 12.8667 99.8268 12.8667C99.2401 12.8667 98.7068 12.76 98.3334 12.4933C97.9601 12.2267 97.6401 11.8533 97.4801 11.3733C97.3201 10.8933 97.2668 10.36 97.3734 9.71999C97.4801 9.07999 97.7468 8.43999 98.0668 7.95999C98.3868 7.47999 98.8134 7.05332 99.2934 6.78665C99.8268 6.51999 100.307 6.35999 100.893 6.35999C101.16 6.35999 101.373 6.35999 101.587 6.41332C101.8 6.46665 102.013 6.51999 102.173 6.62665C102.333 6.73332 102.493 6.83999 102.6 6.94665C102.627 6.97332 102.64 6.99999 102.653 7.02665C102.667 7.05332 102.68 7.07999 102.707 7.10665L102.867 6.46665H105L103.933 12.3333C103.88 12.8667 103.667 13.3467 103.453 13.7733C103.187 14.2 102.92 14.52 102.547 14.84C102.227 15.16 101.8 15.3733 101.32 15.5333C100.84 15.6933 100.307 15.7467 99.7734 15.7467C99.2401 15.7467 98.7068 15.6933 98.1734 15.5333C97.6401 15.3733 97.2668 15.16 96.9468 14.8933L97.9601 13.3467C98.0603 13.4468 98.1814 13.5052 98.2972 13.561C98.3664 13.5943 98.4336 13.6268 98.4934 13.6667C98.6534 13.7733 98.8668 13.8267 99.0801 13.88C99.2934 13.9333 99.5068 13.9333 99.7734 13.9333C100.147 13.9333 100.467 13.9333 100.733 13.7733ZM100.627 11.16C100.893 11.16 101.16 11.1067 101.373 11C101.587 10.8933 101.8 10.68 101.853 10.4667C102.013 10.2533 102.12 9.98665 102.173 9.66665C102.227 9.34665 102.227 9.07999 102.173 8.86665C102.12 8.59999 101.96 8.43999 101.8 8.33332C101.587 8.22665 101.373 8.17332 101.107 8.17332C100.84 8.17332 100.573 8.22665 100.36 8.33332C100.147 8.49332 99.9868 8.65332 99.8268 8.86665C99.7201 9.07999 99.6134 9.34665 99.5601 9.66665C99.5068 9.98665 99.5068 10.2533 99.5601 10.4667C99.6668 10.68 99.7734 10.8933 99.9334 11C100.147 11.1067 100.36 11.16 100.627 11.16Z" fill="#191C1F"/>
<path d="M32.8244 7C29.7796 7 26.9336 7.83391 24.5037 9.2796C22.0701 7.83391 19.2223 7 16.1756 7C7.24194 7 0 14.1629 0 22.9991C0 31.8353 7.24194 38.9982 16.1756 38.9982C19.2204 38.9982 22.0664 38.1643 24.4963 36.7186C26.9281 38.1661 29.7777 38.9982 32.8225 38.9982C41.7562 38.9982 48.9982 31.8353 48.9982 22.9991C48.9982 14.1629 41.7581 7 32.8244 7ZM22.1934 35.058C20.3783 35.9484 18.3368 36.4509 16.1775 36.4509C8.67965 36.4509 2.57904 30.4169 2.57904 23.0009C2.57904 15.5849 8.67781 9.54908 16.1756 9.54908C18.335 9.54908 20.3765 10.0534 22.1916 10.942C23.0107 11.3444 23.7839 11.8232 24.5018 12.3749C24.5221 12.3603 25.0909 12.8501 25.0909 12.8501C25.5364 13.2325 39.2637 26.7663 39.2637 26.7663C38.6488 27.7914 37.7892 28.6544 36.7675 29.2844L22.4364 15.2153C21.6135 14.5671 20.6839 14.0427 19.6806 13.6731C18.589 13.2707 17.409 13.0486 16.1756 13.0486C10.6199 13.0486 6.11534 17.504 6.11534 22.9991C6.11534 28.4942 10.6199 32.9496 16.1756 32.9496C17.3354 32.9496 18.4491 32.7529 19.4855 32.3961L20.6857 33.5741L22.1952 35.0562C22.1952 35.0562 22.1934 35.0562 22.1916 35.0562L22.1934 35.058ZM31.6425 15.6923C32.0273 15.6323 32.4231 15.5995 32.8244 15.5995C36.9497 15.5995 40.3075 18.9206 40.3075 23.0009C40.3075 23.3796 40.278 23.7529 40.2228 24.117L31.6425 15.6923ZM14.8741 15.716C15.2975 15.6414 15.732 15.5995 16.1775 15.5995C16.923 15.5995 17.6428 15.7106 18.3221 15.9127C19.1633 16.1621 19.942 16.5536 20.6305 17.0597C20.6342 17.0543 34.1277 30.2876 34.1277 30.2876C33.7043 30.3623 33.2699 30.4042 32.8244 30.4042C32.0788 30.4042 31.359 30.2931 30.6798 30.091C29.8385 29.8415 29.0598 29.4501 28.3713 28.9439C28.3676 28.9494 28.2609 28.8601 28.2609 28.8601C27.9148 28.5961 14.8741 15.7178 14.8741 15.7178V15.716ZM17.3593 30.3095C16.9746 30.3696 16.5788 30.4023 16.1775 30.4023C12.0521 30.4023 8.69438 27.0813 8.69438 23.0009C8.69438 22.6222 8.72383 22.2489 8.77906 21.8848L17.3593 30.3095ZM32.8244 36.4527C30.665 36.4527 28.6235 35.9484 26.8084 35.0599C25.9893 34.6575 25.2161 34.1786 24.4982 33.6269C24.4779 33.6415 23.9091 33.1517 23.9091 33.1517C23.4636 32.7693 17.0077 26.3748 17.0077 26.3748L9.73631 19.2356C10.3512 18.2105 11.2108 17.3474 12.2325 16.7174L25.8788 30.1165C26.7735 30.9959 27.8191 31.7224 28.9843 32.1994C29.0948 32.2449 29.2052 32.2868 29.3157 32.3287C30.608 32.8057 32.0273 33.0279 33.5092 32.9296C38.6175 32.5891 42.6951 28.4195 42.8736 23.3578C43.0724 17.7007 38.4961 13.0504 32.8188 13.0504C31.6591 13.0504 30.5454 13.2471 29.509 13.6039L26.7992 10.9438C26.7992 10.9438 26.8011 10.9438 26.8029 10.9438C28.826 9.95329 31.1289 9.44165 33.5626 9.57092C40.6167 9.946 46.2553 15.7069 46.4136 22.6914C46.5866 30.2494 40.4198 36.4509 32.8188 36.4509L32.8244 36.4527Z" fill="url(#paint0_linear_265_23816)"/>
</g>
<defs>
<linearGradient id="paint0_linear_265_23816" x1="-3.30865e-07" y1="23.5" x2="49" y2="23.5" gradientUnits="userSpaceOnUse">
<stop stop-color="#0A9339"/>
<stop offset="0.755208" stop-color="#CC6D13"/>
<stop offset="1" stop-color="#AC5E16"/>
</linearGradient>
</defs>
</svg>
