<svg width="40" height="26" viewBox="0 0 40 26" fill="none" xmlns="http://www.w3.org/2000/svg">
<path d="M26.7964 0C24.3108 0 21.9875 0.677592 20.0038 1.85228C18.0171 0.677592 15.6922 0 13.2051 0C5.91201 0 0 5.82019 0 13C0 20.1798 5.91201 26 13.2051 26C15.6907 26 18.0141 25.3224 19.9977 24.1477C21.9829 25.3239 24.3093 26 26.7949 26C34.088 26 40 20.1798 40 13C40 5.82019 34.0895 0 26.7964 0ZM18.1177 22.7985C16.636 23.5219 14.9694 23.9302 13.2066 23.9302C7.0857 23.9302 2.10542 19.0273 2.10542 13.0015C2.10542 6.97565 7.08419 2.07124 13.2051 2.07124C14.9679 2.07124 16.6345 2.48105 18.1162 3.20303C18.785 3.52999 19.4162 3.91908 20.0023 4.36736C20.0188 4.35553 20.4832 4.7535 20.4832 4.7535C20.8468 5.06419 32.0532 16.061 32.0532 16.061C31.5513 16.8939 30.8495 17.5952 30.0154 18.1071L18.3161 6.67532C17.6444 6.14863 16.8854 5.72254 16.0664 5.42221C15.1753 5.09525 14.212 4.91476 13.2051 4.91476C8.66965 4.91476 4.9923 8.535 4.9923 13C4.9923 17.465 8.66965 21.0852 13.2051 21.0852C14.1519 21.0852 15.0611 20.9255 15.9071 20.6355L16.887 21.5927L18.1192 22.797C18.1192 22.797 18.1177 22.797 18.1162 22.797L18.1177 22.7985ZM25.8316 7.06293C26.1457 7.01411 26.4688 6.98748 26.7964 6.98748C30.1642 6.98748 32.9053 9.68601 32.9053 13.0015C32.9053 13.3092 32.8812 13.6125 32.8362 13.9084L25.8316 7.06293ZM12.1426 7.08217C12.4883 7.02151 12.8429 6.98748 13.2066 6.98748C13.8152 6.98748 14.4028 7.07773 14.9574 7.24195C15.6441 7.44463 16.2798 7.76272 16.8419 8.17401C16.8449 8.16957 27.8604 18.9223 27.8604 18.9223C27.5147 18.9829 27.1601 19.017 26.7964 19.017C26.1878 19.017 25.6002 18.9267 25.0456 18.7625C24.3589 18.5598 23.7232 18.2417 23.1611 17.8304C23.1581 17.8349 23.071 17.7624 23.071 17.7624C22.7884 17.5479 12.1426 7.08365 12.1426 7.08365V7.08217ZM14.1714 18.94C13.8573 18.9888 13.5342 19.0155 13.2066 19.0155C9.83882 19.0155 7.09772 16.3169 7.09772 13.0015C7.09772 12.6938 7.12176 12.3905 7.16685 12.0946L14.1714 18.94ZM26.7964 23.9317C25.0336 23.9317 23.367 23.5219 21.8853 22.7999C21.2165 22.473 20.5853 22.0839 19.9992 21.6356C19.9827 21.6474 19.5184 21.2495 19.5184 21.2495C19.1547 20.9388 13.8844 15.7429 13.8844 15.7429L7.9483 9.94196C8.45024 9.10902 9.15205 8.40776 9.9861 7.89587L21.1263 18.7832C21.8567 19.4978 22.7103 20.0881 23.6616 20.4757C23.7517 20.5127 23.8419 20.5467 23.9321 20.5807C24.987 20.9684 26.1457 21.1489 27.3554 21.069C31.5257 20.7923 34.8544 17.4043 35.0002 13.2915C35.1625 8.69478 31.4265 4.91624 26.7919 4.91624C25.8451 4.91624 24.9359 5.07602 24.0899 5.36599L21.8777 3.20451C21.8777 3.20451 21.8793 3.20451 21.8808 3.20451C23.5323 2.39968 25.4123 1.98395 27.399 2.08899C33.1578 2.39376 37.7608 7.07477 37.8901 12.75C38.0313 18.8912 32.997 23.9302 26.7919 23.9302L26.7964 23.9317Z" fill="url(#paint0_linear_417_11398)"/>
<defs>
<linearGradient id="paint0_linear_417_11398" x1="-2.70104e-07" y1="13.407" x2="40.0015" y2="13.407" gradientUnits="userSpaceOnUse">
<stop stop-color="#0A9339"/>
<stop offset="0.755208" stop-color="#CC6D13"/>
<stop offset="1" stop-color="#AC5E16"/>
</linearGradient>
</defs>
</svg>
