<svg width="20" height="20" viewBox="0 0 20 20" fill="none" xmlns="http://www.w3.org/2000/svg">
<mask id="mask0_2691_13949" style="mask-type:alpha" maskUnits="userSpaceOnUse" x="0" y="0" width="20" height="20">
<rect width="20" height="20" fill="#D9D9D9"/>
</mask>
<g mask="url(#mask0_2691_13949)">
<path d="M10.362 15.467L10.8819 14.5897L11.7825 15.0962L11.2625 15.9734C10.1139 17.9114 7.56996 18.5754 5.58047 17.4565C3.59099 16.3376 2.90934 13.8596 4.05797 11.9217L5.6178 9.28997C6.76643 7.35203 9.31038 6.68805 11.2999 7.80691L10.7799 8.68415C9.2878 7.845 7.37985 8.34299 6.51837 9.79644L4.95854 12.4281C4.09707 13.8816 4.6083 15.7401 6.10042 16.5793C7.59253 17.4184 9.50049 16.9204 10.362 15.467Z" fill="#173578"/>
<path d="M14.3822 10.71C13.2336 12.648 10.6896 13.312 8.70014 12.1931L9.22008 11.3159C10.5257 12.0501 12.1497 11.7606 13.1124 10.7031C13.2499 10.552 13.3739 10.3852 13.4816 10.2036L15.0415 7.57186C15.9029 6.11841 15.3917 4.25989 13.8996 3.42074C12.4075 2.5816 10.4995 3.07958 9.63804 4.53303L8.59815 6.2875L7.69758 5.78103L8.73747 4.02656C9.8861 2.08863 12.43 1.42465 14.4195 2.54351C16.409 3.66238 17.0907 6.1404 15.942 8.07833L14.3822 10.71Z" fill="#173578"/>
</g>
</svg>
