<svg width="28" height="28" viewBox="0 0 28 28" fill="none" xmlns="http://www.w3.org/2000/svg">
<rect width="28" height="28" rx="12" fill="url(#paint0_linear_1628_35948)"/>
<mask id="mask0_1628_35948" style="mask-type:alpha" maskUnits="userSpaceOnUse" x="3" y="3" width="22" height="22">
<rect x="3" y="3" width="22" height="22" fill="#D9D9D9"/>
</mask>
<g mask="url(#mask0_1628_35948)">
</g>
<g clip-path="url(#clip0_1628_35948)">
<path d="M19.1976 7.72346L19.2669 7.6434C17.9197 6.5242 16.2094 5.82593 14.3392 5.75L10.2051 16.8025L19.1976 7.72346Z" fill="white"/>
<path d="M8.68359 20.3058C10.1199 21.5183 11.9745 22.2496 14.0007 22.2496C16.0269 22.2496 17.8823 21.5183 19.3178 20.3058L14.0007 14.9863L8.68359 20.3058Z" fill="white"/>
<path d="M5.75825 13.6309C5.7533 13.7523 5.75 13.8736 5.75 13.9966C5.75 16.0088 6.47022 17.8527 7.66565 19.2847L12.185 7.22852L5.75825 13.6309Z" fill="white"/>
<path d="M20.2726 9L15 14.2749L20.2726 19.5499C21.4622 18.1195 22.1775 16.2806 22.1775 14.2749C22.1775 12.2693 21.4622 10.4304 20.2726 9Z" fill="white"/>
</g>
<defs>
<linearGradient id="paint0_linear_1628_35948" x1="28" y1="-8.34465e-07" x2="-2.50339e-06" y2="28" gradientUnits="userSpaceOnUse">
<stop stop-color="#FF8C00"/>
<stop offset="1" stop-color="#D30168"/>
</linearGradient>
<clipPath id="clip0_1628_35948">
<rect width="16.5" height="16.5" fill="white" transform="translate(5.75 5.75)"/>
</clipPath>
</defs>
</svg>
