<svg width="80" height="16" viewBox="0 0 80 16" fill="none" xmlns="http://www.w3.org/2000/svg">
<mask id="mask0_1644_36522" style="mask-type:alpha" maskUnits="userSpaceOnUse" x="0" y="0" width="80" height="16">
<rect width="80" height="16" fill="#D9D9D9"/>
</mask>
<g mask="url(#mask0_1644_36522)">
<path d="M2.09512 9.90285L0.000669956 13.8048L4.19444 13.8025L3.7198 12.9206L6.91602 10.9388V8.25308L4.53748 6.77849L6.91602 5.30391V2.61816L2.37131 5.4355V8.12124L4.74985 9.59583L2.63567 10.9064L2.09512 9.90285Z" fill="#EC8408"/>
<path fill-rule="evenodd" clip-rule="evenodd" d="M14.8469 11.4256C15.9509 11.4574 17.0516 11.2869 18.0979 10.9221L17.693 13.2555C16.6338 13.6165 15.5213 13.7827 14.4062 13.7468H8.89258L9.28556 11.4256H12.2865L12.5961 9.54658H14.9779L14.6801 11.4256H14.8469ZM9.77381 9.86589L10.1549 7.64298C10.8629 7.56536 11.5361 7.28662 12.0996 6.83777C12.663 6.38893 13.0947 5.7876 13.3464 5.10075H10.8456L11.2743 2.82871H13.7632L13.9775 1.60059H16.4426L16.2283 2.82871H18.7648L18.4194 5.10075H15.8234C15.7511 5.36707 15.6554 5.62604 15.5376 5.87447L18.479 8.03598L16.8713 9.85361L14.2633 7.80263C13.6835 8.43439 12.9885 8.94186 12.2181 9.29592C11.4476 9.64999 10.617 9.84368 9.77381 9.86589ZM22.7661 1.76024L20.6225 14.3363H18.2408L20.3486 1.76024H22.7661ZM28.9872 7.41922L31.7142 12.258L29.5231 13.6581L27.6772 10.1948C26.3197 12.4423 24.5691 13.7072 22.7233 13.7195L23.152 11.2633C24.9621 11.0545 26.5936 8.38945 27.3676 4.3489H24.6644L25.0573 2.0523H32.786L32.393 4.33662H29.797C29.5969 5.38233 29.3263 6.41236 28.9872 7.41922ZM36.5372 1.75755L34.3818 14.3336H32L33.0242 8.3526H30.6425L31.0354 6.03144H33.4172L34.1198 1.75755H36.5372ZM39.1673 9.26149H44.5142C45.5897 9.28194 46.662 9.13285 47.6938 8.81936L48.0392 6.81752C47.5653 6.98501 47.0734 7.09224 46.5744 7.13683L47.1222 3.95598H48.1344L48.4917 1.905H40.501L40.1557 3.95598H41.1679L40.6082 7.2228H39.5126L39.1673 9.26149ZM50.2899 12.0985H41.7991L42.1682 9.99837H39.7032L38.9648 14.3337H49.9088L50.2899 12.0985ZM44.2642 7.18595H42.9066L43.4663 3.91913H44.8239L44.2642 7.18595ZM52.4573 6.73155L52.8741 4.27529L51.4093 4.31213L51.8499 1.75763H49.4682L47.9082 11.0791H50.2899L51.0401 6.73155H52.4573ZM54.3405 2.05238H59.878L57.8773 13.7442H52.3398L54.3405 2.05238ZM54.9716 11.4967H56.0434L57.2343 4.31213H56.1625L54.9716 11.4967ZM66.3205 1.75763L64.1651 14.3337H61.9143L62.8551 8.74568H61.8429L60.9259 14.1126H58.7109L60.8068 1.83132H63.0337L62.2597 6.38767H63.2719L64.046 1.75763H66.3205ZM75.1166 2.05238H68.2215L67.8405 4.34898H72.2823L72.0799 5.47886C71.4488 9.16324 69.5553 11.423 66.6258 11.423L66.209 13.7442C70.4484 13.7442 73.6637 10.5633 74.545 5.45429L75.1166 2.05238ZM78.189 8.77024H79.618L79.9991 6.35083H78.5701L79.356 1.75763H76.9743L74.7712 14.3337H77.2363L78.189 8.77024Z" fill="#191C1F"/>
</g>
</svg>
