<svg width="32" height="32" viewBox="0 0 32 32" fill="none" xmlns="http://www.w3.org/2000/svg">
<rect width="32" height="32" rx="16" fill="white"/>
<mask id="mask0_618_20309" style="mask-type:alpha" maskUnits="userSpaceOnUse" x="0" y="0" width="32" height="32">
<rect width="32" height="32" rx="16" fill="#D9D9D9"/>
</mask>
<g mask="url(#mask0_618_20309)">
<path fill-rule="evenodd" clip-rule="evenodd" d="M24.1816 16.0002C24.1816 19.5638 21.8999 22.582 18.7272 23.7001L18.7272 26.0001L15.0909 22.8183L18.7272 19.6365L18.7272 21.7456C20.8726 20.7183 22.3635 18.5366 22.3635 16.0002C22.3635 13.8457 21.2817 11.9276 19.6272 10.7821L21.0271 9.55488C22.9453 11.0549 24.1816 13.3821 24.1816 16.0002ZM13.2727 10.2547C11.1273 11.282 9.6364 13.4638 9.6364 16.0001C9.6364 18.1546 10.7182 20.0728 12.3727 21.2182L10.9727 22.4455C9.05459 20.9455 7.81825 18.6182 7.81825 16.0001C7.81825 12.4456 10.1 9.42747 13.2727 8.30021L13.2727 6.00024L16.909 9.18201L13.2727 12.3638L13.2727 10.2547Z" fill="#C8CDD2"/>
</g>
</svg>
