<svg width="32" height="32" viewBox="0 0 32 32" fill="none" xmlns="http://www.w3.org/2000/svg">
<rect opacity="0.6" width="32" height="32" rx="8" fill="black"/>
<mask id="mask0_2644_35327" style="mask-type:alpha" maskUnits="userSpaceOnUse" x="10" y="16" width="6" height="6">
<rect x="10" y="16" width="6" height="6" fill="#D9D9D9"/>
</mask>
<g mask="url(#mask0_2644_35327)">
<path fill-rule="evenodd" clip-rule="evenodd" d="M10 20.9997V16.9997L11 16.9997L11 20.2876L14.9497 16.3379L15.6569 17.045L11.7022 20.9997H15V21.9997L11 21.9997L10 21.9997V21.2876V20.9997Z" fill="white"/>
</g>
<mask id="mask1_2644_35327" style="mask-type:alpha" maskUnits="userSpaceOnUse" x="16" y="10" width="6" height="6">
<rect x="22" y="16" width="6" height="6" transform="rotate(-180 22 16)" fill="#D9D9D9"/>
</mask>
<g mask="url(#mask1_2644_35327)">
<path fill-rule="evenodd" clip-rule="evenodd" d="M22 11.0003L22 15.0003L21 15.0003L21 11.7124L17.0503 15.6621L16.3431 14.955L20.2978 11.0003L17 11.0003L17 10.0003L21 10.0003L22 10.0003L22 10.7124L22 11.0003Z" fill="white"/>
</g>
</svg>
