<svg width="390" height="75" viewBox="0 0 390 75" fill="none" xmlns="http://www.w3.org/2000/svg">
<path fill-rule="evenodd" clip-rule="evenodd" d="M43.6 4.2C44.3 4.2 45 4 45.5 3.6C46 3.2 46.3 2.7 46.4 2.1C46.5 1.4 46.4 0.9 46 0.5C45.6 0.2 45 0 44.3 0C43.5 0 42.9 0.2 42.4 0.6C41.9 1 41.6 1.5 41.5 2.1C41.4 2.8 41.5 3.3 41.9 3.6C42.2 4 42.8 4.2 43.6 4.2ZM12.6 15H5L5.4 12.3H11.8L12.4 8.79998H6.1L6.5 6.39998H13.8L14.4 2.59998H2.8L0 18.7H11.9L12.6 15ZM59.4 37.4C61.7 38.4 63.7 39.7 65.4 41.4C67.1 43.1 68.4 45.1 69.5 47.3C70.4 49.6 70.9 52.2 70.9 54.9C70.9 57.6 70.4 60.2 69.5 62.5C68.5 64.9 67.2 66.9 65.5 68.6C63.8 70.3 61.8 71.7 59.5 72.6C57.1 73.5 54.7 74 51.9 74C49.1 74 46.5 73.5 44.2 72.6C41.9 71.6 39.9 70.3 38.2 68.6C36.5 66.9 35.1 64.9 34.2 62.6C33.3 60.3 32.8 57.8 32.8 55C32.8 52.2 33.3 49.7 34.2 47.4C35.2 45.1 36.5 43.1 38.2 41.4C39.9 39.7 41.9 38.3 44.2 37.4C46.5 36.5 49 36 51.8 36C54.6 36 57.1 36.5 59.4 37.4ZM58.8 62.7C59.7 61.7 60.4 60.6 60.9 59.3C61.4 58 61.7 56.6 61.6 55C61.6 53.5 61.4 52.1 60.9 50.8C60.4 49.5 59.7 48.4 58.8 47.4C58 46.5 56.9 45.7 55.7 45.2C54.5 44.7 53.2 44.4 51.7 44.4C50.2 44.4 48.9 44.7 47.7 45.2C46.5 45.7 45.4 46.4 44.5 47.4C43.6 48.4 42.9 49.5 42.4 50.8C41.9 52 41.7 53.5 41.7 55C41.7 56.6 41.9 58 42.4 59.3C42.9 60.6 43.6 61.8 44.5 62.7C45.4 63.6 46.5 64.4 47.7 64.9C48.9 65.4 50.2 65.7 51.7 65.7C53.2 65.7 54.5 65.4 55.7 64.9C56.9 64.4 57.9 63.7 58.8 62.7ZM23.3 65.3C24.3 65 25.2 64.5 26.1 64C27 63.5 27.7 62.9 28.4 62.1L32.7 68.9C31.8 69.9 30.6 70.7 29.2 71.5C27.8 72.3 26.2 72.9 24.4 73.3C22.7 73.8 20.9 74 19.1 74C16.4 74 13.8 73.5 11.5 72.6C9.1 71.7 7.1 70.4 5.4 68.7C3.6 67 2.3 65 1.4 62.7C0.5 60.4 0 57.7 0 55C0 52.3 0.5 49.8 1.5 47.5C2.5 45.2 3.9 43.2 5.6 41.5C7.3 39.8 9.3 38.4 11.7 37.5C14 36.6 16.6 36.1 19.4 36.1C21.1 36.1 22.8 36.3 24.5 36.8C26.2 37.2 27.8 37.9 29.2 38.8C30.7 39.7 32 40.8 33 42L27.6 48C26.9 47.3 26.1 46.6 25.3 46C24.5 45.5 23.6 45 22.6 44.7C21.7 44.4 20.6 44.2 19.5 44.2C18.1 44.2 16.7 44.5 15.5 45C14.2 45.6 13.1 46.3 12.2 47.2C11.3 48.1 10.5 49.3 10 50.6C9.5 52 9.2 53.5 9.2 55.1C9.2 56.7 9.5 58.2 10 59.5C10.5 60.8 11.3 62 12.2 62.9C13.1 63.9 14.3 64.6 15.6 65.1C17 65.6 18.5 65.8 20.1 65.8C21.2 65.8 22.3 65.6 23.3 65.3ZM98.5 59.3L82 36.8H74V73.6H82.7V51.5L99 73.6H107.1V36.8H98.5V59.3ZM134.2 62.6C134.8 61.5 135.2 60.3 135.2 59V36.8H143.9V59.4C143.9 62.2 143.2 64.6 141.9 66.8C140.5 69 138.7 70.7 136.3 71.9C133.9 73.2 131.2 73.8 128.2 73.8C125.2 73.8 122.5 73.1 120.1 71.9C117.7 70.7 115.8 69 114.5 66.8C113.2 64.7 112.5 62.2 112.5 59.4V36.8H121.5V59C121.5 60.3 121.8 61.5 122.4 62.6C123 63.7 123.8 64.5 124.8 65.1C125.8 65.7 126.9 66 128.2 66C129.5 66 130.7 65.7 131.7 65.1C132.7 64.5 133.6 63.7 134.2 62.6ZM146.2 44.7H157.1V73.6H166V44.7H177.2V36.8H146.2V44.7ZM211.9 52.3C213.4 52.9 214.8 53.7 215.9 54.6C217.1 55.5 217.9 56.6 218.7 58.1C219.3 59.3 219.6 60.8 219.6 62.4C219.6 65 218.9 67.1 217.7 68.9C216.4 70.6 214.8 72 212.6 72.9C210.5 73.8 208 74.3 205.2 74.3C202.8 74.3 200.6 74 198.7 73.4C196.7 72.8 195 72 193.5 70.9C192 69.8 190.7 68.5 189.5 67L194.9 60.9C196.7 63.2 198.4 64.8 200.2 65.6C202 66.4 203.8 66.8 205.7 66.8C206.7 66.8 207.5 66.6 208.3 66.4C209.1 66.1 209.7 65.8 210.1 65.3C210.5 64.8 210.7 64.2 210.7 63.5C210.7 63 210.6 62.5 210.3 62.1C210 61.7 209.7 61.3 209.2 61C208.8 60.7 208.2 60.4 207.6 60.1C207 59.8 206.3 59.6 205.6 59.4C204.9 59.2 204.2 59 203.5 58.9C201.5 58.4 199.7 57.9 198.2 57.2C196.6 56.6 195.4 55.8 194.4 54.8C193.4 53.8 192.7 52.7 192.2 51.5C191.7 50.2 191.5 48.8 191.5 47.3C191.5 45.7 191.8 44.2 192.6 42.8C193.3 41.4 194.3 40.2 195.6 39.2C196.8 38.2 198.3 37.4 200 36.9C201.6 36.4 203.4 36.1 205.2 36.1C207.6 36.1 209.7 36.4 211.4 36.9C213.2 37.4 214.7 38.2 215.9 39.1C217.2 40 218.2 41.2 219.1 42.5L213.6 47.8C212.9 46.8 212.1 46.1 211.2 45.5C210.4 44.9 209.5 44.4 208.5 44.1C207.5 43.8 206.5 43.6 205.5 43.6C204.5 43.6 203.6 43.7 202.8 44C202 44.3 201.4 44.6 201 45.1C200.6 45.6 200.4 46.1 200.4 46.8C200.4 47.4 200.6 47.9 200.9 48.3C201.2 48.7 201.7 49.1 202.3 49.4C202.9 49.7 203.5 50 204.3 50.2C205.1 50.5 205.9 50.7 206.7 50.8C208.6 51.2 210.3 51.7 211.9 52.3ZM252.8 41.4C251.1 39.7 249.1 38.4 246.8 37.4C244.5 36.4 242 36 239.2 36C236.4 36 233.9 36.5 231.6 37.4C229.3 38.3 227.3 39.7 225.6 41.4C223.9 43.1 222.6 45.1 221.6 47.4C220.7 49.7 220.2 52.2 220.2 55C220.2 57.8 220.7 60.3 221.6 62.6C222.5 64.9 223.9 66.9 225.6 68.6C227.3 70.3 229.3 71.6 231.6 72.6C233.9 73.6 236.4 74 239.2 74C240.5 74 241.7 73.9 242.9 73.7L236.7 65.3C236.2 65.2 235.7 65 235.2 64.8C234 64.3 232.9 63.5 232 62.6C231.1 61.7 230.4 60.5 229.9 59.2C229.4 57.9 229.2 56.5 229.2 54.9C229.2 53.4 229.4 51.9 229.9 50.7C230.4 49.4 231.1 48.3 232 47.3C232.9 46.3 234 45.6 235.2 45.1C236.4 44.6 237.7 44.3 239.2 44.3C240.6 44.3 242 44.6 243.2 45.1C244.4 45.6 245.5 46.4 246.3 47.3C247.2 48.3 247.9 49.4 248.4 50.7C248.9 52 249.1 53.4 249.1 54.9C249.1 56.4 248.9 57.8 248.4 59L254.2 66.9C255.2 65.6 256.1 64.1 256.8 62.4C257.7 60.1 258.2 57.5 258.2 54.8C258.2 52.1 257.7 49.5 256.8 47.2C255.9 45.1 254.5 43.1 252.8 41.4ZM283.9 36.8H292.6H292.7V59.4C292.7 62.2 292 64.6 290.7 66.8C289.3 69 287.5 70.7 285.1 71.9C282.7 73.2 280 73.8 277 73.8C274 73.8 271.3 73.1 268.9 71.9C266.5 70.7 264.6 69 263.3 66.8C262 64.7 261.3 62.2 261.3 59.4V36.8H270.3V59C270.3 60.3 270.6 61.5 271.2 62.6C271.8 63.7 272.6 64.5 273.6 65.1C274.6 65.7 275.7 66 277 66C278.3 66 279.5 65.7 280.5 65.1C281.5 64.5 282.4 63.7 283 62.6C283.6 61.5 283.9 60.3 283.9 59V36.8ZM306.7 36.8L292.2 73.5H301C301 73.5 310.1 48.4 310.4 47.7C310.6 48.4 319.7 73.5 319.7 73.5H328.7L314.3 36.8H306.7ZM352.5 59.1L351.9 59.4L360.2 73.6H350L342.7 60.7H338.1V73.6H329.6V36.9H346.1C348.5 36.9 350.6 37.4 352.5 38.4C354.4 39.4 355.9 40.8 357 42.6C358.1 44.4 358.6 46.3 358.6 48.6C358.6 50.9 358.1 53 357 54.8C355.9 56.6 354.4 58.1 352.5 59.1ZM344.5 44.3H338V53.9H345.3C346.2 53.9 347 53.7 347.7 53.3C348.4 52.9 348.9 52.3 349.3 51.6C349.6 50.9 349.8 50 349.8 49.1C349.8 48.1 349.6 47.3 349.2 46.6C348.8 45.8 348.2 45.3 347.4 44.9C346.6 44.5 345.6 44.3 344.5 44.3ZM371.4 66V58.5H385.9V51.3H371.4V44.4H388.3V36.8H362.7V73.6H388.8V66H371.4ZM236.1 60.3L242.6 55.7L256.2 74.1H246.3L236.1 60.3ZM17.9 18.7H12.9L18.3 12.4L15.2 6.5H20.2L21.4 9.3L23.3 6.5H28.2L23.1 12.5L26.3 18.7H21.3L20 15.5L17.9 18.7ZM27.4 15.9C27.8 16.9 28.4 17.6 29.2 18.2C30.1 18.8 31.1 19 32.3 19C33.4 19 34.4 18.8 35.4 18.5C36.4 18.1 37.2 17.7 37.9 17L36 14.1C35.8 14.3 35.5 14.5 35.2 14.7C34.9 14.9 34.6 15 34.3 15.1C34 15.2 33.6 15.2 33.2 15.2C32.7 15.2 32.3 15.1 31.9 14.8C31.6 14.6 31.3 14.2 31.2 13.8C31.1 13.4 31.1 12.9 31.1 12.4C31.2 11.9 31.4 11.4 31.7 11C32 10.6 32.3 10.3 32.7 10C33.1 9.8 33.6 9.7 34.1 9.7C34.5 9.7 34.8 9.7 35.1 9.8C35.4 9.9 35.7 10 35.9 10.2C36.1 10.4 36.3 10.6 36.4 10.8L39.2 8C38.8 7.3 38.1 6.8 37.3 6.5C36.4 6.1 35.5 6 34.4 6C33.2 6 32.1 6.3 31 6.8C30 7.4 29.1 8.1 28.4 9.1C27.7 10.1 27.2 11.1 27 12.4C26.9 13.8 27 14.9 27.4 15.9ZM45.3 6.5L43.1 18.7H38.9L41 6.5H45.3ZM46.6 18.7L48.1 10.1H46.1L46.7 6.50002H48.7L49.3 3.40002H53.5L52.9 6.50002H55.1L54.4 10.1H52.3L50.8 18.7H46.6ZM59.1 4.2C59.8 4.2 60.5 4 61 3.6C61.5 3.2 61.8 2.7 61.9 2.1C62 1.4 61.9 0.9 61.5 0.5C61.2 0.2 60.6 0 59.8 0C59 0 58.4 0.2 57.9 0.6C57.4 1 57.1 1.5 57 2.1C56.9 2.8 57 3.3 57.4 3.6C57.8 4 58.3 4.2 59.1 4.2ZM60.8 6.5L58.7 18.7H54.5L56.6 6.5H60.8ZM74.5 8.50001C74.3 7.80001 73.9 7.20001 73.4 6.80001C72.9 6.40001 72.1 6.20001 71.2 6.20001C70.5 6.20001 69.9 6.30001 69.2 6.60001C68.5 6.90001 68 7.20001 67.4 7.70001L67.3 7.80001L67.4 6.50001H63.4L61.3 18.7H65.6L66.9 11.4C66.9 11.2 67 10.9 67.1 10.7C67.2 10.5 67.4 10.3 67.6 10.2C67.8 10 68 9.90001 68.2 9.80001C68.4 9.70001 68.7 9.70001 68.9 9.70001C69.2 9.70001 69.5 9.70001 69.7 9.90001C69.9 10 70.1 10.2 70.1 10.5C70.2 10.8 70.2 11.1 70.1 11.5L69 18.7H73.2L74.5 11.2C74.7 10.1 74.7 9.20001 74.5 8.50001ZM82 20.2C82.5 19.9 82.9 19.6 83.2 19.2C83.5 18.8 83.7 18.3 83.8 17.6L83.9 17.2C83.4 17.6 82.9 17.9 82.3 18.1C81.6 18.4 81 18.5 80.3 18.5C79.2 18.5 78.2 18.3 77.5 17.8C76.8 17.3 76.2 16.6 75.9 15.7C75.6 14.8 75.5 13.8 75.7 12.6C75.9 11.4 76.4 10.2 77 9.29999C77.6 8.39999 78.4 7.59999 79.3 7.09999C80.3 6.59999 81.2 6.29999 82.3 6.29999C82.8 6.29999 83.2 6.29999 83.6 6.39999C84 6.49999 84.4 6.59999 84.7 6.79999C85 6.99999 85.3 7.19999 85.5 7.39999C85.55 7.44999 85.575 7.49999 85.6 7.54999C85.625 7.59999 85.65 7.64999 85.7 7.69999L86 6.49999H90L88 17.5C87.9 18.5 87.5 19.4 87.1 20.2C86.6 21 86.1 21.6 85.4 22.2C84.8 22.8 84 23.2 83.1 23.5C82.2 23.8 81.2 23.9 80.2 23.9C79.2 23.9 78.2 23.8 77.2 23.5C76.2 23.2 75.5 22.8 74.9 22.3L76.8 19.4C76.9879 19.5878 77.2149 19.6973 77.4321 19.8019C77.5617 19.8644 77.6879 19.9252 77.8 20C78.1 20.2 78.5 20.3 78.9 20.4C79.3 20.5 79.7 20.5 80.2 20.5C80.9 20.5 81.5 20.5 82 20.2ZM81.8 15.3C82.3 15.3 82.8 15.2 83.2 15C83.6 14.8 84 14.4 84.1 14C84.4 13.6 84.6 13.1 84.7 12.5C84.8 11.9 84.8 11.4 84.7 11C84.6 10.5 84.3 10.2 84 9.99999C83.6 9.79999 83.2 9.69999 82.7 9.69999C82.2 9.69999 81.7 9.79999 81.3 9.99999C80.9 10.3 80.6 10.6 80.3 11C80.1 11.4 79.9 11.9 79.8 12.5C79.7 13.1 79.7 13.6 79.8 14C80 14.4 80.2 14.8 80.5 15C80.9 15.2 81.3 15.3 81.8 15.3Z" fill="#191C1F"/>
</svg>
