<svg width="36" height="36" viewBox="0 0 36 36" fill="none" xmlns="http://www.w3.org/2000/svg">
<path fill-rule="evenodd" clip-rule="evenodd" d="M30 13V23.9868C30 24.926 29.4742 25.6585 28.7838 26.1606C28.0963 26.6605 27.2042 26.9682 26.3311 27.0779C25.4619 27.1872 24.552 27.1075 23.8359 26.7668C23.0964 26.415 22.543 25.7651 22.543 24.8021C22.543 23.5246 23.5562 22.7558 24.5892 22.3675C25.4425 22.0467 26.4427 21.9251 27.2982 21.9885V19.071L22.3609 21.1954V27.8241C22.3609 28.7982 21.8545 29.5506 21.1637 30.064C20.481 30.5713 19.5962 30.8669 18.7339 30.964C17.8745 31.0608 16.9797 30.9666 16.2771 30.6308C15.5582 30.2872 15 29.6604 15 28.7355C15 27.4619 16.008 26.68 17.0346 26.2789C17.8783 25.9493 18.8666 25.8156 19.7083 25.8739V17.5322L30 13ZM20.6792 18.179V27.0322L20.1001 26.9166C19.3544 26.7677 18.2701 26.8523 17.3833 27.1988C16.4762 27.5532 15.9709 28.0903 15.9709 28.7355C15.9709 29.1774 16.2114 29.51 16.6906 29.739C17.1861 29.9758 17.8889 30.0675 18.6269 29.9844C19.3622 29.9016 20.0748 29.6516 20.5903 29.2686C21.0976 28.8916 21.39 28.4089 21.39 27.8241V20.5427L28.2691 17.5827V23.144L27.6924 23.032C26.9167 22.8813 25.8176 22.9567 24.9264 23.2918C24.0139 23.6348 23.5138 24.161 23.5138 24.8021C23.5138 25.3021 23.7712 25.6475 24.2478 25.8743C24.7479 26.1122 25.4595 26.1943 26.2118 26.0998C26.9603 26.0057 27.6897 25.7438 28.2184 25.3593C28.7441 24.977 29.0291 24.5105 29.0291 23.9868V14.5019L20.6792 18.179Z" fill="white"/>
<path fill-rule="evenodd" clip-rule="evenodd" d="M6 8H26V13H25V9H7V27H14V28H6V8Z" fill="white"/>
<rect x="8" y="10" width="3" height="2" fill="white"/>
<path fill-rule="evenodd" clip-rule="evenodd" d="M9 12H10V15.2014L16.2371 18.5598L15.7629 19.4402L9 15.7986V12Z" fill="white"/>
<path fill-rule="evenodd" clip-rule="evenodd" d="M10 18.0187C10.0091 20.9833 12.1682 23.442 15 23.917V22.9C12.9151 22.4768 11.3013 20.7563 11.0378 18.6179L10 18.0187ZM11.3659 14.1885L12.2463 14.6968C13.1626 13.6564 14.5046 13 16 13C18.0503 13 19.8124 14.2341 20.5839 16H21.6586C20.8349 13.6696 18.6124 12 16 12C14.1336 12 12.4663 12.8521 11.3659 14.1885Z" fill="#F7941D"/>
</svg>
