<svg width="36" height="36" viewBox="0 0 36 36" fill="none" xmlns="http://www.w3.org/2000/svg">
<path d="M30.5 24.9544L26 27.4294L21.5 24.9544V20.0456L26 17.5706L30.5 20.0456V24.9544Z" stroke="white"/>
<path fill-rule="evenodd" clip-rule="evenodd" d="M18 27.9506C17.6711 27.9833 17.3375 28 17 28C11.4772 28 7 23.5228 7 18C7 12.4772 11.4772 8 17 8C21.4776 8 25.2679 10.9429 26.5422 15H25.4879C24.2524 11.5044 20.9187 9 17 9C12.0294 9 8 13.0294 8 18C8 22.9706 12.0294 27 17 27C17.338 27 17.6717 26.9814 18 26.9451V27.9506Z" fill="white"/>
<path fill-rule="evenodd" clip-rule="evenodd" d="M14 18C14 18.5523 13.5523 19 13 19C12.4477 19 12 18.5523 12 18C12 17.4477 12.4477 17 13 17C13.5523 17 14 17.4477 14 18ZM18 18C18 18.5523 17.5523 19 17 19C16.4477 19 16 18.5523 16 18C16 17.4477 16.4477 17 17 17C17.5523 17 18 17.4477 18 18ZM21 19C21.5523 19 22 18.5523 22 18C22 17.4477 21.5523 17 21 17C20.4477 17 20 17.4477 20 18C20 18.5523 20.4477 19 21 19Z" fill="#F7941D"/>
</svg>
