<svg width="36" height="36" viewBox="0 0 36 36" fill="none" xmlns="http://www.w3.org/2000/svg">
<path fill-rule="evenodd" clip-rule="evenodd" d="M29 8.00146H7V8.06396V9.06396V21.939V22.939V23.0015H18V24.0015H13.7612L12.0292 27.0015H15V28.0015H11.4518L9.1547 31.9802H8L12.6065 24.0015H7H6V23.0015V8.00146V7.00146H7H29H30V8.00146V12.0015H29V9.06396V8.06396V8.00146ZM26.8371 31.9802L24.54 28.0015H25.6947L27.9918 31.9802H26.8371ZM22.6572 12.2944L27.0963 16.7335L26.3892 17.4406L22.6572 13.7086L18.2857 18.0802L19.4141 19.2085H17.9998L14.207 15.4157L10.4142 19.2085H9L14.207 14.0015L17.5786 17.373L22.6572 12.2944Z" fill="white"/>
<path fill-rule="evenodd" clip-rule="evenodd" d="M31.3898 14.023C31.2442 13.9882 31.092 13.9957 30.9507 14.0444L30.9507 14.0444L30.9469 14.0457C30.0338 14.3684 27.6999 15.434 24.6395 18.5695L24.6395 18.5695C24.0139 19.2105 23.4262 19.8522 22.8937 20.4735L22.7733 20.614V20.6174C21.9034 21.6417 21.1857 22.6096 20.7212 23.3981C20.4897 23.4023 20.2599 23.4489 20.0431 23.5367L20.0431 23.5366L20.0397 23.538C19.7647 23.6517 19.5159 23.8208 19.3077 24.0345C19.1001 24.2476 18.9372 24.5008 18.8282 24.7786C18.6197 25.2981 18.1806 25.8071 17.3501 26.369L17.349 26.3698C17.2193 26.458 17.1196 26.5823 17.0606 26.7255C17.0016 26.8687 16.9854 27.0258 17.0133 27.1777C17.0412 27.3297 17.1124 27.4714 17.2199 27.5846C17.3269 27.6974 17.4653 27.7769 17.6186 27.8116C18.1508 27.9328 18.6941 27.9965 19.2394 28.0015V28.0015H19.244C20.1006 28.0015 20.8878 27.8269 21.5876 27.4603C22.3063 27.0853 22.78 26.3483 22.7966 25.5578C24.0627 24.7862 25.8204 23.2872 27.5508 21.5138L27.5511 21.5135C30.605 18.3781 31.6416 15.9892 31.957 15.0581L31.9571 15.0581C32.0051 14.9175 32.0129 14.7662 31.98 14.6214C31.9472 14.4771 31.8748 14.3438 31.7696 14.2375C31.666 14.1325 31.5348 14.0576 31.3898 14.023ZM31.0107 14.7352L31.0159 14.737L31.0104 14.7361L31.0107 14.7352ZM25.3551 19.2679C27.8776 16.6835 29.8521 15.5909 30.8514 15.1582C30.4324 16.1799 29.3688 18.2141 26.8348 20.8158C25.1584 22.5337 23.5077 23.9351 22.3587 24.6531L21.5934 23.8878C22.0353 23.1415 22.7509 22.1779 23.6527 21.1275L23.7733 20.987V20.9846C24.2589 20.4241 24.7906 19.8463 25.3551 19.2679ZM20.6914 24.4001C20.5989 24.4068 20.5073 24.4278 20.4198 24.463C20.2724 24.5242 20.1377 24.6155 20.0241 24.7322C19.9099 24.8494 19.8194 24.9897 19.7587 25.145L19.7572 25.1487L19.7572 25.1487C19.4914 25.8124 19.0027 26.3833 18.2932 26.9232C18.6085 26.9723 18.927 26.9984 19.2463 27.0015C19.9638 27.0012 20.5871 26.8556 21.1238 26.5744L21.1246 26.5739C21.5494 26.3524 21.7997 25.9229 21.7969 25.5056L20.6914 24.4001Z" fill="white"/>
<path fill-rule="evenodd" clip-rule="evenodd" d="M11 13.0015C11.5523 13.0015 12 12.5537 12 12.0015C12 11.4492 11.5523 11.0015 11 11.0015C10.4477 11.0015 10 11.4492 10 12.0015C10 12.5537 10.4477 13.0015 11 13.0015ZM11 14.0015C12.1046 14.0015 13 13.106 13 12.0015C13 10.8969 12.1046 10.0015 11 10.0015C9.89543 10.0015 9 10.8969 9 12.0015C9 13.106 9.89543 14.0015 11 14.0015Z" fill="#F7941D"/>
</svg>
