<svg xmlns="http://www.w3.org/2000/svg" width="17.996" height="18.002" viewBox="0 0 17.996 18.002">
    <path d="M20568 20767a9 9 0 1 1 9-9 9.01 9.01 0 0 1-9 9zm.031-5.916a1 1 0 1 0 1 1 1 1 0 0 0-.998-1zm-.021-6.545a1.424 1.424 0 0 1 .865.266 1.4 1.4 0 0 1 .443 1.125 1.555 1.555 0 0 1-.225.834 2.28 2.28 0 0 1-.609.646 3.2 3.2 0 0 0-1.156 1.205 4.033 4.033 0 0 0-.23 1.572h1.793a2.366 2.366 0 0 1 .188-1.062 1.933 1.933 0 0 1 .637-.625 4.789 4.789 0 0 0 1.193-1.152 2.58 2.58 0 0 0 .434-1.48 2.608 2.608 0 0 0-1.434-2.506 4.356 4.356 0 0 0-2.008-.443 3.434 3.434 0 0 0-2.2.715 2.99 2.99 0 0 0-1.047 2.506h1.9v-.01a1.835 1.835 0 0 1 .271-1.037 1.329 1.329 0 0 1 1.187-.554z" transform="translate(-20559.002 -20748.998)" style="fill:#fff;opacity:.4"/>
</svg>
