<svg width="51" height="24" viewBox="0 0 51 24" fill="none" xmlns="http://www.w3.org/2000/svg">
<path fill-rule="evenodd" clip-rule="evenodd" d="M14.515 8.5141C15.2974 10.1413 15.4864 11.3904 15.0822 12.2613C14.4942 14.0949 12.4646 12.1309 13.7742 10.3637C14.5582 9.2189 13.807 6.7637 11.883 4.3125C12.683 8.1085 6.90776 8.7813 7.98136 13.1125C8.76536 14.9117 6.37656 14.3925 7.28936 12.2797C6.91006 12.8434 6.66274 13.4853 6.56578 14.1577C6.46883 14.8302 6.52474 15.5158 6.72936 16.1637C7.20666 17.1394 7.90885 17.9877 8.77815 18.6389C9.64321 19.3255 10.7186 19.6928 11.8229 19.6789C11.7949 19.6789 11.7678 19.6789 11.743 19.6789C8.99176 19.3437 9.30695 15.0157 11.5781 12.9829C11.0493 14.5149 11.2278 15.8453 11.9478 16.6517C11.9478 15.8069 12.439 15.4517 12.527 14.5669C14.687 16.9989 13.9925 19.4069 12.1677 19.6597C17.8005 19.1653 18.739 12.2925 14.5166 8.5117L14.515 8.5141Z" fill="#F8F8F8"/>
<path d="M25.7354 8.08161H27.5386L27.5498 15.9216H25.7498L25.7354 8.08161ZM22.1738 15.9216H20.3706L20.3594 8.08161H22.1626L22.1738 15.9216ZM25.881 12.696L22.041 12.7072L22.0298 11.1872L25.8698 11.176L25.881 12.696ZM33.1946 16.0448C32.6157 16.0494 32.0408 15.9488 31.4978 15.748C30.9898 15.5615 30.525 15.2738 30.1314 14.9024C29.7483 14.5386 29.4467 14.0977 29.2466 13.6088C29.0382 13.0985 28.9295 12.5529 28.9266 12.0016C28.9207 11.4495 29.0297 10.9022 29.2466 10.3944C29.4564 9.90964 29.761 9.47171 30.1426 9.10641C30.5338 8.73248 30.9964 8.4411 31.5026 8.24961C32.0424 8.04501 32.6166 7.94615 33.1938 7.95841C33.7802 7.94399 34.364 8.04286 34.913 8.24961C35.4163 8.4414 35.8769 8.73066 36.2682 9.10081C36.6501 9.46267 36.9549 9.89807 37.1642 10.3808C37.3819 10.8928 37.4872 11.4455 37.473 12.0016C37.4857 12.5568 37.3807 13.1083 37.165 13.62C36.9589 14.1069 36.6538 14.5455 36.269 14.908C35.8764 15.2752 35.4161 15.5624 34.9138 15.7536C34.3648 15.9604 33.781 16.0592 33.1946 16.0448ZM33.1946 14.5248C33.5319 14.5215 33.8659 14.457 34.1802 14.3344C34.4728 14.2189 34.738 14.0434 34.9586 13.8192C35.1814 13.591 35.3566 13.3207 35.4738 13.024C35.601 12.6981 35.6675 12.3515 35.6698 12.0016C35.6671 11.6528 35.6007 11.3074 35.4738 10.9824C35.3566 10.6857 35.1814 10.4154 34.9586 10.1872C34.7372 9.9625 34.4723 9.78529 34.1802 9.66641C33.867 9.54044 33.5321 9.47763 33.1946 9.48161C32.8657 9.48677 32.5405 9.55128 32.2346 9.67201C31.942 9.78747 31.6768 9.96298 31.4562 10.1872C31.2341 10.4139 31.059 10.6823 30.941 10.9768C30.8119 11.3032 30.7444 11.6506 30.7418 12.0016C30.7455 12.3485 30.8119 12.6919 30.9378 13.0152C31.054 13.3138 31.2292 13.5859 31.453 13.8152C31.674 14.0397 31.9383 14.2172 32.2298 14.3368C32.5359 14.4619 32.8639 14.5247 33.1946 14.5216V14.5248ZM40.385 15.9216L40.3738 9.56001H37.865V8.08161H44.6858L44.697 9.56001H42.177L42.1882 15.9216H40.385Z" fill="white"/>
</svg>
