<svg width="80" height="80" viewBox="0 0 80 80" fill="none" xmlns="http://www.w3.org/2000/svg">
<rect width="80" height="80" rx="20" fill="#191C1F"/>
<mask id="mask0_2975_46479" style="mask-type:alpha" maskUnits="userSpaceOnUse" x="18" y="18" width="44" height="44">
<rect x="18" y="18" width="44" height="44" fill="#D9D9D9"/>
</mask>
<g mask="url(#mask0_2975_46479)">
<path fill-rule="evenodd" clip-rule="evenodd" d="M31.3137 20C26.8954 20 23.3137 23.5817 23.3137 28C23.3137 32.4183 26.8954 36 31.3137 36C35.732 36 39.3137 32.4183 39.3137 28C39.3137 23.5817 35.732 20 31.3137 20ZM20 47.9998L31.3137 59.3135L42.6274 47.9998L31.3137 36.6861L20 47.9998ZM50.8431 36C46.6847 36 43.3137 32.629 43.3137 28.4706C43.3137 23.7924 47.1061 20 51.7843 20H59.3137V28C59.3137 32.4183 55.732 36 51.3137 36H50.8431ZM59.3137 56V40H52.3137C47.3431 40 43.3137 44.0294 43.3137 49V56H59.3137Z" fill="white"/>
</g>
</svg>
