<svg width="80" height="80" viewBox="0 0 80 80" fill="none" xmlns="http://www.w3.org/2000/svg">
<rect width="80" height="80" rx="20" fill="#191C1F"/>
<mask id="mask0_2975_46475" style="mask-type:alpha" maskUnits="userSpaceOnUse" x="18" y="18" width="44" height="44">
<rect x="18" y="18" width="44" height="44" fill="#D9D9D9"/>
</mask>
<g mask="url(#mask0_2975_46475)">
<path fill-rule="evenodd" clip-rule="evenodd" d="M45 32.5C45 32.7411 44.9932 32.9806 44.9797 33.2183C38.9915 34.2677 34.2677 38.9915 33.2183 44.9797C32.9806 44.9932 32.7411 45 32.5 45C25.5964 45 20 39.4036 20 32.5C20 25.5964 25.5964 20 32.5 20C39.4036 20 45 25.5964 45 32.5ZM47.5 60C54.4036 60 60 54.4036 60 47.5C60 40.5964 54.4036 35 47.5 35C40.5964 35 35 40.5964 35 47.5C35 54.4036 40.5964 60 47.5 60Z" fill="white"/>
</g>
</svg>
