<svg width="18" height="18" viewBox="0 0 18 18" fill="none" xmlns="http://www.w3.org/2000/svg">
<path opacity="0.2" d="M0 7.71428C0 3.4538 3.4538 0 7.71429 0H10.2857C14.5462 0 18 3.4538 18 7.71429V10.2857C18 14.5462 14.5462 18 10.2857 18H7.71428C3.4538 18 0 14.5462 0 10.2857V7.71428Z" fill="#191C1F"/>
<path d="M12.0862 7.05638C11.8668 6.93769 11.5849 6.93769 11.3342 7.05638L9.57963 8.03561L8.38903 8.65875L6.6658 9.63798C6.44648 9.75668 6.16449 9.75668 5.91384 9.63798L4.56658 8.86647C4.34726 8.74777 4.1906 8.51039 4.1906 8.24332V6.75964C4.1906 6.52226 4.31593 6.28487 4.56658 6.1365L5.91384 5.39466C6.13316 5.27596 6.41514 5.27596 6.6658 5.39466L8.01306 6.16617C8.23238 6.28487 8.38903 6.52226 8.38903 6.78932V7.76855L9.57963 7.11573V6.10683C9.57963 5.86944 9.45431 5.63205 9.20365 5.48368L6.69713 4.08902C6.47781 3.97033 6.19582 3.97033 5.94517 4.08902L3.37598 5.51335C3.12533 5.63205 3 5.86944 3 6.10683V8.89614C3 9.13353 3.12533 9.37092 3.37598 9.51929L5.91384 10.9139C6.13316 11.0326 6.41514 11.0326 6.6658 10.9139L8.38903 9.96439L9.57963 9.31157L11.3029 8.36202C11.5222 8.24332 11.8042 8.24332 12.0548 8.36202L13.4021 9.10386C13.6214 9.22255 13.7781 9.45994 13.7781 9.727V11.2107C13.7781 11.4481 13.6527 11.6855 13.4021 11.8338L12.0862 12.5757C11.8668 12.6944 11.5849 12.6944 11.3342 12.5757L9.98694 11.8338C9.76762 11.7151 9.61097 11.4777 9.61097 11.2107V10.2611L8.42037 10.9139V11.8932C8.42037 12.1306 8.54569 12.368 8.79634 12.5163L11.3342 13.911C11.5535 14.0297 11.8355 14.0297 12.0862 13.911L14.624 12.5163C14.8433 12.3976 15 12.1602 15 11.8932V9.07418C15 8.8368 14.8747 8.59941 14.624 8.45104L12.0862 7.05638Z" fill="white"/>
</svg>
