<svg width="44" height="44" viewBox="0 0 44 44" fill="none" xmlns="http://www.w3.org/2000/svg">
<circle cx="22" cy="22" r="22" fill="black" fill-opacity="0.1"/>
<path fill-rule="evenodd" clip-rule="evenodd" d="M14 17L17.4107 15.051L18.4107 16.7831L16 18.1606V19V25V25.8394L26 31.5536V29.9282L28 33.3923V35L26 33.8571L14 27H11C9.89543 27 9 26.1046 9 25V19C9 17.8954 9.89543 17 11 17H14ZM26 12.4464V21.9282L28 25.3923V19H30H30.5C31.0628 19 31.5822 19.186 32 19.4998C32.6072 19.9559 33 20.6821 33 21.5V22.5C33 23.3179 32.6072 24.0441 32 24.5002C31.5822 24.814 31.0628 25 30.5 25H30V27H30.5C32.9853 27 35 24.9853 35 22.5V21.5C35 19.0147 32.9853 17 30.5 17H30H28V11.3035V9L26 10.1429L20.8837 13.0665L21.8837 14.7985L26 12.4464ZM14 19V25H11L11 19H14ZM30.0892 35L15.0781 9H17.3875L32.3986 35H30.0892Z" fill="white"/>
</svg>
