<svg width="18" height="18" viewBox="0 0 18 18" fill="none" xmlns="http://www.w3.org/2000/svg">
<path opacity="0.2" d="M0 7.71428C0 3.4538 3.4538 0 7.71429 0H10.2857C14.5462 0 18 3.4538 18 7.71429V10.2857C18 14.5462 14.5462 18 10.2857 18H7.71428C3.4538 18 0 14.5462 0 10.2857V7.71428Z" fill="white"/>
<path fill-rule="evenodd" clip-rule="evenodd" d="M13.5528 7.83476L14.1709 5.72656H12.4691L11.9044 7.83476H10.4697L9.91265 5.72656H8.18035L7.62327 7.83476H6.18095L5.60861 5.72656H3.82289L4.44102 7.83476H3.27344V8.58769H4.66233L5.97491 13.0902H7.66142L8.96637 8.58769H9.03505L10.34 13.0902H12.0265L13.3391 8.58769H14.728V7.83476H13.5528ZM6.89066 10.5378L6.37174 8.58016H7.40959L6.89066 10.5378ZM11.1718 10.5227L10.6605 8.58769H11.6984L11.1794 10.5227H11.1718Z" fill="white"/>
</svg>
