<svg xmlns="http://www.w3.org/2000/svg" width="69" height="78" viewBox="0 0 69 78">
    <defs>
        <clipPath id="gpsd6nudba">
            <path data-name="사각형 6087" style="stroke:#707070;fill:#fff" d="M0 0h69v78H0z"/>
        </clipPath>
        <clipPath id="9xguav46jb">
            <path data-name="사각형 5999" d="M0 0h8.167v29.478H0z"/>
        </clipPath>
        <clipPath id="kttgcx6p1c">
            <path data-name="사각형 5999" d="M0 0h8.168v29.476H0z"/>
        </clipPath>
    </defs>
    <g data-name="Ticket_ic" transform="translate(.386 -.027)" style="clip-path:url(#gpsd6nudba)">
        <g data-name="그룹 7206">
            <circle data-name="타원 312" cx="34" cy="34" r="34" style="fill:#f7941d"/>
            <path data-name="빼기 228" d="M43.209 16.997v34h-1.417a1.42 1.42 0 0 0-1.415-1.415 1.419 1.419 0 0 0-1.418 1.415h-1.412a1.42 1.42 0 0 0-1.415-1.415 1.419 1.419 0 0 0-1.42 1.415h-1.413a1.422 1.422 0 0 0-1.422-1.415 1.416 1.416 0 0 0-1.415 1.415h-1.413a1.422 1.422 0 0 0-1.422-1.415 1.414 1.414 0 0 0-1.411 1.415h-1.424v-34h18.417z"/>
            <g data-name="그룹 7204">
                <g data-name="그룹 7203" style="clip-path:url(#9xguav46jb)" transform="translate(7.958 19.263)">
                    <path data-name="패스 8485" d="M5.734 26.039a1.835 1.835 0 0 0 .116.793 11.3 11.3 0 0 0 1.115 2.322c.55-.989.844-1.527 1.012-1.9a1.662 1.662 0 0 0 .188-.73 2.158 2.158 0 0 0-.106-.809c-.12-.426-.374-1.108-.776-2.355a10.08 10.08 0 0 0-1.337 1.921 1.715 1.715 0 0 0-.212.758"/>
                    <path data-name="패스 8486" d="M4.026 21.223a1.821 1.821 0 0 0-.027.721 10.584 10.584 0 0 0 .593 2.246c.643-.773 1.019-1.208 1.218-1.5a1.568 1.568 0 0 0 .291-.618 1.963 1.963 0 0 0 .039-.738c-.031-.411-.155-1.061-.311-2.244-.413.351-.729.649-.971.895a6.1 6.1 0 0 0-.516.6 1.552 1.552 0 0 0-.316.637"/>
                    <path data-name="패스 8487" d="M3.266 16.665c-.082.226-.292.569.044 2.717.7-.584 1.092-.913 1.315-1.145a1.374 1.374 0 0 0 .354-.506 1.756 1.756 0 0 0 .147-.654 8.08 8.08 0 0 0 .027-.757c.018-.333 0-.752.029-1.295a8.581 8.581 0 0 0-1.542 1.119 1.344 1.344 0 0 0-.373.52"/>
                    <path data-name="패스 8488" d="M3.254 12.247a1.425 1.425 0 0 0-.211.547 9.39 9.39 0 0 0-.148 1.871c1.422-.818 1.572-.971 1.725-1.218.173-.254.236-.455.559-2.4a8.442 8.442 0 0 0-1.524.788 1.316 1.316 0 0 0-.4.411"/>
                    <path data-name="패스 8489" d="M3.837 8.184a1.287 1.287 0 0 0-.244.438 7.908 7.908 0 0 0-.371 1.564c1.3-.5 1.467-.614 1.617-.809a1.481 1.481 0 0 0 .266-.453c.055-.134.116-.313.2-.561s.179-.566.317-.966a7.266 7.266 0 0 0-1.39.488 1.08 1.08 0 0 0-.394.3"/>
                    <path data-name="패스 8490" d="M4.511 26.592a2.528 2.528 0 0 1 .548.624c.278.4.665 1.087 1.37 2.262a10.426 10.426 0 0 1-2.194-.166 1.758 1.758 0 0 1-.76-.337 2.48 2.48 0 0 1-.66-.717 15.625 15.625 0 0 1-1.392-2.733c1.237.336 1.947.515 2.367.676a2.16 2.16 0 0 1 .721.391"/>
                    <path data-name="패스 8491" d="M2.792 21.527a2.013 2.013 0 0 1 .382.643c.179.4.411 1.071.829 2.23a9.737 9.737 0 0 1-1.912-.52 1.5 1.5 0 0 1-.611-.425 2.217 2.217 0 0 1-.462-.737 14.648 14.648 0 0 1-.785-2.624c.527.243.934.432 1.253.589s.56.276.736.38a1.913 1.913 0 0 1 .57.464"/>
                    <path data-name="패스 8492" d="M2.064 16.755c.152.219.28.544.63 2.732a9.351 9.351 0 0 1-1.612-.758 1.369 1.369 0 0 1-.474-.467 1.991 1.991 0 0 1-.3-.719c-.05-.211-.1-.493-.165-.884C.1 16.268.029 15.768 0 15.118c.855.577 1.348.906 1.624 1.142a1.793 1.793 0 0 1 .44.495"/>
                    <path data-name="패스 8493" d="M2.11 12.151a1.741 1.741 0 0 1 .124.591c.033.354.034.928.035 1.927C.865 13.818.716 13.556.598 13.276c-.116-.309-.282-.545-.1-2.863a17.1 17.1 0 0 1 1.287 1.236 1.485 1.485 0 0 1 .325.5"/>
                    <path data-name="패스 8494" d="M2.824 7.947a1.4 1.4 0 0 1 .034.516c-.023.3-.089.789-.223 1.631C1.548 9.189 1.481 8.955 1.403 8.7a1.419 1.419 0 0 1-.048-.588c.012-.164.034-.38.081-.676s.121-.67.237-1.147a14.547 14.547 0 0 1 .942 1.2 1.333 1.333 0 0 1 .209.463"/>
                    <path data-name="패스 8495" d="M4.612 5.259a.9.9 0 0 0-.226.319 6.7 6.7 0 0 0-.431 1.178c1.055-.262 1.185-.345 1.329-.479s.241-.254.771-1.493c-1.169.212-1.313.363-1.443.475"/>
                    <path data-name="패스 8496" d="M3.77 4.964a1.192 1.192 0 0 1-.018.4c-.038.233-.143.6-.322 1.24-.747-.803-.794-.985-.822-1.186s-.079-.389.4-1.824c.707 1.009.744 1.191.762 1.37"/>
                    <path data-name="패스 8497" d="M5.976 2.729a2.509 2.509 0 0 1-.348.546c-.231.284-.622.7-1.3 1.436a11.34 11.34 0 0 1 .053-1.935 1.99 1.99 0 0 1 .188-.689 2.444 2.444 0 0 1 .405-.629A12.95 12.95 0 0 1 6.516 0c-.172 1.086-.257 1.695-.339 2.072a2.369 2.369 0 0 1-.2.657"/>
                </g>
            </g>
            <g data-name="그룹 7205">
                <g data-name="그룹 7203" style="clip-path:url(#kttgcx6p1c)" transform="rotate(180 30.023 24.369)">
                    <path data-name="패스 8485" d="M5.735 3.438a1.835 1.835 0 0 1 .116-.793A11.294 11.294 0 0 1 6.966.324c.55.989.844 1.527 1.012 1.9a1.662 1.662 0 0 1 .188.73 2.158 2.158 0 0 1-.106.809c-.119.43-.373 1.111-.776 2.359a10.08 10.08 0 0 1-1.337-1.926 1.714 1.714 0 0 1-.212-.758"/>
                    <path data-name="패스 8486" d="M4.027 8.254A1.82 1.82 0 0 1 4 7.533a10.582 10.582 0 0 1 .593-2.242c.643.773 1.018 1.208 1.217 1.5a1.568 1.568 0 0 1 .291.618 1.962 1.962 0 0 1 .039.738c-.03.405-.154 1.055-.309 2.238a14.57 14.57 0 0 1-.971-.895 6.1 6.1 0 0 1-.516-.6 1.552 1.552 0 0 1-.316-.637"/>
                    <path data-name="패스 8487" d="M3.266 12.813c-.082-.227-.292-.569.044-2.717.701.584 1.092.913 1.316 1.145a1.374 1.374 0 0 1 .354.506 1.756 1.756 0 0 1 .146.649c.018.184.027.426.027.757.018.333 0 .752.029 1.295a8.582 8.582 0 0 1-1.542-1.115 1.344 1.344 0 0 1-.373-.52"/>
                    <path data-name="패스 8488" d="M3.254 17.23a1.424 1.424 0 0 1-.211-.547 9.388 9.388 0 0 1-.148-1.872c1.422.814 1.572.971 1.725 1.221.173.254.236.455.559 2.4a8.444 8.444 0 0 1-1.524-.791 1.316 1.316 0 0 1-.4-.411"/>
                    <path data-name="패스 8489" d="M3.837 21.291a1.287 1.287 0 0 1-.244-.437 7.907 7.907 0 0 1-.371-1.563c1.3.5 1.467.614 1.618.809a1.481 1.481 0 0 1 .266.453c.055.134.116.313.2.561s.182.562.318.966a7.268 7.268 0 0 1-1.392-.489 1.08 1.08 0 0 1-.395-.3"/>
                    <path data-name="패스 8490" d="M4.511 2.886a2.528 2.528 0 0 0 .548-.624c.278-.4.665-1.087 1.37-2.261a10.43 10.43 0 0 0-2.194.165 1.758 1.758 0 0 0-.76.334 2.48 2.48 0 0 0-.66.717 15.623 15.623 0 0 0-1.392 2.736c1.238-.336 1.947-.515 2.367-.676a2.16 2.16 0 0 0 .722-.391"/>
                    <path data-name="패스 8491" d="M2.792 7.95a2.012 2.012 0 0 0 .382-.643c.179-.4.411-1.071.829-2.229a9.74 9.74 0 0 0-1.913.52 1.5 1.5 0 0 0-.611.425 2.217 2.217 0 0 0-.462.737 14.645 14.645 0 0 0-.784 2.623c.527-.243.934-.432 1.253-.589s.56-.276.736-.38a1.913 1.913 0 0 0 .57-.464"/>
                    <path data-name="패스 8492" d="M2.064 12.722c.152-.219.28-.544.63-2.732a9.353 9.353 0 0 0-1.612.758 1.369 1.369 0 0 0-.474.467 1.991 1.991 0 0 0-.3.719c-.05.211-.1.493-.165.884-.043.391-.114.892-.143 1.541.855-.577 1.348-.906 1.624-1.142a1.793 1.793 0 0 0 .44-.495"/>
                    <path data-name="패스 8493" d="M2.11 17.326a1.74 1.74 0 0 0 .124-.591c.033-.354.034-.927.035-1.927C.865 15.659.716 15.92.598 16.201c-.116.307-.282.545-.1 2.863a17.1 17.1 0 0 0 1.287-1.237 1.485 1.485 0 0 0 .325-.5"/>
                    <path data-name="패스 8494" d="M2.824 21.53a1.4 1.4 0 0 0 .034-.516c-.023-.3-.09-.789-.223-1.631-1.087.908-1.154 1.139-1.232 1.394a1.419 1.419 0 0 0-.048.588c.012.164.034.38.081.676s.12.669.236 1.147a14.547 14.547 0 0 0 .943-1.2 1.333 1.333 0 0 0 .209-.463"/>
                    <path data-name="패스 8495" d="M4.613 24.22a.9.9 0 0 1-.227-.319 6.7 6.7 0 0 1-.43-1.181c1.055.262 1.186.345 1.329.479s.241.255.771 1.493c-1.169-.212-1.313-.363-1.443-.472"/>
                    <path data-name="패스 8496" d="M3.77 24.512a1.191 1.191 0 0 0-.018-.4c-.037-.236-.142-.602-.321-1.242-.748.8-.795.987-.823 1.188s-.078.389.4 1.824c.707-1.009.744-1.191.762-1.37"/>
                    <path data-name="패스 8497" d="M5.977 26.747a2.509 2.509 0 0 0-.348-.546c-.231-.284-.622-.705-1.296-1.436a11.337 11.337 0 0 0 .049 1.934 1.99 1.99 0 0 0 .188.689 2.444 2.444 0 0 0 .406.629 12.95 12.95 0 0 0 1.541 1.459c-.172-1.086-.257-1.695-.339-2.071a2.368 2.368 0 0 0-.2-.657"/>
                </g>
            </g>
            <path data-name="패스 8500" d="M34 2.125a31.884 31.884 0 0 0-12.407 61.246A31.884 31.884 0 0 0 46.407 4.63 31.675 31.675 0 0 0 34 2.125m0-.708A32.583 32.583 0 1 1 1.417 34 32.583 32.583 0 0 1 34 1.417z"/>
            <path data-name="패스 8498" d="m5.187 0-1.6 3.249L0 3.771 2.595 6.3l-.611 3.57 3.205-1.688L8.4 9.867 7.783 6.3l2.593-2.529-3.585-.52z" transform="translate(28.812 27.647)" style="fill:#f7941d"/>
            <path data-name="패스 8499" d="M.708.708v28.334h15.584V.708H.708M0 0h17v29.75H0z" transform="translate(25.5 17.708)" style="fill:#f7941d"/>
        </g>
        <rect data-name="사각형 6002" width="65.167" height="21.25" rx="10.625" transform="translate(1.417 56.667)"/>
        <path data-name="패스 8499" d="M-6.913-7.407h-1.045V4.017h1.046zM-14.537.422V-2.32h4.093v-.841h-4.093V-5.52h4.514v-.854h-5.547v7.65h.905A30.386 30.386 0 0 0-9.17.893l-.1-.854a27.982 27.982 0 0 1-5.267.383zM5.123.358v-7.752h-.994V.358zm-5.33-3.57h2.079v2.55h.982V-7.2h-.982v3.149H.151a7.483 7.483 0 0 0 .357-2.387h-4.437v.854h3.4A5.573 5.573 0 0 1-.78-4.271l-3.685.242.166.854 3.175-.332A6.268 6.268 0 0 1-4.452-.752l.51.765A7.369 7.369 0 0 0-.206-3.212zM1.808.052v-.357H.763v.357c0 1.517-1.887 2.805-3.889 3.111l.408.829a5.638 5.638 0 0 0 4-2.486A5.65 5.65 0 0 0 5.3 3.992l.421-.829C3.7 2.857 1.808 1.569 1.808.052zM7.75-3.493l.37.829c1.862-.242 3.583-1.058 4.22-2.308.612 1.262 2.346 2.065 4.22 2.308l.37-.829c-2-.2-3.876-1.224-3.914-2.486h3.557v-.841H8.12v.841h3.545C11.6-4.717 9.8-3.7 7.75-3.493zm9.75 1.53H7.163v.842H17.5zM12.327-.127c-2.448 0-3.914.74-3.914 2.066s1.466 2.078 3.914 2.078 3.914-.74 3.914-2.078-1.479-2.066-3.914-2.066zm0 3.315c-1.8 0-2.856-.433-2.856-1.25S10.529.689 12.327.689s2.856.433 2.856 1.25-1.058 1.249-2.856 1.249zm14.93-7.625H25v.854h2.257v3h1.058v-6.811h-1.058zm-2.142 3.418.523-.816a3.924 3.924 0 0 1-2.78-3.494v-.4h2.512v-.841h-6.107v.841h2.55v.4a4.234 4.234 0 0 1-2.882 3.812l.548.829a4.984 4.984 0 0 0 2.882-2.907 4.7 4.7 0 0 0 2.754 2.576zm-.574.791c-2.346 0-3.812.765-3.812 2.129S22.2 4.03 24.542 4.03s3.8-.765 3.8-2.129-1.454-2.13-3.8-2.13zm0 3.443c-1.747 0-2.767-.485-2.767-1.313S22.795.574 24.542.574s2.767.5 2.767 1.326-1.021 1.314-2.767 1.314z" transform="translate(27.512 69.164)" style="fill:#fff"/>
    </g>
</svg>
