<svg width="44" height="44" viewBox="0 0 44 44" fill="none" xmlns="http://www.w3.org/2000/svg">
<path d="M5.59299 8.27678C9.38371 4.57441 15.5865 4.57441 19.3772 8.27678V8.27678C19.6886 8.58096 20.1859 8.58096 20.4973 8.27678V8.27678C24.288 4.57441 30.4908 4.57441 34.2815 8.27678C38.0722 11.9792 38.0722 18.0374 34.2815 21.7397L21.3348 34.3847C20.5577 35.1436 19.3169 35.1436 18.5399 34.3847L5.59317 21.7397C1.80245 18.0376 1.80227 11.9791 5.59299 8.27678Z" fill="url(#paint0_linear_277_9626)"/>
<g style="mix-blend-mode:multiply">
<path d="M41.2495 23.5286C41.2495 22.8599 40.9153 22.2355 40.3589 21.8645L35.484 18.6146C34.8122 18.1667 33.937 18.1667 33.2652 18.6146L28.3903 21.8645C27.8339 22.2355 27.4997 22.8599 27.4997 23.5286V36.4997C27.4997 37.6043 28.3952 38.4997 29.4997 38.4997H39.2495C40.3541 38.4997 41.2495 37.6043 41.2495 36.4997V23.5286Z" fill="url(#paint1_linear_277_9626)"/>
</g>
<path d="M34.3744 24.062L35.9041 26.4088L38.4994 27.2132L36.8494 29.468L36.9238 32.3119L34.3744 31.3587L31.8251 32.3119L31.8995 29.468L30.2495 27.2132L32.8448 26.4088L34.3744 24.062Z" fill="white"/>
<path d="M17.209 14.0239H13.634V15.7619H15.218V22.9888H17.209V14.0239Z" fill="white"/>
<path d="M20.1416 22.9888H22.4076L24.7176 19.3259C25.2456 18.4899 25.5316 17.8189 25.5316 16.9499C25.5316 15.0359 24.0026 13.8149 22.1326 13.8149C20.2626 13.8149 18.7337 15.0469 18.7337 16.9609C18.7337 18.7759 20.1746 19.9968 21.9236 19.9968C22.0226 19.9968 22.1216 19.9748 22.1766 19.9528L20.1416 22.9888ZM22.1326 18.3689C21.2416 18.3689 20.6806 17.7419 20.6806 16.9389C20.6806 16.1359 21.2416 15.5089 22.1326 15.5089C23.0236 15.5089 23.5846 16.1359 23.5846 16.9389C23.5846 17.7419 23.0236 18.3689 22.1326 18.3689Z" fill="white"/>
<defs>
<linearGradient id="paint0_linear_277_9626" x1="37.1245" y1="35.7495" x2="27.8434" y2="-0.861351" gradientUnits="userSpaceOnUse">
<stop stop-color="#C341D7"/>
<stop offset="1" stop-color="#FA00F0"/>
</linearGradient>
<linearGradient id="paint1_linear_277_9626" x1="41.2495" y1="38.4997" x2="31.5761" y2="16.1135" gradientUnits="userSpaceOnUse">
<stop stop-color="#C341D7"/>
<stop offset="1" stop-color="#FA00F0"/>
</linearGradient>
</defs>
</svg>
