<svg width="64" height="64" viewBox="0 0 64 64" fill="none" xmlns="http://www.w3.org/2000/svg">
<g style="mix-blend-mode:hard-light">
<circle cx="48" cy="20" r="12" fill="url(#paint0_linear_2965_38267)"/>
</g>
<path opacity="0.9" d="M48 34C48 21.8497 38.1503 12 26 12C13.8497 12 4 21.8497 4 34C4 46.1503 13.8497 56 26 56H47.1287C47.6099 56 48 55.6099 48 55.1287V34Z" fill="url(#paint1_linear_2965_38267)"/>
<rect width="4" height="5" rx="2" transform="matrix(-1 0 0 1 34 28)" fill="white"/>
<rect width="4" height="5" rx="2" transform="matrix(-1 0 0 1 22 28)" fill="white"/>
<path d="M22 35C22 36.6575 23.79 38 26 38C28.21 38 30 36.6575 30 35" stroke="white" stroke-miterlimit="10" stroke-linecap="square"/>
<defs>
<linearGradient id="paint0_linear_2965_38267" x1="60" y1="8" x2="36" y2="32" gradientUnits="userSpaceOnUse">
<stop stop-color="#FE697F"/>
<stop offset="1" stop-color="#F9283E"/>
</linearGradient>
<linearGradient id="paint1_linear_2965_38267" x1="4" y1="12" x2="48" y2="56" gradientUnits="userSpaceOnUse">
<stop stop-color="#FF4646"/>
<stop offset="1" stop-color="#E61E82"/>
</linearGradient>
</defs>
</svg>
