<svg width="44" height="44" viewBox="0 0 44 44" fill="none" xmlns="http://www.w3.org/2000/svg">
<path d="M43.2345 32.411C43.2364 32.411 43.2379 32.4095 43.2379 32.4076V32.3768C43.2379 32.3749 43.2377 32.3729 43.2374 32.371L40.8295 18.3358C40.8291 18.3337 40.8273 18.3321 40.8251 18.3321C40.823 18.3321 40.8211 18.3306 40.8207 18.3284C40.0361 13.7932 36.084 10.3273 31.3044 10.3125H12.7403C7.9384 10.3125 3.97136 13.7784 3.18671 18.3284C3.18635 18.3306 3.1845 18.3321 3.18235 18.3321C3.18019 18.3321 3.17835 18.3337 3.17799 18.3358L0.772605 32.356C0.770567 32.3679 0.769543 32.3716 0.769543 32.3836C0.769543 32.3963 0.768403 32.4173 0.766201 32.4297C0.716063 32.7134 0.6875 33.0042 0.6875 33.3021C0.6875 36.1758 3.02199 38.5 5.90841 38.5C7.44485 38.5 8.8172 37.8391 9.77188 36.7847L14.0083 32.3442C15.2016 31.0818 16.8574 30.369 18.5952 30.369H25.4048C27.1426 30.369 28.7984 31.0818 29.9917 32.3442L34.2281 36.7847C35.1828 37.8317 36.5552 38.5 38.0916 38.5C40.978 38.5 43.3125 36.1758 43.3125 33.3021C43.3125 32.999 43.2829 32.7034 43.2312 32.415C43.2308 32.4129 43.2324 32.411 43.2345 32.411Z" fill="url(#paint0_linear_10_3227)"/>
<path fill-rule="evenodd" clip-rule="evenodd" d="M14.4375 15.8125H11.6875V19.25L8.25 19.25V22H11.6875V25.4375H14.4375V22H17.875V19.25L14.4375 19.25V15.8125ZM23.375 20.625C23.375 19.1062 24.6062 17.875 26.125 17.875C27.6438 17.875 28.875 19.1062 28.875 20.625C28.875 22.1438 27.6438 23.375 26.125 23.375C24.6062 23.375 23.375 22.1438 23.375 20.625ZM33 17.875C31.4812 17.875 30.25 19.1062 30.25 20.625C30.25 22.1438 31.4812 23.375 33 23.375C34.5188 23.375 35.75 22.1438 35.75 20.625C35.75 19.1062 34.5188 17.875 33 17.875Z" fill="white"/>
<defs>
<linearGradient id="paint0_linear_10_3227" x1="2.75" y1="13.0625" x2="26.1491" y2="48.4774" gradientUnits="userSpaceOnUse">
<stop stop-color="#FABF29"/>
<stop offset="1" stop-color="#FC6714"/>
</linearGradient>
</defs>
</svg>
