<svg width="44" height="44" viewBox="0 0 44 44" fill="none" xmlns="http://www.w3.org/2000/svg">
<path d="M36.0433 10.9581C39.134 19.4971 34.1708 30.181 24.9578 34.8211C15.7448 39.4613 5.77077 36.3005 2.68013 27.7615C-0.410515 19.2224 4.55262 8.53854 13.7656 3.89841C22.9786 -0.741718 32.9527 2.419 36.0433 10.9581Z" fill="url(#paint0_linear_3209_46119)"/>
<g style="mix-blend-mode:multiply">
<path d="M41.2988 15.5884C44.4667 24.341 39.3795 35.2919 29.9362 40.048C20.4929 44.8042 10.2694 41.5644 7.10153 32.8119C3.93362 24.0593 9.02083 13.1084 18.4641 8.35227C27.9075 3.59614 38.1309 6.83587 41.2988 15.5884Z" fill="url(#paint1_linear_3209_46119)"/>
</g>
<path d="M12.491 22.4562C13.3055 20.8785 13.8107 19.9007 14.4819 18.5525C14.6252 19.9007 14.7308 20.8711 14.9042 22.4266C15.96 22.397 16.4879 22.3748 17.5361 22.3155C19.0594 19.3822 19.8211 17.8044 21.3368 14.96H18.9237C18.0263 16.7229 17.438 17.9007 16.7292 19.3081C16.5934 17.9451 16.4803 16.7822 16.3069 14.96C15.4019 14.96 14.9495 14.96 14.0445 14.96C13.1622 16.76 12.574 17.9229 11.8802 19.2711C11.7294 17.9081 11.6012 16.7377 11.4126 14.96H8.98438C9.33127 17.9377 9.51226 19.4414 9.85915 22.3822C10.9149 22.434 11.4428 22.4488 12.491 22.4562Z" fill="white"/>
<path d="M25.9576 21.7529C26.1085 21.027 26.1839 20.6715 26.3347 19.9604C24.8717 20.0344 24.1402 20.0789 22.6772 20.1752C22.7451 19.827 22.813 19.5233 22.8658 19.2418C24.0573 19.1752 24.7134 19.1381 25.9501 19.0789C26.0934 18.4048 26.1613 18.0715 26.3045 17.4196C25.0602 17.4641 24.4042 17.4863 23.2202 17.5307C23.273 17.2789 23.3258 17.0122 23.3936 16.7159C24.7963 16.6789 25.4976 16.6344 26.9003 16.627C27.0511 15.953 27.1265 15.627 27.2774 14.9678C24.9094 14.9678 23.7255 14.9678 21.35 14.9678C20.7693 17.8122 20.4752 19.2863 19.8945 22.1678C22.3153 21.9974 23.5294 21.8937 25.9576 21.7603V21.7529Z" fill="white"/>
<path d="M30.5833 21.6192C31.2092 21.6192 31.7748 21.5525 32.2876 21.4192C32.8004 21.2859 33.2151 21.0636 33.5243 20.7599C33.8335 20.4562 33.9843 20.0488 33.9843 19.5525C33.9843 19.0562 33.7732 18.6562 33.3433 18.3674C33.2378 18.2933 33.1171 18.234 32.9889 18.1748C33.366 18.0414 33.6902 17.8562 33.9165 17.6118C34.1804 17.3303 34.3086 16.9822 34.3086 16.56C34.3086 16.0488 34.0899 15.6488 33.6525 15.3674C33.2227 15.0933 32.5666 14.96 31.6994 14.96H27.8383C27.2576 17.5377 26.9635 18.8785 26.3828 21.7303C28.0645 21.6414 28.9091 21.6192 30.5908 21.6192H30.5833ZM31.1036 16.5007C31.3072 16.5007 31.4656 16.5377 31.5787 16.6044C31.6918 16.6711 31.7521 16.7748 31.7521 16.9155C31.7521 17.034 31.722 17.1377 31.6692 17.2192C31.6164 17.3007 31.5259 17.3674 31.4052 17.4118C31.2846 17.4563 31.1262 17.4785 30.9452 17.4785C30.44 17.4785 30.1534 17.4785 29.6934 17.4711C29.7613 17.1748 29.8291 16.8563 29.9121 16.4933C30.3947 16.4933 30.6285 16.4933 31.1111 16.4933L31.1036 16.5007ZM29.3616 18.96C29.9498 18.96 30.3042 18.96 30.9452 18.96C31.1036 18.96 31.2469 18.997 31.3675 19.0785C31.4882 19.1525 31.5485 19.2637 31.5485 19.4118C31.5485 19.6192 31.4731 19.7674 31.3147 19.8711C31.1564 19.9748 30.9603 20.0192 30.719 20.0192C30.0855 20.0192 29.7688 20.0192 29.1353 20.0192C29.2183 19.6192 29.2937 19.2711 29.3616 18.96Z" fill="white"/>
<path d="M18.7766 22.9824C18.2261 22.7528 17.57 22.6565 16.8159 22.6935C16.1522 22.7306 15.5339 22.8565 14.9758 23.0713C14.4102 23.2935 13.9276 23.5824 13.5204 23.9454C13.279 24.1602 13.083 24.4047 12.902 24.6639C13.0453 24.0121 13.1207 23.6491 13.2715 22.9602C10.5793 22.9824 9.23696 22.9454 6.54476 22.5898C6.39393 23.3084 6.31098 23.6639 6.16016 24.3898C7.01231 24.4861 7.44216 24.5232 8.29431 24.5824C7.86447 26.5824 7.65331 27.5824 7.22346 29.6195C8.20382 29.6195 8.70154 29.6195 9.68189 29.6195C10.1117 27.6565 10.3229 26.6861 10.7527 24.7009C11.5974 24.7306 12.0272 24.7306 12.8567 24.738C12.7512 24.8935 12.6456 25.0491 12.5702 25.2195C12.3439 25.7084 12.2308 26.2491 12.2308 26.8343C12.2308 27.4195 12.3816 27.9306 12.6833 28.3676C12.9849 28.812 13.4148 29.1528 13.9653 29.3972C14.5158 29.6417 15.1719 29.7676 15.926 29.7676C16.5896 29.7676 17.208 29.6713 17.766 29.4787C18.3316 29.2861 18.8143 29.0046 19.2215 28.6343C19.6287 28.2639 19.9455 27.8195 20.1717 27.3009C20.3979 26.7824 20.511 26.2121 20.511 25.5898C20.511 24.9676 20.3602 24.4417 20.0586 23.9898C19.7569 23.538 19.3271 23.1972 18.7766 22.9676V22.9824ZM17.9093 26.6861C17.8264 26.938 17.6982 27.1676 17.5323 27.3602C17.3664 27.5602 17.1628 27.7158 16.9365 27.8269C16.7027 27.938 16.4313 27.9972 16.1296 28.0046C15.828 28.0046 15.5791 27.9528 15.3604 27.8491C15.1493 27.7454 14.9833 27.5898 14.8702 27.3972C14.7571 27.2046 14.6968 26.975 14.6968 26.7232C14.6968 26.4491 14.742 26.1898 14.825 25.9454C14.9079 25.7009 15.0361 25.4787 15.202 25.2787C15.3679 25.0787 15.5716 24.9232 15.8053 24.8121C16.0391 24.6935 16.3106 24.6343 16.6047 24.6195C16.9064 24.6047 17.1552 24.6491 17.3664 24.7454C17.5775 24.8491 17.7434 24.9972 17.8565 25.1898C17.9697 25.3824 18.03 25.6195 18.03 25.8861C18.03 26.1676 17.9847 26.4343 17.9018 26.6861H17.9093Z" fill="white"/>
<path d="M28.8193 25.249C28.8193 24.5972 28.6685 24.0268 28.3668 23.5453C28.0652 23.0638 27.6353 22.6935 27.0848 22.4416C26.5343 22.1898 25.8782 22.0935 25.1241 22.1379C24.4605 22.1749 23.8421 22.3231 23.2841 22.5675C22.7185 22.812 22.2358 23.1379 21.8286 23.5453C21.4214 23.9527 21.1047 24.4194 20.8784 24.9453C20.6522 25.4712 20.5391 26.0416 20.5391 26.6638C20.5391 27.286 20.6899 27.812 20.9915 28.2712C21.2932 28.7379 21.723 29.1009 22.2735 29.3675C22.824 29.6342 23.4801 29.7749 24.2342 29.7749C24.8979 29.7749 25.5162 29.6638 26.0743 29.4416C26.6399 29.2194 27.1225 28.9009 27.5297 28.4934C27.937 28.086 28.2612 27.6046 28.4799 27.0564C28.7062 26.5083 28.8193 25.9009 28.8193 25.2416V25.249ZM26.2176 26.3083C26.1346 26.5823 26.0064 26.8268 25.8405 27.049C25.6746 27.2638 25.471 27.4416 25.2448 27.5675C25.011 27.6935 24.7395 27.7601 24.4379 27.7675C24.1362 27.7749 23.8874 27.7231 23.6762 27.612C23.465 27.5009 23.2991 27.3453 23.186 27.1305C23.0729 26.9231 23.0126 26.6786 23.0126 26.4046C23.0126 26.1083 23.0578 25.8268 23.1408 25.5601C23.2237 25.2935 23.3519 25.049 23.5178 24.8342C23.6837 24.6194 23.8874 24.449 24.1211 24.3157C24.3549 24.1823 24.6264 24.1083 24.9205 24.0935C25.2146 24.0786 25.471 24.1231 25.6822 24.2268C25.8933 24.3305 26.0592 24.4861 26.1723 24.6935C26.2854 24.9009 26.3458 25.1453 26.3458 25.4342C26.3458 25.7379 26.3005 26.0268 26.2176 26.3009V26.3083Z" fill="white"/>
<path d="M34.6813 22.2786C34.4023 23.6416 34.2364 24.4786 34.0026 25.6416C33.2938 24.4416 32.7659 23.5527 31.9062 22.1379C31.0993 22.1157 30.692 22.1157 29.8851 22.1231C29.3045 25.0416 29.0104 26.5231 28.4297 29.6045C29.3874 29.6045 29.8701 29.6045 30.8278 29.6045C31.1068 28.1453 31.2727 27.2638 31.5065 26.086C32.2154 27.2786 32.7432 28.1749 33.6029 29.6119C34.4098 29.6119 34.8171 29.6119 35.624 29.6119C36.2047 26.6934 36.4988 25.286 37.0794 22.5379C36.1217 22.4046 35.6391 22.3527 34.6813 22.2712V22.2786Z" fill="white"/>
<path d="M31.6797 2.04579C33.3603 3.68584 34.4917 5.73031 34.9498 7.92C35.529 5.16077 34.9927 2.36534 33.5635 0L31.6797 2.04579Z" fill="url(#paint2_linear_3209_46119)"/>
<path d="M36.2782 4.21764C36.375 5.5764 36.0883 6.85213 35.4628 7.89161C36.7398 7.08347 37.5589 5.77751 37.8397 4.24936L36.2782 4.21764Z" fill="url(#paint3_linear_3209_46119)"/>
<defs>
<linearGradient id="paint0_linear_3209_46119" x1="40.0141" y1="1.75976" x2="-3.24411" y2="39.6832" gradientUnits="userSpaceOnUse">
<stop stop-color="#FEC269"/>
<stop offset="1" stop-color="#FA5028"/>
</linearGradient>
<linearGradient id="paint1_linear_3209_46119" x1="45.3689" y1="6.16015" x2="1.02918" y2="45.0317" gradientUnits="userSpaceOnUse">
<stop stop-color="#FEC269"/>
<stop offset="1" stop-color="#FA5028"/>
</linearGradient>
<linearGradient id="paint2_linear_3209_46119" x1="38.5084" y1="15.8749" x2="-19.7927" y2="-43.3354" gradientUnits="userSpaceOnUse">
<stop stop-color="#FEC269"/>
<stop offset="1" stop-color="#FA5028"/>
</linearGradient>
<linearGradient id="paint3_linear_3209_46119" x1="38.5084" y1="15.8749" x2="-19.7927" y2="-43.3354" gradientUnits="userSpaceOnUse">
<stop stop-color="#FEC269"/>
<stop offset="1" stop-color="#FA5028"/>
</linearGradient>
</defs>
</svg>
