<svg width="44" height="44" viewBox="0 0 44 44" fill="none" xmlns="http://www.w3.org/2000/svg">
<mask id="mask0_277_11948" style="mask-type:alpha" maskUnits="userSpaceOnUse" x="0" y="0" width="44" height="44">
<rect width="44" height="44" fill="#D9D9D9"/>
</mask>
<g mask="url(#mask0_277_11948)">
<path fill-rule="evenodd" clip-rule="evenodd" d="M35.7142 19.3335H9.28564V38.0002L18.5356 38.0002V27.3335H26.4641V38.0002L35.7142 38.0002V19.3335Z" fill="url(#paint0_linear_277_11948)"/>
<path d="M11.9286 24.6667C13.3882 24.6667 14.5714 23.4728 14.5714 22C14.5714 23.4728 15.7547 24.6667 17.2143 24.6667C18.6739 24.6667 19.8571 23.4728 19.8571 22C19.8571 23.4728 21.0404 24.6667 22.5 24.6667C23.9596 24.6667 25.1429 23.4728 25.1429 22C25.1429 23.4728 26.3261 24.6667 27.7857 24.6667C29.2453 24.6667 30.4286 23.4728 30.4286 22C30.4286 23.4728 31.6118 24.6667 33.0714 24.6667C34.531 24.6667 35.7143 23.4728 35.7143 22C35.7143 23.4728 36.8975 24.6667 38.3571 24.6667C39.8168 24.6667 41 23.4728 41 22V19.3333L30.4286 6H13.25L4 19.3333V22C4 23.4728 5.18325 24.6667 6.64286 24.6667C8.10247 24.6667 9.28571 23.4728 9.28571 22C9.28571 23.4728 10.469 24.6667 11.9286 24.6667Z" fill="url(#paint1_linear_277_11948)"/>
</g>
<defs>
<linearGradient id="paint0_linear_277_11948" x1="22.4999" y1="19.3335" x2="22.4999" y2="38.0002" gradientUnits="userSpaceOnUse">
<stop stop-color="#14C878"/>
<stop offset="1" stop-color="#46E696"/>
</linearGradient>
<linearGradient id="paint1_linear_277_11948" x1="22.5" y1="6" x2="22.5" y2="24.6667" gradientUnits="userSpaceOnUse">
<stop stop-color="#14C878"/>
<stop offset="1" stop-color="#46E696"/>
</linearGradient>
</defs>
</svg>
