<svg xmlns="http://www.w3.org/2000/svg" width="16" height="16" viewBox="0 0 16 16">
    <path d="M78.008 0a8 8 0 1 1-5.655 2.333A8 8 0 0 1 78.008 0zM77.4 6.08h-1.43a1.186 1.186 0 0 0-.307.043.3.3 0 0 0-.234.248.285.285 0 0 0 .16.33 1.454 1.454 0 0 0 .488.131c.445.021.624.216.557.674-.125.856-.293 1.706-.437 2.56-.1.576-.179 1.154-.274 1.73a1.534 1.534 0 0 0 1.171 1.6 6.83 6.83 0 0 0 1.027.066 2.673 2.673 0 0 0 1.944-.842.739.739 0 0 0 .2-.309.379.379 0 0 0-.067-.294.29.29 0 0 0-.251-.027c-.131.043-.248.133-.376.189a2.319 2.319 0 0 1-.467.16.456.456 0 0 1-.563-.406 1.537 1.537 0 0 1-.014-.451c.054-.371.131-.739.2-1.107Q79 8.867 79.28 7.36a2.159 2.159 0 0 0 .08-.835.48.48 0 0 0-.522-.445H77.4zm.87-3.558a1.446 1.446 0 1 0 1 .457 1.453 1.453 0 0 0-1-.457z" transform="translate(-70)" style="fill:#191c1f"/>
</svg>
