<svg width="124" height="124" viewBox="0 0 124 124" fill="none" xmlns="http://www.w3.org/2000/svg">
<mask id="mask0_114_33199" style="mask-type:alpha" maskUnits="userSpaceOnUse" x="0" y="0" width="124" height="124">
<rect width="124" height="124" fill="#C4C4C4"/>
</mask>
<g mask="url(#mask0_114_33199)">
<path d="M26 92H18V88H26V92ZM15 92H7V88V84H11V88H15V92ZM11 81H7V73H11V81ZM11 70H7V62H11V70ZM11 59H7V51H11V59ZM11 48H7V40H11V48ZM11 37H7V29H11V37ZM92 26H88V18H92V26ZM11 26H7V18H11V26ZM92 15H88V11H84V7H92V15ZM11 15H7V11V7H15V11H11V15ZM81 11H73V7H81V11ZM70 11H62V7H70V11ZM59 11H51V7H59V11ZM48 11H40V7H48V11ZM37 11H29V7H37V11ZM26 11H18V7H26V11Z" fill="#939393"/>
<path d="M117 117H33V69H37V113H113V37H69V33H117V117Z" fill="#939393"/>
<path d="M36.998 39.8252V56.9961H32.998V32.9961H56.998V36.9961H39.8203L58.4121 55.5859L55.583 58.415L36.998 39.8252Z" fill="#939393"/>
<path d="M103.5 99.0039L87 77.0039L70.5 99.0039H66L87 71.0039L108 99.0039H103.5ZM42 99.0039L62 73.0039L72.0996 86.1299L69.8164 89.1592L62 79.0039L46.6152 99.0039H42Z" fill="#939393"/>
<path d="M93.5001 67.0001C91.6212 67.0001 89.784 66.4434 88.2218 65.3995C86.6595 64.3556 85.4418 62.8717 84.7227 61.1358C84.0037 59.3999 83.8161 57.4894 84.1827 55.6466C84.5493 53.8037 85.4537 52.1109 86.7823 50.7823C88.1109 49.4537 89.8037 48.5493 91.6466 48.1827C93.4894 47.8161 95.3999 48.0037 97.1358 48.7227C98.8717 49.4418 100.356 50.6595 101.399 52.2218C102.443 53.784 103 55.6212 103 57.5001C102.997 60.0186 101.995 62.4331 100.214 64.2139C98.4331 65.9948 96.0186 66.9966 93.5001 67.0001ZM93.5001 52.0001C92.4123 52.0001 91.3489 52.3225 90.4444 52.9268C89.5399 53.5312 88.8353 54.3906 88.419 55.3956C88.0027 56.4006 87.8933 57.5064 88.1055 58.5733C88.3178 59.6402 88.8422 60.6196 89.6114 61.3887C90.3806 62.1579 91.3599 62.6824 92.4268 62.8946C93.4937 63.1068 94.5996 62.9974 95.6046 62.5811C96.6096 62.1648 97.469 61.4602 98.0733 60.5557C98.6777 59.6513 99.0001 58.5879 99.0001 57.5001C98.9985 56.0419 98.4189 54.6435 97.3878 53.6124C96.3567 52.5813 94.9583 52.0017 93.5001 52.0001Z" fill="#939393"/>
</g>
</svg>
