<svg width="124" height="124" viewBox="0 0 124 124" fill="none" xmlns="http://www.w3.org/2000/svg">
<mask id="mask0_277_4057" style="mask-type:alpha" maskUnits="userSpaceOnUse" x="0" y="0" width="124" height="124">
<rect width="124" height="124" fill="#C4C4C4"/>
</mask>
<g mask="url(#mask0_277_4057)">
<path d="M108.709 100.575C104.805 101.395 102.106 104.436 102.732 107.283C103.359 110.178 107.07 111.819 110.975 110.998C114.301 110.275 116.759 108.007 117 105.545V105.015V86.0021V76.7854C117 75.7718 116.181 75 115.168 75C114.879 75 114.59 75.0966 114.301 75.2413L93.5745 80.7905C92.5621 80.7905 91.7428 81.6108 91.7428 82.5759V106.559C90.3932 106.124 88.7544 106.028 87.0673 106.366C83.1632 107.186 80.4639 110.226 81.0904 113.073C81.7171 115.969 85.4282 117.609 89.3329 116.789C92.6588 116.065 95.1169 113.797 95.3579 111.336V110.805V91.9857L113.24 87.1602V100.72C111.987 100.285 110.348 100.189 108.709 100.575L108.709 100.575Z" fill="#939393"/>
<path d="M26 92H18V88H26V92ZM15 92H7V88V84H11V88H15V92ZM11 81H7V73H11V81ZM11 70H7V62H11V70ZM11 59H7V51H11V59ZM11 48H7V40H11V48ZM11 37H7V29H11V37ZM92 26H88V18H92V26ZM11 26H7V18H11V26ZM92 15H88V11H84V7H92V15ZM11 15H7V11V7H15V11H11V15ZM81 11H73V7H81V11ZM70 11H62V7H70V11ZM59 11H51V7H59V11ZM48 11H40V7H48V11ZM37 11H29V7H37V11ZM26 11H18V7H26V11Z" fill="#939393"/>
<path fill-rule="evenodd" clip-rule="evenodd" d="M117 33L33 33L33 117L73 117L73 113L37 113L37 37L113 37L113 67L117 67L117 33Z" fill="#939393"/>
<rect x="42" y="103" width="31" height="4" fill="#939393"/>
<path d="M87.0714 73.3618C88.3095 74.0899 88.3095 75.9101 87.0714 76.6382L64.7857 89.7437C63.5476 90.4718 62 89.5617 62 88.1056L62 61.8944C62 60.4383 63.5476 59.5282 64.7857 60.2563L87.0714 73.3618Z" fill="#939393"/>
</g>
</svg>
