<svg width="28" height="28" viewBox="0 0 28 28" fill="none" xmlns="http://www.w3.org/2000/svg">
<circle cx="14" cy="14" r="14" fill="#EB5323"/>
<g filter="url(#filter0_i_1911_34909)">
<path d="M13.9999 5L7 7.36736V13.8367C7 15.3469 7.39236 16.8367 8.13571 18.1632C8.87905 19.4896 9.97343 20.5918 11.2743 21.3673L14 23L16.7257 21.3673C18.0266 20.5918 19.1209 19.4695 19.8643 18.1632C20.6076 16.8571 21 15.3469 21 13.8367L20.9997 7.36736L13.9999 5Z" fill="white"/>
<path d="M13.9997 8.7998C14.4109 8.7998 14.8053 8.96316 15.0961 9.25393C15.2714 9.42927 15.4004 9.64229 15.4752 9.87395C15.5741 10.1803 15.5171 10.5091 15.4514 10.8243L14.6219 14.8058C14.5605 15.1005 14.3008 15.3118 13.9997 15.3118C13.6986 15.3118 13.4389 15.1005 13.3775 14.8058L12.548 10.8243C12.4823 10.5091 12.4253 10.1803 12.5242 9.87395C12.599 9.64229 12.728 9.42927 12.9033 9.25393C13.1941 8.96316 13.5885 8.7998 13.9997 8.7998Z" fill="#EB5323"/>
<path d="M15.342 17.1036C15.342 16.39 14.7635 15.8115 14.0499 15.8115C13.3363 15.8115 12.7578 16.39 12.7578 17.1036C12.7578 17.8172 13.3363 18.3957 14.0499 18.3957C14.7635 18.3957 15.342 17.8172 15.342 17.1036Z" fill="#EB5323"/>
</g>
<defs>
<filter id="filter0_i_1911_34909" x="7" y="5" width="14" height="18" filterUnits="userSpaceOnUse" color-interpolation-filters="sRGB">
<feFlood flood-opacity="0" result="BackgroundImageFix"/>
<feBlend mode="normal" in="SourceGraphic" in2="BackgroundImageFix" result="shape"/>
<feColorMatrix in="SourceAlpha" type="matrix" values="0 0 0 0 0 0 0 0 0 0 0 0 0 0 0 0 0 0 127 0" result="hardAlpha"/>
<feOffset dy="-0.5"/>
<feComposite in2="hardAlpha" operator="arithmetic" k2="-1" k3="1"/>
<feColorMatrix type="matrix" values="0 0 0 0 1 0 0 0 0 1 0 0 0 0 1 0 0 0 0.15 0"/>
<feBlend mode="normal" in2="shape" result="effect1_innerShadow_1911_34909"/>
</filter>
</defs>
</svg>
