<svg width="124" height="124" viewBox="0 0 124 124" fill="none" xmlns="http://www.w3.org/2000/svg">
<path d="M71.124 91.468L24.756 103.9L3 22.756L84.144 1L96.5775 47.3737L92.7135 48.4097L81.3175 5.90566L7.90152 25.5897L27.5855 99.0057L70.0895 87.6097L71.1255 91.4737L71.124 91.468Z" fill="white"/>
<path d="M56.199 77.0805L51.852 78.246L64.886 45.759L75.3768 53.9913L76.9308 59.7873L66.4395 51.5531L56.1985 77.0786L56.199 77.0805ZM28.668 84.462L41.254 54.166L54.4104 64.2318L52.9867 67.7471L42.808 59.962L33.1273 83.2664L28.668 84.462Z" fill="white"/>
<path d="M70.2431 39.9386C68.4281 40.4252 66.5092 40.3632 64.7297 39.7595C62.9502 39.1557 61.3895 38.0377 60.2454 36.547C59.1012 35.0564 58.4251 33.2594 58.302 31.3843C58.1788 29.5092 58.614 27.6396 59.5533 26.0121C60.4927 24.3846 61.8937 23.0724 63.5789 22.241C65.2641 21.4096 67.1583 21.096 69.0214 21.341C70.8845 21.586 72.6333 22.378 74.0464 23.6167C75.4594 24.8555 76.473 26.486 76.9596 28.3011C77.6086 30.7348 77.2662 33.3267 76.0071 35.5083C74.748 37.6898 72.6751 39.2829 70.2431 39.9386ZM66.3581 25.4486C65.3073 25.7303 64.3636 26.3172 63.6464 27.1352C62.9292 27.9533 62.4711 28.966 62.3292 30.0446C62.1874 31.1232 62.3681 32.2198 62.8495 33.1955C63.3308 34.1711 64.0911 34.9814 65.0333 35.5252C65.9756 36.069 67.0575 36.322 68.143 36.2506C69.2286 36.1793 70.2685 35.7872 71.1315 35.1248C71.9945 34.4624 72.6422 33.5591 72.9918 32.5289C73.3413 31.4986 73.3773 30.3879 73.0956 29.3371C72.7164 27.9288 71.7943 26.7281 70.5312 25.9991C69.2681 25.2701 67.7671 25.0724 66.3581 25.4486Z" fill="white"/>
<path d="M119.117 80.247H71.117V84.247H119.117V80.247Z" fill="white"/>
<path d="M77.7508 84.247L82.7699 118.247H107.464L112.483 84.247H77.7508ZM73.117 80.247H117.117L110.917 122.247H79.317L73.117 80.247Z" fill="white"/>
<path d="M103.117 120.809L99.1483 120.324L99.4031 118.248H103.432L103.117 120.809ZM87.117 120.809L86.8035 118.248H90.8348L91.0906 120.324L87.117 120.809ZM97.117 119.246H93.117V118.246H97.117V119.246ZM99.8885 114.246L103.079 88.246H107.117L103.923 114.246H99.8885ZM97.117 114.246H93.117V88.246H97.117V114.246ZM90.3416 114.246H86.3113L83.1219 88.246H87.1492L90.3416 114.246ZM107.607 84.246H103.575L103.775 82.6044L107.748 83.0927L107.606 84.2441L107.607 84.246ZM97.118 84.246H93.118V80.246H97.118V84.246ZM86.657 84.246H82.6307L82.4901 83.0937L86.4559 82.6054L86.657 84.246Z" fill="white"/>
<path d="M121.117 74.788L79.548 50.788L77.548 54.2521L119.117 78.2521L121.117 74.788Z" fill="white"/>
<path d="M97.4348 56.4955L93.8469 54.4229C96.9829 50.8817 102.234 50.03 106.332 52.3958C110.431 54.7625 112.319 59.7362 110.822 64.2223L107.233 62.1514C107.396 61.2691 107.36 60.3787 107.125 59.5031C106.708 57.9512 105.717 56.6562 104.333 55.8573C102.139 54.5902 99.366 54.8478 97.4348 56.4955Z" fill="white"/>
</svg>
