<svg width="16" height="16" viewBox="0 0 16 16" fill="none" xmlns="http://www.w3.org/2000/svg">
<path d="M7.99965 16C6.41733 16 4.87067 15.5301 3.55502 14.651C2.23937 13.7719 1.21424 12.5224 0.608708 11.0606C0.0031811 9.59868 -0.154868 7.99074 0.153828 6.43882C0.462523 4.88691 1.22429 3.46203 2.34316 2.34316C3.46203 1.22429 4.88691 0.462523 6.43882 0.153828C7.99074 -0.154868 9.59868 0.0031811 11.0606 0.608708C12.5224 1.21424 13.7719 2.23937 14.651 3.55502C15.5301 4.87067 16 6.41733 16 7.99965C15.9976 10.1208 15.1543 12.1546 13.6544 13.6544C12.1546 15.1543 10.1208 15.9976 7.99965 16ZM8.02743 10.7411C7.85162 10.7411 7.6788 10.7927 7.53262 10.8904C7.38644 10.9881 7.2735 11.1273 7.20622 11.2897C7.13894 11.4522 7.12157 11.6312 7.15587 11.8036C7.19017 11.9761 7.27461 12.1342 7.39893 12.2585C7.52325 12.3828 7.68138 12.4673 7.85381 12.5016C8.02625 12.5359 8.2053 12.5185 8.36773 12.4512C8.53016 12.384 8.66937 12.2693 8.76705 12.1231C8.86472 11.9769 8.91636 11.8058 8.91636 11.63C8.91636 11.3946 8.82225 11.1682 8.65593 11.0015C8.48961 10.8349 8.26462 10.7416 8.02917 10.7411H8.02743ZM8.00834 4.92313C8.28354 4.91624 8.55369 4.99892 8.77747 5.15925C8.91366 5.28592 9.02009 5.44107 9.08824 5.61413C9.15639 5.7872 9.18484 5.97377 9.17158 6.1593C9.17626 6.42035 9.10727 6.67737 8.97192 6.90065C8.83084 7.12569 8.64656 7.32123 8.43023 7.47533C7.99893 7.73514 7.6441 8.10485 7.40241 8.54655C7.24227 8.99419 7.17236 9.46944 7.19754 9.94418H8.79136C8.77364 9.62083 8.83039 9.29732 8.95803 8.9997C9.10086 8.77287 9.29626 8.58261 9.52576 8.44412C9.93612 8.16704 10.2936 7.82019 10.5848 7.41977C10.8446 7.03083 10.9806 6.57135 10.972 6.10374C11.0025 5.64816 10.8967 5.19443 10.6699 4.79813C10.4431 4.40182 10.1041 4.08073 9.69591 3.87621C9.14087 3.60438 8.529 3.47077 7.91111 3.48383C7.20534 3.46314 6.51492 3.68762 5.95616 4.11928C5.63619 4.39076 5.38526 4.73387 5.22349 5.12106C5.06173 5.50824 4.99384 5.92838 5.02557 6.3468H6.71488V6.33812C6.70165 6.01372 6.78422 5.69266 6.95447 5.41621C7.07284 5.24998 7.23312 5.11708 7.41803 5.03078C7.60295 4.94447 7.80664 4.9071 8.01007 4.92313H8.00834Z" fill="#C8CDD2"/>
</svg>
