<svg width="18" height="18" viewBox="0 0 18 18" fill="none" xmlns="http://www.w3.org/2000/svg">
<path d="M8.99922 17.9992C7.21919 17.9992 5.47926 17.4706 3.99922 16.4816C2.51918 15.4927 1.36596 14.0871 0.684767 12.4426C0.00357854 10.798 -0.174218 8.98919 0.173049 7.24336C0.520315 5.49753 1.37727 3.89461 2.63594 2.63594C3.89461 1.37727 5.49753 0.520315 7.24336 0.173049C8.98919 -0.174218 10.798 0.00357854 12.4426 0.684767C14.0871 1.36596 15.4927 2.51918 16.4816 3.99922C17.4706 5.47926 17.9992 7.21919 17.9992 8.99922C17.9966 11.3854 17.0478 13.6733 15.3605 15.3605C13.6733 17.0478 11.3854 17.9966 8.99922 17.9992ZM9.03047 12.0832C8.83269 12.0832 8.63828 12.1413 8.47383 12.2512C8.30938 12.3611 8.18233 12.5177 8.10664 12.7004C8.03096 12.8831 8.01142 13.0845 8.05 13.2785C8.08859 13.4725 8.18359 13.6504 8.32344 13.7902C8.46329 13.9301 8.64118 14.0251 8.83516 14.0637C9.02914 14.1023 9.23056 14.0827 9.41328 14.007C9.59601 13.9313 9.75262 13.8023 9.8625 13.6379C9.97238 13.4734 10.0305 13.281 10.0305 13.0832C10.0305 12.8183 9.92461 12.5637 9.7375 12.3762C9.5504 12.1887 9.29729 12.0837 9.03242 12.0832H9.03047ZM9.00899 5.53828C9.31857 5.53053 9.62248 5.62354 9.87422 5.80391C10.0274 5.9464 10.1472 6.12094 10.2238 6.31563C10.3005 6.51031 10.3325 6.7202 10.3176 6.92891C10.3229 7.22258 10.2452 7.51172 10.093 7.76289C9.93426 8.01605 9.72696 8.23603 9.4836 8.40938C8.99841 8.70165 8.59924 9.11756 8.32735 9.61446C8.14721 10.118 8.06855 10.6527 8.09688 11.1867H9.88985C9.86992 10.823 9.93376 10.459 10.0773 10.1242C10.238 9.86905 10.4578 9.65502 10.716 9.49922C11.1777 9.18752 11.5798 8.79733 11.9074 8.34688C12.1996 7.90934 12.3526 7.39245 12.343 6.86641C12.3773 6.35391 12.2582 5.84348 12.0031 5.39766C11.748 4.95184 11.3667 4.59062 10.9074 4.36055C10.283 4.05475 9.59471 3.90445 8.89961 3.91914C8.10566 3.89587 7.32897 4.14839 6.70039 4.63399C6.34044 4.93939 6.05815 5.32537 5.87617 5.76094C5.69419 6.19651 5.61782 6.66914 5.65352 7.13985H7.55391V7.13008C7.53903 6.76515 7.63192 6.40396 7.82344 6.09297C7.9566 5.90597 8.1369 5.75646 8.34492 5.65938C8.55294 5.56229 8.78209 5.52025 9.01094 5.53828H9.00899Z" fill="black"/>
</svg>
