<svg width="20" height="20" viewBox="0 0 20 20" fill="none" xmlns="http://www.w3.org/2000/svg">
<mask id="mask0_3567_5815" style="mask-type:alpha" maskUnits="userSpaceOnUse" x="0" y="0" width="20" height="20">
<rect width="20" height="20" fill="white"/>
</mask>
<g mask="url(#mask0_3567_5815)">
<path d="M14.0419 2.5C12.34 2.5 10.8622 3.37659 10 4.67075C9.13781 3.37659 7.66031 2.5 5.95813 2.5C3.35813 2.5 1.25 4.52626 1.25 7.02596C1.25 7.85478 1.54656 8.69322 1.91375 9.43583C2.88969 11.4083 4.66406 13.0648 6.30781 14.5299C7.48375 15.578 8.71625 16.5753 10 17.5C11.2838 16.575 12.5162 15.578 13.6922 14.5296C15.3356 13.0648 17.11 11.4083 18.0863 9.43553C18.4534 8.69322 18.75 7.85508 18.75 7.02596C18.75 4.52626 16.6422 2.5 14.0419 2.5Z" fill="#C8CDD2"/>
</g>
</svg>
