<svg xmlns="http://www.w3.org/2000/svg" width="20" height="20" viewBox="0 0 20 20">
    <g data-name="그룹 7202">
        <path data-name="사각형 5984" style="opacity:.2;fill:none" d="M0 0h20v20H0z"/>
        <g data-name="그룹 7202">
            <path data-name="합치기 275" d="M12935.291 20767a8 8 0 0 0 2.71-6 8.438 8.438 0 0 0-.094-1.225 4.5 4.5 0 0 0 2.377-1.836l2.71 2.711v6.35zm-1.293-12.5v-2a2.5 2.5 0 1 1 5 0v2a2.5 2.5 0 0 1-5 0z" transform="translate(-12923.495 -20748.502)" style="fill:#fff"/>
            <g data-name="타원 310" transform="translate(.501 6.502)" style="stroke:#fff;stroke-width:2px;fill:none">
                <circle cx="6" cy="6" r="6" style="stroke:none"/>
                <circle cx="6" cy="6" r="5" style="fill:none"/>
            </g>
        </g>
    </g>
</svg>
