<svg width="20" height="20" viewBox="0 0 20 20" fill="none" xmlns="http://www.w3.org/2000/svg">
<mask id="mask0_1057_16170" style="mask-type:alpha" maskUnits="userSpaceOnUse" x="0" y="0" width="20" height="20">
<rect x="0.5" y="0.5" width="19" height="19" fill="white" stroke="white"/>
</mask>
<g mask="url(#mask0_1057_16170)">
<path d="M18.1709 18.5H1.82715L-0.00292969 16.6758V6.32812L1.82715 4.49805H5V2.82812L6.32324 1.5H13.6719L14.9951 2.82812V4.49805H18.1719L19.9971 6.32812V16.6758L18.1729 18.498L18.1709 18.5ZM10.001 7C9.11096 7 8.241 7.26335 7.50098 7.75781C6.76096 8.25228 6.18434 8.95508 5.84375 9.77734C5.50316 10.5996 5.41426 11.504 5.58789 12.377C5.76152 13.2499 6.19 14.0523 6.81934 14.6816C7.44867 15.311 8.25013 15.7404 9.12305 15.9141C9.99596 16.0877 10.9004 15.9988 11.7227 15.6582C12.5449 15.3176 13.2477 14.74 13.7422 14C14.2367 13.26 14.501 12.39 14.501 11.5C14.4989 10.307 14.0243 9.1638 13.1807 8.32031C12.337 7.47683 11.193 7.00185 10 7H10.001ZM3.99023 7V8H5V7H3.99023ZM0.99707 7V8H2.99707V7H0.99707ZM9.99707 15C9.30484 15 8.62831 14.7947 8.05273 14.4102C7.47716 14.0256 7.02858 13.4794 6.76367 12.8398C6.49876 12.2003 6.4294 11.4953 6.56445 10.8164C6.6995 10.1375 7.03298 9.51487 7.52246 9.02539C8.01194 8.53591 8.63552 8.20145 9.31445 8.06641C9.99339 7.93136 10.6964 8.00072 11.3359 8.26562C11.9755 8.53053 12.5226 8.97912 12.9072 9.55469C13.2918 10.1303 13.4971 10.8078 13.4971 11.5C13.4971 12.4277 13.1284 13.3183 12.4727 13.9746C11.8169 14.6309 10.9277 14.9992 10 15H9.99707Z" fill="black"/>
</g>
</svg>
