<svg width="20" height="20" viewBox="0 0 20 20" fill="none" xmlns="http://www.w3.org/2000/svg">
<path d="M10.0004 20.0004C8.02261 20.0004 6.08827 19.4137 4.44378 18.3149C2.79929 17.2161 1.51902 15.6539 0.76214 13.8266C0.00526381 11.9993 -0.194025 9.98906 0.191828 8.04925C0.57768 6.10944 1.53158 4.32863 2.93011 2.93011C4.32863 1.53158 6.10944 0.57768 8.04925 0.191828C9.98906 -0.194025 11.9993 0.00526381 13.8266 0.76214C15.6539 1.51902 17.2161 2.79929 18.3149 4.44378C19.4137 6.08827 20.0004 8.02261 20.0004 10.0004C19.9975 12.6517 18.9435 15.194 17.0688 17.0688C15.194 18.9435 12.6517 19.9975 10.0004 20.0004ZM8.00042 6.00042V14.0004L14.0004 10.0004L8.00042 6.00042Z" fill="#8C8E97"/>
</svg>
