<svg width="16" height="16" viewBox="0 0 16 16" fill="none" xmlns="http://www.w3.org/2000/svg">
<path d="M8.00832 4.31742e-06C9.85942 0.00192609 11.6526 0.645722 13.0822 1.82167C14.5118 2.99762 15.4893 4.63293 15.8482 6.44891C16.2071 8.26488 15.9252 10.1491 15.0504 11.7805C14.1756 13.4119 12.7622 14.6894 11.051 15.3954C9.33981 16.1013 7.43676 16.192 5.66618 15.652C3.8956 15.112 2.36708 13.9747 1.34113 12.4339C0.315188 10.8931 -0.144692 9.04421 0.0398791 7.20233C0.22445 5.36045 1.04204 3.63958 2.35332 2.333C3.85481 0.836887 5.88869 -0.00219624 8.00832 4.31742e-06ZM7.40032 6.08H5.97032C5.86655 6.08084 5.76333 6.0953 5.66332 6.123C5.60376 6.1357 5.54946 6.16623 5.50766 6.21053C5.46586 6.25483 5.43854 6.3108 5.42932 6.371C5.41289 6.43604 5.41992 6.5048 5.44919 6.56516C5.47846 6.62552 5.52808 6.67363 5.58932 6.701C5.74309 6.77282 5.90826 6.81715 6.07732 6.832C6.52232 6.853 6.70132 7.048 6.63432 7.506C6.50932 8.362 6.34132 9.212 6.19732 10.066C6.09732 10.642 6.01832 11.22 5.92332 11.796C5.89761 12.1581 6.00117 12.5177 6.21558 12.8106C6.43 13.1036 6.74137 13.311 7.09432 13.396C7.43451 13.4438 7.77782 13.4659 8.12132 13.462C8.48563 13.4615 8.846 13.3866 9.1803 13.2418C9.5146 13.097 9.81577 12.8854 10.0653 12.62C10.157 12.5355 10.2258 12.4292 10.2653 12.311C10.2749 12.26 10.2738 12.2076 10.2623 12.1571C10.2508 12.1065 10.229 12.0588 10.1983 12.017C10.1612 11.9939 10.1194 11.9794 10.0759 11.9748C10.0324 11.9701 9.98849 11.9753 9.94732 11.99C9.81632 12.033 9.69932 12.123 9.57132 12.179C9.42179 12.2488 9.26523 12.3024 9.10432 12.339C9.04021 12.3547 8.97347 12.3563 8.90869 12.3437C8.84391 12.3311 8.78263 12.3046 8.7291 12.266C8.67557 12.2274 8.63106 12.1776 8.59864 12.1201C8.56622 12.0626 8.54666 11.9988 8.54132 11.933C8.51449 11.7842 8.50978 11.6322 8.52732 11.482C8.58132 11.111 8.65832 10.743 8.72732 10.375C8.90932 9.36967 9.09365 8.36467 9.28032 7.36C9.36132 7.08958 9.3885 6.80589 9.36032 6.525C9.35592 6.46127 9.33885 6.39906 9.31009 6.34201C9.28133 6.28496 9.24147 6.23423 9.19286 6.19278C9.14424 6.15133 9.08784 6.12001 9.02696 6.10065C8.96608 6.08128 8.90195 6.07426 8.83832 6.08H7.40032ZM8.27032 2.522C7.93569 2.50906 7.60695 2.61266 7.3402 2.81511C7.07346 3.01757 6.88526 3.30633 6.80772 3.63211C6.73018 3.95789 6.76811 4.30047 6.91505 4.60139C7.06198 4.90231 7.3088 5.1429 7.61338 5.28209C7.91796 5.42129 8.26141 5.45045 8.5851 5.3646C8.90878 5.27876 9.19264 5.08323 9.38821 4.8114C9.58378 4.53956 9.67893 4.20827 9.65743 3.87409C9.63593 3.5399 9.49911 3.22354 9.27032 2.979C9.00971 2.70157 8.65064 2.53747 8.27032 2.522Z" fill="#191C1F"/>
</svg>
