<svg width="60" height="28" viewBox="0 0 60 28" fill="none" xmlns="http://www.w3.org/2000/svg">
<mask id="mask0_2196_4381" style="mask-type:alpha" maskUnits="userSpaceOnUse" x="0" y="0" width="60" height="28">
<rect width="60" height="28" fill="#D9D9D9"/>
</mask>
<g mask="url(#mask0_2196_4381)">
</g>
<g clip-path="url(#clip0_2196_4381)">
<path d="M11.7831 6.79004H9.63672V21.2536H11.7831V6.79004Z" fill="white"/>
<path d="M19.2354 6.78516L12.4219 13.1325L19.336 21.2849H22.4389L15.662 13.1175L22.4511 6.78597C22.4511 6.78597 19.2354 6.81523 19.2354 6.78516Z" fill="white"/>
<path d="M24.0859 6.63019C24.0859 6.93095 24.0872 16.7839 24.0872 17.4585C24.0872 18.3259 24.1303 19.1379 24.5866 19.9041C24.9924 20.5857 25.71 21.2673 26.9589 21.2673H28.1666V19.2127C28.1666 19.2127 26.1981 19.4672 26.1981 18.0796L26.2526 6.6123L24.0859 6.63019Z" fill="white"/>
<path d="M30.5436 19.9044C30.9495 20.586 31.6671 21.2676 32.9159 21.2676H34.1236V19.2131C34.1236 19.2131 32.1551 19.4675 32.1551 18.0799L32.2097 11.5716L30.043 11.5488C30.043 11.8496 30.0442 16.7846 30.0442 17.4589C30.0442 18.3262 30.0873 19.1383 30.5436 19.9044Z" fill="white"/>
<path d="M32.1972 6.61719H30.0391V8.81155H32.1972V6.61719Z" fill="white"/>
<path d="M49.3747 15.5736V14.4209C49.3747 12.305 47.6569 10.5898 45.5378 10.5898H40.5039V12.5692H44.9415C46.2937 12.5692 47.3899 13.6637 47.3899 15.0135C47.3899 16.3637 46.2937 17.4583 44.9415 17.4583H40.5039V19.4047H45.5378C47.6569 19.4047 49.3747 17.6895 49.3747 15.5736Z" fill="white"/>
<path d="M52.4686 0H6.53145C2.92421 0 0 2.91986 0 6.52172V21.4779C0 25.0797 2.92421 27.9996 6.53145 27.9996H38.7072V10.567H36.7069V25.7235H6.53145C4.18687 25.7235 2.27945 23.8189 2.27945 21.4779V6.52172C2.27945 4.18063 4.18687 2.27606 6.53145 2.27606H52.4686C54.8131 2.27606 56.7205 4.18063 56.7205 6.52172V21.4779C56.7205 23.8189 54.8131 25.7235 52.4686 25.7235H46.4068V27.9996H52.4686C56.0758 27.9996 59 25.0797 59 21.4779V6.52172C59 2.91986 56.0758 0 52.4686 0Z" fill="white"/>
</g>
<defs>
<clipPath id="clip0_2196_4381">
<rect width="59" height="28" fill="white"/>
</clipPath>
</defs>
</svg>
