<svg width="100" height="32" viewBox="0 0 100 32" fill="none" xmlns="http://www.w3.org/2000/svg">
<path d="M11.4063 16.4902C11.4623 15.7067 11.3553 14.92 11.092 14.1799C10.8286 13.4398 10.4147 12.7623 9.87641 12.1902C8.66948 11.1471 7.1004 10.6212 5.50867 10.7262H3.69078V22.4112C4.49873 22.4652 5.45801 22.4922 6.5686 22.4922C7.2505 22.5485 7.93615 22.4456 8.57145 22.1915C9.20675 21.9374 9.77432 21.5392 10.2294 21.0282C11.1179 19.6896 11.5322 18.0919 11.4063 16.4902ZM6.15463 9.81423C8.65248 9.81423 10.504 10.3712 11.7093 11.4852C12.3483 12.1475 12.8398 12.9376 13.1514 13.8035C13.463 14.6695 13.5877 15.5916 13.5172 16.5092C13.5848 17.4391 13.4654 18.373 13.1663 19.2559C12.8671 20.1389 12.3941 20.953 11.7753 21.6502C11.0684 22.2746 10.2435 22.7509 9.34936 23.051C8.45523 23.351 7.51002 23.4688 6.5696 23.3972L1.7419 23.3572H0V22.8222L1.7369 22.5492V10.6122L0 10.3492V9.81423H6.15463ZM16.764 18.5802V18.7622C16.7341 19.497 16.8385 20.231 17.072 20.9282C17.2525 21.413 17.5855 21.826 18.0209 22.1052C18.5326 22.3945 19.1157 22.5332 19.7028 22.5052C20.1352 22.5005 20.5669 22.4702 20.9957 22.4142C21.4095 22.3683 21.8206 22.3016 22.2277 22.2142V22.7802C21.8175 23.0256 21.3734 23.2092 20.9097 23.3252C20.3563 23.4796 19.7844 23.5577 19.2098 23.5572C18.6158 23.6093 18.0177 23.5295 17.4581 23.3234C16.8985 23.1173 16.3914 22.7901 15.973 22.3652C15.1939 21.2485 14.8312 19.8939 14.9481 18.5372C14.8466 17.2176 15.215 15.9045 15.988 14.8302C16.3586 14.4158 16.8182 14.0905 17.3324 13.8789C17.8465 13.6673 18.4019 13.5747 18.9569 13.6082C21.3874 13.6082 22.6026 14.9886 22.6026 17.7492V18.5772L16.764 18.5802ZM18.9559 14.4192C18.6365 14.4062 18.3193 14.4777 18.0364 14.6266C17.7535 14.7755 17.515 14.9965 17.345 15.2672C16.9234 16.03 16.7288 16.8975 16.784 17.7672H20.8437C20.9081 16.8818 20.7482 15.9945 20.3788 15.1872C20.2354 14.9405 20.0267 14.7382 19.7756 14.6027C19.5245 14.4671 19.2408 14.4036 18.9559 14.4192ZM26.3834 14.6312C26.9092 14.3318 27.464 14.0865 28.0393 13.8992C28.5097 13.729 29.0034 13.6318 29.5032 13.6112C29.8466 13.5864 30.1912 13.6378 30.5124 13.7617C30.8336 13.8857 31.1234 14.0791 31.3611 14.3282C31.816 14.9222 32.0386 15.6618 31.9871 16.4082V22.6492L33.138 22.9012V23.3552H29.0483V22.9012L30.3102 22.6492V16.5892C30.3375 16.1149 30.1922 15.6468 29.9012 15.2712C29.739 15.102 29.5412 14.9711 29.322 14.888C29.1028 14.805 28.8679 14.7719 28.6343 14.7912C27.8821 14.8097 27.1339 14.9079 26.4024 15.0842V22.6492L27.6853 22.9012V23.3552H23.5856V22.9012L24.7265 22.6492V14.5692L23.5856 14.3172V13.8632H26.2924L26.3834 14.6312ZM37.9417 13.6512C38.7557 13.5841 39.567 13.8096 40.2296 14.2872C40.4874 14.5382 40.6867 14.8431 40.8133 15.18C40.9398 15.5169 40.9904 15.8775 40.9615 16.2362V22.6492L42.1435 22.9012V23.3552H39.5376L39.3456 22.4062C38.9602 22.7884 38.5006 23.0876 37.9952 23.2855C37.4898 23.4835 36.9493 23.5759 36.4068 23.5572C34.7842 23.5572 33.973 22.6146 33.973 20.7292C33.9523 20.1822 34.0798 19.6398 34.3419 19.1592C34.6176 18.7206 35.0318 18.3866 35.5189 18.2102C36.2731 17.9555 37.0659 17.834 37.8617 17.8512L39.2856 17.8112V16.3312C39.3247 15.8238 39.1988 15.3173 38.9267 14.8872C38.7927 14.7272 38.6225 14.6014 38.4301 14.5206C38.2377 14.4397 38.0288 14.406 37.8207 14.4222C37.1738 14.4156 36.5364 14.5794 35.9728 14.8972L35.6299 16.0792H35.0639V14.0092C36.008 13.7898 36.9726 13.6702 37.9417 13.6522V13.6512ZM39.2846 18.5192L37.9617 18.5592C37.3081 18.5135 36.6592 18.6994 36.1288 19.0842C35.7656 19.5287 35.5931 20.0989 35.6489 20.6702C35.6489 21.8556 36.1302 22.4482 37.0928 22.4482C37.4941 22.4559 37.8942 22.4029 38.2797 22.2912C38.6222 22.182 38.9563 22.0483 39.2796 21.8912L39.2846 18.5192ZM46.0462 10.7632C46.0477 10.9065 46.0198 11.0486 45.9643 11.1807C45.9087 11.3128 45.8267 11.4321 45.7233 11.5312C45.6225 11.6354 45.5015 11.7178 45.3677 11.7733C45.2339 11.8289 45.0902 11.8564 44.9453 11.8542C44.802 11.8557 44.66 11.8278 44.5279 11.7723C44.3958 11.7167 44.2765 11.6347 44.1773 11.5312C44.0739 11.4321 43.9919 11.3128 43.9363 11.1807C43.8808 11.0486 43.8529 10.9065 43.8544 10.7632C43.8522 10.6184 43.8797 10.4746 43.9353 10.3408C43.9908 10.207 44.0732 10.086 44.1773 9.98523C44.2765 9.88179 44.3958 9.79977 44.5279 9.74422C44.66 9.68866 44.802 9.66076 44.9453 9.66223C45.0902 9.66004 45.2339 9.68757 45.3677 9.74313C45.5015 9.79868 45.6225 9.88108 45.7233 9.98523C45.8274 10.086 45.9098 10.207 45.9653 10.3408C46.0209 10.4746 46.0484 10.6184 46.0462 10.7632ZM45.9462 22.6502L47.5721 22.9022V23.3562H42.6534V22.9022L44.2693 22.6502V14.5702L42.9264 14.3182V13.8642H45.9462V22.6502ZM55.0607 20.6912C55.0876 21.093 55.0209 21.4954 54.8658 21.867C54.7106 22.2385 54.4713 22.5689 54.1667 22.8322C53.3955 23.3694 52.4634 23.626 51.5259 23.5592C51.0027 23.5546 50.4809 23.5058 49.966 23.4132C49.5111 23.3443 49.0633 23.2345 48.6281 23.0852V20.7512H49.082L49.577 22.0742C50.1214 22.5465 50.8259 22.7923 51.5459 22.7612C52.8518 22.7612 53.5048 22.2022 53.5048 21.0842C53.5048 20.2629 52.9898 19.6772 51.9599 19.3272L51.0599 19.0342C50.5338 18.8843 50.0332 18.6561 49.575 18.3572C49.2727 18.137 49.0269 17.848 48.8581 17.5142C48.6804 17.1373 48.5941 16.7238 48.6061 16.3072C48.5888 15.935 48.6566 15.5637 48.8044 15.2216C48.9522 14.8796 49.1761 14.5757 49.459 14.3332C50.1163 13.8226 50.9358 13.5662 51.7669 13.6112C52.6435 13.6322 53.5161 13.737 54.3727 13.9242V15.9942H53.8968L53.4728 14.8942C52.9862 14.5375 52.3871 14.3688 51.7859 14.4192C51.3342 14.3866 50.8874 14.5299 50.539 14.8192C50.3942 14.9603 50.2811 15.1305 50.2072 15.3186C50.1332 15.5067 50.1001 15.7084 50.11 15.9102C50.1058 16.0898 50.1381 16.2684 50.205 16.4351C50.2718 16.6019 50.3718 16.7533 50.499 16.8802C50.8353 17.187 51.2381 17.4115 51.6759 17.5362C52.3357 17.7446 52.9831 17.9907 53.6148 18.2732C53.9035 18.4175 54.165 18.6107 54.3877 18.8442C54.5993 19.0689 54.7671 19.3311 54.8827 19.6172C55.0102 19.9605 55.0703 20.3252 55.0597 20.6912H55.0607ZM62.9022 20.6912C62.9291 21.093 62.8624 21.4954 62.7073 21.867C62.5522 22.2385 62.3129 22.5689 62.0083 22.8322C61.237 23.3694 60.3049 23.626 59.3674 23.5592C58.8443 23.5546 58.3225 23.5058 57.8075 23.4132C57.3526 23.3443 56.9048 23.2345 56.4696 23.0852V20.7512H56.9236L57.4185 22.0742C57.9629 22.5465 58.6675 22.7923 59.3874 22.7612C60.6934 22.7612 61.3463 22.2022 61.3463 21.0842C61.3463 20.2629 60.8313 19.6772 59.8014 19.3272L58.9015 19.0342C58.3753 18.8843 57.8748 18.6561 57.4165 18.3572C57.1132 18.1376 56.8664 17.849 56.6966 17.5152C56.5189 17.1383 56.4326 16.7248 56.4446 16.3082C56.4273 15.936 56.4951 15.5647 56.6429 15.2226C56.7907 14.8806 57.0146 14.5767 57.2976 14.3342C57.9548 13.8235 58.7743 13.5672 59.6054 13.6122C60.482 13.6332 61.3546 13.738 62.2113 13.9252V15.9952H61.7363L61.3123 14.8952C60.8257 14.5385 60.2266 14.3698 59.6254 14.4202C59.1737 14.3876 58.7269 14.5309 58.3785 14.8202C58.2338 14.9613 58.1207 15.1315 58.0467 15.3196C57.9728 15.5077 57.9396 15.7094 57.9495 15.9112C57.9453 16.0908 57.9776 16.2694 58.0445 16.4361C58.1114 16.6029 58.2114 16.7543 58.3385 16.8812C58.6748 17.188 59.0777 17.4125 59.5154 17.5372C60.1753 17.7456 60.8226 17.9917 61.4543 18.2742C61.743 18.4185 62.0045 18.6117 62.2273 18.8452C62.4388 19.0699 62.6066 19.3321 62.7222 19.6182C62.8506 19.961 62.9117 20.3253 62.9022 20.6912ZM68.1389 13.6522C68.9529 13.5851 69.7642 13.8106 70.4268 14.2882C70.6846 14.5392 70.8839 14.8441 71.0104 15.181C71.137 15.5179 71.1876 15.8785 71.1587 16.2372V22.6502L72.3406 22.9022V23.3562H69.7338L69.5418 22.4072C69.1563 22.7894 68.6968 23.0886 68.1914 23.2865C67.686 23.4845 67.1454 23.5769 66.603 23.5582C64.9804 23.5582 64.1691 22.6156 64.1691 20.7302C64.1484 20.1832 64.2759 19.6408 64.5381 19.1602C64.8138 18.7216 65.228 18.3876 65.715 18.2112C66.4692 17.9565 67.262 17.835 68.0579 17.8522L69.4818 17.8122V16.3312C69.5209 15.8238 69.395 15.3173 69.1228 14.8872C68.9889 14.7272 68.8187 14.6014 68.6263 14.5206C68.4339 14.4397 68.225 14.406 68.0169 14.4222C67.3699 14.4156 66.7326 14.5794 66.169 14.8972L65.826 16.0792H65.2601V14.0092C66.2042 13.7898 67.1688 13.6702 68.1379 13.6522H68.1389ZM69.4818 18.5202L68.1589 18.5602C67.5052 18.5145 66.8564 18.7004 66.326 19.0852C65.9628 19.5297 65.7903 20.0999 65.846 20.6712C65.846 21.8566 66.3273 22.4492 67.29 22.4492C67.6912 22.4569 68.0914 22.4039 68.4769 22.2922C68.8193 22.183 69.1535 22.0493 69.4768 21.8922L69.4818 18.5202ZM75.6874 14.6312C76.2132 14.3318 76.768 14.0865 77.3433 13.8992C77.8137 13.729 78.3074 13.6318 78.8073 13.6112C79.1506 13.5864 79.4953 13.6378 79.8165 13.7617C80.1377 13.8857 80.4275 14.0791 80.6651 14.3282C81.12 14.9222 81.3426 15.6618 81.2911 16.4082V22.6492L82.442 22.9012V23.3552H78.3523V22.9012L79.6142 22.6492V16.5892C79.6415 16.1149 79.4962 15.6468 79.2052 15.2712C79.0431 15.102 78.8452 14.9711 78.626 14.888C78.4068 14.805 78.1719 14.7719 77.9383 14.7912C77.1861 14.8097 76.4379 14.9079 75.7064 15.0842V22.6492L76.9894 22.9012V23.3552H72.8896V22.9012L74.0305 22.6492V14.5692L72.8896 14.3172V13.8632H75.5955L75.6874 14.6312ZM91.0945 22.7812C90.6821 23.0593 90.219 23.2533 89.7316 23.3522C89.1491 23.4907 88.5524 23.5602 87.9537 23.5592C84.8772 23.5592 83.339 21.8862 83.339 18.5402C83.2517 17.2177 83.6727 15.9118 84.5159 14.8892C84.9534 14.448 85.4804 14.1057 86.0613 13.8852C86.6422 13.6648 87.2637 13.5713 87.8837 13.6112C88.8843 13.6207 89.8818 13.7255 90.8625 13.9242V16.5702H90.3076L89.8736 14.8932C89.2565 14.5624 88.5636 14.3986 87.8637 14.4182C86.0592 14.4182 85.1569 15.7919 85.1569 18.5392C85.0554 19.6234 85.3475 20.7078 85.9798 21.5942C86.3147 21.9202 86.7156 22.1705 87.1555 22.3282C87.5954 22.4858 88.064 22.5473 88.5297 22.5082C89.3963 22.5239 90.2606 22.4117 91.0945 22.1752V22.7812ZM94.1493 18.5812V18.7632C94.1195 19.498 94.2238 20.232 94.4573 20.9292C94.6378 21.414 94.9708 21.827 95.4063 22.1062C95.918 22.3955 96.501 22.5342 97.0882 22.5062C97.5206 22.5015 97.9523 22.4712 98.3811 22.4152C98.7948 22.3693 99.206 22.3026 99.613 22.2152V22.7812C99.2028 23.0266 98.7588 23.2102 98.2951 23.3262C97.7417 23.4806 97.1697 23.5587 96.5952 23.5582C96.0012 23.6103 95.403 23.5305 94.8434 23.3244C94.2839 23.1183 93.7768 22.7911 93.3584 22.3662C92.5793 21.2495 92.2166 19.8949 92.3334 18.5382C92.232 17.2186 92.6003 15.9055 93.3734 14.8312C93.744 14.4167 94.2036 14.0915 94.7177 13.8799C95.2319 13.6683 95.7872 13.5757 96.3422 13.6092C98.7727 13.6092 99.988 14.9896 99.988 17.7502V18.5782L94.1493 18.5812ZM96.3412 14.4202C96.0218 14.4072 95.7046 14.4787 95.4217 14.6276C95.1389 14.7765 94.9004 14.9975 94.7303 15.2682C94.3088 16.031 94.1141 16.8985 94.1693 17.7682H98.2291C98.2935 16.8828 98.1336 15.9955 97.7641 15.1882C97.6208 14.9412 97.412 14.7385 97.1607 14.6028C96.9093 14.4671 96.6254 14.4036 96.3402 14.4192L96.3412 14.4202Z" fill="#191C1F"/>
<path opacity="0.9" d="M2.93464 3.36914L0.0078125 1.36914V0.369141H100.002V1.36914L97.074 3.36914H2.93464Z" fill="#191C1F"/>
<path opacity="0.5" d="M0.0078125 31.3887H100.002V31.8887H0.0078125V31.3887Z" fill="#191C1F"/>
</svg>
