<svg width="178" height="32" viewBox="0 0 178 32" fill="none" xmlns="http://www.w3.org/2000/svg">
<mask id="mask0_265_21328" style="mask-type:alpha" maskUnits="userSpaceOnUse" x="0" y="0" width="178" height="32">
<rect width="178" height="32" fill="#D9D9D9"/>
</mask>
<g mask="url(#mask0_265_21328)">
<path d="M32.8244 0C29.7796 0 26.9336 0.833912 24.5037 2.2796C22.0701 0.833912 19.2223 0 16.1756 0C7.24194 0 0 7.1629 0 15.9991C0 24.8353 7.24194 31.9982 16.1756 31.9982C19.2204 31.9982 22.0664 31.1643 24.4963 29.7186C26.9281 31.1661 29.7777 31.9982 32.8225 31.9982C41.7562 31.9982 48.9982 24.8353 48.9982 15.9991C48.9982 7.1629 41.7581 0 32.8244 0ZM22.1934 28.058C20.3783 28.9484 18.3368 29.4509 16.1775 29.4509C8.67965 29.4509 2.57904 23.4169 2.57904 16.0009C2.57904 8.58492 8.67781 2.54908 16.1756 2.54908C18.335 2.54908 20.3765 3.05343 22.1916 3.94196C23.0107 4.34435 23.7839 4.82322 24.5018 5.37491C24.5221 5.36034 25.0909 5.85013 25.0909 5.85013C25.5364 6.23249 39.2637 19.7663 39.2637 19.7663C38.6488 20.7914 37.7892 21.6544 36.7675 22.2844L22.4364 8.21531C21.6135 7.56711 20.6839 7.04273 19.6806 6.67312C18.589 6.27073 17.409 6.04859 16.1756 6.04859C10.6199 6.04859 6.11534 10.504 6.11534 15.9991C6.11534 21.4942 10.6199 25.9496 16.1756 25.9496C17.3354 25.9496 18.4491 25.7529 19.4855 25.3961L20.6857 26.5741L22.1952 28.0562C22.1952 28.0562 22.1934 28.0562 22.1916 28.0562L22.1934 28.058ZM31.6425 8.69235C32.0273 8.63226 32.4231 8.59949 32.8244 8.59949C36.9497 8.59949 40.3075 11.9206 40.3075 16.0009C40.3075 16.3796 40.278 16.7529 40.2228 17.117L31.6425 8.69235ZM14.8741 8.71602C15.2975 8.64137 15.732 8.59949 16.1775 8.59949C16.923 8.59949 17.6428 8.71056 18.3221 8.91266C19.1633 9.16211 19.942 9.55357 20.6305 10.0597C20.6342 10.0543 34.1277 23.2876 34.1277 23.2876C33.7043 23.3623 33.2699 23.4042 32.8244 23.4042C32.0788 23.4042 31.359 23.2931 30.6798 23.091C29.8385 22.8415 29.0598 22.4501 28.3713 21.9439C28.3676 21.9494 28.2609 21.8601 28.2609 21.8601C27.9148 21.5961 14.8741 8.71784 14.8741 8.71784V8.71602ZM17.3593 23.3095C16.9746 23.3696 16.5788 23.4023 16.1775 23.4023C12.0521 23.4023 8.69438 20.0813 8.69438 16.0009C8.69438 15.6222 8.72383 15.2489 8.77906 14.8848L17.3593 23.3095ZM32.8244 29.4527C30.665 29.4527 28.6235 28.9484 26.8084 28.0599C25.9893 27.6575 25.2161 27.1786 24.4982 26.6269C24.4779 26.6415 23.9091 26.1517 23.9091 26.1517C23.4636 25.7693 17.0077 19.3748 17.0077 19.3748L9.73631 12.2356C10.3512 11.2105 11.2108 10.3474 12.2325 9.71744L25.8788 23.1165C26.7735 23.9959 27.8191 24.7224 28.9843 25.1994C29.0948 25.2449 29.2052 25.2868 29.3157 25.3287C30.608 25.8057 32.0273 26.0279 33.5092 25.9296C38.6175 25.5891 42.6951 21.4195 42.8736 16.3578C43.0724 10.7007 38.4961 6.05041 32.8188 6.05041C31.6591 6.05041 30.5454 6.24706 29.509 6.60393L26.7992 3.94378C26.7992 3.94378 26.8011 3.94378 26.8029 3.94378C28.826 2.95329 31.1289 2.44165 33.5626 2.57092C40.6167 2.946 46.2553 8.70691 46.4136 15.6914C46.5866 23.2494 40.4198 29.4509 32.8188 29.4509L32.8244 29.4527Z" fill="url(#paint0_linear_265_21328)"/>
<path fill-rule="evenodd" clip-rule="evenodd" d="M73.6111 10.4386C74.3317 10.752 74.9583 11.1593 75.491 11.6919C76.0236 12.2245 76.4309 12.8512 76.7756 13.5405C77.0575 14.2611 77.2142 15.0757 77.2142 15.9217C77.2142 16.7676 77.0575 17.5822 76.7756 18.3029C76.4622 19.0548 76.0549 19.6815 75.5223 20.2141C74.9897 20.7467 74.363 21.1854 73.6424 21.4674C72.8904 21.7494 72.1385 21.906 71.2612 21.906C70.3839 21.906 69.5693 21.7494 68.8487 21.4674C68.128 21.1541 67.5014 20.7467 66.9688 20.2141C66.4361 19.6815 65.9975 19.0548 65.7155 18.3342C65.4335 17.6136 65.2769 16.8303 65.2769 15.953C65.2769 15.0757 65.4335 14.2924 65.7155 13.5718C66.0288 12.8512 66.4361 12.2245 66.9688 11.6919C67.5014 11.1593 68.128 10.7206 68.8487 10.4386C69.5693 10.1567 70.3526 10 71.2299 10C72.1071 10 72.8904 10.1567 73.6111 10.4386ZM73.4231 18.3655C73.7051 18.0522 73.9244 17.7076 74.081 17.3003C74.2377 16.893 74.3317 16.4543 74.3004 15.953C74.3004 15.483 74.2377 15.0444 74.081 14.6371C73.9244 14.2298 73.7051 13.8851 73.4231 13.5718C73.1724 13.2898 72.8278 13.0392 72.4518 12.8825C72.0758 12.7259 71.6685 12.6319 71.1985 12.6319C70.7286 12.6319 70.3212 12.7259 69.9453 12.8825C69.5693 13.0392 69.2246 13.2585 68.9427 13.5718C68.6607 13.8851 68.4413 14.2298 68.2847 14.6371C68.128 15.0131 68.0654 15.483 68.0654 15.953C68.0654 16.4543 68.128 16.893 68.2847 17.3003C68.4413 17.7076 68.6607 18.0836 68.9427 18.3655C69.2246 18.6475 69.5693 18.8982 69.9453 19.0548C70.3212 19.2115 70.7286 19.3055 71.1985 19.3055C71.6685 19.3055 72.0758 19.2115 72.4518 19.0548C72.8278 18.8982 73.1411 18.6789 73.4231 18.3655ZM63.1775 18.7728L63.1775 18.7728C63.4595 18.6162 63.6789 18.4282 63.8982 18.1775L65.2454 20.3081C64.9635 20.6214 64.5875 20.872 64.1488 21.1227C63.7102 21.3734 63.2089 21.5613 62.6449 21.6867C62.1123 21.8433 61.5483 21.906 60.9843 21.906C60.1384 21.906 59.3238 21.7493 58.6031 21.4673C57.8512 21.1854 57.2245 20.7781 56.6919 20.2454C56.1279 19.7128 55.7206 19.0861 55.4386 18.3655C55.1567 17.6449 55 16.7989 55 15.953C55 15.107 55.1567 14.3237 55.47 13.6031C55.7833 12.8825 56.2219 12.2559 56.7546 11.7232C57.2872 11.1906 57.9138 10.7519 58.6658 10.47C59.3864 10.188 60.201 10.0313 61.0783 10.0313C61.611 10.0313 62.1436 10.094 62.6762 10.2506C63.2089 10.376 63.7102 10.5953 64.1488 10.8773C64.6188 11.1592 65.0261 11.5039 65.3394 11.8799L63.6475 13.7598C63.4282 13.5405 63.1775 13.3211 62.9269 13.1331C62.6762 12.9765 62.3943 12.8198 62.0809 12.7258C61.799 12.6318 61.4543 12.5692 61.1097 12.5692C60.671 12.5692 60.2324 12.6632 59.8564 12.8198C59.4491 13.0078 59.1044 13.2271 58.8225 13.5091C58.5405 13.7911 58.2898 14.1671 58.1332 14.5744C57.9765 15.013 57.8825 15.483 57.8825 15.9843C57.8825 16.4856 57.9765 16.9556 58.1332 17.3629C58.2898 17.7702 58.5405 18.1462 58.8225 18.4282C59.1044 18.7415 59.4804 18.9608 59.8877 19.1175C60.3264 19.2741 60.7963 19.3368 61.2977 19.3368C61.6423 19.3368 61.9869 19.2741 62.3003 19.1801C62.6136 19.0861 62.8956 18.9295 63.1775 18.7728ZM85.8615 17.3003L80.6918 10.2507H78.1853V21.7807H80.9112V14.8564L86.0182 21.7807H88.5561V10.2507H85.8615V17.3003ZM97.047 18.3342C97.235 17.9896 97.3603 17.6136 97.3603 17.2063V10.2507H100.086V17.3316C100.086 18.2089 99.8668 18.9609 99.4595 19.6502C99.0209 20.3394 98.4569 20.8721 97.705 21.2481C96.953 21.6554 96.1071 21.8434 95.1671 21.8434C94.2272 21.8434 93.3812 21.624 92.6292 21.2481C91.8773 20.8721 91.282 20.3394 90.8747 19.6502C90.4674 18.9922 90.248 18.2089 90.248 17.3316V10.2507H93.0679V17.2063C93.0679 17.6136 93.1619 17.9896 93.3499 18.3342C93.5379 18.6789 93.7885 18.9295 94.1018 19.1175C94.4152 19.3055 94.7598 19.3995 95.1671 19.3995C95.5744 19.3995 95.9504 19.3055 96.2637 19.1175C96.577 18.9295 96.859 18.6789 97.047 18.3342ZM100.807 12.7259H104.222V21.7807H107.011V12.7259H110.52V10.2507H100.807V12.7259ZM121.392 15.107C121.862 15.295 122.3 15.5457 122.645 15.8277C123.021 16.1096 123.271 16.4543 123.522 16.9243C123.71 17.3002 123.804 17.7702 123.804 18.2715C123.804 19.0861 123.585 19.7441 123.209 20.3081C122.801 20.8407 122.3 21.2794 121.611 21.5613C120.953 21.8433 120.17 22 119.292 22C118.54 22 117.851 21.906 117.256 21.718C116.629 21.53 116.097 21.2794 115.627 20.9347C115.157 20.5901 114.749 20.1828 114.373 19.7128L116.065 17.8016C116.629 18.5222 117.162 19.0235 117.726 19.2741C118.29 19.5248 118.854 19.6501 119.449 19.6501C119.762 19.6501 120.013 19.5875 120.264 19.5248C120.514 19.4308 120.702 19.3368 120.828 19.1801C120.953 19.0235 121.016 18.8355 121.016 18.6162C121.016 18.4595 120.984 18.3029 120.89 18.1775C120.796 18.0522 120.702 17.9269 120.546 17.8329C120.42 17.7389 120.232 17.6449 120.044 17.5509C119.856 17.4569 119.637 17.3942 119.418 17.3316C119.198 17.2689 118.979 17.2063 118.76 17.1749C118.133 17.0183 117.569 16.8616 117.099 16.6423C116.598 16.4543 116.222 16.2036 115.909 15.8903C115.595 15.577 115.376 15.2324 115.219 14.8564C115.063 14.4491 115 14.0104 115 13.5405C115 13.0391 115.094 12.5692 115.345 12.1305C115.564 11.6919 115.877 11.3159 116.285 11.0026C116.66 10.6893 117.13 10.4386 117.663 10.282C118.164 10.1253 118.728 10.0313 119.292 10.0313C120.044 10.0313 120.702 10.1253 121.235 10.282C121.799 10.4386 122.269 10.6893 122.645 10.9713C123.052 11.2532 123.365 11.6292 123.647 12.0365L121.924 13.6971C121.705 13.3838 121.454 13.1645 121.172 12.9765C120.922 12.7885 120.64 12.6318 120.326 12.5378C120.013 12.4438 119.7 12.3812 119.386 12.3812C119.073 12.3812 118.791 12.4125 118.54 12.5065C118.29 12.6005 118.102 12.6945 117.976 12.8512C117.851 13.0078 117.788 13.1645 117.788 13.3838C117.788 13.5718 117.851 13.7284 117.945 13.8538C118.039 13.9791 118.196 14.1044 118.384 14.1984C118.572 14.2924 118.76 14.3864 119.01 14.4491C119.261 14.5431 119.512 14.6057 119.762 14.6371C120.358 14.7624 120.89 14.919 121.392 15.107ZM134.206 11.6919C133.674 11.1593 133.047 10.752 132.326 10.4386C131.606 10.1253 130.822 10 129.945 10C129.068 10 128.285 10.1567 127.564 10.4386C126.843 10.7206 126.217 11.1593 125.684 11.6919C125.151 12.2245 124.744 12.8512 124.431 13.5718C124.149 14.2924 123.992 15.0757 123.992 15.953C123.992 16.8303 124.149 17.6136 124.431 18.3342C124.713 19.0548 125.151 19.6815 125.684 20.2141C126.217 20.7467 126.843 21.1541 127.564 21.4674C128.285 21.7807 129.068 21.906 129.945 21.906C130.353 21.906 130.728 21.8747 131.104 21.812L129.162 19.1802C129.005 19.1488 128.849 19.0862 128.692 19.0235C128.316 18.8668 127.971 18.6162 127.689 18.3342C127.407 18.0522 127.188 17.6762 127.031 17.2689C126.875 16.8616 126.812 16.423 126.812 15.9217C126.812 15.4517 126.875 14.9817 127.031 14.6057C127.188 14.1984 127.407 13.8538 127.689 13.5405C127.971 13.2272 128.316 13.0078 128.692 12.8512C129.068 12.6945 129.475 12.6005 129.945 12.6005C130.384 12.6005 130.822 12.6945 131.198 12.8512C131.574 13.0078 131.919 13.2585 132.17 13.5405C132.452 13.8538 132.671 14.1984 132.828 14.6057C132.984 15.0131 133.047 15.4517 133.047 15.9217C133.047 16.3916 132.984 16.8303 132.828 17.2063L134.645 19.6815C134.958 19.2742 135.24 18.8042 135.46 18.2715C135.742 17.5509 135.898 16.7363 135.898 15.8903C135.898 15.0444 135.742 14.2298 135.46 13.5091C135.178 12.8512 134.739 12.2245 134.206 11.6919ZM143.951 10.2507H146.676H146.708V17.3316C146.708 18.2089 146.488 18.9609 146.081 19.6502C145.642 20.3394 145.079 20.8721 144.327 21.2481C143.575 21.6554 142.729 21.8434 141.789 21.8434C140.849 21.8434 140.003 21.624 139.251 21.2481C138.499 20.8721 137.904 20.3394 137.496 19.6502C137.089 18.9922 136.87 18.2089 136.87 17.3316V10.2507H139.689V17.2063C139.689 17.6136 139.783 17.9896 139.971 18.3342C140.159 18.6789 140.41 18.9295 140.723 19.1175C141.037 19.3055 141.381 19.3995 141.789 19.3995C142.196 19.3995 142.572 19.3055 142.885 19.1175C143.199 18.9295 143.481 18.6789 143.669 18.3342C143.857 17.9896 143.951 17.6136 143.951 17.2063V10.2507ZM151.094 10.2507L146.551 21.7494H149.308C149.308 21.7494 152.159 13.8851 152.253 13.6658C152.316 13.8851 155.167 21.7494 155.167 21.7494H157.987L153.475 10.2507H151.094ZM165.444 17.2376L165.256 17.3316L167.857 21.7807H164.661L162.373 17.7389H160.932V21.7807H158.269V10.282H163.439C164.191 10.282 164.849 10.4386 165.444 10.752C166.039 11.0653 166.509 11.5039 166.854 12.0679C167.199 12.6319 167.355 13.2272 167.355 13.9478C167.355 14.6684 167.199 15.3264 166.854 15.8903C166.509 16.4543 166.039 16.9243 165.444 17.2376ZM162.937 12.6005H160.901V15.6084H163.188C163.47 15.6084 163.721 15.5457 163.94 15.4204C164.159 15.295 164.316 15.107 164.441 14.8877C164.535 14.6684 164.598 14.3864 164.598 14.1044C164.598 13.7911 164.535 13.5405 164.41 13.3211C164.285 13.0705 164.097 12.9138 163.846 12.7885C163.595 12.6632 163.282 12.6005 162.937 12.6005ZM171.365 19.3995V17.0496H175.909V14.7938H171.365V12.6319H176.661V10.2507H168.64V21.7807H176.817V19.3995H171.365ZM128.974 17.6136L131.01 16.1723L135.272 21.9373H132.17L128.974 17.6136Z" fill="#191C1F"/>
</g>
<defs>
<linearGradient id="paint0_linear_265_21328" x1="-3.30865e-07" y1="16.5" x2="49" y2="16.5" gradientUnits="userSpaceOnUse">
<stop stop-color="#0A9339"/>
<stop offset="0.755208" stop-color="#CC6D13"/>
<stop offset="1" stop-color="#AC5E16"/>
</linearGradient>
</defs>
</svg>
