<svg width="24" height="24" viewBox="0 0 24 24" fill="none" xmlns="http://www.w3.org/2000/svg">
<path d="M0 12C0 5.37258 5.37258 0 12 0C18.6274 0 24 5.37258 24 12C24 18.6274 18.6274 24 12 24C5.37258 24 0 18.6274 0 12Z" fill="url(#paint0_linear_328_9890)"/>
<path d="M14.3045 14.8338C14.0182 14.9921 13.7318 15.1504 13.4136 15.2454C13.0955 15.3404 12.7455 15.4037 12.3955 15.4037C11.8864 15.4037 11.4091 15.3404 10.9636 15.1821C10.55 15.0237 10.1682 14.8021 9.88182 14.4855C9.59545 14.2005 9.34091 13.8206 9.18182 13.409C9.02273 12.9974 8.92727 12.5224 8.92727 12.0158C8.92727 11.5092 9.02273 11.0343 9.18182 10.591C9.34091 10.1794 9.59545 9.79947 9.88182 9.51451C10.1682 9.22955 10.5182 9.00792 10.9318 8.81794C11.3136 8.65963 11.7591 8.56464 12.2045 8.56464C12.5545 8.56464 12.9045 8.62797 13.1909 8.72296C13.5091 8.81794 13.7955 8.97625 14.05 9.13456C14.3045 9.32454 14.5591 9.54617 14.7818 9.76781L16.5 7.86807C16.1818 7.48813 15.7682 7.13984 15.2909 6.85488C14.8455 6.56992 14.3364 6.34829 13.7955 6.22164C13.2545 6.06332 12.7136 6 12.1727 6C11.2818 6 10.4545 6.15831 9.72273 6.44327C8.95909 6.72823 8.32273 7.1715 7.78182 7.70976C7.24091 8.24802 6.79545 8.88127 6.47727 9.6095C6.15909 10.3377 6 11.1293 6 11.9842C6 12.8391 6.15909 13.6939 6.44545 14.4222C6.73182 15.1504 7.14545 15.7836 7.71818 16.3219C8.25909 16.8602 8.89545 17.2718 9.65909 17.5567C10.3909 17.8417 11.2182 18 12.0773 18C12.65 18 13.2227 17.9367 13.7636 17.7784C14.3364 17.6517 14.8455 17.4617 15.2909 17.2084C15.7364 16.9551 16.1182 16.7018 16.4045 16.3852L15.0364 14.2322C14.8136 14.4855 14.5909 14.6755 14.3045 14.8338Z" fill="white"/>
<defs>
<linearGradient id="paint0_linear_328_9890" x1="24" y1="24" x2="0" y2="24" gradientUnits="userSpaceOnUse">
<stop stop-color="#F5B919"/>
<stop offset="1" stop-color="#EC8408"/>
</linearGradient>
</defs>
</svg>
