<svg width="18" height="19" viewBox="0 0 18 19" fill="none" xmlns="http://www.w3.org/2000/svg">
<path fill-rule="evenodd" clip-rule="evenodd" d="M13.9993 5.0006C13.9995 7.76202 11.7611 10.0008 8.9997 10.001C6.23828 10.0012 3.99953 7.76278 3.99932 5.00135C3.99912 2.23993 6.23752 0.00118399 8.99895 0.000976577C11.7604 0.00076916 13.9991 2.23918 13.9993 5.0006ZM11.9993 5.00075C11.9994 6.65761 10.6564 8.00085 8.99955 8.00098C7.34269 8.0011 5.99945 6.65806 5.99932 5.0012C5.9992 3.34435 7.34224 2.0011 8.9991 2.00098C10.656 2.00085 11.9992 3.3439 11.9993 5.00075Z" fill="#191C1F"/>
<path d="M1.73022e-08 14.0017C-0.000169553 11.7442 1.24649 9.77774 3.089 8.75349C3.46152 9.33901 3.91866 9.86543 4.44319 10.3155C3.00734 10.9228 1.99988 12.3445 2 14.0016L2.0003 18.0016L0.000300467 18.0017L1.73022e-08 14.0017Z" fill="#191C1F"/>
<path d="M16 14.0005C15.9999 12.3435 14.9922 10.9219 13.5563 10.3149C14.0807 9.86467 14.5378 9.33818 14.9102 8.7526C16.7529 9.77657 17.9998 11.7428 18 14.0004L18.0003 18.0004L16.0003 18.0005L16 14.0005Z" fill="#191C1F"/>
</svg>
