<svg width="40" height="40" viewBox="0 0 40 40" fill="none" xmlns="http://www.w3.org/2000/svg">
<mask id="mask0_225_7819" style="mask-type:alpha" maskUnits="userSpaceOnUse" x="0" y="0" width="40" height="40">
<rect width="40" height="40" rx="20" fill="#D9D9D9"/>
</mask>
<g mask="url(#mask0_225_7819)">
<mask id="mask1_225_7819" style="mask-type:alpha" maskUnits="userSpaceOnUse" x="11" y="11" width="18" height="18">
<rect x="11.6667" y="11.6667" width="16.6667" height="16.6667" fill="#D9D9D9"/>
</mask>
<g mask="url(#mask1_225_7819)">
<path d="M24.3333 18.9834C23.8083 18.7167 23.2417 18.5167 22.65 18.4167C22.9167 17.9667 23.1083 17.4584 23.175 16.8917L23.3167 15.6417C23.5583 13.525 22.0667 11.6667 20.15 11.6667H19.8667C17.95 11.6667 16.4583 13.5334 16.7 15.6417L16.8417 16.8917C16.9083 17.4584 17.1 17.9667 17.3667 18.4167C17.9417 19.3667 18.9083 19.9917 20.0083 19.9917H21.675C22.3167 19.9917 22.9167 20.15 23.4583 20.4084C24.8667 21.075 25.8417 22.5 25.8417 24.1584V26.6584H14.1667V24.1584C14.1667 22.5 15.15 21.075 16.55 20.4084C16.3667 20.1917 16.1833 19.9584 16.0333 19.7084C15.8917 19.475 15.775 19.2334 15.6667 18.9834C13.7833 19.95 12.5 21.9 12.5 24.1584V28.325H27.5V24.1584C27.5 21.9 26.2083 19.95 24.3333 18.9834ZM18.4917 16.7084L18.35 15.4584C18.2833 14.8417 18.4583 14.25 18.8417 13.825C19.0417 13.6 19.3833 13.3334 19.8667 13.3334H20.15C20.6333 13.3334 20.975 13.6 21.175 13.825C21.5583 14.25 21.7333 14.8417 21.6667 15.4584L21.525 16.7084C21.425 17.6334 20.775 18.3334 20.0167 18.3334C19.2583 18.3334 18.6083 17.6334 18.5083 16.7084H18.4917Z" fill="white"/>
</g>
</g>
</svg>
