<svg width="24" height="24" viewBox="0 0 24 24" fill="none" xmlns="http://www.w3.org/2000/svg">
<mask id="mask0_127_29475" style="mask-type:alpha" maskUnits="userSpaceOnUse" x="0" y="0" width="24" height="24">
<rect width="24" height="24" fill="#D9D9D9"/>
</mask>
<g mask="url(#mask0_127_29475)">
<path d="M20 3H0V21H17V19H2V5H18V8H20V3Z" fill="white"/>
<path d="M4 8H12V16H4V14H10V10H4V8Z" fill="white"/>
<path fill-rule="evenodd" clip-rule="evenodd" d="M23.596 13.3373L21.4754 12.0788L21.4743 12.0781C21.2254 11.9326 20.9173 11.9384 20.6554 12.0722L19.1837 12.9593L18.1939 13.5187L16.7538 14.4025C16.6389 14.4688 16.4807 14.4753 16.3275 14.3995L15.2123 13.7097L15.208 13.7072C15.0867 13.6363 14.9937 13.4884 14.9937 13.319V11.9837C14.9937 11.8372 15.0642 11.6888 15.2123 11.593L16.3313 10.9275C16.4462 10.8606 16.605 10.8538 16.7586 10.9299L17.8739 11.6197L17.8782 11.6222C17.9995 11.6931 18.0924 11.8409 18.0924 12.0104V13.2426L19.4846 12.4182V11.3961C19.4846 11.1162 19.347 10.8381 19.079 10.6667L16.9855 9.40868L16.9834 9.40745C16.7346 9.26201 16.4264 9.26777 16.1646 9.40166L14.0175 10.6872C13.7354 10.8347 13.6016 11.1222 13.6016 11.3961V13.9065C13.6016 14.1865 13.7391 14.4647 14.0071 14.636L16.1277 15.8945L16.1288 15.8952C16.3777 16.0407 16.6858 16.0349 16.9476 15.901L18.3947 15.0398L19.3869 14.4523L20.8222 13.5981C20.9375 13.531 21.0969 13.5244 21.2509 13.6012L22.3677 14.2654L22.369 14.2661C22.4903 14.337 22.5833 14.4849 22.5833 14.6543V15.9896C22.5833 16.1364 22.5126 16.2851 22.3639 16.3809L21.2711 17.0462C21.1558 17.1129 20.9968 17.1193 20.8431 17.0427L19.7262 16.3785L19.7249 16.3778C19.6037 16.3069 19.5107 16.1591 19.5107 15.9896V14.7841L18.1185 15.6086V16.6039C18.1185 16.8838 18.2561 17.162 18.5241 17.3333L20.6447 18.5919L20.6458 18.5926C20.8946 18.738 21.2028 18.7322 21.4646 18.5983L23.5898 17.337C23.8337 17.1941 24.0016 16.9149 24.0016 16.6039V14.0668C24.0016 13.7868 23.864 13.5086 23.596 13.3373Z" fill="white"/>
</g>
</svg>
