<svg width="24" height="24" viewBox="0 0 24 24" fill="none" xmlns="http://www.w3.org/2000/svg">
<mask id="mask0_1227_33973" style="mask-type:alpha" maskUnits="userSpaceOnUse" x="0" y="0" width="24" height="24">
<rect width="24" height="24" fill="#D9D9D9"/>
</mask>
<g mask="url(#mask0_1227_33973)">
</g>
<g clip-path="url(#clip0_1227_33973)">
<path d="M17.6694 5.15287L17.745 5.06553C16.2753 3.84458 14.4096 3.08284 12.3693 3L7.85938 15.0573L17.6694 5.15287Z" fill="white"/>
<path d="M6.19922 18.8795C7.76612 20.2022 9.78932 21 11.9997 21C14.2101 21 16.2342 20.2022 17.8002 18.8795L11.9997 13.0764L6.19922 18.8795Z" fill="white"/>
<path d="M3.009 11.597C3.0036 11.7294 3 11.8617 3 11.9959C3 14.1911 3.7857 16.2026 5.0898 17.7648L10.02 4.61255L3.009 11.597Z" fill="white"/>
<path d="M18.9238 6.24146L13.1719 11.9959L18.9238 17.7504C20.2216 16.19 21.0019 14.1839 21.0019 11.9959C21.0019 9.80796 20.2216 7.80186 18.9238 6.24146Z" fill="white"/>
</g>
<defs>
<clipPath id="clip0_1227_33973">
<rect width="18" height="18" fill="white" transform="translate(3 3)"/>
</clipPath>
</defs>
</svg>
