<svg width="40" height="40" viewBox="0 0 40 40" fill="none" xmlns="http://www.w3.org/2000/svg">
<mask id="mask0_225_7959" style="mask-type:alpha" maskUnits="userSpaceOnUse" x="0" y="0" width="40" height="40">
<rect width="40" height="40" rx="20" fill="#D9D9D9"/>
</mask>
<g mask="url(#mask0_225_7959)">
<mask id="mask1_225_7959" style="mask-type:alpha" maskUnits="userSpaceOnUse" x="11" y="11" width="18" height="18">
<rect x="11.6667" y="11.6667" width="16.6667" height="16.6667" fill="#D9D9D9"/>
</mask>
<g mask="url(#mask1_225_7959)">
<path fill-rule="evenodd" clip-rule="evenodd" d="M15.1667 12.5C13.2338 12.5 11.6667 14.067 11.6667 16V16.6667V17.1667V19.1667V24C11.6667 25.933 13.2338 27.5 15.1667 27.5H24.8334C26.7664 27.5 28.3334 25.933 28.3334 24V16.6667H13.3334V15.6667C13.3334 14.8382 14.005 14.1667 14.8334 14.1667H26.3334H28.3334V12.5H26.3334H15.1667ZM13.3334 18.3333V19.1667V23.3333C13.3334 24.714 14.4527 25.8333 15.8334 25.8333H24.1667C25.5475 25.8333 26.6667 24.714 26.6667 23.3333V18.3333H13.3334Z" fill="white"/>
</g>
</g>
</svg>
