<svg width="20" height="20" viewBox="0 0 20 20" fill="none" xmlns="http://www.w3.org/2000/svg">
<mask id="mask0_3339_37480" style="mask-type:alpha" maskUnits="userSpaceOnUse" x="0" y="0" width="20" height="20">
<rect width="20" height="20" fill="#D9D9D9"/>
</mask>
<g mask="url(#mask0_3339_37480)">
<path opacity="0.2" fill-rule="evenodd" clip-rule="evenodd" d="M13.5393 5.46842C14.5706 7.58623 14.8198 9.2119 14.2869 10.3454C13.5119 12.7319 10.8365 10.1757 12.5628 7.87569C13.5962 6.38572 12.606 3.19026 10.0699 0C11.1244 4.94053 3.51175 5.81618 4.92693 11.4533C5.96037 13.7949 2.81153 13.1192 4.01475 10.3694C3.51478 11.103 3.18877 11.9385 3.06097 12.8137C2.93317 13.6889 3.00687 14.5813 3.27659 15.4244C3.90575 16.6943 4.83135 17.7984 5.97723 18.6459C7.11752 19.5396 8.53505 20.0177 9.99077 19.9995C9.95386 19.9995 9.91802 19.9995 9.88533 19.9995C6.2588 19.5632 6.67427 13.9303 9.66808 11.2846C8.97104 13.2785 9.2062 15.01 10.1553 16.0596C10.1553 14.9601 10.8028 14.4978 10.9188 13.3462C13.766 16.5115 12.8507 19.6455 10.4453 19.9745C17.8702 19.331 19.1072 10.386 13.5414 5.46529L13.5393 5.46842Z" fill="#191C1F"/>
</g>
</svg>
