<svg width="24" height="24" viewBox="0 0 24 24" fill="none" xmlns="http://www.w3.org/2000/svg">
<mask id="mask0_127_29974" style="mask-type:alpha" maskUnits="userSpaceOnUse" x="0" y="0" width="24" height="24">
<rect width="24" height="24" fill="#D9D9D9"/>
</mask>
<g mask="url(#mask0_127_29974)">
<path fill-rule="evenodd" clip-rule="evenodd" d="M12.8739 2.5923C12.4939 1.90153 11.5014 1.90152 11.1214 2.5923L1.81271 19.5173C1.44616 20.1837 1.92832 20.9992 2.68892 20.9992H21.3064C22.067 20.9992 22.5491 20.1837 22.1826 19.5173L12.8739 2.5923ZM11.9972 7.59928C12.4005 7.59928 12.7873 7.76054 13.0724 8.04759C13.2452 8.22151 13.3721 8.43296 13.4453 8.66291C13.541 8.96353 13.4856 9.2856 13.4216 9.59455L12.6068 13.5315C12.547 13.8206 12.2924 14.0279 11.9972 14.0279C11.702 14.0279 11.4474 13.8206 11.3876 13.5315L10.5728 9.59455C10.5088 9.2856 10.4534 8.96353 10.5491 8.66291C10.6223 8.43296 10.7492 8.22151 10.922 8.04759C11.2072 7.76054 11.5939 7.59928 11.9972 7.59928ZM13.3146 16.3235C13.3146 15.6191 12.7473 15.048 12.0475 15.048C11.3477 15.048 10.7803 15.6191 10.7803 16.3235C10.7803 17.028 11.3477 17.5991 12.0475 17.5991C12.7473 17.5991 13.3146 17.028 13.3146 16.3235Z" fill="#F7941D"/>
</g>
</svg>
