<svg width="21" height="21" viewBox="0 0 21 21" fill="none" xmlns="http://www.w3.org/2000/svg">
<mask id="mask0_2_9678" style="mask-type:alpha" maskUnits="userSpaceOnUse" x="0" y="0" width="21" height="21">
<rect width="21" height="21" fill="#D9D9D9"/>
</mask>
<g mask="url(#mask0_2_9678)">
<path d="M15.1292 7.39021C14.8003 7.2003 14.3773 7.2003 14.0013 7.39021L11.3695 8.95697L9.58355 9.95401L6.99869 11.5208C6.66971 11.7107 6.24674 11.7107 5.87076 11.5208L3.84987 10.2863C3.52089 10.0964 3.2859 9.71662 3.2859 9.28932V6.91543C3.2859 6.53561 3.47389 6.15579 3.84987 5.9184L5.87076 4.73145C6.19974 4.54154 6.62272 4.54154 6.99869 4.73145L9.01958 5.96588C9.34856 6.15579 9.58355 6.53561 9.58355 6.96291V8.52967L11.3695 7.48516V5.87092C11.3695 5.4911 11.1815 5.11128 10.8055 4.87389L7.04569 2.64243C6.71671 2.45252 6.29373 2.45252 5.91775 2.64243L2.06397 4.92137C1.68799 5.11128 1.5 5.4911 1.5 5.87092V10.3338C1.5 10.7136 1.68799 11.0935 2.06397 11.3309L5.87076 13.5623C6.19974 13.7522 6.62272 13.7522 6.99869 13.5623L9.58355 12.043L11.3695 10.9985L13.9543 9.47923C14.2833 9.28932 14.7063 9.28932 15.0822 9.47923L17.1031 10.6662C17.4321 10.8561 17.6671 11.2359 17.6671 11.6632V14.0371C17.6671 14.4169 17.4791 14.7967 17.1031 15.0341L15.1292 16.2211C14.8003 16.411 14.3773 16.411 14.0013 16.2211L11.9804 15.0341C11.6514 14.8442 11.4164 14.4644 11.4164 14.0371V12.5178L9.63055 13.5623V15.1291C9.63055 15.5089 9.81854 15.8887 10.1945 16.1261L14.0013 18.3576C14.3303 18.5475 14.7533 18.5475 15.1292 18.3576L18.936 16.1261C19.265 15.9362 19.5 15.5564 19.5 15.1291V10.6187C19.5 10.2389 19.312 9.85905 18.936 9.62166L15.1292 7.39021Z" fill="white"/>
</g>
</svg>
