<svg width="18" height="19" viewBox="0 0 18 19" fill="none" xmlns="http://www.w3.org/2000/svg">
<path fill-rule="evenodd" clip-rule="evenodd" d="M13.9993 5.99767C13.9995 8.75909 11.7611 10.9978 8.9997 10.998C6.23828 10.9983 3.99953 8.75985 3.99932 5.99842C3.99912 3.237 6.23752 0.998254 8.99895 0.998047C11.7604 0.997839 13.9991 3.23625 13.9993 5.99767ZM11.9993 5.99782C11.9994 7.65468 10.6564 8.99792 8.99955 8.99805C7.34269 8.99817 5.99945 7.65513 5.99932 5.99827C5.9992 4.34142 7.34224 2.99817 8.9991 2.99805C10.656 2.99792 11.9992 4.34097 11.9993 5.99782Z" fill="white"/>
<path d="M1.73022e-08 14.9988C-0.000169553 12.7412 1.24649 10.7748 3.089 9.75056C3.46152 10.3361 3.91866 10.8625 4.44319 11.3126C3.00734 11.9198 1.99988 13.3416 2 14.9986L2.0003 18.9986L0.000300467 18.9988L1.73022e-08 14.9988Z" fill="white"/>
<path d="M16 14.9976C15.9999 13.3406 14.9922 11.9189 13.5563 11.3119C14.0807 10.8617 14.5378 10.3353 14.9102 9.74967C16.7529 10.7736 17.9998 12.7399 18 14.9974L18.0003 18.9974L16.0003 18.9976L16 14.9976Z" fill="white"/>
</svg>
