<svg width="20" height="20" viewBox="0 0 20 20" fill="none" xmlns="http://www.w3.org/2000/svg">
<path opacity="0.2" fill-rule="evenodd" clip-rule="evenodd" d="M15.7701 3.93733C15.7503 3.47516 15.7253 3.0324 15.6993 2.63152H18.5141C18.6085 2.64805 18.6982 2.68436 18.7772 2.73801C18.8562 2.79166 18.9227 2.8614 18.9722 2.94255C19.0244 3.02749 19.0568 3.12295 19.0668 3.22189C19.0767 3.32082 19.0641 3.42071 19.0299 3.51419L17.1326 8.71907C16.9704 9.1586 16.6614 9.53027 16.2567 9.77263C15.8691 10.0048 15.4158 10.105 14.9661 10.0589C15.2243 9.64292 15.4316 9.21411 15.5502 8.7753C15.844 7.68064 15.844 5.67219 15.7701 3.93733ZM15.5478 0.741211C15.5478 0.741211 15.5864 1.122 15.634 1.72559H18.5804L18.6109 1.72951C18.8459 1.76109 19.0707 1.84446 19.2688 1.97345C19.4668 2.10244 19.633 2.27377 19.7552 2.47479C19.8785 2.67511 19.9548 2.90028 19.9783 3.13366C20.0018 3.36704 19.972 3.60266 19.8911 3.82312L17.9941 9.02769C17.7616 9.66292 17.3164 10.2005 16.7325 10.5512C16.2652 10.83 15.7295 10.9772 15.1837 10.9766C15.0497 10.9766 14.9158 10.9676 14.783 10.9498C14.7234 10.9417 14.666 10.9222 14.614 10.8922C14.562 10.8622 14.5165 10.8224 14.4801 10.7751L14.4745 10.7676C14.2632 11.0456 14.0381 11.3166 13.8117 11.5798C13.6571 11.7595 13.502 11.9355 13.3504 12.1075L13.3503 12.1076C12.7753 12.7601 12.2507 13.3554 11.9972 13.8775C11.8533 14.1743 11.7746 14.6068 11.7333 15.044C11.6985 15.4417 11.685 15.8408 11.693 16.2399L12.4259 17.1582H7.71976L8.45267 16.2399C8.46039 15.8408 8.44683 15.4417 8.41206 15.044C8.37083 14.6068 8.29204 14.1743 8.14821 13.8775C7.89491 13.3553 7.37017 12.7598 6.79503 12.1072C6.64349 11.9353 6.48846 11.7594 6.33397 11.5798C6.10849 11.3176 5.88418 11.0476 5.6736 10.7707L5.66674 10.7799C5.59326 10.8755 5.48438 10.9384 5.36404 10.9547C5.23091 10.972 5.09675 10.9805 4.96247 10.98C4.41645 10.9801 3.88083 10.8324 3.4136 10.553C2.82995 10.2028 2.38494 9.66578 2.15239 9.03106L0.255086 3.82649C0.174217 3.60602 0.144445 3.37041 0.167965 3.13704C0.191486 2.90368 0.267699 2.67851 0.390981 2.47816C0.513437 2.27731 0.679932 2.10621 0.878186 1.97748C1.07644 1.84875 1.30139 1.76568 1.53645 1.73439L1.56699 1.73047H4.50855C4.55635 1.12405 4.59515 0.741211 4.59515 0.741211H15.5478ZM5.18249 10.0636C4.92285 9.64593 4.71426 9.21548 4.59515 8.7753C4.29894 7.68184 4.29924 5.67219 4.37314 3.93733C4.39275 3.47703 4.41758 3.03599 4.44349 2.6364H1.63325C1.53888 2.65294 1.44918 2.68925 1.37018 2.74289C1.29117 2.79654 1.22468 2.86628 1.17519 2.94743C1.12292 3.03237 1.0906 3.12783 1.08061 3.22677C1.07062 3.3257 1.08322 3.4256 1.11747 3.51908L3.01477 8.72395C3.17698 9.16334 3.48588 9.53489 3.89046 9.77723C4.27851 10.0097 4.7323 10.1099 5.18249 10.0636ZM7.3935 17.739L6.21109 19.2459H14.0409L12.8582 17.739H7.3935ZM9.66437 8.75277L12.7747 5.64247L11.8402 4.70801L9.66437 6.88384L8.14931 5.36877L7.21484 6.30324L9.66437 8.75277Z" fill="#191C1F"/>
</svg>
