<svg width="24" height="24" viewBox="0 0 24 24" fill="none" xmlns="http://www.w3.org/2000/svg">
<mask id="mask0_3261_49332" style="mask-type:alpha" maskUnits="userSpaceOnUse" x="0" y="0" width="24" height="24">
<rect width="24" height="24" fill="#D9D9D9"/>
</mask>
<g mask="url(#mask0_3261_49332)">
<path fill-rule="evenodd" clip-rule="evenodd" d="M5.5 5C4.67157 5 4 5.67157 4 6.5V8H22V17.5C22 19.433 20.433 21 18.5 21H5.5C3.567 21 2 19.433 2 17.5V11V9V8V6.5C2 4.567 3.567 3 5.5 3H20H22V5H20H5.5ZM4 10V11V16.5C4 17.8807 5.11929 19 6.5 19H17.5C18.8807 19 20 17.8807 20 16.5V10H4Z" fill="white"/>
</g>
</svg>
