<svg width="79" height="30" viewBox="0 0 79 30" fill="none" xmlns="http://www.w3.org/2000/svg">
<path fill-rule="evenodd" clip-rule="evenodd" d="M42.75 5L39 0L35.25 5H0V30H79V5H42.75Z" fill="url(#paint0_linear_328_7083)"/>
<path d="M14.612 12.064H13.364V15.628H11.048V16.636H13.364V22.936H14.612V12.064ZM9.536 14.752V12.964H8.288V14.752C8.288 16.78 7.232 18.868 5.54 19.696L6.32 20.68C7.568 20.044 8.444 18.796 8.924 17.248C9.392 18.7 10.244 19.888 11.492 20.5L12.224 19.504C10.556 18.736 9.536 16.756 9.536 14.752ZM25.4471 12.076H24.1991V22.948H25.4471V12.076ZM18.3311 12.976H17.1071V20.368H22.3151V12.976H21.0791V15.736H18.3311V12.976ZM18.3311 19.372V16.72H21.0791V19.372H18.3311ZM36.3061 18.4L36.8461 17.38C34.7101 16.996 32.9701 15.328 32.9701 13.6V12.784H31.6621V13.6C31.6621 15.292 29.9221 16.996 27.7861 17.38L28.3141 18.4C30.0781 18.052 31.6021 16.9 32.3101 15.424C33.0181 16.9 34.5421 18.052 36.3061 18.4ZM37.2661 20.512H27.4501V21.532H37.2661V20.512ZM41.4488 15.94L41.9168 16.924C43.7888 16.684 45.2408 15.82 45.8168 14.62C46.4048 15.82 47.8688 16.684 49.7528 16.924L50.2088 15.94C48.1928 15.688 46.7528 14.704 46.6568 13.588H49.8368V12.592H41.8328V13.588H44.9888C44.8928 14.704 43.5008 15.688 41.4488 15.94ZM50.7488 17.584H40.9208V18.58H45.3128V20.62H46.5488V18.58H50.7488V17.584ZM43.3568 21.712V19.624H42.1208V22.72H49.6568V21.712H43.3568ZM60.7678 12.076H59.5198V22.948H60.7678V12.076ZM53.6518 12.976H52.4278V20.368H57.6358V12.976H56.3998V15.736H53.6518V12.976ZM53.6518 19.372V16.72H56.3998V19.372H53.6518ZM63.2509 15.568L63.6949 16.54C65.6269 16.336 67.0789 15.556 67.6669 14.44C68.2429 15.532 69.7429 16.348 71.6389 16.54L72.0709 15.568C70.0669 15.376 68.6629 14.5 68.5069 13.552H71.6749V12.556H63.6709V13.552H66.8149C66.6589 14.5 65.2549 15.376 63.2509 15.568ZM68.2789 18.076H72.5629V17.092H62.7589V18.076H67.0429V19.072C65.0149 19.204 63.9109 19.852 63.9109 21.004C63.9109 22.252 65.2549 22.924 67.6429 22.924C70.0429 22.924 71.3749 22.252 71.3749 21.004C71.3749 19.852 70.2949 19.216 68.2789 19.084V18.076ZM70.1269 21.004C70.1269 21.628 69.2389 21.976 67.6429 21.976C66.0469 21.976 65.1709 21.628 65.1709 21.004C65.1709 20.332 66.0469 20.02 67.6429 20.02C69.2389 20.02 70.1269 20.332 70.1269 21.004Z" fill="white"/>
<defs>
<linearGradient id="paint0_linear_328_7083" x1="79" y1="30" x2="0" y2="30" gradientUnits="userSpaceOnUse">
<stop stop-color="#F5B919"/>
<stop offset="1" stop-color="#EC8408"/>
</linearGradient>
</defs>
</svg>
