<svg width="12" height="12" viewBox="0 0 12 12" fill="none" xmlns="http://www.w3.org/2000/svg">
<mask id="mask0_31_1658" style="mask-type:alpha" maskUnits="userSpaceOnUse" x="0" y="0" width="12" height="12">
<rect width="12" height="12" fill="#D71446"/>
</mask>
<g mask="url(#mask0_31_1658)">
<mask id="mask1_31_1658" style="mask-type:luminance" maskUnits="userSpaceOnUse" x="0" y="0" width="6" height="12">
<path d="M6 0H0V12H6V0Z" fill="white"/>
</mask>
<g mask="url(#mask1_31_1658)">
<path d="M8.5 -1.08834L15.5783 5.98999L8.5 13.0683L1.41166 6L8.5 -1.08834ZM8.5 -2.5L0 6L8.5 14.5L17 6L8.5 -2.5Z" fill="#1D1D1B"/>
</g>
<mask id="mask2_31_1658" style="mask-type:luminance" maskUnits="userSpaceOnUse" x="5" y="0" width="6" height="12">
<path d="M11 0H5V12H11V0Z" fill="white"/>
</mask>
<g mask="url(#mask2_31_1658)">
<path d="M13.5 -1.08834L20.5783 5.98999L13.5 13.0683L6.41166 6L13.5 -1.08834ZM13.5 -2.5L5 6L13.5 14.5L22 6L13.5 -2.5Z" fill="#1D1D1B"/>
</g>
</g>
</svg>
