<svg width="28" height="28" viewBox="0 0 28 28" fill="none" xmlns="http://www.w3.org/2000/svg">
<rect width="28" height="28" rx="12" fill="#8247E5"/>
<mask id="mask0_578_25070" style="mask-type:alpha" maskUnits="userSpaceOnUse" x="4" y="4" width="20" height="20">
<rect x="4" y="4" width="20" height="20" fill="#C4C4C4"/>
</mask>
<g mask="url(#mask0_578_25070)">
<path d="M18.6292 11.0846C18.3003 10.9065 17.8773 10.9065 17.5013 11.0846L14.8695 12.5534L13.0836 13.4881L10.4987 14.957C10.1697 15.135 9.74674 15.135 9.37076 14.957L7.34987 13.7997C7.02089 13.6217 6.7859 13.2656 6.7859 12.865V10.6395C6.7859 10.2834 6.97389 9.9273 7.34987 9.70475L9.37076 8.59199C9.69974 8.41395 10.1227 8.41395 10.4987 8.59199L12.5196 9.74926C12.8486 9.9273 13.0836 10.2834 13.0836 10.684V12.1528L14.8695 11.1736V9.66024C14.8695 9.30415 14.6815 8.94807 14.3055 8.72552L10.5457 6.63353C10.2167 6.45549 9.79373 6.45549 9.41775 6.63353L5.56397 8.77003C5.18799 8.94807 5 9.30415 5 9.66024V13.8442C5 14.2003 5.18799 14.5564 5.56397 14.7789L9.37076 16.8709C9.69974 17.049 10.1227 17.049 10.4987 16.8709L13.0836 15.4466L14.8695 14.4674L17.4543 13.043C17.7833 12.865 18.2063 12.865 18.5822 13.043L20.6031 14.1558C20.9321 14.3338 21.1671 14.6899 21.1671 15.0905V17.316C21.1671 17.6721 20.9791 18.0282 20.6031 18.2507L18.6292 19.3635C18.3003 19.5415 17.8773 19.5415 17.5013 19.3635L15.4804 18.2507C15.1514 18.0727 14.9165 17.7166 14.9165 17.316V15.8917L13.1305 16.8709V18.3398C13.1305 18.6958 13.3185 19.0519 13.6945 19.2745L17.5013 21.3665C17.8303 21.5445 18.2533 21.5445 18.6292 21.3665L22.436 19.2745C22.765 19.0964 23 18.7404 23 18.3398V14.1113C23 13.7552 22.812 13.3991 22.436 13.1766L18.6292 11.0846Z" fill="white"/>
</g>
</svg>
