<svg width="28" height="28" viewBox="0 0 28 28" fill="none" xmlns="http://www.w3.org/2000/svg">
<rect width="28" height="28" rx="12" fill="black"/>
<mask id="mask0_578_17536" style="mask-type:alpha" maskUnits="userSpaceOnUse" x="6" y="3" width="16" height="22">
<rect x="6.5" y="3.5" width="15" height="21" fill="#C4C4C4"/>
</mask>
<g mask="url(#mask0_578_17536)">
<path d="M13.9992 5.83459L13.8906 6.20672V17.0049L13.9992 17.1142L18.9706 14.1514L13.9992 5.83459Z" fill="white"/>
<path d="M13.9987 5.83459L9.02734 14.1514L13.9987 17.1142V11.8731V5.83459Z" fill="white"/>
<path d="M13.9987 18.0647L13.9375 18.1399V21.9865L13.9987 22.1667L18.973 15.1034L13.9987 18.0647Z" fill="white"/>
<path d="M13.9987 22.1648V18.0628L9.02734 15.1014L13.9987 22.1648Z" fill="white"/>
<path d="M13.9961 17.1135L18.9674 14.1507L13.9961 11.8724V17.1135Z" fill="white"/>
<path d="M9.02734 14.1507L13.9987 17.1135V11.8724L9.02734 14.1507Z" fill="white"/>
</g>
</svg>
