<svg width="50" height="50" viewBox="0 0 50 50" fill="none" xmlns="http://www.w3.org/2000/svg">
<path d="M25 50C38.8071 50 50 38.8071 50 25C50 11.1929 38.8071 0 25 0C11.1929 0 0 11.1929 0 25C0 38.8071 11.1929 50 25 50Z" fill="black"/>
<mask id="mask0_1955_14749" style="mask-type:alpha" maskUnits="userSpaceOnUse" x="11" y="11" width="28" height="28">
<rect x="11" y="11" width="28" height="28" fill="black"/>
</mask>
<g mask="url(#mask0_1955_14749)">
<path d="M33.3297 17.2669C31.7558 16.5305 30.0908 16.0072 28.3787 15.7109C28.1454 16.139 27.9338 16.5786 27.7447 17.0279C25.9262 16.7503 24.0762 16.7503 22.2577 17.0279C22.0664 16.5781 21.8517 16.1385 21.6147 15.7109C19.9008 16.0074 18.2343 16.5321 16.6597 17.2709C13.858 21.3354 12.5959 26.2651 13.0997 31.1759C14.9287 32.5569 16.9835 33.6099 19.1727 34.2879C19.6646 33.6112 20.0994 32.8947 20.4727 32.1459C19.7616 31.8742 19.0762 31.5396 18.4247 31.1459C18.5967 31.0189 18.7647 30.8859 18.9247 30.7459C20.8187 31.6574 22.8937 32.1308 24.9957 32.1308C27.0977 32.1308 29.1726 31.6574 31.0667 30.7459C31.2307 30.8829 31.3987 31.0159 31.5667 31.1459C30.9139 31.5399 30.2272 31.8746 29.5147 32.1459C29.8877 32.8949 30.3225 33.6113 30.8147 34.2879C33.0084 33.612 35.0676 32.5589 36.8997 31.1759C37.4035 26.2624 36.1376 21.3304 33.3297 17.2669ZM21.0127 28.3759C20.403 28.3318 19.835 28.0497 19.4314 27.5907C19.0277 27.1316 18.8206 26.5323 18.8547 25.9219C18.8163 25.3102 19.0218 24.7083 19.4263 24.2478C19.8307 23.7873 20.4012 23.5058 21.0127 23.4649C21.3162 23.483 21.6131 23.561 21.8862 23.6945C22.1594 23.828 22.4034 24.0144 22.604 24.2427C22.8047 24.4711 22.9581 24.7371 23.0554 25.0251C23.1527 25.3132 23.1918 25.6176 23.1707 25.9209C23.2093 26.5325 23.0038 27.1344 22.5993 27.5946C22.1947 28.0549 21.6241 28.3358 21.0127 28.3759ZM28.9867 28.3759C28.377 28.3318 27.809 28.0497 27.4054 27.5907C27.0017 27.1316 26.7946 26.5323 26.8287 25.9219C26.7906 25.3104 26.9962 24.7087 27.4006 24.2484C27.8051 23.7881 28.3753 23.5068 28.9867 23.4659C29.2902 23.484 29.5871 23.562 29.8602 23.6955C30.1334 23.829 30.3774 24.0154 30.578 24.2437C30.7787 24.4721 30.9321 24.7381 31.0294 25.0261C31.1267 25.3142 31.1658 25.6186 31.1447 25.9219C31.1825 26.5332 30.9767 27.1345 30.5723 27.5944C30.1679 28.0543 29.5978 28.3353 28.9867 28.3759Z" fill="#8C8E97"/>
</g>
</svg>
