<svg width="260" height="90" viewBox="0 0 260 90" fill="none" xmlns="http://www.w3.org/2000/svg">
<mask id="path-1-inside-1_1355_10849" fill="white">
<path fill-rule="evenodd" clip-rule="evenodd" d="M250 10L260 0V10V13.2V82C260 86.4183 256.418 90 252 90H8C3.58172 90 0 86.4183 0 82V18C0 13.5817 3.58172 10 8 10H250Z"/>
</mask>
<path fill-rule="evenodd" clip-rule="evenodd" d="M250 10L260 0V10V13.2V82C260 86.4183 256.418 90 252 90H8C3.58172 90 0 86.4183 0 82V18C0 13.5817 3.58172 10 8 10H250Z" fill="black" fill-opacity="0.9"/>
<path d="M260 0H261V-2.41421L259.293 -0.707107L260 0ZM250 10V11H250.414L250.707 10.7071L250 10ZM259.293 -0.707107L249.293 9.29289L250.707 10.7071L260.707 0.707107L259.293 -0.707107ZM261 10V0H259V10H261ZM259 10V13.2H261V10H259ZM259 13.2V82H261V13.2H259ZM259 82C259 85.866 255.866 89 252 89V91C256.971 91 261 86.9706 261 82H259ZM252 89H8V91H252V89ZM8 89C4.13401 89 1 85.866 1 82H-1C-1 86.9706 3.02944 91 8 91V89ZM1 82V18H-1V82H1ZM1 18C1 14.134 4.13401 11 8 11V9C3.02944 9 -1 13.0294 -1 18H1ZM8 11H250V9H8V11Z" fill="white" mask="url(#path-1-inside-1_1355_10849)"/>
</svg>
