<svg width="129" height="128" viewBox="0 0 129 128" fill="none" xmlns="http://www.w3.org/2000/svg">
<path d="M64 128C99.3462 128 128 99.3462 128 64C128 28.6538 99.3462 0 64 0C28.6538 0 0 28.6538 0 64C0 99.3462 28.6538 128 64 128Z" fill="#F3F5F7"/>
<path d="M88.1035 29H2.10352C0.998946 29 0.103516 29.8954 0.103516 31V97C0.103516 98.1046 0.998946 99 2.10352 99H88.1035C89.2081 99 90.1035 98.1046 90.1035 97V31C90.1035 29.8954 89.2081 29 88.1035 29Z" fill="white"/>
<path d="M1.15723 98.1641C0.819336 97.8887 0.602539 97.4688 0.602539 97V31C0.602539 30.1738 1.27539 29.5 2.10352 29.5H88.1045C88.9326 29.5 89.6055 30.1738 89.6055 31V35.5H89.6025V31C89.6025 30.1738 88.9307 29.502 88.1045 29.502H2.10352C1.27734 29.502 0.605469 30.1738 0.605469 31V97C0.605469 97.4688 0.820312 97.8887 1.15723 98.1641Z" fill="white"/>
<path d="M65.1035 99H2.10352C1 99 0.102539 98.1016 0.102539 97V31C0.102539 29.8984 1 29 2.10352 29H88.1045C89.208 29 90.1055 29.8984 90.1055 31V36H89.1025V31C89.1025 30.4492 88.6553 30.002 88.1045 30.002H2.10352C1.55273 30.002 1.10547 30.4492 1.10547 31V97C1.10547 97.5527 1.55273 98.002 2.10352 98.002H65.1035V99Z" fill="#C8CDD2"/>
<path d="M81 42H9V43H81V42Z" fill="#C8CDD2"/>
<path d="M90.8125 39.9941L65.3125 54.7441V84.2441L90.8125 98.9941L116.312 84.2441V54.7441L90.8125 39.9941Z" fill="white"/>
<path d="M90.8125 98.9922L65.3125 84.2402V54.7402L90.8125 39.9863L116.312 54.7402V68.9922H115.312V55.2422L90.8125 40.9941L66.3125 55.2422V83.7422L90.8125 97.9883L101.312 91.8809V92.9141L90.8125 98.9883V98.9922Z" fill="black"/>
<path d="M75.0811 74.9939V63.7939H77.2251L83.8331 71.8579H82.7931V63.7939H85.3531V74.9939H83.2251L76.6011 66.9299H77.6411V74.9939H75.0811Z" fill="#191C1F"/>
<path d="M90.4029 68.8339H95.7789V70.9139H90.4029V68.8339ZM90.5949 74.9939H88.0029V63.7939H96.4669V65.8739H90.5949V74.9939Z" fill="#191C1F"/>
<path d="M100.62 74.9939V65.9059H97.0358V63.7939H106.796V65.9059H103.212V74.9939H100.62Z" fill="#191C1F"/>
<path d="M121.814 98.498H104.813V79.2012L113.313 70.6992L121.814 79.2012V98.498ZM113.313 77.4922C112.485 77.4922 111.812 78.166 111.812 78.9941C111.812 79.8203 112.485 80.4941 113.313 80.4941C114.139 80.4941 114.81 79.8203 114.81 78.9941C114.81 78.166 114.139 77.4922 113.313 77.4922Z" fill="white"/>
<path d="M121.314 97.998V79.4082L113.313 71.4062L105.313 79.4082V97.998H121.314ZM113.313 76.9922C114.414 76.9922 115.31 77.8906 115.31 78.9941C115.31 80.0977 114.414 80.9941 113.313 80.9941C112.21 80.9941 111.312 80.0977 111.312 78.9941C111.312 77.8906 112.21 76.9922 113.313 76.9922ZM122.314 98.998H104.313V78.9941L113.313 69.9922L122.314 78.9941V98.998ZM113.313 77.9922C112.762 77.9922 112.312 78.4414 112.312 78.9941C112.312 79.5469 112.762 79.9941 113.313 79.9941C113.862 79.9941 114.31 79.5469 114.31 78.9941C114.31 78.4414 113.862 77.9922 113.313 77.9922Z" fill="black"/>
<path d="M113.352 78.9357C113.352 78.9357 112.219 74.3744 121.099 72.8634C129.979 71.3524 128.962 66.0003 124.818 66.2423C120.674 66.4843 116.032 71.0255 116.032 71.0255" stroke="black" stroke-linecap="round"/>
<path d="M119.312 94.9941H107.312V95.9941H119.312V94.9941Z" fill="black"/>
<path d="M37 53H10C9.44772 53 9 53.4477 9 54V87C9 87.5523 9.44772 88 10 88H37C37.5523 88 38 87.5523 38 87V54C38 53.4477 37.5523 53 37 53Z" fill="#F3F5F7"/>
<path d="M62 53H42V55H62V53Z" fill="#C8CDD2"/>
<path d="M52 59H42V61H52V59Z" fill="#C8CDD2"/>
<path d="M52 65H42V67H52V65Z" fill="#C8CDD2"/>
</svg>
