<svg width="12" height="16" viewBox="0 0 12 16" fill="none" xmlns="http://www.w3.org/2000/svg">
<mask id="mask0_323_34270" style="mask-type:alpha" maskUnits="userSpaceOnUse" x="0" y="0" width="12" height="16">
<rect width="12" height="16" fill="#D9D9D9"/>
</mask>
<g mask="url(#mask0_323_34270)">
<path fill-rule="evenodd" clip-rule="evenodd" d="M8.82489 4.37474C9.63953 6.06899 9.83639 7.36952 9.41546 8.27635C8.80323 10.1855 6.69 8.14057 8.05357 6.30055C8.86987 5.10858 8.08772 2.55221 6.08444 0C6.9174 3.95242 0.904226 4.65294 2.02207 9.16262C2.83837 11.036 0.351132 10.4954 1.30155 8.29551C0.906624 8.8824 0.649107 9.55078 0.548158 10.2509C0.447209 10.9511 0.505428 11.665 0.718473 12.3396C1.21544 13.3554 1.94657 14.2387 2.85169 14.9167C3.7524 15.6317 4.87209 16.0141 6.02196 15.9996C5.9928 15.9996 5.96449 15.9996 5.93867 15.9996C3.0741 15.6506 3.40228 11.1442 5.76707 9.02768C5.21648 10.6228 5.40223 12.008 6.1519 12.8477C6.1519 11.968 6.66334 11.5982 6.75497 10.677C9.00398 13.2092 8.28096 15.7164 6.38096 15.9796C12.2459 15.4648 13.2229 8.30883 8.82655 4.37223L8.82489 4.37474Z" fill="url(#paint0_linear_323_34270)"/>
</g>
<defs>
<linearGradient id="paint0_linear_323_34270" x1="13.5" y1="0.499998" x2="17.347" y2="6.60634" gradientUnits="userSpaceOnUse">
<stop stop-color="#FFA800"/>
<stop offset="1" stop-color="#E42C2C"/>
</linearGradient>
</defs>
</svg>
