<svg width="50" height="50" viewBox="0 0 50 50" fill="none" xmlns="http://www.w3.org/2000/svg">
<path d="M25 50C38.8071 50 50 38.8071 50 25C50 11.1929 38.8071 0 25 0C11.1929 0 0 11.1929 0 25C0 38.8071 11.1929 50 25 50Z" fill="black"/>
<mask id="mask0_1955_14750" style="mask-type:alpha" maskUnits="userSpaceOnUse" x="11" y="11" width="28" height="28">
<rect x="11" y="11" width="28" height="28" fill="white"/>
</mask>
<g mask="url(#mask0_1955_14750)">
<path fill-rule="evenodd" clip-rule="evenodd" d="M18.2437 13.0319C18.5287 13.0079 19.9947 13.0029 25.0037 13.0029H28.9097C30.0911 12.9422 31.2754 12.9793 32.4507 13.1139C33.5476 13.2533 34.5712 13.74 35.3717 14.5029C35.797 14.9026 36.1452 15.3771 36.3987 15.9029C36.7457 16.6222 36.942 17.4049 36.9757 18.2029C36.9927 18.4099 36.9997 21.6969 36.9997 24.9919C36.9997 28.2869 36.9927 31.5799 36.9767 31.7869C36.941 32.5746 36.7486 33.3474 36.4107 34.0599C36.0927 34.7184 35.6348 35.2995 35.0689 35.7627C34.5031 36.226 33.843 36.5601 33.1347 36.7419C32.5436 36.8873 31.9382 36.9664 31.3297 36.9779C31.0407 36.9959 28.0097 36.9959 24.9787 36.9959C21.9477 36.9959 18.9217 36.9869 18.6217 36.9739C18.0346 36.9571 17.4508 36.8797 16.8797 36.7429C16.1728 36.5599 15.5138 36.226 14.9483 35.764C14.3828 35.3021 13.9241 34.7231 13.6037 34.0669C13.2597 33.3402 13.0646 32.5521 13.0297 31.7489C13.0037 31.4649 13.0037 30.0029 13.0037 24.9959V21.0959C12.9423 19.9143 12.9781 18.7296 13.1107 17.5539C13.2496 16.4565 13.738 15.4331 14.5037 14.6349C14.8983 14.2189 15.3643 13.8772 15.8797 13.6259C16.6184 13.2673 17.4232 13.0651 18.2437 13.0319ZM21.3466 16.1951C22.2916 16.1521 22.5936 16.1411 24.9996 16.1411C27.4066 16.1411 27.7076 16.1521 28.6526 16.1951C29.3881 16.2101 30.1157 16.3494 30.8046 16.6071C31.3932 16.835 31.9276 17.1832 32.3738 17.6296C32.8199 18.0759 33.168 18.6105 33.3956 19.1991C33.6524 19.8877 33.7916 20.6144 33.8076 21.3491C33.8506 22.2941 33.8616 22.5961 33.8616 25.0021C33.8616 27.4081 33.8496 27.7091 33.8076 28.6541C33.7916 29.3888 33.6523 30.1155 33.3956 30.8041C33.1676 31.3925 32.8194 31.9269 32.3733 32.3732C31.9272 32.8195 31.3929 33.1679 30.8046 33.3961C30.116 33.6539 29.3888 33.7932 28.6536 33.8081C27.7076 33.8511 27.4066 33.8621 25.0006 33.8621C22.5946 33.8621 22.2926 33.8511 21.3476 33.8081C20.6125 33.7933 19.8852 33.654 19.1966 33.3961C18.6082 33.1682 18.0737 32.8199 17.6276 32.3736C17.1814 31.9272 16.8334 31.3927 16.6056 30.8041C16.348 30.1158 16.2087 29.3889 16.1936 28.6541C16.1506 27.7091 16.1396 27.4091 16.1396 25.0021C16.1396 22.5951 16.1506 22.2931 16.1926 21.3481C16.2069 20.6133 16.3462 19.8862 16.6046 19.1981C16.8325 18.6096 17.1807 18.0751 17.6271 17.6289C18.0734 17.1827 18.608 16.8347 19.1966 16.6071C19.8849 16.3492 20.6118 16.2099 21.3466 16.1951ZM24.9946 17.7411H24.1996V17.7381C22.5486 17.7401 22.2316 17.7511 21.4146 17.7881C20.8529 17.7946 20.2964 17.8978 19.7696 18.0931C19.3875 18.2407 19.0404 18.4665 18.7507 18.7562C18.4611 19.0459 18.2352 19.393 18.0876 19.7751C17.8925 20.3019 17.7894 20.8584 17.7826 21.4201C17.7396 22.3541 17.7316 22.6321 17.7316 24.9991C17.7316 27.3661 17.7406 27.6461 17.7826 28.5801C17.7893 29.1419 17.8924 29.6983 18.0876 30.2251C18.2353 30.6071 18.4612 30.954 18.7508 31.2435C19.0405 31.533 19.3876 31.7587 19.7696 31.9061C20.2961 32.1013 20.8522 32.2048 21.4136 32.2121C22.3486 32.2551 22.6286 32.2641 24.9946 32.2641C27.3606 32.2641 27.6416 32.2541 28.5756 32.2121C29.1374 32.2058 29.6939 32.1026 30.2206 31.9071C30.6024 31.7596 30.9491 31.534 31.2386 31.2447C31.5281 30.9554 31.7539 30.6088 31.9016 30.2271C32.0969 29.7003 32.2 29.1439 32.2066 28.5821C32.2496 27.6481 32.2586 27.3681 32.2586 25.0031C32.2586 22.6381 32.2486 22.3581 32.2066 21.4241C32.2 20.8624 32.0969 20.3059 31.9016 19.7791C31.7543 19.397 31.5286 19.05 31.2391 18.7603C30.9496 18.4706 30.6027 18.2447 30.2206 18.0971C29.6939 17.9019 29.1374 17.7987 28.5756 17.7921C27.6406 17.7491 27.3606 17.7411 24.9946 17.7411ZM29.1331 19.3913C29.3079 19.2745 29.5134 19.2121 29.7236 19.2121C30.0056 19.2121 30.276 19.3241 30.4753 19.5235C30.6747 19.7228 30.7866 19.9932 30.7866 20.2751C30.7866 20.4854 30.7243 20.6909 30.6075 20.8657C30.4907 21.0405 30.3247 21.1767 30.1304 21.2572C29.9362 21.3377 29.7225 21.3587 29.5163 21.3177C29.3101 21.2767 29.1207 21.1754 28.972 21.0268C28.8233 20.8781 28.7221 20.6887 28.6811 20.4825C28.6401 20.2763 28.6611 20.0626 28.7416 19.8683C28.822 19.6741 28.9583 19.5081 29.1331 19.3913ZM22.4708 21.2179C23.219 20.718 24.0987 20.4511 24.9986 20.4511C26.2054 20.4511 27.3627 20.9305 28.216 21.7838C29.0693 22.6371 29.5486 23.7944 29.5486 25.0011C29.5486 25.901 29.2818 26.7807 28.7818 27.529C28.2819 28.2772 27.5713 28.8604 26.7399 29.2048C25.9085 29.5491 24.9936 29.6392 24.111 29.4637C23.2284 29.2881 22.4176 28.8548 21.7813 28.2184C21.145 27.5821 20.7116 26.7714 20.5361 25.8888C20.3605 25.0062 20.4506 24.0913 20.795 23.2599C21.1394 22.4285 21.7226 21.7179 22.4708 21.2179ZM26.6392 22.5488C26.1536 22.2243 25.5827 22.0511 24.9986 22.0511C24.2155 22.0511 23.4644 22.3622 22.9106 22.916C22.3568 23.4698 22.0456 24.2209 22.0456 25.0041C22.0456 25.5882 22.2188 26.1591 22.5433 26.6447C22.8678 27.1303 23.329 27.5088 23.8686 27.7323C24.4082 27.9558 25.0019 28.0143 25.5747 27.9004C26.1476 27.7864 26.6737 27.5052 27.0867 27.0922C27.4997 26.6792 27.781 26.153 27.8949 25.5802C28.0088 25.0074 27.9504 24.4136 27.7269 23.874C27.5034 23.3345 27.1249 22.8733 26.6392 22.5488Z" fill="#8C8E97"/>
</g>
</svg>
