<svg width="50" height="50" viewBox="0 0 50 50" fill="none" xmlns="http://www.w3.org/2000/svg">
<path d="M25 50C38.8071 50 50 38.8071 50 25C50 11.1929 38.8071 0 25 0C11.1929 0 0 11.1929 0 25C0 38.8071 11.1929 50 25 50Z" fill="black"/>
<mask id="mask0_1955_14754" style="mask-type:alpha" maskUnits="userSpaceOnUse" x="11" y="11" width="28" height="28">
<rect x="11" y="11" width="28" height="28" fill="#C4C4C4"/>
</mask>
<g mask="url(#mask0_1955_14754)">
<path fill-rule="evenodd" clip-rule="evenodd" d="M16.2529 16.5298H33.7469C34.5377 16.5299 35.301 16.8194 35.8929 17.3438L27.0099 26.0328C26.4724 26.5574 25.751 26.851 24.9999 26.851C24.2488 26.851 23.5275 26.5574 22.9899 26.0328L14.1079 17.3438C14.6997 16.8198 15.4626 16.5303 16.2529 16.5298ZM36.5269 18.0948C36.8384 18.6027 37.0032 19.187 37.0029 19.7828V30.2178C37.0037 30.8633 36.8107 31.4942 36.4489 32.0288L29.3659 25.0998L36.5279 18.0948H36.5269ZM35.7859 32.7498C35.21 33.2164 34.4912 33.471 33.7499 33.4708H16.2529C15.5117 33.4709 14.7929 33.2163 14.2169 32.7498L21.3369 25.7848L22.3049 26.7318C23.0253 27.4355 23.9924 27.8294 24.9994 27.8294C26.0065 27.8294 26.9736 27.4355 27.6939 26.7318L28.6619 25.7848L35.7819 32.7498H35.7859ZM13.5569 32.0288C13.1952 31.4942 13.0022 30.8633 13.0029 30.2178V19.7818C13.0026 19.1859 13.1673 18.6017 13.4789 18.0938L20.6399 25.0988L13.5569 32.0278V32.0288Z" fill="#8C8E97"/>
</g>
</svg>
