<svg width="50" height="50" viewBox="0 0 50 50" fill="none" xmlns="http://www.w3.org/2000/svg">
<path d="M25 50C38.8071 50 50 38.8071 50 25C50 11.1929 38.8071 0 25 0C11.1929 0 0 11.1929 0 25C0 38.8071 11.1929 50 25 50Z" fill="black"/>
<path fill-rule="evenodd" clip-rule="evenodd" d="M12 12H38V38H12V12ZM18.162 20.3844C18.2002 20.4836 18.2145 20.5904 18.2038 20.6962V28.4172C18.2273 28.5544 18.2182 28.6953 18.1772 28.8283C18.1362 28.9614 18.0644 29.083 17.9678 29.1832L16.1328 31.4082V31.7012H21.3328V31.4082L19.5068 29.1792C19.4093 29.0791 19.3358 28.9581 19.292 28.8254C19.2482 28.6926 19.2351 28.5517 19.2538 28.4132V21.7362L23.8198 31.6982H24.3498L28.2718 21.7362V29.6762C28.2718 29.8882 28.2718 29.9282 28.1328 30.0672L26.7168 31.4392V31.7322H33.5668V31.4392L32.2048 30.1022C32.1458 30.0573 32.1002 29.9972 32.0729 29.9283C32.0456 29.8594 32.0376 29.7843 32.0498 29.7112V19.8882C32.0376 19.8151 32.0456 19.74 32.0729 19.6711C32.1002 19.6022 32.1458 19.5421 32.2048 19.4972L33.5988 18.1602V17.8672H28.7718L25.3328 26.4512L21.4168 17.8672H16.3528V18.1602L17.9838 20.1252C18.0627 20.1964 18.1238 20.2852 18.162 20.3844Z" fill="#8C8E97"/>
</svg>
