<svg width="50" height="50" viewBox="0 0 50 50" fill="none" xmlns="http://www.w3.org/2000/svg">
<path d="M25 50C38.8071 50 50 38.8071 50 25C50 11.1929 38.8071 0 25 0C11.1929 0 0 11.1929 0 25C0 38.8071 11.1929 50 25 50Z" fill="black"/>
<mask id="mask0_1955_14751" style="mask-type:alpha" maskUnits="userSpaceOnUse" x="11" y="11" width="28" height="28">
<rect x="11" y="11" width="28" height="28" fill="#C4C4C4"/>
</mask>
<g mask="url(#mask0_1955_14751)">
<path fill-rule="evenodd" clip-rule="evenodd" d="M35.6059 13.9162C36.2736 14.1925 36.8799 14.5982 37.39 15.11C37.9018 15.6201 38.3075 16.2264 38.5838 16.8941C38.8602 17.5617 39.0016 18.2775 39 19V27.181C38.9987 28.6388 38.4186 30.0365 37.3873 31.0669C36.356 32.0972 34.9578 32.676 33.5 32.676H27.23L25.419 36.365C25.3895 36.4528 25.3332 36.5291 25.258 36.5832C25.1829 36.6372 25.0926 36.6663 25 36.6663C24.9074 36.6663 24.8171 36.6372 24.742 36.5832C24.6668 36.5291 24.6105 36.4528 24.581 36.365L22.77 32.682H16.5C15.7775 32.6827 15.0621 32.5409 14.3945 32.2647C13.7269 31.9885 13.1203 31.5834 12.6094 31.0726C12.0986 30.5617 11.6935 29.9551 11.4173 29.2875C11.1412 28.62 10.9993 27.9045 11 27.182V19C10.9993 18.2776 11.1412 17.5621 11.4173 16.8945C11.6935 16.2269 12.0986 15.6203 12.6094 15.1095C13.1203 14.5986 13.7269 14.1935 14.3945 13.9173C15.0621 13.6412 15.7775 13.4994 16.5 13.5H33.5C34.2226 13.4984 34.9383 13.6398 35.6059 13.9162ZM16.3592 26.4403C16.6114 26.5625 16.89 26.6201 17.17 26.608C17.5036 26.5971 17.8316 26.5195 18.1347 26.3798C18.4378 26.2401 18.7099 26.0412 18.9349 25.7946C19.1598 25.5481 19.3332 25.2591 19.4447 24.9445C19.5562 24.6299 19.6035 24.2962 19.584 23.963C19.6048 23.6331 19.5591 23.3025 19.4497 22.9906C19.3403 22.6787 19.1693 22.392 18.9469 22.1475C18.7246 21.9029 18.4554 21.7055 18.1553 21.567C17.8552 21.4284 17.5304 21.3516 17.2 21.341C16.9228 21.3352 16.6477 21.3891 16.3932 21.499C16.1387 21.6089 15.9108 21.7723 15.725 21.978V19.234H13.984V26.445H15.695V25.908H15.725C15.889 26.1352 16.107 26.3182 16.3592 26.4403ZM20.959 26.44H22.636L22.64 21.95C22.64 20.133 21.634 19.066 20.159 19.066V20.743C20.825 20.844 20.959 21.515 20.959 22.286V26.44ZM25.5786 26.4455C25.9263 26.5629 26.2945 26.6067 26.66 26.574V26.577C27.0247 26.6101 27.3923 26.5671 27.7396 26.4507C28.0868 26.3344 28.4061 26.1471 28.6772 25.9009C28.9483 25.6547 29.1654 25.3549 29.3146 25.0205C29.4638 24.686 29.5419 24.3242 29.544 23.958C29.5394 23.5913 29.4598 23.2294 29.3102 22.8945C29.1605 22.5597 28.944 22.259 28.6739 22.0109C28.4038 21.7628 28.0858 21.5725 27.7395 21.4518C27.3932 21.3311 27.0258 21.2825 26.66 21.309C26.2945 21.2763 25.9263 21.3201 25.5786 21.4376C25.231 21.555 24.9117 21.7436 24.6409 21.9912C24.3702 22.2388 24.1539 22.5401 24.006 22.8759C23.858 23.2117 23.7816 23.5746 23.7816 23.9415C23.7816 24.3084 23.858 24.6713 24.006 25.0071C24.1539 25.3429 24.3702 25.6442 24.6409 25.8918C24.9117 26.1395 25.231 26.328 25.5786 26.4455ZM33.065 29.123C34.875 29.123 35.915 28.083 35.915 26.004V21.548L34.272 21.514V22.051H34.238C34.0825 21.8258 33.8706 21.6454 33.6235 21.5276C33.3765 21.4099 33.1029 21.359 32.83 21.38C32.491 21.3888 32.1573 21.4661 31.8488 21.607C31.5404 21.748 31.2636 21.9498 31.0351 22.2004C30.8066 22.4509 30.631 22.7451 30.519 23.0651C30.4069 23.3852 30.3607 23.7246 30.383 24.063C30.364 24.3841 30.4105 24.7058 30.5195 25.0084C30.6286 25.311 30.798 25.5883 31.0175 25.8235C31.237 26.0587 31.5019 26.2468 31.7963 26.3765C32.0907 26.5062 32.4083 26.5748 32.73 26.578C33.015 26.5813 33.2973 26.5231 33.5578 26.4073C33.8182 26.2915 34.0506 26.1208 34.239 25.907V26.142C34.239 26.98 33.97 27.55 33.065 27.55H32.73V29.123H33.065ZM26.1989 22.9338C26.3325 22.8788 26.4761 22.852 26.6205 22.8551C26.7683 22.8469 26.9161 22.8699 27.0544 22.9226C27.1927 22.9753 27.3183 23.0564 27.4232 23.1608C27.5281 23.2652 27.6098 23.3905 27.6631 23.5286C27.7164 23.6666 27.74 23.8143 27.7325 23.9621C27.7325 24.2512 27.6177 24.5285 27.4133 24.7329C27.2088 24.9373 26.9316 25.0521 26.6425 25.0521C26.3534 25.0521 26.0762 24.9373 25.8718 24.7329C25.6674 24.5285 25.5525 24.2512 25.5525 23.9621C25.5442 23.8179 25.5658 23.6735 25.616 23.538C25.6663 23.4025 25.744 23.2789 25.8443 23.1749C25.9446 23.071 26.0654 22.9889 26.1989 22.9338ZM33.2315 22.8222C33.0842 22.8147 32.9369 22.8382 32.7992 22.8912C32.6615 22.9442 32.5365 23.0255 32.4322 23.1298C32.3279 23.2341 32.2466 23.3592 32.1936 23.4969C32.1406 23.6345 32.1171 23.7818 32.1245 23.9292C32.1143 24.0772 32.136 24.2256 32.188 24.3646C32.24 24.5035 32.3212 24.6297 32.4261 24.7346C32.531 24.8395 32.6572 24.9207 32.7961 24.9727C32.935 25.0247 33.0835 25.0464 33.2315 25.0362C33.3774 25.0448 33.5233 25.0217 33.6594 24.9685C33.7955 24.9154 33.9184 24.8334 34.0198 24.7282C34.1212 24.623 34.1986 24.4972 34.2467 24.3592C34.2948 24.2213 34.3125 24.0746 34.2985 23.9292C34.3097 23.7843 34.29 23.6388 34.2409 23.5022C34.1917 23.3655 34.1142 23.2408 34.0134 23.1362C33.9126 23.0317 33.7909 22.9496 33.6561 22.8955C33.5213 22.8414 33.3766 22.8164 33.2315 22.8222ZM17.8751 23.963C17.8751 24.5743 17.3795 25.07 16.7681 25.07C16.1568 25.07 15.6611 24.5743 15.6611 23.963C15.6611 23.3516 16.1568 22.856 16.7681 22.856C17.3795 22.856 17.8751 23.3516 17.8751 23.963Z" fill="#8C8E97"/>
</g>
</svg>
