<svg width="20" height="20" viewBox="0 0 20 20" fill="none" xmlns="http://www.w3.org/2000/svg">
<mask id="mask0_1245_11769" style="mask-type:alpha" maskUnits="userSpaceOnUse" x="0" y="0" width="20" height="20">
<rect width="20" height="20" fill="white"/>
</mask>
<g mask="url(#mask0_1245_11769)">
<path d="M10 18C14.4183 18 18 14.4183 18 10C18 5.58172 14.4183 2 10 2C5.58172 2 2 5.58172 2 10C2 14.4183 5.58172 18 10 18Z" fill="white"/>
<path d="M10 5.1001C10.3978 5.1001 10.7794 5.25813 11.0607 5.53944C11.2303 5.70907 11.3551 5.91515 11.4275 6.13927C11.5231 6.43564 11.468 6.75375 11.4045 7.05864L10.602 10.9105C10.5426 11.1957 10.2913 11.4 10 11.4C9.70874 11.4 9.45743 11.1957 9.39802 10.9105L8.59553 7.05864C8.53201 6.75375 8.47685 6.43564 8.57254 6.13927C8.6449 5.91515 8.76971 5.70907 8.93934 5.53944C9.22064 5.25813 9.60218 5.1001 10 5.1001Z" fill="#F7941D"/>
<path d="M11.2998 13.6499C11.2998 12.9595 10.7402 12.3999 10.0498 12.3999C9.35945 12.3999 8.7998 12.9595 8.7998 13.6499C8.7998 14.3403 9.35945 14.8999 10.0498 14.8999C10.7402 14.8999 11.2998 14.3403 11.2998 13.6499Z" fill="#F7941D"/>
</g>
</svg>
