<svg width="28" height="28" viewBox="0 0 28 28" fill="none" xmlns="http://www.w3.org/2000/svg">
<path d="M28 14C28 6.26801 21.732 0 14 0C6.26801 0 0 6.26801 0 14C0 21.732 6.26801 28 14 28C21.732 28 28 21.732 28 14Z" fill="#F7941D"/>
<path fill-rule="evenodd" clip-rule="evenodd" d="M26.5 14C26.5 7.09644 20.9036 1.5 14 1.5C7.09644 1.5 1.5 7.09644 1.5 14C1.5 20.9036 7.09644 26.5 14 26.5C20.9036 26.5 26.5 20.9036 26.5 14ZM14 1C21.1797 1 27 6.8203 27 14C27 21.1797 21.1797 27 14 27C6.8203 27 1 21.1797 1 14C1 6.8203 6.8203 1 14 1Z" fill="black"/>
<path fill-rule="evenodd" clip-rule="evenodd" d="M18.2579 9.43161C18.2776 9.73464 18.2965 10.0692 18.3114 10.4185C18.3673 11.7313 18.3673 13.251 18.145 14.0794C18.0551 14.4119 17.8979 14.7369 17.7022 15.0521C18.0418 15.0864 18.384 15.0106 18.6767 14.8353C18.983 14.6519 19.2168 14.3706 19.3395 14.038L20.7752 10.0995C20.8011 10.0288 20.8106 9.9532 20.8031 9.87834C20.7955 9.80348 20.7711 9.73124 20.7315 9.66697C20.6941 9.60556 20.6438 9.55279 20.584 9.51219C20.5242 9.4716 20.4563 9.44412 20.3849 9.43161H18.2579ZM18.2085 8.74609C18.1724 8.28865 18.1432 8 18.1432 8H9.85535C9.85535 8 9.82603 8.28927 9.7899 8.74756H7.56454L7.54144 8.75053C7.36357 8.7742 7.19335 8.83706 7.04333 8.93447C6.89331 9.03188 6.76733 9.16135 6.67466 9.31334C6.58138 9.46494 6.52371 9.63532 6.50591 9.81191C6.48811 9.9885 6.51064 10.1668 6.57183 10.3336L8.00752 14.2719C8.18348 14.7522 8.52023 15.1586 8.96187 15.4236C9.31542 15.635 9.72073 15.7467 10.1339 15.7467C10.2355 15.747 10.337 15.7406 10.4378 15.7275C10.5288 15.7152 10.6112 15.6676 10.6668 15.5952L10.6713 15.5892C10.8307 15.7988 11.0005 16.0031 11.1711 16.2015C11.2879 16.3373 11.4052 16.4703 11.5198 16.6004L11.5199 16.6006L11.52 16.6006C11.9552 17.0945 12.3523 17.545 12.5439 17.9402C12.6528 18.1648 12.7124 18.492 12.7436 18.8229C12.7699 19.1238 12.7802 19.4258 12.7743 19.7278L12.2197 20.4227H15.7809L15.2263 19.7278C15.2202 19.4258 15.2304 19.1238 15.2568 18.8229C15.288 18.492 15.3476 18.1648 15.4564 17.9402C15.6483 17.5451 16.0452 17.0947 16.4804 16.6009C16.5951 16.4707 16.7125 16.3375 16.8295 16.2015C17.0001 16.0032 17.1698 15.7989 17.3291 15.5895C17.3302 15.5909 17.3313 15.5924 17.3324 15.5938C17.36 15.6297 17.3944 15.6598 17.4337 15.6825C17.473 15.7051 17.5165 15.7199 17.5616 15.726C17.6621 15.7395 17.7634 15.7463 17.8648 15.7463C18.2778 15.7467 18.6831 15.6354 19.0368 15.4244C19.4786 15.159 19.8155 14.7523 19.9914 14.2716L21.4268 10.3333C21.4881 10.1665 21.5106 9.98818 21.4928 9.81158C21.475 9.63498 21.4173 9.4646 21.324 9.31301C21.2316 9.16091 21.1058 9.03126 20.9559 8.93365C20.8061 8.83604 20.636 8.77296 20.4582 8.74906L20.4351 8.74609H18.2085ZM9.85535 14.0794C9.94539 14.4121 10.103 14.7376 10.2992 15.0533C9.95896 15.0881 9.61601 15.0122 9.32271 14.8365C9.01657 14.6531 8.78282 14.372 8.66008 14.0395L7.2244 10.101C7.19848 10.0303 7.18895 9.95467 7.19651 9.8798C7.20407 9.80494 7.22852 9.73271 7.26807 9.66843C7.30553 9.60702 7.35584 9.55425 7.41562 9.51366C7.4754 9.47306 7.54328 9.44559 7.61469 9.43307H9.74065C9.72103 9.73571 9.70221 10.0698 9.68736 10.4185C9.63144 11.7313 9.63121 13.252 9.85535 14.0794ZM11.0723 22.0001L11.967 20.8599H16.1021L16.9971 22.0001H11.0723Z" fill="black"/>
<path fill-rule="evenodd" clip-rule="evenodd" d="M16.0528 11.7071L13.6993 14.0607L11.8457 12.2071L12.5528 11.5L13.6993 12.6464L15.3457 11L16.0528 11.7071Z" fill="white"/>
</svg>
