<svg width="50" height="50" viewBox="0 0 50 50" fill="none" xmlns="http://www.w3.org/2000/svg">
<path d="M25 50C38.8071 50 50 38.8071 50 25C50 11.1929 38.8071 0 25 0C11.1929 0 0 11.1929 0 25C0 38.8071 11.1929 50 25 50Z" fill="black"/>
<mask id="mask0_1955_14752" style="mask-type:alpha" maskUnits="userSpaceOnUse" x="11" y="11" width="28" height="28">
<rect x="11" y="11" width="28" height="28" fill="white"/>
</mask>
<g mask="url(#mask0_1955_14752)">
<path d="M25.0008 38C21.9932 38.0002 19.0785 36.9574 16.7535 35.0496C14.4284 33.1417 12.8369 30.4867 12.2499 27.5369C11.663 24.5871 12.1171 21.525 13.5347 18.8724C14.9524 16.2199 17.2459 14.141 20.0245 12.9899C22.8032 11.8388 25.895 11.6866 28.7731 12.5596C31.6513 13.4325 34.1377 15.2764 35.8088 17.7771C37.4799 20.2778 38.2322 23.2805 37.9375 26.2737C37.6428 29.2668 36.3194 32.0652 34.1928 34.192C32.9885 35.403 31.556 36.3631 29.9782 37.0167C28.4004 37.6704 26.7086 38.0046 25.0008 38ZM27.3708 22.749C27.4199 22.7463 27.4682 22.7623 27.5058 22.7939C27.5329 22.8248 27.5525 22.8616 27.5629 22.9014C27.5734 22.9411 27.5743 22.9827 27.5658 23.0229C26.6237 24.0647 25.622 25.0512 24.5658 25.977L24.5598 25.983C24.2528 26.269 24.0308 26.475 23.9858 26.522C23.8858 26.627 23.7858 26.722 23.6858 26.822C23.3238 27.171 23.0128 27.4711 23.0438 27.8051C23.0668 28.0581 23.2788 28.305 23.7098 28.592C24.2408 28.942 24.6718 29.236 25.0888 29.519C25.5418 29.828 26.0108 30.147 26.6068 30.538C26.7578 30.638 26.9068 30.738 27.0428 30.838C27.4601 31.215 27.9843 31.453 28.5428 31.519C28.5848 31.519 28.6278 31.5189 28.6688 31.5129C28.9688 31.4859 29.3608 31.2331 29.5578 30.1801C29.9578 28.0341 30.8318 22.922 31.0308 20.834C31.0428 20.6634 31.0357 20.492 31.0098 20.323C30.9946 20.1863 30.9286 20.0602 30.8248 19.97C30.6773 19.87 30.5029 19.8174 30.3248 19.819H30.3168C29.8378 19.828 29.1438 20.061 25.4668 21.59C24.2038 22.115 21.6538 23.214 17.8858 24.856C17.2728 25.099 16.9478 25.341 16.9188 25.574C16.8688 25.974 17.3598 26.124 18.0388 26.337L18.3238 26.428C18.9784 26.6594 19.6559 26.82 20.3448 26.907H20.3768C20.8778 26.8748 21.3578 26.6933 21.7548 26.386C25.2788 24.007 27.1238 22.786 27.2378 22.761C27.2816 22.7522 27.3262 22.7482 27.3708 22.749Z" fill="#8C8E97"/>
</g>
</svg>
