<svg width="50" height="50" viewBox="0 0 50 50" fill="none" xmlns="http://www.w3.org/2000/svg">
<path d="M25 50C38.8071 50 50 38.8071 50 25C50 11.1929 38.8071 0 25 0C11.1929 0 0 11.1929 0 25C0 38.8071 11.1929 50 25 50Z" fill="black"/>
<mask id="mask0_1955_14748" style="mask-type:alpha" maskUnits="userSpaceOnUse" x="11" y="11" width="28" height="28">
<rect x="11" y="11" width="28" height="28" fill="#C4C4C4"/>
</mask>
<g mask="url(#mask0_1955_14748)">
<path d="M34.543 20.1049C34.558 20.3169 34.558 20.5279 34.558 20.7419C34.5706 22.5853 34.2169 24.4128 33.5173 26.1182C32.8177 27.8237 31.7862 29.3732 30.4827 30.6767C29.1792 31.9801 27.6298 33.0116 25.9243 33.7112C24.2188 34.4108 22.3913 34.7646 20.548 34.7519C17.8718 34.7545 15.2515 33.9866 13 32.5399C13.3889 32.5865 13.7803 32.6102 14.172 32.6109C16.3895 32.6126 18.5432 31.8688 20.287 30.4989C19.2596 30.4796 18.2639 30.1396 17.4391 29.5266C16.6144 28.9136 16.0018 28.0582 15.687 27.0799C16.4247 27.2221 17.1853 27.193 17.91 26.9949C16.7957 26.7701 15.7936 26.1666 15.0736 25.287C14.3536 24.4073 13.9602 23.3057 13.96 22.1689V22.1069C14.6464 22.4891 15.4147 22.7004 16.2 22.7229C15.1567 22.0271 14.4177 20.9597 14.1337 19.7382C13.8496 18.5166 14.0418 17.2328 14.671 16.1479C15.9072 17.6691 17.4495 18.9132 19.1978 19.7994C20.9461 20.6856 22.8613 21.1941 24.819 21.2919C24.5747 20.2366 24.6849 19.1301 25.1326 18.1436C25.5802 17.1572 26.3404 16.3456 27.2956 15.8345C28.2507 15.3234 29.3476 15.1412 30.4167 15.3161C31.4858 15.491 32.4675 16.0132 33.21 16.8019C34.313 16.5828 35.3705 16.177 36.337 15.6019C35.9692 16.742 35.1998 17.7097 34.172 18.3249C35.1479 18.2122 36.1012 17.9533 37 17.5569C36.3393 18.5467 35.5073 19.4106 34.543 20.1079V20.1049Z" fill="#8C8E97"/>
</g>
</svg>
