<svg width="1920" height="1080" viewBox="0 0 1920 1080" fill="none" xmlns="http://www.w3.org/2000/svg">
<mask id="mask0_1955_14414" style="mask-type:alpha" maskUnits="userSpaceOnUse" x="0" y="0" width="1920" height="1080">
<path d="M1920 0H0V1080H1920V0Z" fill="black"/>
</mask>
<g mask="url(#mask0_1955_14414)">
<path opacity="0.5" d="M11.521 153.643V1145.6M51.826 153.643V1145.6M92.129 153.643V1145.6M132.434 153.643V1145.6M172.738 153.643V1145.6M213.043 153.643V1145.6M-61.843 76.5693C-61.843 87.2026 -64.9961 97.5971 -70.9037 106.438C-76.8112 115.28 -85.2079 122.171 -95.0318 126.24C-104.856 130.309 -115.666 131.374 -126.095 129.299C-136.524 127.225 -146.103 122.104 -153.622 114.585C-161.141 107.067 -166.262 97.4869 -168.336 87.0579C-170.41 76.6289 -169.346 65.819 -165.277 55.9951C-161.207 46.1712 -154.316 37.7745 -145.475 31.867C-136.634 25.9594 -126.239 22.8063 -115.606 22.8063H259.561C270.194 22.8067 280.588 25.9601 289.429 31.8677C298.27 37.7754 305.16 46.1719 309.229 55.9956C313.298 65.8193 314.362 76.6289 312.288 87.0576C310.213 97.4862 305.093 107.066 297.574 114.584C290.055 122.103 280.476 127.223 270.047 129.297C259.619 131.372 248.809 130.307 238.985 126.238C229.162 122.169 220.765 115.278 214.858 106.437C208.95 97.5964 205.797 87.2023 205.797 76.5693M-85.029 76.5683C-85.029 82.6158 -86.8223 88.5276 -90.1822 93.556C-93.542 98.5843 -98.3175 102.503 -103.905 104.818C-109.492 107.132 -115.64 107.738 -121.571 106.558C-127.503 105.378 -132.951 102.466 -137.227 98.1895C-141.503 93.9132 -144.416 88.4649 -145.595 82.5336C-146.775 76.6022 -146.17 70.4542 -143.855 64.867C-141.541 59.2798 -137.622 54.5043 -132.594 51.1444C-127.565 47.7846 -121.654 45.9913 -115.606 45.9913H259.56C265.608 45.9913 271.519 47.7846 276.548 51.1444C281.576 54.5043 285.495 59.2798 287.809 64.867C290.124 70.4542 290.729 76.6022 289.549 82.5336C288.37 88.4649 285.457 93.9132 281.181 98.1895C276.905 102.466 271.457 105.378 265.525 106.558C259.594 107.738 253.446 107.132 247.859 104.818C242.271 102.503 237.496 98.5843 234.136 93.556C230.776 88.5276 228.983 82.6158 228.983 76.5683M259.564 89.8373C263.063 89.8069 266.408 88.3956 268.872 85.9106C271.336 83.4255 272.718 80.068 272.718 76.5688C272.718 73.0696 271.336 69.712 268.872 67.227C266.408 64.742 263.063 63.3307 259.564 63.3003M-114.004 76.5683H259.561M-80.281 141.986H224.237M-69.088 153.643V1145.6M-28.783 153.643V1145.6M-115.605 89.8373C-119.104 89.8069 -122.449 88.3956 -124.913 85.9106C-127.377 83.4255 -128.759 80.068 -128.759 76.5688C-128.759 73.0696 -127.377 69.712 -124.913 67.227C-122.449 64.742 -119.104 63.3307 -115.605 63.3003M242.447 153.642H-98.494C-101.585 153.642 -104.55 152.414 -106.736 150.228C-108.922 148.043 -110.15 145.078 -110.15 141.987C-110.15 138.896 -108.922 135.931 -106.736 133.745C-104.55 131.559 -101.585 130.331 -98.494 130.331H242.446C245.537 130.331 248.502 131.559 250.688 133.745C252.874 135.931 254.102 138.896 254.102 141.987C254.102 145.078 252.874 148.043 250.688 150.228C248.502 152.414 245.537 153.642 242.446 153.642H242.447ZM1379.09 557.694C1379.09 349.044 1322.9 190.889 1210.52 83.2313C1098.14 -24.4454 937.746 -78.2834 729.324 -78.2827L-520.959 -69.3837V1219.27C-431.959 1225.21 723.747 1219.27 846.147 1219.27C1028.59 1219.27 1163.03 1165.44 1249.47 1057.79C1335.88 950.107 1379.09 783.41 1379.09 557.694ZM1660.35 557.694C1660.35 349.044 1604.16 190.889 1491.78 83.2313C1379.4 -24.4454 1219.01 -78.2834 1010.58 -78.2827H423.583V1210.37C512.583 1216.31 1005.01 1219.27 1127.41 1219.27C1309.85 1219.27 1459.19 1165.46 1545.61 1057.79C1632.03 950.112 1660.35 783.431 1660.35 557.694ZM-146 -56.9997H2085V1197H-146V-56.9997Z" stroke="white" stroke-width="0.6" stroke-miterlimit="10"/>
</g>
</svg>
