<svg xmlns="http://www.w3.org/2000/svg" width="260" height="82" viewBox="0 0 260 82">
    <defs>
        <filter id="5l673tou6b">
            <feOffset dy="-.5"/>
            <feGaussianBlur result="blur"/>
            <feFlood flood-opacity=".302" result="color"/>
            <feComposite operator="out" in="SourceGraphic" in2="blur"/>
            <feComposite operator="in" in="color"/>
            <feComposite operator="in" in2="SourceGraphic"/>
        </filter>
        <filter id="lyya4hikhc">
            <feOffset dy="-.5"/>
            <feGaussianBlur result="blur-2"/>
            <feFlood flood-opacity=".302" result="color-2"/>
            <feComposite operator="out" in="SourceGraphic" in2="blur-2"/>
            <feComposite operator="in" in="color-2"/>
            <feComposite operator="in" in2="SourceGraphic"/>
        </filter>
        <filter id="h5dhl3h3rd">
            <feOffset dy="-.5"/>
            <feGaussianBlur result="blur-3"/>
            <feFlood flood-opacity=".302" result="color-3"/>
            <feComposite operator="out" in="SourceGraphic" in2="blur-3"/>
            <feComposite operator="in" in="color-3"/>
            <feComposite operator="in" in2="SourceGraphic"/>
        </filter>
        <clipPath id="ferp3w3vpa">
            <path data-name="사각형 6110" transform="translate(830 2208)" style="stroke:#707070;fill:#fff" d="M0 0h260v82H0z"/>
        </clipPath>
    </defs>
    <g data-name="마스크 그룹 748" transform="translate(-830 -2208)" style="clip-path:url(#ferp3w3vpa)">
        <g data-name="그룹 7253">
            <g data-type="innerShadowGroup">
                <path data-name="패스 7430" d="M31.951-35.218q0-7.379-3.978-11.186t-11.357-3.808h-4.727v30.382q3.151.21 7.484.21 6.46 0 9.519-3.807t3.059-11.791zM18.3-52.575q9.742 0 14.442 4.346t4.7 13.064q0 8.823-4.53 13.366t-13.539 4.542l-12.552-.105H2.3v-1.392l4.516-.709V-50.5L2.3-51.183v-1.392zm27.581 22.793v.473a15.723 15.723 0 0 0 .8 5.632 6.209 6.209 0 0 0 2.468 3.059 8.1 8.1 0 0 0 4.372 1.05 28.379 28.379 0 0 0 3.361-.236 32.152 32.152 0 0 0 3.2-.525v1.47a12.659 12.659 0 0 1-3.427 1.418 16.4 16.4 0 0 1-4.425.6q-5.751 0-8.416-3.1t-2.665-9.952q0-6.46 2.7-9.637t7.72-3.177q9.479 0 9.479 10.766v2.153zm5.7-10.819a4.72 4.72 0 0 0-4.19 2.201q-1.457 2.206-1.457 6.512H56.49q0-4.7-1.208-6.709a4.025 4.025 0 0 0-3.703-2.003zm19.314.551a23.228 23.228 0 0 1 4.306-1.9 12.722 12.722 0 0 1 3.808-.748 6.071 6.071 0 0 1 4.832 1.864 7.99 7.99 0 0 1 1.628 5.409V-19.2l2.993.656v1.182H77.825v-1.182l3.282-.656v-15.755a5.114 5.114 0 0 0-1.063-3.427 4.1 4.1 0 0 0-3.3-1.247 27.655 27.655 0 0 0-5.8.761V-19.2l3.335.656v1.182H63.62v-1.182l2.967-.656v-21.007l-2.967-.656v-1.182h7.037zm30.052-2.55q4.044 0 5.948 1.654a6.359 6.359 0 0 1 1.9 5.068V-19.2l3.072.656v1.182H105.1l-.5-2.468a10.349 10.349 0 0 1-7.641 2.993q-6.328 0-6.328-7.352a7.9 7.9 0 0 1 .958-4.083 6.046 6.046 0 0 1 3.059-2.468 17.829 17.829 0 0 1 6.092-.932l3.7-.105v-3.86a6.139 6.139 0 0 0-.932-3.755 3.4 3.4 0 0 0-2.875-1.208 9.583 9.583 0 0 0-4.805 1.234l-.893 3.072h-1.47v-5.383a36 36 0 0 1 7.482-.923zm3.492 12.657-3.44.105q-3.519.131-4.766 1.365t-1.247 4.123q0 4.622 3.755 4.622a10.378 10.378 0 0 0 3.085-.407 19.523 19.523 0 0 0 2.613-1.037zm17.581-20.164a2.726 2.726 0 0 1-.84 2 2.756 2.756 0 0 1-2.022.84 2.726 2.726 0 0 1-2-.84 2.726 2.726 0 0 1-.84-2 2.756 2.756 0 0 1 .84-2.022 2.726 2.726 0 0 1 2-.84 2.756 2.756 0 0 1 2.022.84 2.756 2.756 0 0 1 .84 2.022zm-.263 30.907 4.228.656v1.182H113.2v-1.182l4.2-.656v-21.007l-3.492-.656v-1.182h7.851zm23.7-5.094a6.756 6.756 0 0 1-2.324 5.567q-2.324 1.891-6.867 1.891a24.149 24.149 0 0 1-4.057-.381 19.921 19.921 0 0 1-3.479-.853v-6.066h1.182L131.2-20.7a7.329 7.329 0 0 0 5.12 1.786q5.094 0 5.094-4.359 0-3.2-4.018-4.569l-2.337-.761a14.186 14.186 0 0 1-3.86-1.759 6.142 6.142 0 0 1-1.864-2.193 6.9 6.9 0 0 1-.656-3.138 6.369 6.369 0 0 1 2.219-5.134 8.988 8.988 0 0 1 6-1.877 35.749 35.749 0 0 1 6.775.814v5.39h-1.234l-1.1-2.862a6.5 6.5 0 0 0-4.385-1.234 4.56 4.56 0 0 0-3.243 1.05 3.708 3.708 0 0 0-1.116 2.836 3.449 3.449 0 0 0 1.011 2.521 7.654 7.654 0 0 0 3.059 1.707 47.065 47.065 0 0 1 5.035 1.912 7.261 7.261 0 0 1 2.009 1.484A6.463 6.463 0 0 1 145-27.078a7.406 7.406 0 0 1 .456 2.784zm20.39 0a6.756 6.756 0 0 1-2.324 5.567q-2.324 1.891-6.867 1.891a24.149 24.149 0 0 1-4.057-.381 19.921 19.921 0 0 1-3.479-.853v-6.066h1.18l1.287 3.44a7.329 7.329 0 0 0 5.12 1.786q5.094 0 5.094-4.359 0-3.2-4.018-4.569l-2.337-.761a14.187 14.187 0 0 1-3.86-1.759 6.142 6.142 0 0 1-1.864-2.193 6.9 6.9 0 0 1-.656-3.138 6.369 6.369 0 0 1 2.219-5.134 8.988 8.988 0 0 1 6-1.877 35.748 35.748 0 0 1 6.775.814v5.386h-1.234l-1.1-2.862a6.5 6.5 0 0 0-4.385-1.234 4.56 4.56 0 0 0-3.243 1.05 3.708 3.708 0 0 0-1.116 2.836 3.449 3.449 0 0 0 1.011 2.521 7.654 7.654 0 0 0 3.059 1.707 47.069 47.069 0 0 1 5.042 1.917 7.261 7.261 0 0 1 2.009 1.484 6.463 6.463 0 0 1 1.287 2.009 7.406 7.406 0 0 1 .456 2.778zm13.616-18.3q4.044 0 5.948 1.654a6.359 6.359 0 0 1 1.9 5.068V-19.2l3.072.656v1.182h-6.775l-.5-2.468a10.349 10.349 0 0 1-7.641 2.993q-6.328 0-6.328-7.352a7.9 7.9 0 0 1 .958-4.083 6.046 6.046 0 0 1 3.059-2.468 17.829 17.829 0 0 1 6.092-.932l3.7-.105v-3.86a6.139 6.139 0 0 0-.932-3.755 3.4 3.4 0 0 0-2.875-1.208 9.582 9.582 0 0 0-4.805 1.234l-.893 3.072h-1.471v-5.383a36 36 0 0 1 7.49-.923zm3.492 12.657-3.44.105q-3.519.131-4.766 1.365t-1.249 4.12q0 4.622 3.755 4.622a10.378 10.378 0 0 0 3.085-.407 19.519 19.519 0 0 0 2.613-1.037zm16.136-10.11a23.228 23.228 0 0 1 4.306-1.9 12.722 12.722 0 0 1 3.803-.753 6.071 6.071 0 0 1 4.832 1.864 7.99 7.99 0 0 1 1.628 5.409V-19.2l2.994.656v1.182h-10.631v-1.182l3.282-.656v-15.755a5.114 5.114 0 0 0-1.063-3.427 4.1 4.1 0 0 0-3.3-1.247 27.656 27.656 0 0 0-5.8.761V-19.2l3.335.656v1.182h-10.66v-1.182l2.967-.656v-21.007l-2.967-.656v-1.182h7.037zm40.058 21.191a9.843 9.843 0 0 1-3.545 1.484 19.862 19.862 0 0 1-4.622.538q-12 0-12-13.051 0-6.171 3.059-9.492T230.8-42.7a40.94 40.94 0 0 1 7.746.814v6.88H237.1l-1.129-4.359a10.442 10.442 0 0 0-5.225-1.234q-7.037 0-7.037 10.713 0 5.567 2.14 7.943t6.63 2.376a22.923 22.923 0 0 0 6.67-.867zm7.944-10.924v.473a15.723 15.723 0 0 0 .8 5.632 6.209 6.209 0 0 0 2.468 3.059 8.1 8.1 0 0 0 4.372 1.05 28.38 28.38 0 0 0 3.361-.236 32.156 32.156 0 0 0 3.2-.525v1.47a12.66 12.66 0 0 1-3.427 1.418 16.4 16.4 0 0 1-4.425.6q-5.751 0-8.416-3.1t-2.665-9.952q0-6.46 2.7-9.637t7.72-3.177q9.479 0 9.479 10.766v2.153zm5.7-10.819A4.72 4.72 0 0 0 248.6-38.4q-1.457 2.206-1.457 6.512H257.7q0-4.7-1.208-6.709a4.025 4.025 0 0 0-3.701-2.003z" transform="translate(827.695 2285.131)" style="fill:#fff"/>
                <g style="filter:url(#5l673tou6b)">
                    <path data-name="패스 7430" d="M31.951-35.218q0-7.379-3.978-11.186t-11.357-3.808h-4.727v30.382q3.151.21 7.484.21 6.46 0 9.519-3.807t3.059-11.791zM18.3-52.575q9.742 0 14.442 4.346t4.7 13.064q0 8.823-4.53 13.366t-13.539 4.542l-12.552-.105H2.3v-1.392l4.516-.709V-50.5L2.3-51.183v-1.392zm27.581 22.793v.473a15.723 15.723 0 0 0 .8 5.632 6.209 6.209 0 0 0 2.468 3.059 8.1 8.1 0 0 0 4.372 1.05 28.379 28.379 0 0 0 3.361-.236 32.152 32.152 0 0 0 3.2-.525v1.47a12.659 12.659 0 0 1-3.427 1.418 16.4 16.4 0 0 1-4.425.6q-5.751 0-8.416-3.1t-2.665-9.952q0-6.46 2.7-9.637t7.72-3.177q9.479 0 9.479 10.766v2.153zm5.7-10.819a4.72 4.72 0 0 0-4.19 2.201q-1.457 2.206-1.457 6.512H56.49q0-4.7-1.208-6.709a4.025 4.025 0 0 0-3.703-2.003zm19.314.551a23.228 23.228 0 0 1 4.306-1.9 12.722 12.722 0 0 1 3.808-.748 6.071 6.071 0 0 1 4.832 1.864 7.99 7.99 0 0 1 1.628 5.409V-19.2l2.993.656v1.182H77.825v-1.182l3.282-.656v-15.755a5.114 5.114 0 0 0-1.063-3.427 4.1 4.1 0 0 0-3.3-1.247 27.655 27.655 0 0 0-5.8.761V-19.2l3.335.656v1.182H63.62v-1.182l2.967-.656v-21.007l-2.967-.656v-1.182h7.037zm30.052-2.55q4.044 0 5.948 1.654a6.359 6.359 0 0 1 1.9 5.068V-19.2l3.072.656v1.182H105.1l-.5-2.468a10.349 10.349 0 0 1-7.641 2.993q-6.328 0-6.328-7.352a7.9 7.9 0 0 1 .958-4.083 6.046 6.046 0 0 1 3.059-2.468 17.829 17.829 0 0 1 6.092-.932l3.7-.105v-3.86a6.139 6.139 0 0 0-.932-3.755 3.4 3.4 0 0 0-2.875-1.208 9.583 9.583 0 0 0-4.805 1.234l-.893 3.072h-1.47v-5.383a36 36 0 0 1 7.482-.923zm3.492 12.657-3.44.105q-3.519.131-4.766 1.365t-1.247 4.123q0 4.622 3.755 4.622a10.378 10.378 0 0 0 3.085-.407 19.523 19.523 0 0 0 2.613-1.037zm17.581-20.164a2.726 2.726 0 0 1-.84 2 2.756 2.756 0 0 1-2.022.84 2.726 2.726 0 0 1-2-.84 2.726 2.726 0 0 1-.84-2 2.756 2.756 0 0 1 .84-2.022 2.726 2.726 0 0 1 2-.84 2.756 2.756 0 0 1 2.022.84 2.756 2.756 0 0 1 .84 2.022zm-.263 30.907 4.228.656v1.182H113.2v-1.182l4.2-.656v-21.007l-3.492-.656v-1.182h7.851zm23.7-5.094a6.756 6.756 0 0 1-2.324 5.567q-2.324 1.891-6.867 1.891a24.149 24.149 0 0 1-4.057-.381 19.921 19.921 0 0 1-3.479-.853v-6.066h1.182L131.2-20.7a7.329 7.329 0 0 0 5.12 1.786q5.094 0 5.094-4.359 0-3.2-4.018-4.569l-2.337-.761a14.186 14.186 0 0 1-3.86-1.759 6.142 6.142 0 0 1-1.864-2.193 6.9 6.9 0 0 1-.656-3.138 6.369 6.369 0 0 1 2.219-5.134 8.988 8.988 0 0 1 6-1.877 35.749 35.749 0 0 1 6.775.814v5.39h-1.234l-1.1-2.862a6.5 6.5 0 0 0-4.385-1.234 4.56 4.56 0 0 0-3.243 1.05 3.708 3.708 0 0 0-1.116 2.836 3.449 3.449 0 0 0 1.011 2.521 7.654 7.654 0 0 0 3.059 1.707 47.065 47.065 0 0 1 5.035 1.912 7.261 7.261 0 0 1 2.009 1.484A6.463 6.463 0 0 1 145-27.078a7.406 7.406 0 0 1 .456 2.784zm20.39 0a6.756 6.756 0 0 1-2.324 5.567q-2.324 1.891-6.867 1.891a24.149 24.149 0 0 1-4.057-.381 19.921 19.921 0 0 1-3.479-.853v-6.066h1.18l1.287 3.44a7.329 7.329 0 0 0 5.12 1.786q5.094 0 5.094-4.359 0-3.2-4.018-4.569l-2.337-.761a14.187 14.187 0 0 1-3.86-1.759 6.142 6.142 0 0 1-1.864-2.193 6.9 6.9 0 0 1-.656-3.138 6.369 6.369 0 0 1 2.219-5.134 8.988 8.988 0 0 1 6-1.877 35.748 35.748 0 0 1 6.775.814v5.386h-1.234l-1.1-2.862a6.5 6.5 0 0 0-4.385-1.234 4.56 4.56 0 0 0-3.243 1.05 3.708 3.708 0 0 0-1.116 2.836 3.449 3.449 0 0 0 1.011 2.521 7.654 7.654 0 0 0 3.059 1.707 47.069 47.069 0 0 1 5.042 1.917 7.261 7.261 0 0 1 2.009 1.484 6.463 6.463 0 0 1 1.287 2.009 7.406 7.406 0 0 1 .456 2.778zm13.616-18.3q4.044 0 5.948 1.654a6.359 6.359 0 0 1 1.9 5.068V-19.2l3.072.656v1.182h-6.775l-.5-2.468a10.349 10.349 0 0 1-7.641 2.993q-6.328 0-6.328-7.352a7.9 7.9 0 0 1 .958-4.083 6.046 6.046 0 0 1 3.059-2.468 17.829 17.829 0 0 1 6.092-.932l3.7-.105v-3.86a6.139 6.139 0 0 0-.932-3.755 3.4 3.4 0 0 0-2.875-1.208 9.582 9.582 0 0 0-4.805 1.234l-.893 3.072h-1.471v-5.383a36 36 0 0 1 7.49-.923zm3.492 12.657-3.44.105q-3.519.131-4.766 1.365t-1.249 4.12q0 4.622 3.755 4.622a10.378 10.378 0 0 0 3.085-.407 19.519 19.519 0 0 0 2.613-1.037zm16.136-10.11a23.228 23.228 0 0 1 4.306-1.9 12.722 12.722 0 0 1 3.803-.753 6.071 6.071 0 0 1 4.832 1.864 7.99 7.99 0 0 1 1.628 5.409V-19.2l2.994.656v1.182h-10.631v-1.182l3.282-.656v-15.755a5.114 5.114 0 0 0-1.063-3.427 4.1 4.1 0 0 0-3.3-1.247 27.656 27.656 0 0 0-5.8.761V-19.2l3.335.656v1.182h-10.66v-1.182l2.967-.656v-21.007l-2.967-.656v-1.182h7.037zm40.058 21.191a9.843 9.843 0 0 1-3.545 1.484 19.862 19.862 0 0 1-4.622.538q-12 0-12-13.051 0-6.171 3.059-9.492T230.8-42.7a40.94 40.94 0 0 1 7.746.814v6.88H237.1l-1.129-4.359a10.442 10.442 0 0 0-5.225-1.234q-7.037 0-7.037 10.713 0 5.567 2.14 7.943t6.63 2.376a22.923 22.923 0 0 0 6.67-.867zm7.944-10.924v.473a15.723 15.723 0 0 0 .8 5.632 6.209 6.209 0 0 0 2.468 3.059 8.1 8.1 0 0 0 4.372 1.05 28.38 28.38 0 0 0 3.361-.236 32.156 32.156 0 0 0 3.2-.525v1.47a12.66 12.66 0 0 1-3.427 1.418 16.4 16.4 0 0 1-4.425.6q-5.751 0-8.416-3.1t-2.665-9.952q0-6.46 2.7-9.637t7.72-3.177q9.479 0 9.479 10.766v2.153zm5.7-10.819A4.72 4.72 0 0 0 248.6-38.4q-1.457 2.206-1.457 6.512H257.7q0-4.7-1.208-6.709a4.025 4.025 0 0 0-3.701-2.003z" transform="translate(827.7 2285.13)" style="fill:#fff"/>
                </g>
            </g>
            <g data-type="innerShadowGroup">
                <path data-name="합치기 237" d="M7.611 7.611 0 2.538V0h260v2.538l-7.611 5.073z" transform="translate(830.002 2208.002)" style="opacity:.3;fill:#fff"/>
                <g style="filter:url(#lyya4hikhc)">
                    <path data-name="합치기 237" d="M7.611 7.611 0 2.538V0h260v2.538l-7.611 5.073z" transform="translate(830 2208)" style="opacity:.3;fill:#fff"/>
                </g>
            </g>
            <g data-type="innerShadowGroup">
                <path data-name="빼기 173" d="M0 0h260v.635H0z" transform="translate(830.002 2288.653)" style="opacity:.3;fill:#fff"/>
                <g style="filter:url(#h5dhl3h3rd)">
                    <path data-name="빼기 173" d="M0 0h260v.635H0z" transform="translate(830 2288.65)" style="opacity:.3;fill:#fff"/>
                </g>
            </g>
        </g>
    </g>
</svg>
