<svg xmlns="http://www.w3.org/2000/svg" xmlns:xlink="http://www.w3.org/1999/xlink" width="48" height="48" viewBox="0 0 48 48">
  <defs>
    <clipPath id="clip-path">
      <rect id="사각형_4517" data-name="사각형 4517" width="48" height="48" transform="translate(1401 6482)" fill="#c8cdd2"/>
    </clipPath>
  </defs>
  <g id="마스크_그룹_432" data-name="마스크 그룹 432" transform="translate(-1401 -6482)" clip-path="url(#clip-path)" style="isolation: isolate">
    <path id="path861" d="M40.661,3.112A39.094,39.094,0,0,0,30.758,0a29.036,29.036,0,0,0-1.269,2.634,36.361,36.361,0,0,0-10.975,0A28.15,28.15,0,0,0,17.231,0,38.964,38.964,0,0,0,7.32,3.12,41.532,41.532,0,0,0,.2,30.929a39.592,39.592,0,0,0,12.145,6.224,30.205,30.205,0,0,0,2.6-4.284,25.578,25.578,0,0,1-4.1-1.994c.344-.255.68-.521,1-.794a27.989,27.989,0,0,0,24.283,0c.328.274.664.54,1,.794a25.514,25.514,0,0,1-4.1,2,30.073,30.073,0,0,0,2.6,4.284A39.512,39.512,0,0,0,47.8,30.929,41.491,41.491,0,0,0,40.661,3.112ZM16.026,25.33c-2.371,0-4.315-2.213-4.315-4.909s1.9-4.913,4.315-4.913a4.6,4.6,0,0,1,4.315,4.913C20.345,23.117,18.439,25.33,16.026,25.33Zm15.947,0c-2.371,0-4.315-2.213-4.315-4.909s1.9-4.913,4.315-4.913a4.605,4.605,0,0,1,4.315,4.913C36.289,23.117,34.386,25.33,31.973,25.33Z" transform="translate(1401 6487.422)" fill="#c8cdd2"/>
  </g>
</svg>
