<svg id="Hot_badge" xmlns="http://www.w3.org/2000/svg" xmlns:xlink="http://www.w3.org/1999/xlink" width="64" height="30" viewBox="0 0 64 30">
  <defs>
    <style>
      .cls-1 {
        fill: url(#linear-gradient);
      }

      .cls-2 {
        fill: #f8f8f8;
        fill-rule: evenodd;
      }

      .cls-3 {
        fill: #fff;
      }
    </style>
    <linearGradient id="linear-gradient" x1="1.303" x2="-0.14" y2="1.027" gradientUnits="objectBoundingBox">
      <stop offset="0" stop-color="red"/>
      <stop offset="1" stop-color="#dfcc22"/>
    </linearGradient>
  </defs>
  <rect id="사각형_4895" data-name="사각형 4895" class="cls-1" width="64" height="30" rx="15"/>
  <path id="패스_7444" data-name="패스 7444" class="cls-2" d="M188.334,37.116q1.467,3.051.709,4.684c-.735,2.292-3.272-.163-1.635-2.372.98-1.431.041-4.5-2.364-7.564,1,4.745-6.219,5.586-4.877,11,.98,2.249-2.006,1.6-.865-1.041a5.649,5.649,0,0,0-.7,4.855,8.573,8.573,0,0,0,2.561,3.094,6,6,0,0,0,3.806,1.3c-.035,0-.069,0-.1,0-3.439-.419-3.045-5.829-.206-8.37-.661,1.915-.438,3.578.462,4.586,0-1.056.614-1.5.724-2.606,2.7,3.04,1.832,6.05-.449,6.366,7.041-.618,8.214-9.209,2.936-13.935Z" transform="translate(-170.191 -26.473)"/>
  <path id="패스_7445" data-name="패스 7445" class="cls-3" d="M7.882-9.8h2.254L10.15,0H7.9ZM3.43,0H1.176L1.162-9.8H3.416ZM8.064-4.032l-4.8.014-.014-1.9,4.8-.014ZM17.206.154a5.979,5.979,0,0,1-2.121-.371,5,5,0,0,1-1.708-1.057,4.669,4.669,0,0,1-1.106-1.617,5.391,5.391,0,0,1-.4-2.009,4.981,4.981,0,0,1,.4-2.009,4.952,4.952,0,0,1,1.12-1.61,5.043,5.043,0,0,1,1.7-1.071,5.628,5.628,0,0,1,2.114-.364,5.7,5.7,0,0,1,2.149.364,5.116,5.116,0,0,1,1.694,1.064,4.875,4.875,0,0,1,1.12,1.6A4.859,4.859,0,0,1,22.554-4.9a4.918,4.918,0,0,1-.385,2.023,4.762,4.762,0,0,1-1.12,1.61A5.175,5.175,0,0,1,19.355-.21,5.7,5.7,0,0,1,17.206.154Zm0-1.9a3.487,3.487,0,0,0,1.232-.238,2.814,2.814,0,0,0,.973-.644,3,3,0,0,0,.644-.994A3.579,3.579,0,0,0,20.3-4.9a3.579,3.579,0,0,0-.245-1.274,3,3,0,0,0-.644-.994,2.9,2.9,0,0,0-.973-.651,3.2,3.2,0,0,0-1.232-.231,3.415,3.415,0,0,0-1.2.238,2.814,2.814,0,0,0-.973.644,3.012,3.012,0,0,0-.644.987A3.557,3.557,0,0,0,14.14-4.9a3.6,3.6,0,0,0,.245,1.267,2.979,2.979,0,0,0,.644,1A2.917,2.917,0,0,0,16-1.981,3.111,3.111,0,0,0,17.206-1.75ZM26.194,0,26.18-7.952H23.044V-9.8H31.57l.014,1.848h-3.15L28.448,0Z" transform="translate(24.289 19.902)"/>
</svg>
