<svg xmlns="http://www.w3.org/2000/svg" xmlns:xlink="http://www.w3.org/1999/xlink" width="48" height="48" viewBox="0 0 48 48">
  <defs>
    <clipPath id="clip-path">
      <rect id="사각형_9629" data-name="사각형 9629" width="48" height="48" rx="15" transform="translate(1471 6482)" fill="#fff"/>
    </clipPath>
  </defs>
  <g id="Instargram_White" transform="translate(-1471 -6482)" clip-path="url(#clip-path)">
    <g id="Layer_2" transform="translate(1471 6482.006)">
      <g id="Layer_1-2" transform="translate(0)">
        <path id="빼기_343" data-name="빼기 343" d="M5314.957-1464.018c-6.441,0-12.145-.02-12.715-.044a17.107,17.107,0,0,1-3.485-.462,10.1,10.1,0,0,1-6.552-5.353,12.026,12.026,0,0,1-1.144-4.636c-.047-.56-.059-3.211-.059-13.508,0-1.226,0-2.339,0-3.351,0-1.769,0-3.22,0-4.447.011-5.641.058-5.963.213-7.03l.008-.054a10.369,10.369,0,0,1,2.779-5.837,9.541,9.541,0,0,1,2.759-2.019,11.908,11.908,0,0,1,4.729-1.188c.558-.046,3.337-.058,13.521-.058h7.811c5.631.009,5.953.056,7.02.212l.062.009a10.289,10.289,0,0,1,5.842,2.772,9.454,9.454,0,0,1,2.054,2.814,11.666,11.666,0,0,1,1.155,4.592c.032.418.047,7.121.047,13.579,0,6-.012,13.161-.045,13.589a11.8,11.8,0,0,1-1.132,4.546,10.027,10.027,0,0,1-6.552,5.364,16.345,16.345,0,0,1-3.611.473C5327.053-1464.025,5320.417-1464.018,5314.957-1464.018Zm.042-41.713c-4.761,0-5.394.021-7.308.107a12.976,12.976,0,0,0-4.3.824,9.086,9.086,0,0,0-5.184,5.183,12.934,12.934,0,0,0-.823,4.3c-.086,1.914-.106,2.547-.106,7.309s.02,5.391.106,7.3a12.984,12.984,0,0,0,.824,4.3,9.083,9.083,0,0,0,5.181,5.184,12.975,12.975,0,0,0,4.3.824c1.909.087,2.541.107,7.307.107s5.4-.021,7.305-.107a12.978,12.978,0,0,0,4.3-.824,9.1,9.1,0,0,0,5.182-5.184,13.109,13.109,0,0,0,.824-4.3c.082-1.852.107-2.41.107-7.305s-.025-5.455-.107-7.3a13.118,13.118,0,0,0-.824-4.3,9.083,9.083,0,0,0-5.183-5.184,13.016,13.016,0,0,0-4.3-.823c-1.884-.087-2.511-.107-7.3-.107Zm0,32.24c-4.71,0-5.273-.018-7.161-.1a9.818,9.818,0,0,1-3.288-.612,5.881,5.881,0,0,1-3.363-3.362,9.751,9.751,0,0,1-.611-3.289c-.083-1.836-.1-2.39-.1-7.161s.018-5.322.1-7.158a9.841,9.841,0,0,1,.611-3.291,5.883,5.883,0,0,1,3.363-3.363,9.769,9.769,0,0,1,3.291-.611c1.661-.075,2.286-.1,5.571-.1l1.586,0c4.74,0,5.3.018,7.162.1a9.79,9.79,0,0,1,3.29.61,5.885,5.885,0,0,1,3.363,3.363,9.791,9.791,0,0,1,.61,3.289c.085,1.86.1,2.419.1,7.158s-.018,5.3-.1,7.159a9.8,9.8,0,0,1-.61,3.289,5.888,5.888,0,0,1-3.363,3.361,9.754,9.754,0,0,1-3.29.611C5320.273-1473.509,5319.709-1473.491,5315-1473.491Zm0-23.62h0a9.109,9.109,0,0,0-9.1,9.1,9.112,9.112,0,0,0,9.1,9.1,9.11,9.11,0,0,0,9.1-9.1,9.111,9.111,0,0,0-9.1-9.1Zm9.459-2.483a2.129,2.129,0,0,0-2.126,2.126,2.128,2.128,0,0,0,2.126,2.126,2.131,2.131,0,0,0,2.126-2.128A2.128,2.128,0,0,0,5324.457-1499.594ZM5315-1482.1a5.913,5.913,0,0,1-5.906-5.906,5.915,5.915,0,0,1,5.909-5.908,5.914,5.914,0,0,1,5.9,5.908A5.913,5.913,0,0,1,5315-1482.1Z" transform="translate(-5291 1512.006)" fill="#fff"/>
      </g>
    </g>
  </g>
</svg>
