<svg xmlns="http://www.w3.org/2000/svg" width="28" height="28" viewBox="0 0 28 28">
    <defs>
        <clipPath id="wm5peovxwa">
            <circle data-name="타원 336" cx="13" cy="13" r="13" transform="translate(510.383 2812.383)" style="fill:#fff"/>
        </clipPath>
    </defs>
    <g data-name="그룹 7350">
        <g data-name="그룹 7245" transform="translate(-501 -2812)">
            <circle data-name="타원 335" cx="14" cy="14" r="14" transform="translate(501 2812)" style="fill:#fff"/>
        </g>
        <g data-name="마스크 그룹 744" transform="translate(-509.383 -2811.383)" style="clip-path:url(#wm5peovxwa)">
            <g data-name="IOK Company">
                <path data-name="패스 8515" d="M40.222 18.806a5.767 5.767 0 0 0-1.232-.188 12.6 12.6 0 0 1-6.2-2.521 9.456 9.456 0 0 1-2.234-2.171c0-.063.178-.151.376-.2a12.39 12.39 0 0 0 3.226-1.477 9.657 9.657 0 0 0 4.254-6.024 2.458 2.458 0 0 1 .313-.856c.052 0 .188.151.313.355.579.887 2.787 3.737 3.852 4.98 2.85 3.315 5.021 4.244 7.731 3.315a3.259 3.259 0 0 1 .726-.2 18.1 18.1 0 0 1-3.059 2.772 12.058 12.058 0 0 1-5.585 2.046 3.741 3.741 0 0 0-1.18.188 2.216 2.216 0 0 1-1.301-.019z" transform="translate(482.573 2820.142)" style="fill:#0d283a"/>
                <path data-name="패스 8524" d="M32.242 19.021a14.39 14.39 0 0 1-2.083-5.23 14.206 14.206 0 0 1-.1-3.957 7.076 7.076 0 0 1 1.394-.626l1.315-.491.151-.762A3.958 3.958 0 0 1 34.25 5.57a6.286 6.286 0 0 1 4.569-1.67 5.123 5.123 0 0 1 1.075.063 5.927 5.927 0 0 1-.271 1.357c-.2.7-.731 2.72-1.2 4.479-1.268 4.854-1.545 5.747-2.02 6.65a5.148 5.148 0 0 1-2.808 2.61c-.992.3-1.107.292-1.357-.037" transform="translate(480.04 2813.956)" style="fill:#0d283a"/>
                <path data-name="패스 8525" d="M40.879 18.708c-1.143-.188-2.772-1.394-4.181-3.064-1.368-1.629-4-5.105-4-5.267a6.247 6.247 0 0 1 1.138-1.169c2.913-2.573 6.212-4.541 8.508-5.079l.778-.177.3.449a15.444 15.444 0 0 1 1.456 3.5 18.082 18.082 0 0 1 .24 5.523c-.339 2.119-1.42 4.729-2.1 5.042a4.3 4.3 0 0 1-2.145.24" transform="translate(491.604 2814.18)" style="fill:#0d283a"/>
                <path data-name="패스 8526" d="M41.135 14.066c1.4-5.382 1.608-6.175 1.608-6.3 0-.313-4-.073-6.227.365a9.778 9.778 0 0 0-6.107 3.315c-.444.6-.392.334.172-.919a14.75 14.75 0 0 1 5.246-5.836 13.538 13.538 0 0 1 14.694.527 16.041 16.041 0 0 1 2.636 2.422 3.371 3.371 0 0 1-.9.527c-1.394.642-2.547 1.4-7.167 4.708-2.333 1.665-4.291 3.033-4.343 3.033a8.09 8.09 0 0 1 .391-1.843" transform="translate(480.684 2809.223)" style="fill:#0d283a"/>
            </g>
        </g>
    </g>
</svg>
