<svg xmlns="http://www.w3.org/2000/svg" xmlns:xlink="http://www.w3.org/1999/xlink" width="48" height="48" viewBox="0 0 48 48">
  <defs>
    <clipPath id="clip-path">
      <rect id="사각형_9629" data-name="사각형 9629" width="48" height="48" rx="15" transform="translate(1471 6482)" fill="#fff"/>
    </clipPath>
  </defs>
  <g id="마스크_그룹_860" data-name="마스크 그룹 860" transform="translate(-1471 -6482)" clip-path="url(#clip-path)">
    <g id="Layer_2" transform="translate(1471 6482.006)">
      <g id="Layer_1-2" transform="translate(0)">
        <path id="패스_11064" data-name="패스 11064" d="M24.005,0c-10.018,0-12.95.01-13.52.058a11.931,11.931,0,0,0-4.73,1.189A9.583,9.583,0,0,0,3,3.265,10.3,10.3,0,0,0,.219,9.1C.056,10.225.008,10.453,0,16.186c0,1.911,0,4.426,0,7.8C0,34,.008,36.923.056,37.492A12.057,12.057,0,0,0,1.2,42.129a10.111,10.111,0,0,0,6.553,5.352,17.031,17.031,0,0,0,3.485.461c.594.026,6.653.044,12.714.044s12.123-.007,12.7-.037a16.4,16.4,0,0,0,3.611-.472,10.049,10.049,0,0,0,6.553-5.364,11.86,11.86,0,0,0,1.131-4.547c.032-.413.046-7.006.046-13.589s-.015-13.164-.047-13.578a11.727,11.727,0,0,0-1.154-4.592A9.512,9.512,0,0,0,44.74,2.993,10.362,10.362,0,0,0,38.9.221C37.777.058,37.554.01,31.817,0Z" transform="translate(0.004)" fill="#c8cdd2"/>
        <path id="패스_11065" data-name="패스 11065" d="M34.722,17c-4.812,0-5.416.021-7.307.107a13.006,13.006,0,0,0-4.3.824,9.065,9.065,0,0,0-5.184,5.182,12.943,12.943,0,0,0-.823,4.3C17.023,29.3,17,29.908,17,34.723s.021,5.414.107,7.3a13.022,13.022,0,0,0,.823,4.3,9.069,9.069,0,0,0,5.182,5.184,13.017,13.017,0,0,0,4.3.824c1.89.086,2.494.107,7.306.107s5.415-.021,7.305-.107a13.025,13.025,0,0,0,4.3-.824,9.081,9.081,0,0,0,5.182-5.184,13.134,13.134,0,0,0,.823-4.3c.085-1.89.107-2.492.107-7.3s-.022-5.417-.107-7.307a13.127,13.127,0,0,0-.823-4.3,9.066,9.066,0,0,0-5.183-5.184,13.047,13.047,0,0,0-4.3-.824c-1.89-.086-2.492-.107-7.306-.107Zm-1.591,3.194h1.589c4.731,0,5.292.017,7.161.1a9.81,9.81,0,0,1,3.29.61,5.872,5.872,0,0,1,3.362,3.363,9.79,9.79,0,0,1,.61,3.289c.085,1.868.1,2.429.1,7.158s-.018,5.29-.1,7.158a9.8,9.8,0,0,1-.61,3.289,5.877,5.877,0,0,1-3.362,3.361,9.774,9.774,0,0,1-3.29.611c-1.868.085-2.429.1-7.161.1s-5.292-.018-7.161-.1a9.829,9.829,0,0,1-3.288-.611,5.871,5.871,0,0,1-3.364-3.362,9.791,9.791,0,0,1-.61-3.289c-.085-1.868-.1-2.429-.1-7.161s.017-5.29.1-7.158a9.81,9.81,0,0,1,.61-3.29A5.873,5.873,0,0,1,24.273,20.9a9.788,9.788,0,0,1,3.29-.611c1.635-.074,2.268-.1,5.571-.1ZM44.18,23.136a2.126,2.126,0,1,0,2.127,2.125,2.126,2.126,0,0,0-2.127-2.125ZM34.721,25.62a9.1,9.1,0,1,0,9.1,9.1,9.1,9.1,0,0,0-9.1-9.1Zm0,3.193a5.906,5.906,0,1,1-5.906,5.906,5.906,5.906,0,0,1,5.906-5.906Z" transform="translate(-10.724 -10.725)" fill="#fff"/>
      </g>
    </g>
  </g>
</svg>
