<svg xmlns="http://www.w3.org/2000/svg" xmlns:xlink="http://www.w3.org/1999/xlink" width="48" height="48" viewBox="0 0 48 48">
  <defs>
    <clipPath id="clip-path">
      <rect id="사각형_10584" data-name="사각형 10584" width="48" height="48" transform="translate(1251 6724)" fill="#fff" stroke="#707070" stroke-width="1"/>
    </clipPath>
  </defs>
  <g id="마스크_그룹_885" data-name="마스크 그룹 885" transform="translate(-1251 -6724)" clip-path="url(#clip-path)">
    <g id="Page-1" transform="translate(1251 6724)">
      <g id="Monogram">
        <path id="Rectangle-path" d="M0,0H46V46H0Z" transform="translate(1 1)" fill="#c8cdd2"/>
        <path id="Shape" d="M34.824,49.222a1.249,1.249,0,0,0-.406-1.054l-3.011-3.627V44h9.349l7.226,15.848L54.334,44h8.912v.542L60.672,47.01a.752.752,0,0,0-.286.722V65.868a.752.752,0,0,0,.286.722l2.514,2.468V69.6H50.54v-.542l2.6-2.528c.256-.256.256-.331.256-.722V51.149L46.16,69.54h-.979l-8.43-18.391V63.475a1.7,1.7,0,0,0,.467,1.415L40.6,69v.542H31V69l3.387-4.109a1.64,1.64,0,0,0,.437-1.415Z" transform="translate(-23.369 -33.169)" fill="#fff"/>
      </g>
    </g>
  </g>
</svg>
