<svg xmlns="http://www.w3.org/2000/svg" xmlns:xlink="http://www.w3.org/1999/xlink" width="48" height="48" viewBox="0 0 48 48">
  <defs>
    <clipPath id="clip-path">
      <rect id="사각형_10582" data-name="사각형 10582" width="48" height="48" transform="translate(1416 6559)" fill="#fff" stroke="#707070" stroke-width="1"/>
    </clipPath>
  </defs>
  <g id="마스크_그룹_884" data-name="마스크 그룹 884" transform="translate(-1416 -6559)" clip-path="url(#clip-path)">
    <g id="그룹_263" data-name="그룹 263" transform="translate(1416 6563.145)">
      <path id="패스_130" data-name="패스 130" d="M45.231,27.9A1.8,1.8,0,0,0,43.4,29.8a1.868,1.868,0,0,0,3.737,0,1.808,1.808,0,0,0-1.907-1.9Z" transform="translate(-18.453 -11.863)" fill="#c8cdd2"/>
      <path id="패스_131" data-name="패스 131" d="M45.241,2.759A9.386,9.386,0,0,0,38.572,0H9.428A9.42,9.42,0,0,0,0,9.428V23.454a9.42,9.42,0,0,0,9.428,9.428h10.75l3.1,6.313a.758.758,0,0,0,1.437,0l3.1-6.323h10.75A9.42,9.42,0,0,0,48,23.454V9.428a9.386,9.386,0,0,0-2.759-6.668ZM10.577,22.471a2.9,2.9,0,0,1-2.477-1.2H8.048v.92H5.116V9.83H8.1v4.7a3.313,3.313,0,0,1,2.529-1.092,4.23,4.23,0,0,1,4.087,4.494,4.29,4.29,0,0,1-4.139,4.536Zm9.37-.287H17.073V15.061c0-1.322-.23-2.472-1.38-2.644V9.543c2.529,0,4.254,1.829,4.254,4.944Zm6.9.23a4.531,4.531,0,1,1,0-9.025,4.612,4.612,0,0,1,4.944,4.541,4.533,4.533,0,0,1-4.944,4.489Zm15.866-.977c0,3.564-1.782,5.346-4.886,5.346H37.25v-2.7h.575c1.552,0,2.012-.977,2.012-2.414v-.4a3.4,3.4,0,0,1-2.587,1.15,4.071,4.071,0,0,1-4.024-4.311,4.317,4.317,0,0,1,4.2-4.6,2.683,2.683,0,0,1,2.414,1.15h.057v-.92l2.817.057Z" transform="translate(0 0)" fill="#c8cdd2"/>
      <path id="패스_132" data-name="패스 132" d="M64.9,27.8A1.808,1.808,0,0,0,63,29.7a1.779,1.779,0,0,0,1.9,1.9,1.735,1.735,0,0,0,1.829-1.9A1.764,1.764,0,0,0,64.9,27.8Z" transform="translate(-26.787 -11.821)" fill="#c8cdd2"/>
      <circle id="타원_2" data-name="타원 2" cx="1.897" cy="1.897" r="1.897" transform="translate(7.99 16.038)" fill="#c8cdd2"/>
    </g>
  </g>
</svg>
