<svg xmlns="http://www.w3.org/2000/svg" width="48" height="48" viewBox="0 0 48 48">
  <path id="Telegram_White" d="M897,1218a24,24,0,1,1,16.97-7.029A23.844,23.844,0,0,1,897,1218Zm4.376-28.156a.358.358,0,0,1,.25.084.488.488,0,0,1,.112.424c-.091.387-3.636,3.683-5.541,5.454l-.012.011c-.567.527-.977.908-1.06.995-.187.195-.378.378-.562.556-.668.644-1.242,1.2-1.185,1.814.043.466.434.928,1.23,1.452.98.646,1.776,1.188,2.546,1.712l.007.005c.837.57,1.7,1.159,2.8,1.881.279.183.547.374.805.558a5.008,5.008,0,0,0,2.763,1.258c.078,0,.156,0,.233-.011.548-.05,1.277-.518,1.641-2.461.741-3.963,2.352-13.4,2.719-17.255a4.259,4.259,0,0,0-.04-.944,1.011,1.011,0,0,0-.342-.651,1.619,1.619,0,0,0-.914-.279h-.016c-.883.016-2.166.447-8.953,3.27-2.331.97-7.04,3-14,6.029-1.131.449-1.732.9-1.786,1.326-.092.73.814,1.015,2.068,1.409.17.053.346.109.526.167a17.9,17.9,0,0,0,3.731.883h.059a4.642,4.642,0,0,0,2.544-.962c6.505-4.391,9.911-6.643,10.123-6.691A1.165,1.165,0,0,1,901.376,1189.844Z" transform="translate(-873 -1170)" fill="#fafbfc"/>
</svg>
