<svg xmlns="http://www.w3.org/2000/svg" xmlns:xlink="http://www.w3.org/1999/xlink" width="48" height="48" viewBox="0 0 48 48">
  <defs>
    <clipPath id="clip-path">
      <rect id="사각형_10583" data-name="사각형 10583" width="48" height="48" fill="#c8cdd2"/>
    </clipPath>
  </defs>
  <g id="Twitter" clip-path="url(#clip-path)">
    <g id="Logo-2" transform="translate(0 4.498)">
      <path id="white_background" d="M44.086,11.2c.029.423.029.846.029,1.273,0,13.013-9.906,28.02-28.02,28.02v-.008A27.879,27.879,0,0,1,1,36.074a20.033,20.033,0,0,0,2.344.142,19.775,19.775,0,0,0,12.231-4.224,9.86,9.86,0,0,1-9.2-6.839,9.816,9.816,0,0,0,4.446-.17,9.849,9.849,0,0,1-7.9-9.653v-.125A9.785,9.785,0,0,0,7.39,16.439,9.86,9.86,0,0,1,4.342,3.29a27.95,27.95,0,0,0,20.3,10.288A9.857,9.857,0,0,1,41.42,4.6a19.761,19.761,0,0,0,6.254-2.391,9.885,9.885,0,0,1-4.329,5.446A19.585,19.585,0,0,0,49,6.1a20.006,20.006,0,0,1-4.914,5.1Z" transform="translate(-1 -1.493)" fill="#c8cdd2"/>
    </g>
  </g>
</svg>
