<svg xmlns="http://www.w3.org/2000/svg" width="1920" height="20" viewBox="0 0 1920 20">
  <g id="그룹_9945" data-name="그룹 9945" transform="translate(0 -6096)">
    <path id="사각형_9704" data-name="사각형 9704" d="M1919,0h1V1h-1Zm-2,0h1V1h-1Zm-3,0h1V1h-1Zm-3,0h1V1h-1Zm-3,0h1V1h-1Zm-3,0h1V1h-1Zm-3,0h1V1h-1Zm-3,0h1V1h-1Zm-3,0h1V1h-1Zm-3,0h1V1h-1Zm-3,0h1V1h-1Zm-3,0h1V1h-1Zm-3,0h1V1h-1Zm-3,0h1V1h-1Zm-3,0h1V1h-1Zm-3,0h1V1h-1Zm-3,0h1V1h-1Zm-3,0h1V1h-1Zm-3,0h1V1h-1Zm-3,0h1V1h-1Zm-3,0h1V1h-1Zm-3,0h1V1h-1Zm-3,0h1V1h-1Zm-3,0h1V1h-1Zm-3,0h1V1h-1Zm-3,0h1V1h-1Zm-3,0h1V1h-1Zm-3,0h1V1h-1Zm-3,0h1V1h-1Zm-3,0h1V1h-1Zm-3,0h1V1h-1Zm-3,0h1V1h-1Zm-3,0h1V1h-1Zm-3,0h1V1h-1Zm-3,0h1V1h-1Zm-3,0h1V1h-1Zm-3,0h1V1h-1Zm-3,0h1V1h-1Zm-3,0h1V1h-1Zm-3,0h1V1h-1Zm-3,0h1V1h-1Zm-3,0h1V1h-1Zm-3,0h1V1h-1Zm-3,0h1V1h-1Zm-3,0h1V1h-1Zm-3,0h1V1h-1Zm-3,0h1V1h-1Zm-3,0h1V1h-1Zm-3,0h1V1h-1Zm-3,0h1V1h-1Zm-3,0h1V1h-1Zm-3,0h1V1h-1Zm-3,0h1V1h-1Zm-3,0h1V1h-1Zm-3,0h1V1h-1Zm-3,0h1V1h-1Zm-3,0h1V1h-1Zm-3,0h1V1h-1Zm-3,0h1V1h-1Zm-3,0h1V1h-1Zm-3,0h1V1h-1Zm-3,0h1V1h-1Zm-3,0h1V1h-1Zm-3,0h1V1h-1Zm-3,0h1V1h-1Zm-3,0h1V1h-1Zm-3,0h1V1h-1Zm-3,0h1V1h-1Zm-3,0h1V1h-1Zm-3,0h1V1h-1Zm-3,0h1V1h-1Zm-3,0h1V1h-1Zm-3,0h1V1h-1Zm-3,0h1V1h-1Zm-3,0h1V1h-1Zm-3,0h1V1h-1Zm-3,0h1V1h-1Zm-3,0h1V1h-1Zm-3,0h1V1h-1Zm-3,0h1V1h-1Zm-3,0h1V1h-1Zm-3,0h1V1h-1Zm-3,0h1V1h-1Zm-3,0h1V1h-1Zm-3,0h1V1h-1Zm-3,0h1V1h-1Zm-3,0h1V1h-1Zm-3,0h1V1h-1Zm-3,0h1V1h-1Zm-3,0h1V1h-1Zm-3,0h1V1h-1Zm-3,0h1V1h-1Zm-3,0h1V1h-1Zm-3,0h1V1h-1Zm-3,0h1V1h-1Zm-3,0h1V1h-1Zm-3,0h1V1h-1Zm-3,0h1V1h-1Zm-3,0h1V1h-1Zm-3,0h1V1h-1Zm-3,0h1V1h-1Zm-3,0h1V1h-1Zm-3,0h1V1h-1Zm-3,0h1V1h-1Zm-3,0h1V1h-1Zm-3,0h1V1h-1Zm-3,0h1V1h-1Zm-3,0h1V1h-1Zm-3,0h1V1h-1Zm-3,0h1V1h-1Zm-3,0h1V1h-1Zm-3,0h1V1h-1Zm-3,0h1V1h-1Zm-3,0h1V1h-1Zm-3,0h1V1h-1Zm-3,0h1V1h-1Zm-3,0h1V1h-1Zm-3,0h1V1h-1Zm-3,0h1V1h-1Zm-3,0h1V1h-1Zm-3,0h1V1h-1Zm-3,0h1V1h-1Zm-3,0h1V1h-1Zm-3,0h1V1h-1Zm-3,0h1V1h-1Zm-3,0h1V1h-1Zm-3,0h1V1h-1Zm-3,0h1V1h-1Zm-3,0h1V1h-1Zm-3,0h1V1h-1Zm-3,0h1V1h-1Zm-3,0h1V1h-1Zm-3,0h1V1h-1Zm-3,0h1V1h-1Zm-3,0h1V1h-1Zm-3,0h1V1h-1Zm-3,0h1V1h-1Zm-3,0h1V1h-1Zm-3,0h1V1h-1Zm-3,0h1V1h-1Zm-3,0h1V1h-1Zm-3,0h1V1h-1Zm-3,0h1V1h-1Zm-3,0h1V1h-1Zm-3,0h1V1h-1Zm-3,0h1V1h-1Zm-3,0h1V1h-1Zm-3,0h1V1h-1Zm-3,0h1V1h-1Zm-3,0h1V1h-1Zm-3,0h1V1h-1Zm-3,0h1V1h-1Zm-3,0h1V1h-1Zm-3,0h1V1h-1Zm-3,0h1V1h-1Zm-3,0h1V1h-1Zm-3,0h1V1h-1Zm-3,0h1V1h-1Zm-3,0h1V1h-1Zm-3,0h1V1h-1Zm-3,0h1V1h-1Zm-3,0h1V1h-1Zm-3,0h1V1h-1Zm-3,0h1V1h-1Zm-3,0h1V1h-1Zm-3,0h1V1h-1Zm-3,0h1V1h-1Zm-3,0h1V1h-1Zm-3,0h1V1h-1Zm-3,0h1V1h-1Zm-3,0h1V1h-1Zm-3,0h1V1h-1Zm-3,0h1V1h-1Zm-3,0h1V1h-1Zm-3,0h1V1h-1Zm-3,0h1V1h-1Zm-3,0h1V1h-1Zm-3,0h1V1h-1Zm-3,0h1V1h-1Zm-3,0h1V1h-1Zm-3,0h1V1h-1Zm-3,0h1V1h-1Zm-3,0h1V1h-1Zm-3,0h1V1h-1Zm-3,0h1V1h-1Zm-3,0h1V1h-1Zm-3,0h1V1h-1Zm-3,0h1V1h-1Zm-3,0h1V1h-1Zm-3,0h1V1h-1Zm-3,0h1V1h-1Zm-3,0h1V1h-1Zm-3,0h1V1h-1Zm-3,0h1V1h-1Zm-3,0h1V1h-1Zm-3,0h1V1h-1Zm-3,0h1V1h-1Zm-3,0h1V1h-1Zm-3,0h1V1h-1Zm-3,0h1V1h-1Zm-3,0h1V1h-1Zm-3,0h1V1h-1Zm-3,0h1V1h-1Zm-3,0h1V1h-1Zm-3,0h1V1h-1Zm-3,0h1V1h-1Zm-3,0h1V1h-1Zm-3,0h1V1h-1Zm-3,0h1V1h-1Zm-3,0h1V1h-1Zm-3,0h1V1h-1Zm-3,0h1V1h-1Zm-3,0h1V1h-1Zm-3,0h1V1h-1Zm-3,0h1V1h-1Zm-3,0h1V1h-1Zm-3,0h1V1h-1Zm-3,0h1V1h-1Zm-3,0h1V1h-1Zm-3,0h1V1h-1Zm-3,0h1V1h-1Zm-3,0h1V1h-1Zm-3,0h1V1h-1Zm-3,0h1V1h-1Zm-3,0h1V1h-1Zm-3,0h1V1h-1Zm-3,0h1V1h-1Zm-3,0h1V1h-1Zm-3,0h1V1h-1Zm-3,0h1V1h-1Zm-3,0h1V1h-1Zm-3,0h1V1h-1Zm-3,0h1V1h-1Zm-3,0h1V1h-1Zm-3,0h1V1h-1Zm-3,0h1V1h-1Zm-3,0h1V1h-1Zm-3,0h1V1h-1Zm-3,0h1V1h-1Zm-3,0h1V1h-1Zm-3,0h1V1h-1Zm-3,0h1V1h-1Zm-3,0h1V1h-1Zm-3,0h1V1h-1Zm-3,0h1V1h-1Zm-3,0h1V1h-1Zm-3,0h1V1h-1Zm-3,0h1V1h-1Zm-3,0h1V1h-1Zm-3,0h1V1h-1Zm-3,0h1V1h-1Zm-3,0h1V1h-1Zm-3,0h1V1h-1Zm-3,0h1V1h-1Zm-3,0h1V1h-1Zm-3,0h1V1h-1Zm-3,0h1V1h-1Zm-3,0h1V1h-1Zm-3,0h1V1h-1Zm-3,0h1V1h-1Zm-3,0h1V1h-1Zm-3,0h1V1h-1Zm-3,0h1V1h-1Zm-3,0h1V1h-1Zm-3,0h1V1h-1Zm-3,0h1V1h-1Zm-3,0h1V1h-1Zm-3,0h1V1h-1Zm-3,0h1V1h-1Zm-3,0h1V1h-1Zm-3,0h1V1h-1Zm-3,0h1V1h-1Zm-3,0h1V1h-1Zm-3,0h1V1h-1Zm-3,0h1V1h-1Zm-3,0h1V1h-1Zm-3,0h1V1h-1Zm-3,0h1V1h-1Zm-3,0h1V1h-1Zm-3,0h1V1h-1Zm-3,0h1V1h-1Zm-3,0h1V1h-1Zm-3,0h1V1h-1Zm-3,0h1V1h-1Zm-3,0h1V1h-1Zm-3,0h1V1h-1Zm-3,0h1V1h-1Zm-3,0h1V1h-1Zm-3,0h1V1h-1Zm-3,0h1V1h-1Zm-3,0h1V1h-1Zm-3,0h1V1h-1Zm-3,0h1V1h-1Zm-3,0h1V1h-1Zm-3,0h1V1h-1Zm-3,0h1V1h-1Zm-3,0h1V1h-1Zm-3,0h1V1h-1Zm-3,0h1V1h-1Zm-3,0h1V1h-1Zm-3,0h1V1h-1Zm-3,0h1V1h-1Zm-3,0h1V1h-1Zm-3,0h1V1h-1Zm-3,0h1V1h-1Zm-3,0h1V1h-1Zm-3,0h1V1h-1Zm-3,0h1V1h-1Zm-3,0h1V1h-1Zm-3,0h1V1h-1Zm-3,0h1V1h-1Zm-3,0h1V1h-1Zm-3,0h1V1h-1Zm-3,0h1V1h-1Zm-3,0h1V1h-1Zm-3,0h1V1h-1Zm-3,0h1V1h-1Zm-3,0h1V1h-1Zm-3,0h1V1h-1Zm-3,0h1V1h-1Zm-3,0h1V1h-1Zm-3,0h1V1h-1Zm-3,0h1V1h-1Zm-3,0h1V1h-1Zm-3,0h1V1h-1Zm-3,0h1V1h-1Zm-3,0h1V1h-1Zm-3,0h1V1h-1Zm-3,0h1V1h-1Zm-3,0h1V1h-1Zm-3,0h1V1h-1Zm-3,0h1V1h-1Zm-3,0h1V1h-1Zm-3,0h1V1h-1Zm-3,0h1V1h-1Zm-3,0h1V1h-1Zm-3,0h1V1h-1Zm-3,0h1V1h-1Zm-3,0h1V1h-1Zm-3,0h1V1h-1Zm-3,0h1V1h-1Zm-3,0h1V1h-1Zm-3,0h1V1h-1Zm-3,0h1V1h-1Zm-3,0h1V1h-1Zm-3,0h1V1h-1Zm-3,0h1V1h-1Zm-3,0h1V1h-1Zm-3,0h1V1h-1Zm-3,0h1V1h-1Zm-3,0h1V1h-1Zm-3,0h1V1h-1Zm-3,0h1V1h-1Zm-3,0h1V1h-1Zm-3,0h1V1h-1Zm-3,0h1V1h-1Zm-3,0h1V1h-1Zm-3,0h1V1h-1Zm-3,0h1V1h-1Zm-3,0h1V1h-1Zm-3,0h1V1h-1Zm-3,0h1V1h-1Zm-3,0h1V1h-1Zm-3,0h1V1h-1Zm-3,0h1V1h-1Zm-3,0h1V1h-1Zm-3,0h1V1h-1Zm-3,0h1V1h-1Zm-3,0h1V1h-1Zm-3,0h1V1h-1Zm-3,0h1V1h-1Zm-3,0h1V1h-1Zm-3,0h1V1h-1Zm-3,0h1V1h-1Zm-3,0h1V1h-1Zm-3,0h1V1h-1Zm-3,0h1V1h-1Zm-3,0h1V1h-1Zm-3,0h1V1h-1Zm-3,0h1V1h-1Zm-3,0h1V1h-1Zm-3,0h1V1h-1Zm-3,0h1V1h-1Zm-3,0h1V1h-1Zm-3,0h1V1h-1Zm-3,0h1V1h-1Zm-3,0h1V1h-1Zm-3,0h1V1h-1Zm-3,0h1V1h-1Zm-3,0h1V1h-1Zm-3,0h1V1h-1Zm-3,0h1V1h-1Zm-3,0h1V1h-1Zm-3,0h1V1h-1Zm-3,0h1V1h-1Zm-3,0h1V1h-1Zm-3,0h1V1h-1Zm-3,0h1V1h-1Zm-3,0h1V1h-1Zm-3,0h1V1h-1Zm-3,0h1V1h-1Zm-3,0h1V1h-1Zm-3,0h1V1h-1Zm-3,0h1V1h-1Zm-3,0h1V1h-1Zm-3,0h1V1h-1Zm-3,0h1V1h-1Zm-3,0h1V1h-1Zm-3,0h1V1h-1Zm-3,0h1V1h-1Zm-3,0h1V1h-1Zm-3,0h1V1h-1Zm-3,0h1V1h-1Zm-3,0h1V1h-1Zm-3,0h1V1h-1Zm-3,0h1V1h-1Zm-3,0h1V1h-1Zm-3,0h1V1h-1Zm-3,0h1V1h-1Zm-3,0h1V1h-1Zm-3,0h1V1h-1Zm-3,0h1V1h-1Zm-3,0h1V1h-1Zm-3,0h1V1h-1Zm-3,0h1V1h-1Zm-3,0h1V1h-1Zm-3,0h1V1h-1Zm-3,0h1V1h-1Zm-3,0h1V1h-1Zm-3,0h1V1h-1Zm-3,0h1V1h-1Zm-3,0h1V1h-1Zm-3,0h1V1h-1Zm-3,0h1V1h-1Zm-3,0h1V1h-1Zm-3,0h1V1h-1Zm-3,0h1V1h-1Zm-3,0h1V1h-1Zm-3,0h1V1h-1Zm-3,0h1V1h-1Zm-3,0h1V1h-1Zm-3,0h1V1h-1Zm-3,0h1V1h-1Zm-3,0h1V1h-1Zm-3,0h1V1h-1Zm-3,0h1V1h-1Zm-3,0h1V1h-1Zm-3,0h1V1h-1Zm-3,0h1V1h-1Zm-3,0h1V1h-1Zm-3,0h1V1h-1Zm-3,0h1V1h-1Zm-3,0h1V1h-1Zm-3,0h1V1h-1Zm-3,0h1V1h-1Zm-3,0h1V1h-1Zm-3,0h1V1h-1Zm-3,0h1V1h-1Zm-3,0h1V1h-1Zm-3,0h1V1h-1Zm-3,0h1V1h-1Zm-3,0h1V1h-1Zm-3,0h1V1h-1Zm-3,0h1V1h-1Zm-3,0h1V1h-1Zm-3,0h1V1h-1Zm-3,0h1V1h-1Zm-3,0h1V1h-1Zm-3,0h1V1h-1Zm-3,0h1V1h-1Zm-3,0h1V1h-1Zm-3,0h1V1h-1Zm-3,0h1V1h-1Zm-3,0h1V1h-1Zm-3,0h1V1h-1Zm-3,0h1V1h-1Zm-3,0h1V1h-1Zm-3,0h1V1h-1Zm-3,0h1V1h-1Zm-3,0h1V1h-1Zm-3,0h1V1h-1Zm-3,0h1V1h-1Zm-3,0h1V1h-1Zm-3,0h1V1h-1Zm-3,0h1V1h-1Zm-3,0h1V1h-1Zm-3,0h1V1h-1Zm-3,0h1V1h-1Zm-3,0h1V1h-1Zm-3,0h1V1h-1Zm-3,0h1V1h-1Zm-3,0h1V1h-1Zm-3,0h1V1h-1Zm-3,0h1V1h-1Zm-3,0h1V1h-1Zm-3,0h1V1h-1Zm-3,0h1V1h-1Zm-3,0h1V1h-1Zm-3,0h1V1h-1Zm-3,0h1V1h-1Zm-3,0h1V1h-1Zm-3,0h1V1h-1Zm-3,0h1V1h-1Zm-3,0h1V1h-1Zm-3,0h1V1h-1Zm-3,0h1V1h-1Zm-3,0h1V1h-1Zm-3,0h1V1h-1Zm-3,0h1V1h-1Zm-3,0h1V1h-1Zm-3,0h1V1h-1Zm-3,0h1V1h-1Zm-3,0h1V1h-1Zm-3,0h1V1h-1Zm-3,0h1V1h-1Zm-3,0h1V1h-1Zm-3,0h1V1h-1Zm-3,0h1V1h-1Zm-3,0h1V1h-1Zm-3,0h1V1h-1Zm-3,0h1V1h-1Zm-3,0h1V1h-1Zm-3,0h1V1h-1Zm-3,0h1V1h-1Zm-3,0h1V1h-1Zm-3,0h1V1h-1Zm-3,0h1V1h-1Zm-3,0h1V1h-1Zm-3,0h1V1h-1Zm-3,0h1V1h-1Zm-3,0h1V1h-1Zm-3,0h1V1h-1Zm-3,0h1V1h-1Zm-3,0h1V1h-1Zm-3,0h1V1h-1Zm-3,0h1V1h-1Zm-3,0h1V1h-1Zm-3,0h1V1h-1Zm-3,0h1V1h-1Zm-3,0h1V1h-1Zm-3,0h1V1h-1Zm-3,0h1V1h-1Zm-3,0h1V1h-1Zm-3,0h1V1h-1Zm-3,0h1V1h-1Zm-3,0h1V1h-1Zm-3,0h1V1h-1Zm-3,0h1V1h-1Zm-3,0h1V1h-1Zm-3,0h1V1h-1Zm-3,0h1V1h-1Zm-3,0h1V1h-1Zm-3,0h1V1h-1Zm-3,0h1V1h-1Zm-3,0h1V1h-1Zm-3,0h1V1h-1Zm-3,0h1V1h-1Zm-3,0h1V1h-1Zm-3,0h1V1h-1Zm-3,0h1V1h-1Zm-3,0h1V1h-1Zm-3,0h1V1h-1Zm-3,0h1V1h-1Zm-3,0h1V1h-1Zm-3,0h1V1h-1Zm-3,0h1V1h-1Zm-3,0h1V1h-1Zm-3,0h1V1h-1Zm-3,0h1V1h-1Zm-3,0h1V1h-1Zm-3,0h1V1h-1Zm-3,0h1V1h-1Zm-3,0h1V1h-1Zm-3,0h1V1h-1Zm-3,0h1V1h-1Zm-3,0h1V1h-1Zm-3,0h1V1h-1Zm-3,0h1V1h-1Zm-3,0h1V1h-1Zm-3,0h1V1h-1Zm-3,0h1V1h-1Zm-3,0h1V1h-1Zm-3,0h1V1h-1Zm-3,0h1V1h-1Zm-3,0h1V1h-1Zm-3,0h1V1h-1Zm-3,0h1V1h-1Zm-3,0h1V1h-1Zm-3,0h1V1h-1Zm-3,0h1V1h-1Zm-3,0h1V1h-1Zm-3,0h1V1h-1Zm-3,0h1V1h-1Zm-3,0h1V1h-1Zm-3,0h1V1h-1Zm-3,0h1V1h-1Zm-3,0h1V1h-1Zm-3,0h1V1h-1Zm-3,0h1V1h-1Zm-3,0h1V1h-1Zm-3,0h1V1h-1Zm-3,0h1V1h-1Zm-3,0h1V1h-1Zm-3,0h1V1h-1Zm-3,0h1V1h-1Zm-3,0h1V1h-1Zm-3,0h1V1h-1ZM99,0h1V1H99ZM96,0h1V1H96ZM93,0h1V1H93ZM90,0h1V1H90ZM87,0h1V1H87ZM84,0h1V1H84ZM81,0h1V1H81ZM78,0h1V1H78ZM75,0h1V1H75ZM72,0h1V1H72ZM69,0h1V1H69ZM66,0h1V1H66ZM63,0h1V1H63ZM60,0h1V1H60ZM57,0h1V1H57ZM54,0h1V1H54ZM51,0h1V1H51ZM48,0h1V1H48ZM45,0h1V1H45ZM42,0h1V1H42ZM39,0h1V1H39ZM36,0h1V1H36ZM33,0h1V1H33ZM30,0h1V1H30ZM27,0h1V1H27ZM24,0h1V1H24ZM21,0h1V1H21ZM18,0h1V1H18ZM15,0h1V1H15ZM12,0h1V1H12ZM9,0h1V1H9ZM6,0H7V1H6ZM3,0H4V1H3ZM0,0H1V1H0Z" transform="translate(0 6106)" fill="#f7941d"/>
    <path id="패스_11333" data-name="패스 11333" d="M10,0A10,10,0,1,1,0,10,10,10,0,0,1,10,0Z" transform="translate(740 6096)" fill="#fafbfc"/>
    <path id="타원_394_-_윤곽선" data-name="타원 394 - 윤곽선" d="M10,1a9,9,0,1,0,9,9,9.01,9.01,0,0,0-9-9m0-1A10,10,0,1,1,0,10,10,10,0,0,1,10,0Z" transform="translate(740 6096)" fill="#f7941d"/>
    <path id="패스_11332" data-name="패스 11332" d="M10,0A10,10,0,1,1,0,10,10,10,0,0,1,10,0Z" transform="translate(540 6096)" fill="#fafbfc"/>
    <path id="타원_393_-_윤곽선" data-name="타원 393 - 윤곽선" d="M10,1a9,9,0,1,0,9,9,9.01,9.01,0,0,0-9-9m0-1A10,10,0,1,1,0,10,10,10,0,0,1,10,0Z" transform="translate(540 6096)" fill="#f7941d"/>
    <path id="패스_11331" data-name="패스 11331" d="M10,0A10,10,0,1,1,0,10,10,10,0,0,1,10,0Z" transform="translate(340 6096)" fill="#fafbfc"/>
    <path id="타원_392_-_윤곽선" data-name="타원 392 - 윤곽선" d="M10,1a9,9,0,1,0,9,9,9.01,9.01,0,0,0-9-9m0-1A10,10,0,1,1,0,10,10,10,0,0,1,10,0Z" transform="translate(340 6096)" fill="#f7941d"/>
  </g>
</svg>
