<svg width="210" height="22" viewBox="0 0 210 22" fill="none" xmlns="http://www.w3.org/2000/svg">
<path d="M10.6437 21.272C16.0677 21.272 20.0037 17.576 20.6037 13.64H16.1877C15.8517 15.416 13.5477 17.264 10.7397 17.264C7.18769 17.264 4.54769 14.624 4.54769 11C4.54769 7.35203 7.18769 4.73603 10.7397 4.73603C13.5477 4.73603 15.5397 6.22403 15.9957 8.09603H20.4117C19.6197 3.96803 16.0197 0.728027 10.6437 0.728027C4.61969 0.728027 0.179688 5.07203 0.179688 11C0.179688 16.928 4.61969 21.272 10.6437 21.272Z" fill="black"/>
<path d="M32.8178 21.272C38.8898 21.272 43.3778 16.928 43.3778 11C43.3778 5.07203 38.8898 0.728027 32.8178 0.728027C26.7458 0.728027 22.2578 5.07203 22.2578 11C22.2578 16.928 26.7458 21.272 32.8178 21.272ZM32.8178 17.336C29.2658 17.336 26.6258 14.672 26.6258 11C26.6258 7.30403 29.2658 4.66403 32.8178 4.66403C36.3698 4.66403 39.0098 7.30403 39.0098 11C39.0098 14.672 36.3698 17.336 32.8178 17.336Z" fill="black"/>
<path d="M45.9734 20.792H50.3414V10.064L54.8774 17.576H57.5174L62.0534 10.064V20.792H66.4214V1.23203H62.9414L56.1974 12.176L49.4534 1.23203H45.9734V20.792Z" fill="black"/>
<path d="M69.8796 1.23203V20.792H74.2476V1.23203H69.8796Z" fill="black"/>
<path d="M77.7077 20.792H82.0758V8.79203L91.8438 20.552H95.4918V0.992028H91.1237V12.992L81.3558 1.23203H77.7077V20.792Z" fill="black"/>
<path d="M108.542 0.728027C102.518 0.728027 98.0781 5.07203 98.0781 11C98.0781 16.928 102.518 21.272 108.542 21.272C114.47 21.272 118.91 16.928 118.91 11V9.84803H108.278V13.544H114.254C113.798 15.464 111.686 17.336 108.638 17.336C105.086 17.336 102.446 14.672 102.446 11C102.446 7.35203 105.086 4.73603 108.638 4.73603C111.014 4.73603 112.862 5.84003 113.678 7.28003H118.478C117.35 3.60803 113.654 0.728027 108.542 0.728027Z" fill="black"/>
<path d="M135.847 0.752027C131.431 0.752027 127.927 2.86403 127.927 6.39203C127.927 10.064 130.231 11.816 134.479 12.608C137.959 13.256 139.279 13.88 139.279 15.44C139.279 16.712 137.959 17.6 136.183 17.6C133.687 17.6 132.055 16.352 131.815 14.48H127.327C127.519 18.656 131.047 21.272 135.871 21.272C140.239 21.272 143.767 18.992 143.767 15.248C143.767 12.32 142.231 10.088 137.719 9.15203C133.903 8.36003 132.391 7.85603 132.391 6.39203C132.391 5.21603 133.519 4.40003 135.559 4.40003C137.647 4.40003 138.919 5.43203 139.183 7.13603H143.695C143.479 3.41603 140.215 0.752027 135.847 0.752027Z" fill="black"/>
<path d="M156.029 21.272C162.101 21.272 166.589 16.928 166.589 11C166.589 5.07203 162.101 0.728027 156.029 0.728027C149.957 0.728027 145.469 5.07203 145.469 11C145.469 16.928 149.957 21.272 156.029 21.272ZM156.029 17.336C152.477 17.336 149.837 14.672 149.837 11C149.837 7.30403 152.477 4.66403 156.029 4.66403C159.581 4.66403 162.221 7.30403 162.221 11C162.221 14.672 159.581 17.336 156.029 17.336Z" fill="black"/>
<path d="M178.88 21.272C184.952 21.272 189.44 16.928 189.44 11C189.44 5.07203 184.952 0.728027 178.88 0.728027C172.808 0.728027 168.32 5.07203 168.32 11C168.32 16.928 172.808 21.272 178.88 21.272ZM178.88 17.336C175.328 17.336 172.688 14.672 172.688 11C172.688 7.30403 175.328 4.66403 178.88 4.66403C182.432 4.66403 185.072 7.30403 185.072 11C185.072 14.672 182.432 17.336 178.88 17.336Z" fill="black"/>
<path d="M192.036 20.792H196.404V8.79203L206.172 20.552H209.82V0.992028H205.452V12.992L195.684 1.23203H192.036V20.792Z" fill="black"/>
</svg>
