<svg width="20" height="18" viewBox="0 0 20 18" fill="none" xmlns="http://www.w3.org/2000/svg">
<path d="M18.1709 17.5H1.82715L-0.00292969 15.6758V5.32812L1.82715 3.49805H5V1.82812L6.32324 0.5H13.6719L14.9951 1.82812V3.49805H18.1719L19.9971 5.32812V15.6758L18.1729 17.498L18.1709 17.5ZM10.001 6C9.11096 6 8.241 6.26335 7.50098 6.75781C6.76096 7.25228 6.18434 7.95508 5.84375 8.77734C5.50316 9.59961 5.41426 10.504 5.58789 11.377C5.76152 12.2499 6.19 13.0523 6.81934 13.6816C7.44867 14.311 8.25013 14.7404 9.12305 14.9141C9.99596 15.0877 10.9004 14.9988 11.7227 14.6582C12.5449 14.3176 13.2477 13.74 13.7422 13C14.2367 12.26 14.501 11.39 14.501 10.5C14.4989 9.307 14.0243 8.1638 13.1807 7.32031C12.337 6.47683 11.193 6.00185 10 6H10.001ZM3.99023 6V7H5V6H3.99023ZM0.99707 6V7H2.99707V6H0.99707ZM9.99707 14C9.30484 14 8.62831 13.7947 8.05273 13.4102C7.47716 13.0256 7.02858 12.4794 6.76367 11.8398C6.49876 11.2003 6.4294 10.4953 6.56445 9.81641C6.6995 9.13747 7.03298 8.51487 7.52246 8.02539C8.01194 7.53591 8.63552 7.20145 9.31445 7.06641C9.99339 6.93136 10.6964 7.00072 11.3359 7.26562C11.9755 7.53053 12.5226 7.97912 12.9072 8.55469C13.2918 9.13026 13.4971 9.80777 13.4971 10.5C13.4971 11.4277 13.1284 12.3183 12.4727 12.9746C11.8169 13.6309 10.9277 13.9992 10 14H9.99707Z" fill="black"/>
</svg>
