<svg width="44" height="44" viewBox="0 0 44 44" fill="none" xmlns="http://www.w3.org/2000/svg">
<mask id="mask0_198_12523" style="mask-type:alpha" maskUnits="userSpaceOnUse" x="0" y="0" width="44" height="44">
<rect width="44" height="44" fill="#D9D9D9"/>
</mask>
<g mask="url(#mask0_198_12523)">
<path fill-rule="evenodd" clip-rule="evenodd" d="M11 11H33V33H11V11ZM15.688 17.7396C15.7233 17.8312 15.7365 17.9298 15.7266 18.0274V25.1545C15.7483 25.2812 15.7399 25.4112 15.702 25.534C15.6642 25.6568 15.598 25.769 15.5088 25.8616L13.8149 27.9154V28.1859H18.6149V27.9154L16.9294 25.8579C16.8394 25.7655 16.7716 25.6538 16.7311 25.5313C16.6906 25.4087 16.6786 25.2786 16.6959 25.1508V18.9874L20.9106 28.1831H21.3999L25.0202 18.9874V26.3166C25.0202 26.5123 25.0202 26.5492 24.8919 26.6776L23.5848 27.944V28.2145H29.9079V27.944L28.6506 26.7099C28.5962 26.6684 28.5541 26.6129 28.5289 26.5493C28.5036 26.4857 28.4963 26.4164 28.5076 26.3489V17.2816C28.4963 17.2141 28.5036 17.1448 28.5289 17.0812C28.5541 17.0176 28.5962 16.9621 28.6506 16.9206L29.9374 15.6865V15.416H25.4817L22.3073 23.3397L18.6925 15.416H14.018V15.6865L15.5236 17.5003C15.5964 17.5661 15.6528 17.648 15.688 17.7396Z" fill="#C8CDD2"/>
</g>
</svg>
