<svg width="44" height="44" viewBox="0 0 44 44" fill="none" xmlns="http://www.w3.org/2000/svg">
<path d="M30.1803 17.8042C30.1931 17.9859 30.1931 18.1667 30.1931 18.3502C30.204 19.9302 29.9007 21.4966 29.3011 22.9584C28.7014 24.4203 27.8173 25.7484 26.7 26.8656C25.5828 27.9829 24.2547 28.867 22.7928 29.4667C21.331 30.0663 19.7646 30.3696 18.1846 30.3587C15.8907 30.3609 13.6447 29.7027 11.7148 28.4627C12.0482 28.5026 12.3837 28.523 12.7194 28.5236C14.6201 28.525 16.4661 27.8874 17.9608 26.7133C17.0802 26.6967 16.2267 26.4053 15.5198 25.8799C14.8129 25.3544 14.2878 24.6212 14.018 23.7827C14.6503 23.9046 15.3022 23.8797 15.9234 23.7099C14.9683 23.5171 14.1093 22.9999 13.4922 22.2459C12.8751 21.4919 12.5378 20.5476 12.5377 19.5733V19.5202C13.126 19.8477 13.7846 20.0289 14.4577 20.0482C13.5634 19.4517 12.93 18.5368 12.6866 17.4898C12.4431 16.4428 12.6078 15.3423 13.1471 14.4125C14.2067 15.7163 15.5287 16.7826 17.0273 17.5423C18.5258 18.3019 20.1674 18.7378 21.8454 18.8216C21.636 17.917 21.7305 16.9686 22.1142 16.123C22.4979 15.2775 23.1495 14.5819 23.9682 14.1438C24.7869 13.7057 25.7271 13.5496 26.6434 13.6995C27.5598 13.8493 28.4012 14.2969 29.0377 14.973C29.9832 14.7852 30.8896 14.4373 31.718 13.9445C31.4027 14.9216 30.7433 15.7511 29.8623 16.2785C30.6987 16.1818 31.5159 15.9599 32.2863 15.6202C31.72 16.4685 31.0068 17.209 30.1803 17.8067V17.8042Z" fill="#C8CDD2"/>
</svg>
