<svg width="44" height="44" viewBox="0 0 44 44" fill="none" xmlns="http://www.w3.org/2000/svg">
<path fill-rule="evenodd" clip-rule="evenodd" d="M16.2087 11.7419C16.453 11.7214 17.7096 11.7171 22.003 11.7171H25.351C26.3636 11.6651 27.3788 11.6969 28.3862 11.8122C29.3264 11.9317 30.2037 12.3489 30.8899 13.0028C31.2545 13.3454 31.5529 13.7522 31.7702 14.2028C32.0676 14.8194 32.2359 15.4903 32.2647 16.1742C32.2793 16.3517 32.2853 19.1691 32.2853 21.9934C32.2853 24.8177 32.2793 27.6402 32.2656 27.8177C32.235 28.4929 32.0701 29.1552 31.7804 29.7659C31.5079 30.3304 31.1154 30.8285 30.6304 31.2255C30.1454 31.6226 29.5796 31.909 28.9724 32.0648C28.4658 32.1894 27.9469 32.2573 27.4253 32.2671C27.1776 32.2825 24.5796 32.2825 21.9816 32.2825C19.3836 32.2825 16.7899 32.2748 16.5327 32.2637C16.0295 32.2493 15.5291 32.183 15.0396 32.0657C14.4336 31.9088 13.8689 31.6226 13.3841 31.2266C12.8994 30.8307 12.5062 30.3344 12.2316 29.7719C11.9368 29.1491 11.7695 28.4736 11.7396 27.7851C11.7173 27.5417 11.7173 26.2885 11.7173 21.9968V18.6539C11.6647 17.6411 11.6954 16.6257 11.809 15.6179C11.9281 14.6774 12.3467 13.8001 13.003 13.1159C13.3412 12.7594 13.7407 12.4665 14.1824 12.2511C14.8156 11.9437 15.5055 11.7704 16.2087 11.7419ZM18.8684 14.453C19.6784 14.4162 19.9373 14.4067 21.9996 14.4067C24.0627 14.4067 24.3207 14.4162 25.1307 14.453C25.7611 14.4659 26.3847 14.5853 26.9753 14.8062C27.4797 15.0015 27.9378 15.3 28.3202 15.6826C28.7027 16.0651 29.001 16.5234 29.1961 17.0279C29.4162 17.6181 29.5356 18.241 29.5493 18.8707C29.5861 19.6807 29.5956 19.9396 29.5956 22.0019C29.5956 24.0642 29.5853 24.3222 29.5493 25.1322C29.5355 25.7619 29.4161 26.3848 29.1961 26.975C29.0007 27.4794 28.7022 27.9374 28.3198 28.3199C27.9375 28.7025 27.4795 29.0011 26.9753 29.1967C26.385 29.4177 25.7617 29.5371 25.1316 29.5499C24.3207 29.5867 24.0627 29.5962 22.0004 29.5962C19.9381 29.5962 19.6793 29.5867 18.8693 29.5499C18.2392 29.5372 17.6158 29.4178 17.0256 29.1967C16.5211 29.0014 16.0631 28.7028 15.6806 28.3203C15.2982 27.9377 14.9999 27.4795 14.8047 26.975C14.5838 26.3851 14.4644 25.762 14.4516 25.1322C14.4147 24.3222 14.4053 24.065 14.4053 22.0019C14.4053 19.9387 14.4147 19.6799 14.4507 18.8699C14.4629 18.24 14.5823 17.6168 14.8038 17.027C14.9991 16.5226 15.2976 16.0644 15.6802 15.682C16.0628 15.2996 16.521 15.0013 17.0256 14.8062C17.6155 14.5851 18.2386 14.4657 18.8684 14.453ZM21.9953 15.7782H21.3138V15.7756C19.8987 15.7773 19.627 15.7867 18.9267 15.8185C18.4452 15.824 17.9682 15.9125 17.5167 16.0799C17.1891 16.2064 16.8916 16.4 16.6434 16.6483C16.3951 16.8965 16.2015 17.194 16.075 17.5216C15.9077 17.9732 15.8193 18.4501 15.8136 18.9316C15.7767 19.7322 15.7698 19.9705 15.7698 21.9993C15.7698 24.0282 15.7776 24.2682 15.8136 25.0687C15.8192 25.5502 15.9077 26.0272 16.075 26.4787C16.2015 26.8062 16.3951 27.1035 16.6434 27.3517C16.8917 27.5998 17.1892 27.7933 17.5167 27.9196C17.968 28.0869 18.4446 28.1756 18.9258 28.1819C19.7273 28.2187 19.9673 28.2265 21.9953 28.2265C24.0233 28.2265 24.2641 28.2179 25.0647 28.1819C25.5462 28.1764 26.0232 28.088 26.4747 27.9205C26.8019 27.794 27.0991 27.6006 27.3472 27.3526C27.5954 27.1047 27.7889 26.8076 27.9156 26.4805C28.0829 26.0289 28.1713 25.552 28.177 25.0705C28.2138 24.2699 28.2216 24.0299 28.2216 22.0027C28.2216 19.9756 28.213 19.7356 28.177 18.935C28.1713 18.4535 28.0829 17.9766 27.9156 17.525C27.7892 17.1975 27.5958 16.9001 27.3476 16.6518C27.0995 16.4035 26.8021 16.2098 26.4747 16.0833C26.0232 15.916 25.5462 15.8275 25.0647 15.8219C24.2633 15.785 24.0233 15.7782 21.9953 15.7782ZM25.5425 17.1926C25.6923 17.0925 25.8685 17.039 26.0487 17.039C26.2904 17.039 26.5221 17.135 26.693 17.3059C26.8638 17.4768 26.9598 17.7085 26.9598 17.9502C26.9598 18.1304 26.9064 18.3065 26.8063 18.4564C26.7062 18.6062 26.5639 18.723 26.3974 18.792C26.2309 18.8609 26.0477 18.879 25.8709 18.8438C25.6942 18.8086 25.5319 18.7219 25.4044 18.5944C25.277 18.467 25.1902 18.3047 25.1551 18.1279C25.1199 17.9512 25.138 17.768 25.2069 17.6015C25.2759 17.435 25.3927 17.2927 25.5425 17.1926ZM19.832 18.7583C20.4733 18.3298 21.2274 18.101 21.9987 18.101C23.033 18.101 24.025 18.5119 24.7564 19.2433C25.4878 19.9747 25.8987 20.9667 25.8987 22.001C25.8987 22.7724 25.67 23.5264 25.2414 24.1677C24.8129 24.8091 24.2038 25.309 23.4912 25.6042C22.7785 25.8993 21.9944 25.9766 21.2378 25.8261C20.4813 25.6756 19.7864 25.3042 19.241 24.7587C18.6956 24.2133 18.3241 23.5184 18.1736 22.7619C18.0232 22.0054 18.1004 21.2212 18.3956 20.5086C18.6908 19.7959 19.1906 19.1868 19.832 18.7583ZM23.4049 19.899C22.9887 19.6209 22.4993 19.4725 21.9987 19.4725C21.3274 19.4725 20.6836 19.7391 20.2089 20.2138C19.7342 20.6885 19.4676 21.3323 19.4676 22.0036C19.4676 22.5042 19.616 22.9936 19.8941 23.4098C20.1723 23.8261 20.5676 24.1505 21.0301 24.3421C21.4926 24.5336 22.0015 24.5838 22.4925 24.4861C22.9835 24.3884 23.4345 24.1474 23.7885 23.7934C24.1425 23.4394 24.3835 22.9884 24.4812 22.4974C24.5789 22.0064 24.5287 21.4975 24.3372 21.035C24.1456 20.5725 23.8212 20.1772 23.4049 19.899Z" fill="#C8CDD2"/>
</svg>
