<svg width="44" height="44" viewBox="0 0 44 44" fill="none" xmlns="http://www.w3.org/2000/svg">
<mask id="mask0_198_12484" style="mask-type:alpha" maskUnits="userSpaceOnUse" x="0" y="0" width="44" height="44">
<rect width="44" height="44" fill="#C4C4C4"/>
</mask>
<g mask="url(#mask0_198_12484)">
<path d="M22.001 33.1431C19.423 33.1433 16.9247 32.2495 14.9318 30.6142C12.939 28.9789 11.5747 26.7031 11.0717 24.1747C10.5686 21.6463 10.9578 19.0217 12.1729 16.7481C13.388 14.4745 15.3539 12.6925 17.7356 11.7059C20.1173 10.7192 22.7674 10.5888 25.2344 11.3371C27.7014 12.0853 29.8326 13.6658 31.265 15.8092C32.6973 17.9527 33.3421 20.5264 33.0896 23.092C32.837 25.6576 31.7027 28.0562 29.8798 29.8792C28.8476 30.9171 27.6197 31.7401 26.2673 32.3003C24.9149 32.8606 23.4648 33.147 22.001 33.1431ZM24.0324 20.0709C24.0745 20.0685 24.1159 20.0822 24.1481 20.1094C24.1714 20.1358 24.1882 20.1674 24.1971 20.2014C24.206 20.2355 24.2068 20.2712 24.1995 20.3057C23.392 21.1986 22.5334 22.0441 21.6281 22.8377L21.623 22.8429C21.3598 23.088 21.1695 23.2645 21.131 23.3048C21.0452 23.3948 20.9595 23.4763 20.8738 23.562C20.5635 23.8612 20.297 24.1183 20.3236 24.4046C20.3433 24.6215 20.525 24.8332 20.8944 25.0792C21.3495 25.3792 21.719 25.6312 22.0764 25.8737C22.4647 26.1386 22.8667 26.412 23.3776 26.7471C23.507 26.8328 23.6347 26.9186 23.7512 27.0043C24.109 27.3274 24.5582 27.5314 25.037 27.588C25.073 27.588 25.1099 27.5879 25.145 27.5828C25.4021 27.5597 25.7381 27.3429 25.907 26.4403C26.2498 24.6009 26.999 20.2191 27.1696 18.4294C27.1798 18.2832 27.1737 18.1363 27.1515 17.9914C27.1385 17.8742 27.0819 17.7662 26.9929 17.6888C26.8666 17.6032 26.7171 17.558 26.5644 17.5594H26.5575C26.147 17.5671 25.5521 17.7668 22.4004 19.0774C21.3178 19.5274 19.1321 20.4694 15.9024 21.8768C15.377 22.0851 15.0984 22.2925 15.0736 22.4923C15.0307 22.8351 15.4516 22.9637 16.0336 23.1463L16.2778 23.2243C16.8389 23.4227 17.4197 23.5603 18.0101 23.6348H18.0375C18.467 23.6072 18.8784 23.4517 19.2187 23.1883C22.2393 21.1491 23.8207 20.1026 23.9184 20.0811C23.9559 20.0736 23.9941 20.0702 24.0324 20.0709Z" fill="#C8CDD2"/>
</g>
</svg>
