<svg width="44" height="44" viewBox="0 0 44 44" fill="none" xmlns="http://www.w3.org/2000/svg">
<path d="M29.14 15.3713C27.791 14.7401 26.3639 14.2916 24.8963 14.0376C24.6963 14.4045 24.5149 14.7813 24.3529 15.1665C22.7942 14.9285 21.2084 14.9285 19.6497 15.1665C19.4857 14.7809 19.3018 14.4041 19.0986 14.0376C17.6295 14.2917 16.2011 14.7414 14.8514 15.3747C12.45 18.8586 11.3682 23.084 11.8 27.2933C13.3677 28.477 15.129 29.3796 17.0054 29.9607C17.4271 29.3807 17.7998 28.7666 18.1197 28.1247C17.5102 27.8918 16.9228 27.605 16.3643 27.2676C16.5117 27.1587 16.6557 27.0447 16.7929 26.9247C18.4163 27.706 20.1949 28.1117 21.9966 28.1117C23.7983 28.1117 25.5768 27.706 27.2003 26.9247C27.3409 27.0422 27.4849 27.1562 27.6289 27.2676C27.0694 27.6053 26.4807 27.8922 25.87 28.1247C26.1897 28.7667 26.5624 29.3808 26.9843 29.9607C28.8646 29.3814 30.6296 28.4787 32.2 27.2933C32.6318 23.0817 31.5468 18.8543 29.14 15.3713ZM18.5826 24.8933C18.06 24.8554 17.5732 24.6137 17.2272 24.2202C16.8811 23.8268 16.7036 23.313 16.7329 22.7899C16.7 22.2656 16.8761 21.7496 17.2228 21.3549C17.5695 20.9602 18.0584 20.7189 18.5826 20.6839C18.8427 20.6993 19.0972 20.7662 19.3313 20.8807C19.5655 20.9951 19.7746 21.1548 19.9466 21.3506C20.1186 21.5463 20.2501 21.7743 20.3335 22.0212C20.4168 22.2681 20.4504 22.5291 20.4323 22.789C20.4654 23.3132 20.2893 23.8291 19.9425 24.2236C19.5958 24.6181 19.1067 24.8589 18.5826 24.8933ZM25.4174 24.8933C24.8948 24.8554 24.408 24.6137 24.062 24.2202C23.716 23.8268 23.5385 23.313 23.5677 22.7899C23.5351 22.2657 23.7113 21.75 24.058 21.3554C24.4046 20.9609 24.8934 20.7198 25.4174 20.6847C25.6776 20.7002 25.9321 20.7671 26.1662 20.8815C26.4003 20.9959 26.6094 21.1557 26.7815 21.3514C26.9535 21.5472 27.085 21.7751 27.1683 22.022C27.2517 22.2689 27.2853 22.5299 27.2672 22.7899C27.2996 23.3138 27.1232 23.8293 26.7765 24.2235C26.4299 24.6177 25.9412 24.8585 25.4174 24.8933Z" fill="#C8CDD2"/>
</svg>
